<?xml version="1.0" encoding="utf-8"?>
<!-- Generator: Adobe Illustrator 23.0.4, SVG Export Plug-In . SVG Version: 6.00 Build 0)  -->
<svg version="1.1" id="background" xmlns="http://www.w3.org/2000/svg" xmlns:xlink="http://www.w3.org/1999/xlink" x="0px" y="0px"
	 viewBox="0 0 5760 1080" style="enable-background:new 0 0 5760 1080;" xml:space="preserve">
<style type="text/css">
	.st0{fill:#CDD9EE;}
	.st1{fill:none;stroke:#DEE0EA;stroke-width:5;stroke-linecap:round;stroke-linejoin:round;}
	.st2{fill:#B5C8E6;}
	.st3{fill:#FCEDF0;}
	.st4{fill:#FDF6F8;}
	.st5{fill:#FEB8A7;stroke:#838EB1;stroke-width:5;stroke-linecap:round;stroke-linejoin:round;}
	.st6{fill:#ECF1F8;stroke:#838EB1;stroke-width:5;stroke-linecap:round;stroke-linejoin:round;}
	.st7{fill:#92DBAC;}
	.st8{fill:#E1526E;}
	.st9{fill:#F88645;}
	.st10{fill:#EFA7BB;}
	.st11{fill:#F9BC95;}
	.st12{fill:#4B7CC4;}
	.st13{fill:#ECF1F8;}
	.st14{fill:#838EB1;}
	.st15{fill:none;stroke:#838EB1;stroke-width:5;stroke-linecap:round;stroke-linejoin:round;}
	.st16{fill:#ECF1F8;stroke:#002F69;stroke-width:5;stroke-linecap:round;stroke-linejoin:round;}
	.st17{fill:none;stroke:#002F69;stroke-width:5;stroke-linecap:round;stroke-linejoin:round;}
	.st18{fill:#F9BC95;stroke:#002F69;stroke-width:5;stroke-linecap:round;stroke-linejoin:round;}
	.st19{fill:#838EB1;stroke:#838EB1;stroke-width:5;stroke-linecap:round;stroke-linejoin:round;}
	.st20{fill:#FFFFFF;stroke:#838EB1;stroke-width:5;stroke-linecap:round;stroke-linejoin:round;}
	.st21{opacity:0.3;fill:#5C6C98;enable-background:new    ;}
	.st22{fill:#FFFFFF;}
	.st23{font-family:'CharlevoixPro-Bold';}
	.st24{font-size:19.9989px;}
	.st25{letter-spacing:-1;}
</style>
<title>background</title>
<rect y="-8.6" class="st0" width="5767.4" height="1093.2"/>
<line class="st1" x1="0" y1="68.6" x2="5760.3" y2="68.6"/>
<line class="st1" x1="0" y1="142.2" x2="5760.3" y2="142.2"/>
<line class="st1" x1="0" y1="215.7" x2="5760.3" y2="215.7"/>
<line class="st1" x1="0" y1="289.3" x2="5760.3" y2="289.3"/>
<line class="st1" x1="0" y1="362.9" x2="5760.3" y2="362.9"/>
<line class="st1" x1="0" y1="436.4" x2="5760.3" y2="436.4"/>
<line class="st1" x1="0" y1="510" x2="5760.3" y2="510"/>
<line class="st1" x1="0" y1="583.5" x2="5760.3" y2="583.5"/>
<line class="st1" x1="0" y1="657.1" x2="5760.3" y2="657.1"/>
<line class="st1" x1="0" y1="730.7" x2="5760.3" y2="730.7"/>
<line class="st1" x1="0" y1="804.2" x2="5760.3" y2="804.2"/>
<line class="st1" x1="0" y1="877.8" x2="5760.3" y2="877.8"/>
<line class="st1" x1="0" y1="951.3" x2="5760.3" y2="951.3"/>
<line class="st1" x1="0" y1="1024.9" x2="5760.3" y2="1024.9"/>
<line class="st1" x1="2032.1" y1="69" x2="2032.1" y2="143"/>
<line class="st1" x1="2219.1" y1="69" x2="2219.1" y2="143"/>
<line class="st1" x1="2406.1" y1="69" x2="2406.1" y2="143"/>
<line class="st1" x1="2593.1" y1="69" x2="2593.1" y2="143"/>
<line class="st1" x1="2780.1" y1="69" x2="2780.1" y2="143"/>
<line class="st1" x1="2967.1" y1="69" x2="2967.1" y2="143"/>
<line class="st1" x1="3154.1" y1="69" x2="3154.1" y2="143"/>
<line class="st1" x1="3341.1" y1="69" x2="3341.1" y2="143"/>
<line class="st1" x1="3528.1" y1="69" x2="3528.1" y2="143"/>
<line class="st1" x1="3715.1" y1="69" x2="3715.1" y2="143"/>
<line class="st1" x1="3902.1" y1="69" x2="3902.1" y2="143"/>
<line class="st1" x1="4089.1" y1="69" x2="4089.1" y2="143"/>
<line class="st1" x1="4276.1" y1="69" x2="4276.1" y2="143"/>
<line class="st1" x1="4463.1" y1="69" x2="4463.1" y2="143"/>
<line class="st1" x1="4650.1" y1="69" x2="4650.1" y2="143"/>
<line class="st1" x1="4837.1" y1="69" x2="4837.1" y2="143"/>
<line class="st1" x1="5024.1" y1="69" x2="5024.1" y2="143"/>
<line class="st1" x1="5211.1" y1="69" x2="5211.1" y2="143"/>
<line class="st1" x1="5398.1" y1="69" x2="5398.1" y2="143"/>
<line class="st1" x1="5585.1" y1="69" x2="5585.1" y2="143"/>
<line class="st1" x1="2032.1" y1="215" x2="2032.1" y2="289"/>
<line class="st1" x1="2219.1" y1="215" x2="2219.1" y2="289"/>
<line class="st1" x1="2406.1" y1="215" x2="2406.1" y2="289"/>
<line class="st1" x1="2593.1" y1="215" x2="2593.1" y2="289"/>
<line class="st1" x1="2780.1" y1="215" x2="2780.1" y2="289"/>
<line class="st1" x1="2967.1" y1="215" x2="2967.1" y2="289"/>
<line class="st1" x1="3154.1" y1="215" x2="3154.1" y2="289"/>
<line class="st1" x1="3341.1" y1="215" x2="3341.1" y2="289"/>
<line class="st1" x1="3528.1" y1="215" x2="3528.1" y2="289"/>
<line class="st1" x1="3715.1" y1="215" x2="3715.1" y2="289"/>
<line class="st1" x1="3902.1" y1="215" x2="3902.1" y2="289"/>
<line class="st1" x1="4089.1" y1="215" x2="4089.1" y2="289"/>
<line class="st1" x1="4276.1" y1="215" x2="4276.1" y2="289"/>
<line class="st1" x1="4463.1" y1="215" x2="4463.1" y2="289"/>
<line class="st1" x1="4650.1" y1="215" x2="4650.1" y2="289"/>
<line class="st1" x1="4837.1" y1="215" x2="4837.1" y2="289"/>
<line class="st1" x1="5024.1" y1="215" x2="5024.1" y2="289"/>
<line class="st1" x1="5211.1" y1="215" x2="5211.1" y2="289"/>
<line class="st1" x1="5398.1" y1="215" x2="5398.1" y2="289"/>
<line class="st1" x1="5585.1" y1="215" x2="5585.1" y2="289"/>
<line class="st1" x1="2032.1" y1="361.7" x2="2032.1" y2="435.7"/>
<line class="st1" x1="2219.1" y1="361.7" x2="2219.1" y2="435.7"/>
<line class="st1" x1="2406.1" y1="361.7" x2="2406.1" y2="435.7"/>
<line class="st1" x1="2593.1" y1="361.7" x2="2593.1" y2="435.7"/>
<line class="st1" x1="2780.1" y1="361.7" x2="2780.1" y2="435.7"/>
<line class="st1" x1="2967.1" y1="361.7" x2="2967.1" y2="435.7"/>
<line class="st1" x1="3154.1" y1="361.7" x2="3154.1" y2="435.7"/>
<line class="st1" x1="3341.1" y1="361.7" x2="3341.1" y2="435.7"/>
<line class="st1" x1="3528.1" y1="361.7" x2="3528.1" y2="435.7"/>
<line class="st1" x1="3715.1" y1="361.7" x2="3715.1" y2="435.7"/>
<line class="st1" x1="3902.1" y1="361.7" x2="3902.1" y2="435.7"/>
<line class="st1" x1="4089.1" y1="361.7" x2="4089.1" y2="435.7"/>
<line class="st1" x1="4276.1" y1="361.7" x2="4276.1" y2="435.7"/>
<line class="st1" x1="4463.1" y1="361.7" x2="4463.1" y2="435.7"/>
<line class="st1" x1="4650.1" y1="361.7" x2="4650.1" y2="435.7"/>
<line class="st1" x1="4837.1" y1="361.7" x2="4837.1" y2="435.7"/>
<line class="st1" x1="5024.1" y1="361.7" x2="5024.1" y2="435.7"/>
<line class="st1" x1="5211.1" y1="361.7" x2="5211.1" y2="435.7"/>
<line class="st1" x1="5398.1" y1="361.7" x2="5398.1" y2="435.7"/>
<line class="st1" x1="5585.1" y1="361.7" x2="5585.1" y2="435.7"/>
<line class="st1" x1="2032.1" y1="513" x2="2032.1" y2="587"/>
<line class="st1" x1="2219.1" y1="513" x2="2219.1" y2="587"/>
<line class="st1" x1="2406.1" y1="513" x2="2406.1" y2="587"/>
<line class="st1" x1="2593.1" y1="513" x2="2593.1" y2="587"/>
<line class="st1" x1="2780.1" y1="513" x2="2780.1" y2="587"/>
<line class="st1" x1="2967.1" y1="513" x2="2967.1" y2="587"/>
<line class="st1" x1="3154.1" y1="513" x2="3154.1" y2="587"/>
<line class="st1" x1="3341.1" y1="513" x2="3341.1" y2="587"/>
<line class="st1" x1="3528.1" y1="513" x2="3528.1" y2="587"/>
<line class="st1" x1="3715.1" y1="513" x2="3715.1" y2="587"/>
<line class="st1" x1="3902.1" y1="513" x2="3902.1" y2="587"/>
<line class="st1" x1="4089.1" y1="513" x2="4089.1" y2="587"/>
<line class="st1" x1="4276.1" y1="513" x2="4276.1" y2="587"/>
<line class="st1" x1="4463.1" y1="513" x2="4463.1" y2="587"/>
<line class="st1" x1="4650.1" y1="513" x2="4650.1" y2="587"/>
<line class="st1" x1="4837.1" y1="513" x2="4837.1" y2="587"/>
<line class="st1" x1="5024.1" y1="513" x2="5024.1" y2="587"/>
<line class="st1" x1="5211.1" y1="513" x2="5211.1" y2="587"/>
<line class="st1" x1="5398.1" y1="513" x2="5398.1" y2="587"/>
<line class="st1" x1="5585.1" y1="513" x2="5585.1" y2="587"/>
<line class="st1" x1="2032.1" y1="656.3" x2="2032.1" y2="730.3"/>
<line class="st1" x1="2219.1" y1="656.3" x2="2219.1" y2="730.3"/>
<line class="st1" x1="2406.1" y1="656.3" x2="2406.1" y2="730.3"/>
<line class="st1" x1="2593.1" y1="656.3" x2="2593.1" y2="730.3"/>
<line class="st1" x1="2780.1" y1="656.3" x2="2780.1" y2="730.3"/>
<line class="st1" x1="2967.1" y1="656.3" x2="2967.1" y2="730.3"/>
<line class="st1" x1="3154.1" y1="656.3" x2="3154.1" y2="730.3"/>
<line class="st1" x1="3341.1" y1="656.3" x2="3341.1" y2="730.3"/>
<line class="st1" x1="3528.1" y1="656.3" x2="3528.1" y2="730.3"/>
<line class="st1" x1="3715.1" y1="656.3" x2="3715.1" y2="730.3"/>
<line class="st1" x1="3902.1" y1="656.3" x2="3902.1" y2="730.3"/>
<line class="st1" x1="4089.1" y1="656.3" x2="4089.1" y2="730.3"/>
<line class="st1" x1="4276.1" y1="656.3" x2="4276.1" y2="730.3"/>
<line class="st1" x1="4463.1" y1="656.3" x2="4463.1" y2="730.3"/>
<line class="st1" x1="4650.1" y1="656.3" x2="4650.1" y2="730.3"/>
<line class="st1" x1="4837.1" y1="656.3" x2="4837.1" y2="730.3"/>
<line class="st1" x1="5024.1" y1="656.3" x2="5024.1" y2="730.3"/>
<line class="st1" x1="5211.1" y1="656.3" x2="5211.1" y2="730.3"/>
<line class="st1" x1="5398.1" y1="656.3" x2="5398.1" y2="730.3"/>
<line class="st1" x1="5585.1" y1="656.3" x2="5585.1" y2="730.3"/>
<line class="st1" x1="2032.1" y1="804.3" x2="2032.1" y2="878.3"/>
<line class="st1" x1="2219.1" y1="804.3" x2="2219.1" y2="878.3"/>
<line class="st1" x1="2406.1" y1="804.3" x2="2406.1" y2="878.3"/>
<line class="st1" x1="2593.1" y1="804.3" x2="2593.1" y2="878.3"/>
<line class="st1" x1="2780.1" y1="804.3" x2="2780.1" y2="878.3"/>
<line class="st1" x1="2967.1" y1="804.3" x2="2967.1" y2="878.3"/>
<line class="st1" x1="3154.1" y1="804.3" x2="3154.1" y2="878.3"/>
<line class="st1" x1="3341.1" y1="804.3" x2="3341.1" y2="878.3"/>
<line class="st1" x1="3528.1" y1="804.3" x2="3528.1" y2="878.3"/>
<line class="st1" x1="3715.1" y1="804.3" x2="3715.1" y2="878.3"/>
<line class="st1" x1="3902.1" y1="804.3" x2="3902.1" y2="878.3"/>
<line class="st1" x1="4089.1" y1="804.3" x2="4089.1" y2="878.3"/>
<line class="st1" x1="4276.1" y1="804.3" x2="4276.1" y2="878.3"/>
<line class="st1" x1="4463.1" y1="804.3" x2="4463.1" y2="878.3"/>
<line class="st1" x1="4650.1" y1="804.3" x2="4650.1" y2="878.3"/>
<line class="st1" x1="4837.1" y1="804.3" x2="4837.1" y2="878.3"/>
<line class="st1" x1="5024.1" y1="804.3" x2="5024.1" y2="878.3"/>
<line class="st1" x1="5211.1" y1="804.3" x2="5211.1" y2="878.3"/>
<line class="st1" x1="5398.1" y1="804.3" x2="5398.1" y2="878.3"/>
<line class="st1" x1="5585.1" y1="804.3" x2="5585.1" y2="878.3"/>
<line class="st1" x1="2032.1" y1="951.7" x2="2032.1" y2="1025.7"/>
<line class="st1" x1="2219.1" y1="951.7" x2="2219.1" y2="1025.7"/>
<line class="st1" x1="2406.1" y1="951.7" x2="2406.1" y2="1025.7"/>
<line class="st1" x1="2593.1" y1="951.7" x2="2593.1" y2="1025.7"/>
<line class="st1" x1="2780.1" y1="951.7" x2="2780.1" y2="1025.7"/>
<line class="st1" x1="2967.1" y1="951.7" x2="2967.1" y2="1025.7"/>
<line class="st1" x1="3154.1" y1="951.7" x2="3154.1" y2="1025.7"/>
<line class="st1" x1="3341.1" y1="951.7" x2="3341.1" y2="1025.7"/>
<line class="st1" x1="3528.1" y1="951.7" x2="3528.1" y2="1025.7"/>
<line class="st1" x1="3715.1" y1="951.7" x2="3715.1" y2="1025.7"/>
<line class="st1" x1="3902.1" y1="951.7" x2="3902.1" y2="1025.7"/>
<line class="st1" x1="4089.1" y1="951.7" x2="4089.1" y2="1025.7"/>
<line class="st1" x1="4276.1" y1="951.7" x2="4276.1" y2="1025.7"/>
<line class="st1" x1="4463.1" y1="951.7" x2="4463.1" y2="1025.7"/>
<line class="st1" x1="4650.1" y1="951.7" x2="4650.1" y2="1025.7"/>
<line class="st1" x1="4837.1" y1="951.7" x2="4837.1" y2="1025.7"/>
<line class="st1" x1="5024.1" y1="951.7" x2="5024.1" y2="1025.7"/>
<line class="st1" x1="5211.1" y1="951.7" x2="5211.1" y2="1025.7"/>
<line class="st1" x1="5398.1" y1="951.7" x2="5398.1" y2="1025.7"/>
<line class="st1" x1="5585.1" y1="951.7" x2="5585.1" y2="1025.7"/>
<line class="st1" x1="1940.6" y1="-3.7" x2="1940.6" y2="70.3"/>
<line class="st1" x1="2127.6" y1="-3.7" x2="2127.6" y2="70.3"/>
<line class="st1" x1="2314.6" y1="-3.7" x2="2314.6" y2="70.3"/>
<line class="st1" x1="2501.6" y1="-3.7" x2="2501.6" y2="70.3"/>
<line class="st1" x1="2688.6" y1="-3.7" x2="2688.6" y2="70.3"/>
<line class="st1" x1="2875.6" y1="-3.7" x2="2875.6" y2="70.3"/>
<line class="st1" x1="3062.6" y1="-3.7" x2="3062.6" y2="70.3"/>
<line class="st1" x1="3249.6" y1="-3.7" x2="3249.6" y2="70.3"/>
<line class="st1" x1="3436.6" y1="-3.7" x2="3436.6" y2="70.3"/>
<line class="st1" x1="3623.6" y1="-3.7" x2="3623.6" y2="70.3"/>
<line class="st1" x1="3810.6" y1="-3.7" x2="3810.6" y2="70.3"/>
<line class="st1" x1="3997.6" y1="-3.7" x2="3997.6" y2="70.3"/>
<line class="st1" x1="4184.6" y1="-3.7" x2="4184.6" y2="70.3"/>
<line class="st1" x1="4371.6" y1="-3.7" x2="4371.6" y2="70.3"/>
<line class="st1" x1="4558.6" y1="-3.7" x2="4558.6" y2="70.3"/>
<line class="st1" x1="4745.6" y1="-3.7" x2="4745.6" y2="70.3"/>
<line class="st1" x1="4932.6" y1="-3.7" x2="4932.6" y2="70.3"/>
<line class="st1" x1="5119.6" y1="-3.7" x2="5119.6" y2="70.3"/>
<line class="st1" x1="5306.6" y1="-3.7" x2="5306.6" y2="70.3"/>
<line class="st1" x1="5493.6" y1="-3.7" x2="5493.6" y2="70.3"/>
<line class="st1" x1="5680.6" y1="-3.7" x2="5680.6" y2="70.3"/>
<line class="st1" x1="1940.6" y1="142.3" x2="1940.6" y2="216.3"/>
<line class="st1" x1="2127.6" y1="142.3" x2="2127.6" y2="216.3"/>
<line class="st1" x1="2314.6" y1="142.3" x2="2314.6" y2="216.3"/>
<line class="st1" x1="2501.6" y1="142.3" x2="2501.6" y2="216.3"/>
<line class="st1" x1="2688.6" y1="142.3" x2="2688.6" y2="216.3"/>
<line class="st1" x1="2875.6" y1="142.3" x2="2875.6" y2="216.3"/>
<line class="st1" x1="3062.6" y1="142.3" x2="3062.6" y2="216.3"/>
<line class="st1" x1="3249.6" y1="142.3" x2="3249.6" y2="216.3"/>
<line class="st1" x1="3436.6" y1="142.3" x2="3436.6" y2="216.3"/>
<line class="st1" x1="3623.6" y1="142.3" x2="3623.6" y2="216.3"/>
<line class="st1" x1="3810.6" y1="142.3" x2="3810.6" y2="216.3"/>
<line class="st1" x1="3997.6" y1="142.3" x2="3997.6" y2="216.3"/>
<line class="st1" x1="4184.6" y1="142.3" x2="4184.6" y2="216.3"/>
<line class="st1" x1="4371.6" y1="142.3" x2="4371.6" y2="216.3"/>
<line class="st1" x1="4558.6" y1="142.3" x2="4558.6" y2="216.3"/>
<line class="st1" x1="4745.6" y1="142.3" x2="4745.6" y2="216.3"/>
<line class="st1" x1="4932.6" y1="142.3" x2="4932.6" y2="216.3"/>
<line class="st1" x1="5119.6" y1="142.3" x2="5119.6" y2="216.3"/>
<line class="st1" x1="5306.6" y1="142.3" x2="5306.6" y2="216.3"/>
<line class="st1" x1="5493.6" y1="142.3" x2="5493.6" y2="216.3"/>
<line class="st1" x1="5680.6" y1="142.3" x2="5680.6" y2="216.3"/>
<line class="st1" x1="1940.6" y1="288.9" x2="1940.6" y2="362.9"/>
<line class="st1" x1="2127.6" y1="288.9" x2="2127.6" y2="362.9"/>
<line class="st1" x1="2314.6" y1="288.9" x2="2314.6" y2="362.9"/>
<line class="st1" x1="2501.6" y1="288.9" x2="2501.6" y2="362.9"/>
<line class="st1" x1="2688.6" y1="288.9" x2="2688.6" y2="362.9"/>
<line class="st1" x1="2875.6" y1="288.9" x2="2875.6" y2="362.9"/>
<line class="st1" x1="3062.6" y1="288.9" x2="3062.6" y2="362.9"/>
<line class="st1" x1="3249.6" y1="288.9" x2="3249.6" y2="362.9"/>
<line class="st1" x1="3436.6" y1="288.9" x2="3436.6" y2="362.9"/>
<line class="st1" x1="3623.6" y1="288.9" x2="3623.6" y2="362.9"/>
<line class="st1" x1="3810.6" y1="288.9" x2="3810.6" y2="362.9"/>
<line class="st1" x1="3997.6" y1="288.9" x2="3997.6" y2="362.9"/>
<line class="st1" x1="4184.6" y1="288.9" x2="4184.6" y2="362.9"/>
<line class="st1" x1="4371.6" y1="288.9" x2="4371.6" y2="362.9"/>
<line class="st1" x1="4558.6" y1="288.9" x2="4558.6" y2="362.9"/>
<line class="st1" x1="4745.6" y1="288.9" x2="4745.6" y2="362.9"/>
<line class="st1" x1="4932.6" y1="288.9" x2="4932.6" y2="362.9"/>
<line class="st1" x1="5119.6" y1="288.9" x2="5119.6" y2="362.9"/>
<line class="st1" x1="5306.6" y1="288.9" x2="5306.6" y2="362.9"/>
<line class="st1" x1="5493.6" y1="288.9" x2="5493.6" y2="362.9"/>
<line class="st1" x1="5680.6" y1="288.9" x2="5680.6" y2="362.9"/>
<line class="st1" x1="1940.6" y1="440.3" x2="1940.6" y2="514.3"/>
<line class="st1" x1="2127.6" y1="440.3" x2="2127.6" y2="514.3"/>
<line class="st1" x1="2314.6" y1="440.3" x2="2314.6" y2="514.3"/>
<line class="st1" x1="2501.6" y1="440.3" x2="2501.6" y2="514.3"/>
<line class="st1" x1="2688.6" y1="440.3" x2="2688.6" y2="514.3"/>
<line class="st1" x1="2875.6" y1="440.3" x2="2875.6" y2="514.3"/>
<line class="st1" x1="3062.6" y1="440.3" x2="3062.6" y2="514.3"/>
<line class="st1" x1="3249.6" y1="440.3" x2="3249.6" y2="514.3"/>
<line class="st1" x1="3436.6" y1="440.3" x2="3436.6" y2="514.3"/>
<line class="st1" x1="3623.6" y1="440.3" x2="3623.6" y2="514.3"/>
<line class="st1" x1="3810.6" y1="440.3" x2="3810.6" y2="514.3"/>
<line class="st1" x1="3997.6" y1="440.3" x2="3997.6" y2="514.3"/>
<line class="st1" x1="4184.6" y1="440.3" x2="4184.6" y2="514.3"/>
<line class="st1" x1="4371.6" y1="440.3" x2="4371.6" y2="514.3"/>
<line class="st1" x1="4558.6" y1="440.3" x2="4558.6" y2="514.3"/>
<line class="st1" x1="4745.6" y1="440.3" x2="4745.6" y2="514.3"/>
<line class="st1" x1="4932.6" y1="440.3" x2="4932.6" y2="514.3"/>
<line class="st1" x1="5119.6" y1="440.3" x2="5119.6" y2="514.3"/>
<line class="st1" x1="5306.6" y1="440.3" x2="5306.6" y2="514.3"/>
<line class="st1" x1="5493.6" y1="440.3" x2="5493.6" y2="514.3"/>
<line class="st1" x1="5680.6" y1="440.3" x2="5680.6" y2="514.3"/>
<line class="st1" x1="1940.6" y1="583.6" x2="1940.6" y2="657.6"/>
<line class="st1" x1="2127.6" y1="583.6" x2="2127.6" y2="657.6"/>
<line class="st1" x1="2314.6" y1="583.6" x2="2314.6" y2="657.6"/>
<line class="st1" x1="2501.6" y1="583.6" x2="2501.6" y2="657.6"/>
<line class="st1" x1="2688.6" y1="583.6" x2="2688.6" y2="657.6"/>
<line class="st1" x1="2875.6" y1="583.6" x2="2875.6" y2="657.6"/>
<line class="st1" x1="3062.6" y1="583.6" x2="3062.6" y2="657.6"/>
<line class="st1" x1="3249.6" y1="583.6" x2="3249.6" y2="657.6"/>
<line class="st1" x1="3436.6" y1="583.6" x2="3436.6" y2="657.6"/>
<line class="st1" x1="3623.6" y1="583.6" x2="3623.6" y2="657.6"/>
<line class="st1" x1="3810.6" y1="583.6" x2="3810.6" y2="657.6"/>
<line class="st1" x1="3997.6" y1="583.6" x2="3997.6" y2="657.6"/>
<line class="st1" x1="4184.6" y1="583.6" x2="4184.6" y2="657.6"/>
<line class="st1" x1="4371.6" y1="583.6" x2="4371.6" y2="657.6"/>
<line class="st1" x1="4558.6" y1="583.6" x2="4558.6" y2="657.6"/>
<line class="st1" x1="4745.6" y1="583.6" x2="4745.6" y2="657.6"/>
<line class="st1" x1="4932.6" y1="583.6" x2="4932.6" y2="657.6"/>
<line class="st1" x1="5119.6" y1="583.6" x2="5119.6" y2="657.6"/>
<line class="st1" x1="5306.6" y1="583.6" x2="5306.6" y2="657.6"/>
<line class="st1" x1="5493.6" y1="583.6" x2="5493.6" y2="657.6"/>
<line class="st1" x1="5680.6" y1="583.6" x2="5680.6" y2="657.6"/>
<line class="st1" x1="1940.6" y1="731.6" x2="1940.6" y2="805.6"/>
<line class="st1" x1="2127.6" y1="731.6" x2="2127.6" y2="805.6"/>
<line class="st1" x1="2314.6" y1="731.6" x2="2314.6" y2="805.6"/>
<line class="st1" x1="2501.6" y1="731.6" x2="2501.6" y2="805.6"/>
<line class="st1" x1="2688.6" y1="731.6" x2="2688.6" y2="805.6"/>
<line class="st1" x1="2875.6" y1="731.6" x2="2875.6" y2="805.6"/>
<line class="st1" x1="3062.6" y1="731.6" x2="3062.6" y2="805.6"/>
<line class="st1" x1="3249.6" y1="731.6" x2="3249.6" y2="805.6"/>
<line class="st1" x1="3436.6" y1="731.6" x2="3436.6" y2="805.6"/>
<line class="st1" x1="3623.6" y1="731.6" x2="3623.6" y2="805.6"/>
<line class="st1" x1="3810.6" y1="731.6" x2="3810.6" y2="805.6"/>
<line class="st1" x1="3997.6" y1="731.6" x2="3997.6" y2="805.6"/>
<line class="st1" x1="4184.6" y1="731.6" x2="4184.6" y2="805.6"/>
<line class="st1" x1="4371.6" y1="731.6" x2="4371.6" y2="805.6"/>
<line class="st1" x1="4558.6" y1="731.6" x2="4558.6" y2="805.6"/>
<line class="st1" x1="4745.6" y1="731.6" x2="4745.6" y2="805.6"/>
<line class="st1" x1="4932.6" y1="731.6" x2="4932.6" y2="805.6"/>
<line class="st1" x1="5119.6" y1="731.6" x2="5119.6" y2="805.6"/>
<line class="st1" x1="5306.6" y1="731.6" x2="5306.6" y2="805.6"/>
<line class="st1" x1="5493.6" y1="731.6" x2="5493.6" y2="805.6"/>
<line class="st1" x1="5680.6" y1="731.6" x2="5680.6" y2="805.6"/>
<line class="st1" x1="1940.6" y1="878.9" x2="1940.6" y2="952.9"/>
<line class="st1" x1="2127.6" y1="878.9" x2="2127.6" y2="952.9"/>
<line class="st1" x1="2314.6" y1="878.9" x2="2314.6" y2="952.9"/>
<line class="st1" x1="2501.6" y1="878.9" x2="2501.6" y2="952.9"/>
<line class="st1" x1="2688.6" y1="878.9" x2="2688.6" y2="952.9"/>
<line class="st1" x1="2875.6" y1="878.9" x2="2875.6" y2="952.9"/>
<line class="st1" x1="3062.6" y1="878.9" x2="3062.6" y2="952.9"/>
<line class="st1" x1="3249.6" y1="878.9" x2="3249.6" y2="952.9"/>
<line class="st1" x1="3436.6" y1="878.9" x2="3436.6" y2="952.9"/>
<line class="st1" x1="3623.6" y1="878.9" x2="3623.6" y2="952.9"/>
<line class="st1" x1="3810.6" y1="878.9" x2="3810.6" y2="952.9"/>
<line class="st1" x1="3997.6" y1="878.9" x2="3997.6" y2="952.9"/>
<line class="st1" x1="4184.6" y1="878.9" x2="4184.6" y2="952.9"/>
<line class="st1" x1="4371.6" y1="878.9" x2="4371.6" y2="952.9"/>
<line class="st1" x1="4558.6" y1="878.9" x2="4558.6" y2="952.9"/>
<line class="st1" x1="4745.6" y1="878.9" x2="4745.6" y2="952.9"/>
<line class="st1" x1="4932.6" y1="878.9" x2="4932.6" y2="952.9"/>
<line class="st1" x1="5119.6" y1="878.9" x2="5119.6" y2="952.9"/>
<line class="st1" x1="5306.6" y1="878.9" x2="5306.6" y2="952.9"/>
<line class="st1" x1="5493.6" y1="878.9" x2="5493.6" y2="952.9"/>
<line class="st1" x1="5680.6" y1="878.9" x2="5680.6" y2="952.9"/>
<line class="st1" x1="155.8" y1="69" x2="155.8" y2="143"/>
<line class="st1" x1="342.8" y1="69" x2="342.8" y2="143"/>
<line class="st1" x1="529.8" y1="69" x2="529.8" y2="143"/>
<line class="st1" x1="716.8" y1="69" x2="716.8" y2="143"/>
<line class="st1" x1="903.8" y1="69" x2="903.8" y2="143"/>
<line class="st1" x1="1090.8" y1="69" x2="1090.8" y2="143"/>
<line class="st1" x1="1277.8" y1="69" x2="1277.8" y2="143"/>
<line class="st1" x1="1464.8" y1="69" x2="1464.8" y2="143"/>
<line class="st1" x1="1651.8" y1="69" x2="1651.8" y2="143"/>
<line class="st1" x1="1838.8" y1="69" x2="1838.8" y2="143"/>
<line class="st1" x1="155.8" y1="215" x2="155.8" y2="289"/>
<line class="st1" x1="342.8" y1="215" x2="342.8" y2="289"/>
<line class="st1" x1="529.8" y1="215" x2="529.8" y2="289"/>
<line class="st1" x1="716.8" y1="215" x2="716.8" y2="289"/>
<line class="st1" x1="903.8" y1="215" x2="903.8" y2="289"/>
<line class="st1" x1="1090.8" y1="215" x2="1090.8" y2="289"/>
<line class="st1" x1="1277.8" y1="215" x2="1277.8" y2="289"/>
<line class="st1" x1="1464.8" y1="215" x2="1464.8" y2="289"/>
<line class="st1" x1="1651.8" y1="215" x2="1651.8" y2="289"/>
<line class="st1" x1="1838.8" y1="215" x2="1838.8" y2="289"/>
<line class="st1" x1="155.8" y1="361.7" x2="155.8" y2="435.7"/>
<line class="st1" x1="342.8" y1="361.7" x2="342.8" y2="435.7"/>
<line class="st1" x1="529.8" y1="361.7" x2="529.8" y2="435.7"/>
<line class="st1" x1="716.8" y1="361.7" x2="716.8" y2="435.7"/>
<line class="st1" x1="903.8" y1="361.7" x2="903.8" y2="435.7"/>
<line class="st1" x1="1090.8" y1="361.7" x2="1090.8" y2="435.7"/>
<line class="st1" x1="1277.8" y1="361.7" x2="1277.8" y2="435.7"/>
<line class="st1" x1="1464.8" y1="361.7" x2="1464.8" y2="435.7"/>
<line class="st1" x1="1651.8" y1="361.7" x2="1651.8" y2="435.7"/>
<line class="st1" x1="1838.8" y1="361.7" x2="1838.8" y2="435.7"/>
<line class="st1" x1="155.8" y1="513" x2="155.8" y2="587"/>
<line class="st1" x1="342.8" y1="513" x2="342.8" y2="587"/>
<line class="st1" x1="529.8" y1="513" x2="529.8" y2="587"/>
<line class="st1" x1="716.8" y1="513" x2="716.8" y2="587"/>
<line class="st1" x1="903.8" y1="513" x2="903.8" y2="587"/>
<line class="st1" x1="1090.8" y1="513" x2="1090.8" y2="587"/>
<line class="st1" x1="1277.8" y1="513" x2="1277.8" y2="587"/>
<line class="st1" x1="1464.8" y1="513" x2="1464.8" y2="587"/>
<line class="st1" x1="1651.8" y1="513" x2="1651.8" y2="587"/>
<line class="st1" x1="1838.8" y1="513" x2="1838.8" y2="587"/>
<line class="st1" x1="155.8" y1="656.3" x2="155.8" y2="730.3"/>
<line class="st1" x1="342.8" y1="656.3" x2="342.8" y2="730.3"/>
<line class="st1" x1="529.8" y1="656.3" x2="529.8" y2="730.3"/>
<line class="st1" x1="716.8" y1="656.3" x2="716.8" y2="730.3"/>
<line class="st1" x1="903.8" y1="656.3" x2="903.8" y2="730.3"/>
<line class="st1" x1="1090.8" y1="656.3" x2="1090.8" y2="730.3"/>
<line class="st1" x1="1277.8" y1="656.3" x2="1277.8" y2="730.3"/>
<line class="st1" x1="1464.8" y1="656.3" x2="1464.8" y2="730.3"/>
<line class="st1" x1="1651.8" y1="656.3" x2="1651.8" y2="730.3"/>
<line class="st1" x1="1838.8" y1="656.3" x2="1838.8" y2="730.3"/>
<line class="st1" x1="155.8" y1="804.3" x2="155.8" y2="878.3"/>
<line class="st1" x1="342.8" y1="804.3" x2="342.8" y2="878.3"/>
<line class="st1" x1="529.8" y1="804.3" x2="529.8" y2="878.3"/>
<line class="st1" x1="716.8" y1="804.3" x2="716.8" y2="878.3"/>
<line class="st1" x1="903.8" y1="804.3" x2="903.8" y2="878.3"/>
<line class="st1" x1="1090.8" y1="804.3" x2="1090.8" y2="878.3"/>
<line class="st1" x1="1277.8" y1="804.3" x2="1277.8" y2="878.3"/>
<line class="st1" x1="1464.8" y1="804.3" x2="1464.8" y2="878.3"/>
<line class="st1" x1="1651.8" y1="804.3" x2="1651.8" y2="878.3"/>
<line class="st1" x1="1838.8" y1="804.3" x2="1838.8" y2="878.3"/>
<line class="st1" x1="155.8" y1="951.7" x2="155.8" y2="1025.7"/>
<line class="st1" x1="342.8" y1="951.7" x2="342.8" y2="1025.7"/>
<line class="st1" x1="529.8" y1="951.7" x2="529.8" y2="1025.7"/>
<line class="st1" x1="716.8" y1="951.7" x2="716.8" y2="1025.7"/>
<line class="st1" x1="903.8" y1="951.7" x2="903.8" y2="1025.7"/>
<line class="st1" x1="1090.8" y1="951.7" x2="1090.8" y2="1025.7"/>
<line class="st1" x1="1277.8" y1="951.7" x2="1277.8" y2="1025.7"/>
<line class="st1" x1="1464.8" y1="951.7" x2="1464.8" y2="1025.7"/>
<line class="st1" x1="1651.8" y1="951.7" x2="1651.8" y2="1025.7"/>
<line class="st1" x1="1838.8" y1="951.7" x2="1838.8" y2="1025.7"/>
<line class="st1" x1="64.3" y1="-3.7" x2="64.3" y2="70.3"/>
<line class="st1" x1="251.3" y1="-3.7" x2="251.3" y2="70.3"/>
<line class="st1" x1="438.3" y1="-3.7" x2="438.3" y2="70.3"/>
<line class="st1" x1="625.3" y1="-3.7" x2="625.3" y2="70.3"/>
<line class="st1" x1="812.3" y1="-3.7" x2="812.3" y2="70.3"/>
<line class="st1" x1="999.3" y1="-3.7" x2="999.3" y2="70.3"/>
<line class="st1" x1="1186.3" y1="-3.7" x2="1186.3" y2="70.3"/>
<line class="st1" x1="1373.3" y1="-3.7" x2="1373.3" y2="70.3"/>
<line class="st1" x1="1560.3" y1="-3.7" x2="1560.3" y2="70.3"/>
<line class="st1" x1="1747.3" y1="-3.7" x2="1747.3" y2="70.3"/>
<line class="st1" x1="1934.3" y1="-3.7" x2="1934.3" y2="70.3"/>
<line class="st1" x1="64.3" y1="142.3" x2="64.3" y2="216.3"/>
<line class="st1" x1="251.3" y1="142.3" x2="251.3" y2="216.3"/>
<line class="st1" x1="438.3" y1="142.3" x2="438.3" y2="216.3"/>
<line class="st1" x1="625.3" y1="142.3" x2="625.3" y2="216.3"/>
<line class="st1" x1="812.3" y1="142.3" x2="812.3" y2="216.3"/>
<line class="st1" x1="999.3" y1="142.3" x2="999.3" y2="216.3"/>
<line class="st1" x1="1186.3" y1="142.3" x2="1186.3" y2="216.3"/>
<line class="st1" x1="1373.3" y1="142.3" x2="1373.3" y2="216.3"/>
<line class="st1" x1="1560.3" y1="142.3" x2="1560.3" y2="216.3"/>
<line class="st1" x1="1747.3" y1="142.3" x2="1747.3" y2="216.3"/>
<line class="st1" x1="1934.3" y1="142.3" x2="1934.3" y2="216.3"/>
<line class="st1" x1="64.3" y1="288.9" x2="64.3" y2="362.9"/>
<line class="st1" x1="251.3" y1="288.9" x2="251.3" y2="362.9"/>
<line class="st1" x1="438.3" y1="288.9" x2="438.3" y2="362.9"/>
<line class="st1" x1="625.3" y1="288.9" x2="625.3" y2="362.9"/>
<line class="st1" x1="812.3" y1="288.9" x2="812.3" y2="362.9"/>
<line class="st1" x1="999.3" y1="288.9" x2="999.3" y2="362.9"/>
<line class="st1" x1="1186.3" y1="288.9" x2="1186.3" y2="362.9"/>
<line class="st1" x1="1373.3" y1="288.9" x2="1373.3" y2="362.9"/>
<line class="st1" x1="1560.3" y1="288.9" x2="1560.3" y2="362.9"/>
<line class="st1" x1="1747.3" y1="288.9" x2="1747.3" y2="362.9"/>
<line class="st1" x1="1934.3" y1="288.9" x2="1934.3" y2="362.9"/>
<line class="st1" x1="64.3" y1="440.3" x2="64.3" y2="514.3"/>
<line class="st1" x1="251.3" y1="440.3" x2="251.3" y2="514.3"/>
<line class="st1" x1="438.3" y1="440.3" x2="438.3" y2="514.3"/>
<line class="st1" x1="625.3" y1="440.3" x2="625.3" y2="514.3"/>
<line class="st1" x1="812.3" y1="440.3" x2="812.3" y2="514.3"/>
<line class="st1" x1="999.3" y1="440.3" x2="999.3" y2="514.3"/>
<line class="st1" x1="1186.3" y1="440.3" x2="1186.3" y2="514.3"/>
<line class="st1" x1="1373.3" y1="440.3" x2="1373.3" y2="514.3"/>
<line class="st1" x1="1560.3" y1="440.3" x2="1560.3" y2="514.3"/>
<line class="st1" x1="1747.3" y1="440.3" x2="1747.3" y2="514.3"/>
<line class="st1" x1="1934.3" y1="440.3" x2="1934.3" y2="514.3"/>
<line class="st1" x1="64.3" y1="583.6" x2="64.3" y2="657.6"/>
<line class="st1" x1="251.3" y1="583.6" x2="251.3" y2="657.6"/>
<line class="st1" x1="438.3" y1="583.6" x2="438.3" y2="657.6"/>
<line class="st1" x1="625.3" y1="583.6" x2="625.3" y2="657.6"/>
<line class="st1" x1="812.3" y1="583.6" x2="812.3" y2="657.6"/>
<line class="st1" x1="999.3" y1="583.6" x2="999.3" y2="657.6"/>
<line class="st1" x1="1186.3" y1="583.6" x2="1186.3" y2="657.6"/>
<line class="st1" x1="1373.3" y1="583.6" x2="1373.3" y2="657.6"/>
<line class="st1" x1="1560.3" y1="583.6" x2="1560.3" y2="657.6"/>
<line class="st1" x1="1747.3" y1="583.6" x2="1747.3" y2="657.6"/>
<line class="st1" x1="1934.3" y1="583.6" x2="1934.3" y2="657.6"/>
<line class="st1" x1="64.3" y1="731.6" x2="64.3" y2="805.6"/>
<line class="st1" x1="251.3" y1="731.6" x2="251.3" y2="805.6"/>
<line class="st1" x1="438.3" y1="731.6" x2="438.3" y2="805.6"/>
<line class="st1" x1="625.3" y1="731.6" x2="625.3" y2="805.6"/>
<line class="st1" x1="812.3" y1="731.6" x2="812.3" y2="805.6"/>
<line class="st1" x1="999.3" y1="731.6" x2="999.3" y2="805.6"/>
<line class="st1" x1="1186.3" y1="731.6" x2="1186.3" y2="805.6"/>
<line class="st1" x1="1373.3" y1="731.6" x2="1373.3" y2="805.6"/>
<line class="st1" x1="1560.3" y1="731.6" x2="1560.3" y2="805.6"/>
<line class="st1" x1="1747.3" y1="731.6" x2="1747.3" y2="805.6"/>
<line class="st1" x1="1934.3" y1="731.6" x2="1934.3" y2="805.6"/>
<line class="st1" x1="64.3" y1="878.9" x2="64.3" y2="952.9"/>
<line class="st1" x1="251.3" y1="878.9" x2="251.3" y2="952.9"/>
<line class="st1" x1="438.3" y1="878.9" x2="438.3" y2="952.9"/>
<line class="st1" x1="625.3" y1="878.9" x2="625.3" y2="952.9"/>
<line class="st1" x1="812.3" y1="878.9" x2="812.3" y2="952.9"/>
<line class="st1" x1="999.3" y1="878.9" x2="999.3" y2="952.9"/>
<line class="st1" x1="1186.3" y1="878.9" x2="1186.3" y2="952.9"/>
<line class="st1" x1="1373.3" y1="878.9" x2="1373.3" y2="952.9"/>
<line class="st1" x1="1560.3" y1="878.9" x2="1560.3" y2="952.9"/>
<line class="st1" x1="1747.3" y1="878.9" x2="1747.3" y2="952.9"/>
<line class="st1" x1="1934.3" y1="878.9" x2="1934.3" y2="952.9"/>
<path class="st2" d="M3224.4,703.7h-705.5c-25.3,0-45.8-20.5-45.8-45.8V168c0-25.3,20.5-45.8,45.8-45.8h705.5
	c25.3,0,45.8,20.5,45.8,45.8v489.9C3270.2,683.2,3249.7,703.7,3224.4,703.7z"/>
<path class="st3" d="M2497.4,176.3c0-15.9,12.9-28.9,28.9-28.9l0,0h715c3.8,0,7.6,0.6,11.2,1.7c-5.9-14.4-19.9-23.7-35.5-23.7
	h-705.5c-21.2,0-38.3,17.2-38.3,38.3l0,0v489.9c0,16.9,11,31.7,27.1,36.7c-1.9-4.6-2.9-9.6-2.9-14.6V176.3z"/>
<path class="st4" d="M3217,691.9c21.2,0,38.3-17.2,38.3-38.3V163.7c0-5-1-10-2.9-14.6c-3.6-1.1-7.4-1.7-11.2-1.7h-715
	c-15.9,0-28.9,12.9-28.9,28.8l0,0v499.4c0,5,1,10,2.9,14.6c3.6,1.1,7.4,1.7,11.2,1.7L3217,691.9z"/>
<path class="st5" d="M3217,699.4h-705.5c-25.3,0-45.8-20.5-45.8-45.8V163.7c0-25.3,20.5-45.8,45.8-45.8H3217
	c25.3,0,45.8,20.5,45.8,45.8v489.9C3262.8,678.9,3242.3,699.4,3217,699.4z M2511.5,132.9c-17,0-30.8,13.8-30.8,30.8v489.9
	c0,17,13.8,30.8,30.8,30.8H3217c17,0,30.8-13.8,30.8-30.8V163.7c0-17-13.8-30.8-30.8-30.8H2511.5z"/>
<path class="st2" d="M2379.9,801h-358V250.5h358V801z"/>
<rect x="2023.1" y="248.1" class="st6" width="339.9" height="532.5"/>
<path class="st5" d="M2372,789.6h-358V239.1h358V789.6z M2032.1,771.5H2354V257.1h-321.9V771.5z"/>
<rect x="2053.5" y="287.5" class="st7" width="47" height="47"/>
<rect x="2053.5" y="343.5" class="st8" width="47" height="47"/>
<rect x="2053.5" y="399.5" class="st8" width="47" height="47"/>
<rect x="2053.5" y="455.4" class="st8" width="47" height="47"/>
<rect x="2053.5" y="511.4" class="st8" width="47" height="47"/>
<rect x="2053.5" y="567.3" class="st8" width="47" height="47"/>
<rect x="2053.5" y="623.3" class="st8" width="47" height="47"/>
<rect x="2053.5" y="679.3" class="st8" width="47" height="47"/>
<rect x="2111.5" y="343.5" class="st9" width="47" height="47"/>
<rect x="2111.5" y="399.5" class="st9" width="47" height="47"/>
<rect x="2111.5" y="455.4" class="st9" width="47" height="47"/>
<rect x="2111.5" y="511.4" class="st9" width="47" height="47"/>
<rect x="2111.5" y="567.3" class="st9" width="47" height="47"/>
<rect x="2111.5" y="623.3" class="st10" width="47" height="47"/>
<rect x="2111.5" y="679.3" class="st10" width="47" height="47"/>
<rect x="2169.6" y="399.5" class="st11" width="47" height="47"/>
<rect x="2169.6" y="455.4" class="st11" width="47" height="47"/>
<rect x="2169.6" y="511.4" class="st11" width="47" height="47"/>
<rect x="2169.6" y="567.3" class="st2" width="47" height="47"/>
<rect x="2169.6" y="623.3" class="st2" width="47" height="47"/>
<rect x="2169.6" y="679.3" class="st2" width="47" height="47"/>
<rect x="2227.6" y="399.5" class="st2" width="47" height="47"/>
<rect x="2227.6" y="455.4" class="st2" width="47" height="47"/>
<rect x="2227.6" y="511.4" class="st2" width="47" height="47"/>
<rect x="2227.6" y="567.3" class="st2" width="47" height="47"/>
<rect x="2227.6" y="623.3" class="st2" width="47" height="47"/>
<rect x="2227.6" y="679.3" class="st7" width="47" height="47"/>
<rect x="2285.6" y="287.5" class="st12" width="47" height="47"/>
<rect x="2285.6" y="343.5" class="st12" width="47" height="47"/>
<rect x="2285.6" y="399.5" class="st12" width="47" height="47"/>
<rect x="2285.6" y="455.4" class="st12" width="47" height="47"/>
<rect x="2285.6" y="511.4" class="st12" width="47" height="47"/>
<rect x="2285.6" y="567.3" class="st2" width="47" height="47"/>
<rect x="2285.6" y="623.3" class="st2" width="47" height="47"/>
<rect x="2285.6" y="679.3" class="st2" width="47" height="47"/>
<path class="st13" d="M2077.5,291.3c-10.9,0-19.7,8.8-19.7,19.7s8.8,19.7,19.7,19.7s19.7-8.8,19.7-19.7l0,0
	C2097.2,300.1,2088.4,291.3,2077.5,291.3z M2077.5,327.8c-9.3,0-16.8-7.5-16.8-16.8s7.5-16.8,16.8-16.8s16.8,7.5,16.8,16.8
	C2094.2,320.3,2086.7,327.8,2077.5,327.8z"/>
<path class="st13" d="M2085.2,311.6c0.2-0.5,0.4-1.1,0.4-1.7c0-2.2-1.4-4-3-4c-2.2,0-4.6,2.6-4.6,2.6s-1.8-2.4-3.7-2.7
	c-2.3,0-4.1,1.9-4.1,4.1l0,0c0,0.6,0.1,1.2,0.4,1.7c0.9,2.2,4.8,5.2,5.7,5.9l1.2,0.9c0.3,0.2,0.6,0.2,0.9,0l1.1-0.9
	C2081.2,316.1,2084.5,313.5,2085.2,311.6z"/>
<path class="st13" d="M2088.7,302.3l-2.1-0.8l0.1-2.2c0-0.1-0.1-0.2-0.2-0.3c-0.1,0-0.2,0-0.3,0.1l-1.4,1.7l-2-0.8
	c-0.1,0-0.2,0-0.3,0.1s-0.1,0.2,0,0.3l1.2,1.8l-1.4,1.7c-0.1,0.1-0.1,0.3,0,0.4s0.2,0.1,0.2,0.1l2.1-0.6l1.2,1.8
	c0.1,0.1,0.1,0.1,0.2,0.1h0.1c0.1,0,0.2-0.1,0.2-0.2l0.1-2.2l2.1-0.6c0.1,0,0.2-0.1,0.2-0.2C2088.9,302.4,2088.8,302.3,2088.7,302.3
	z"/>
<path class="st13" d="M2083.8,318c-1.8,3.5-6.2,4.9-9.7,3c-1.3-0.7-2.4-1.7-3-3h-2.4c1.8,4.9,7.3,7.3,12.1,5.5
	c2.5-1,4.5-2.9,5.5-5.5H2083.8z"/>
<circle class="st14" cx="2222.1" cy="339.4" r="5.8"/>
<ellipse class="st15" cx="2222.1" cy="339.4" rx="10.2" ry="35.8"/>
<ellipse transform="matrix(0.866 -0.5 0.5 0.866 128.0167 1156.5309)" class="st15" cx="2222.1" cy="339.4" rx="35.8" ry="10.2"/>
<ellipse transform="matrix(0.5 -0.866 0.866 0.5 817.0823 2094.1316)" class="st15" cx="2222.1" cy="339.4" rx="10.2" ry="35.8"/>
<g>
	<path class="st16" d="M5020.7,124.6h450.5c20.6,0,37.3,16.7,37.3,37.3v919.8l0,0h-525l0,0V161.8
		C4983.4,141.3,5000.1,124.6,5020.7,124.6z"/>
	<path class="st16" d="M5049.8,170.4H5442c13.7,0,24.8,11.1,24.8,24.8l0,0v849.9l0,0H5025l0,0v-850
		C5025,181.5,5036.1,170.4,5049.8,170.4z"/>
	<line class="st17" x1="5245.9" y1="171.6" x2="5245.9" y2="1037.8"/>
	<polygon class="st18" points="5200.8,475.4 5166.6,475.4 5166.6,416.4 5098.4,416.4 5098.4,534.1 5132.6,534.1 5132.6,593.2 	"/>
	<line class="st17" x1="5132.5" y1="534.1" x2="5132.5" y2="513.7"/>
	<line class="st17" x1="5132.5" y1="503.8" x2="5132.5" y2="502.3"/>
	<polyline class="st15" points="5056.5,333.5 5056.5,294.3 5218.4,294.3 5218.4,333.5 	"/>
	<polygon class="st19" points="5216.2,320.9 5057.3,320.9 5057.3,294.3 5218.4,294.3 	"/>
	<polyline class="st15" points="5056.5,275.8 5056.5,236.6 5218.4,236.6 5218.4,275.8 	"/>
	<polygon class="st19" points="5216.2,263.2 5057.3,263.2 5057.3,236.6 5218.4,236.6 	"/>
	<polyline class="st15" points="5273.9,333.5 5273.9,294.3 5435.8,294.3 5435.8,333.5 	"/>
	<polygon class="st19" points="5433.6,320.9 5274.6,320.9 5274.6,294.3 5435.8,294.3 	"/>
	<polyline class="st15" points="5273.9,275.8 5273.9,236.6 5435.8,236.6 5435.8,275.8 	"/>
	<polygon class="st19" points="5433.6,263.2 5274.6,263.2 5274.6,236.6 5435.8,236.6 	"/>
	<ellipse class="st20" cx="5094.9" cy="307.6" rx="20.5" ry="11.8"/>
	<circle class="st19" cx="5089.3" cy="309" r="4.9"/>
	<ellipse class="st20" cx="5175" cy="307.6" rx="20.5" ry="11.8"/>
	<circle class="st19" cx="5169.7" cy="309" r="4.9"/>
	<circle class="st21" cx="5306" cy="670" r="17.2"/>
	<circle class="st16" cx="5296.1" cy="660.1" r="17.2"/>
	<polygon class="st8" points="5394.6,594.2 5400.6,584.4 5400.5,584.1 5390.8,578.2 5396.7,568.5 5396.6,568.1 5386.9,562.2 
		5392.8,552.5 5392.7,552.1 5383,546.2 5385.5,542.1 5088.8,614.4 5097,619.4 5091.4,628.5 5091.8,629.8 5100.9,635.4 5095.3,644.5 
		5095.6,645.8 5104.8,651.4 5099.2,660.5 5099.5,661.8 5108.7,667.3 5105.2,673.2 5404.4,600.2 5404.4,600.1 	"/>
	<text transform="matrix(0.9716 -0.2368 0.2368 0.9716 5118.4692 646.4498)" class="st22 st23 st24">D</text>
	<text transform="matrix(0.9716 -0.2368 0.2368 0.9716 5132.5767 643.0102)" class="st22 st23 st24">O </text>
	<text transform="matrix(0.9716 -0.2368 0.2368 0.9716 5157.04 637.0473)" class="st22 st23 st24 st25">N</text>
	<text transform="matrix(0.9716 -0.2368 0.2368 0.9716 5170.7192 633.712)" class="st22 st23 st24 st25">O</text>
	<text transform="matrix(0.9716 -0.2368 0.2368 0.9716 5185.8564 630.0225)" class="st22 st23 st24">T </text>
	<text transform="matrix(0.9716 -0.2368 0.2368 0.9716 5206.123 625.0815)" class="st22 st23 st24">O</text>
	<text transform="matrix(0.9716 -0.2368 0.2368 0.9716 5222.2305 621.1553)" class="st22 st23 st24 st25">P</text>
	<text transform="matrix(0.9716 -0.2368 0.2368 0.9716 5235.1719 618.0009)" class="st22 st23 st24">E</text>
	<text transform="matrix(0.9716 -0.2368 0.2368 0.9716 5245.8389 615.3998)" class="st22 st23 st24">N </text>
	<text transform="matrix(0.9716 -0.2368 0.2368 0.9716 5268.0688 609.9814)" class="st22 st23 st24">T</text>
	<text transform="matrix(0.9716 -0.2368 0.2368 0.9716 5280.3687 606.9823)" class="st22 st23 st24">H</text>
	<text transform="matrix(0.9716 -0.2368 0.2368 0.9716 5295.2524 603.3545)" class="st22 st23 st24">E </text>
	<text transform="matrix(0.9716 -0.2368 0.2368 0.9716 5314.4702 598.6702)" class="st22 st23 st24">D</text>
	<text transform="matrix(0.9716 -0.2368 0.2368 0.9716 5328.5762 595.2309)" class="st22 st23 st24 st25">O</text>
	<text transform="matrix(0.9716 -0.2368 0.2368 0.9716 5344.2954 591.3984)" class="st22 st23 st24">O</text>
	<text transform="matrix(0.9716 -0.2368 0.2368 0.9716 5360.4038 587.472)" class="st22 st23 st24">R</text>
	<circle class="st21" cx="5202.7" cy="670" r="17.2"/>
	<circle class="st16" cx="5192.8" cy="660.1" r="17.2"/>
</g>
</svg>
