<?xml version="1.0" encoding="utf-8"?>
<!-- Generator: Adobe Illustrator 23.0.4, SVG Export Plug-In . SVG Version: 6.00 Build 0)  -->
<svg version="1.1" xmlns="http://www.w3.org/2000/svg" xmlns:xlink="http://www.w3.org/1999/xlink" x="0px" y="0px"
	 viewBox="0 0 5760 1080" style="enable-background:new 0 0 5760 1080;" xml:space="preserve">
<style type="text/css">
	.st0{fill:#ECF1F8;}
	.st1{fill:#FEB8A7;stroke:#002F69;stroke-width:5;stroke-linecap:round;stroke-linejoin:round;}
	.st2{fill:#F9BC95;stroke:#002F69;stroke-width:5;stroke-linecap:round;stroke-linejoin:round;}
	.st3{fill:#FFFFFF;stroke:#002F69;stroke-width:5;stroke-linecap:round;stroke-linejoin:round;}
	.st4{fill:#FEEEE4;stroke:#002F69;stroke-width:5;stroke-linecap:round;stroke-linejoin:round;}
	.st5{fill:#002F69;stroke:#002F69;stroke-width:5;stroke-linecap:round;stroke-linejoin:round;}
	.st6{fill:#EFA7BB;stroke:#002F69;stroke-width:5;stroke-linecap:round;stroke-linejoin:round;}
	.st7{fill:#ECF1F8;stroke:#002F69;stroke-width:5;stroke-linecap:round;stroke-linejoin:round;}
	.st8{fill:#F88645;stroke:#002F69;stroke-width:5;stroke-linecap:round;stroke-linejoin:round;}
	.st9{fill:none;stroke:#002F69;stroke-width:5;stroke-linecap:round;stroke-linejoin:round;}
	.st10{fill:#92DBAC;stroke:#002F69;stroke-width:5;stroke-linecap:round;stroke-linejoin:round;}
	.st11{fill:#E1526E;stroke:#002F69;stroke-width:5;stroke-linecap:round;stroke-linejoin:round;}
	.st12{opacity:0.3;fill:#5C6C98;enable-background:new    ;}
	.st13{fill:#F9BC95;}
	.st14{fill:#B5C8E6;}
	.st15{fill:#4B7CC4;}
	.st16{fill:none;stroke:#002F69;stroke-width:5;stroke-linecap:round;stroke-linejoin:round;stroke-miterlimit:10;}
	.st17{fill:none;stroke:#ECF1F8;stroke-width:5;stroke-linecap:round;stroke-miterlimit:10;}
	.st18{fill:#92DBAC;stroke:#002F69;stroke-width:5;stroke-linecap:round;stroke-linejoin:round;stroke-miterlimit:10;}
	.st19{fill:#B5C8E6;stroke:#002F69;stroke-width:5;stroke-linecap:round;stroke-linejoin:round;stroke-miterlimit:10;}
	.st20{fill:#F9BC95;stroke:#002F69;stroke-width:5;stroke-linecap:round;stroke-linejoin:round;stroke-miterlimit:10;}
	.st21{fill:#4B7CC4;stroke:#002F69;stroke-width:5;stroke-linecap:round;stroke-linejoin:round;stroke-miterlimit:10;}
	.st22{fill:#DDF2E3;stroke:#002F69;stroke-width:5;stroke-linecap:round;stroke-linejoin:round;stroke-miterlimit:10;}
	.st23{fill:#FEB8A7;stroke:#002F69;stroke-width:5;stroke-linecap:round;stroke-linejoin:round;stroke-miterlimit:10;}
	.st24{fill:none;stroke:#4B7CC4;stroke-width:5;stroke-linecap:round;stroke-linejoin:round;stroke-miterlimit:10;}
	.st25{fill:none;stroke:#838EB1;stroke-width:5;stroke-linecap:round;stroke-linejoin:round;stroke-miterlimit:10;}
	.st26{fill:#FFDED5;stroke:#002F69;stroke-width:5;stroke-linecap:round;stroke-linejoin:round;stroke-miterlimit:10;}
	.st27{fill:#E1526E;stroke:#002F69;stroke-width:5;stroke-linecap:round;stroke-linejoin:round;stroke-miterlimit:10;}
	.st28{fill:none;stroke:#FFDED5;stroke-width:5;stroke-linecap:round;stroke-linejoin:round;stroke-miterlimit:10;}
	.st29{fill:#FEEEE4;stroke:#002F69;stroke-width:5;stroke-linecap:round;stroke-linejoin:round;stroke-miterlimit:10;}
	.st30{fill:#ECF1F8;stroke:#002F69;stroke-width:5;stroke-linecap:round;stroke-linejoin:round;stroke-miterlimit:10;}
	.st31{fill:#FFFFFF;stroke:#002F69;stroke-width:5;stroke-linecap:round;stroke-linejoin:round;stroke-miterlimit:10;}
	.st32{fill:none;stroke:#F88645;stroke-width:5;stroke-linecap:round;stroke-linejoin:round;stroke-miterlimit:10;}
	.st33{fill:#FCEDF0;stroke:#002F69;stroke-width:5;stroke-linecap:round;stroke-linejoin:round;stroke-miterlimit:10;}
	.st34{fill:#F88645;stroke:#002F69;stroke-width:5;stroke-linecap:round;stroke-linejoin:round;stroke-miterlimit:10;}
	.st35{fill:none;stroke:#B5C8E6;stroke-width:5;stroke-linecap:round;stroke-linejoin:round;stroke-miterlimit:10;}
	.st36{fill:#002F69;}
	.st37{fill:none;stroke:#5C6C98;stroke-width:15;stroke-miterlimit:10;}
	.st38{fill:#F7B5BA;stroke:#002F69;stroke-width:5;stroke-linecap:round;stroke-linejoin:round;stroke-miterlimit:10;}
	.st39{fill:none;stroke:#EFA7BB;stroke-width:5;stroke-linecap:round;stroke-linejoin:round;stroke-miterlimit:10;}
	.st40{fill:none;stroke:#FEEEE4;stroke-width:5;stroke-linecap:round;stroke-linejoin:round;stroke-miterlimit:10;}
</style>
<g id="Calque_1">
	<g id="front">
		<title>foreground</title>
		<rect y="1017" class="st0" width="5767.4" height="71.4"/>
		<path class="st1" d="M2486.8,989h782c15.5,0,28,12.5,28,28l0,0l0,0h-838l0,0l0,0C2458.8,1001.5,2471.3,989,2486.8,989z"/>
		<path class="st2" d="M2491.3,732.2L2491.3,732.2c2.8,0,5,2.2,5,5v251.3l0,0h-10l0,0V737.2C2486.3,734.5,2488.5,732.2,2491.3,732.2
			z"/>
		<path class="st2" d="M3262.3,732.2L3262.3,732.2c2.8,0,5,2.2,5,5v251.3l0,0h-10l0,0V737.2C3257.3,734.5,3259.5,732.2,3262.3,732.2
			z"/>
		<path class="st1" d="M2476.8,755.5h802c4.7,0,8.5,3.8,8.5,8.5l0,0c0,4.7-3.8,8.5-8.5,8.5h-802c-4.7,0-8.5-3.8-8.5-8.5l0,0
			C2468.3,759.3,2472.1,755.5,2476.8,755.5z"/>
		<circle class="st3" cx="2491.3" cy="763.8" r="3"/>
		<circle class="st3" cx="3262.5" cy="763.8" r="3"/>
		<polygon class="st4" points="2434.2,1004.3 2432.5,981.9 2452.7,971.4 2474.7,981.1 2475.7,989 2457,1003.6 		"/>
		<polygon class="st5" points="2481.8,984.2 2475.7,989 2474.7,981.1 		"/>
		<path class="st6" d="M2354.4,983.4l10.6-1.3l3.9,32.2l-10.6,1.3c-5.9,0.7-11.3-3.5-12-9.4l-1.4-10.8
			C2344.3,989.5,2348.5,984.1,2354.4,983.4L2354.4,983.4z"/>
		
			<rect x="2367.1" y="980.9" transform="matrix(0.9927 -0.1207 0.1207 0.9927 -102.9996 293.8241)" class="st7" width="13.8" height="32.5"/>
		<path class="st8" d="M2452.7,971.4c-4.2,1.8-6.2,6.7-4.4,10.9c1.2,2.9,4,4.9,7.1,5.1c-4.4,1.4-6.8,6.2-5.3,10.5
			c1,3,3.7,5.3,6.9,5.7l-74.3,9l-3.9-32.2L2452.7,971.4z"/>
		<line class="st9" x1="2407" y1="993.3" x2="2406.3" y2="993.4"/>
		<line class="st9" x1="2455.4" y1="987.4" x2="2415.4" y2="992.3"/>
		<line class="st9" x1="5760.8" y1="1017" x2="0" y2="1017"/>
		<path class="st10" d="M2511.8,1017.2h11.6c5.8,0,11.4,2.3,15.5,6.4l4.6,4.6c3,3.1,6.9,5.1,11.1,6l17.3,3.5
			c4.1,0.8,7.8,2.8,10.9,5.7l0,0c6.8,6.5,17,8,25.3,3.7l7.1-3.7c2.9-1.5,5.4-3.7,7.4-6.3l4.8-6.4c2.2-3,5.2-5.3,8.5-6.8l11.8-5.3
			c2.8-1.3,5.9-1.9,9-1.9h13.3c-6-7.3-15.2-11.3-24.6-10.7l-48.8,3.2c-10.8,0.7-21.7,0.8-32.6,0.2l-30.5-1.6
			C2525.1,1007.4,2517.1,1010.9,2511.8,1017.2L2511.8,1017.2z"/>
		<circle class="st10" cx="2598.4" cy="1068.3" r="8.5"/>
		<path class="st11" d="M2946.3,989.1l15.4,5.9c13.5,5.1,20.3,22.1,36.9,22.1l0,0l2.3,5c3.2,7,8.5,12.7,15.2,16.4l0,0
			c2.5,1.4,4,3.9,4,6.8v6.4c0,4.3,3.5,7.7,7.7,7.7l0,0c3.5,0,6.5-2.3,7.4-5.7l2.2-8c2.3-8.4,6.5-16.2,12.4-22.6l0,0
			c3.9-4.3,9.4-6.7,15.2-6.7h24.6c11.7,0,6.3-16,12.6-21.8l8.2-7.5l0,0c-8.4-5.6-18.3-8.2-28.4-7.6l-42,2.8
			c-11.4,0.8-22.8,0.9-34.1,0.3l-29.8-1.5c-7.4-0.4-14.7,1.1-21.4,4.2L2946.3,989.1z"/>
		<line class="st9" x1="3029.8" y1="1016.4" x2="3028.9" y2="1016.4"/>
		<line class="st9" x1="3065" y1="1016.4" x2="3042.8" y2="1016.4"/>
	</g>
	<g id="Mode_Isolation">
		<g>
			<polygon class="st12" points="1733.8,715.7 1733.8,719 1833.4,724.4 1825.1,635 			"/>
			<rect x="1730.5" y="621.2" class="st13" width="95" height="95"/>
			<g>
				<path class="st14" d="M1868.3,807.3l-0.6,20.9c0,0,24.4,20.3,22.7,48.2c2.7,7.2,4.1,15,4.1,23.1c0,11.8-3.1,23.4-9,33.5
					c-5.7,9.8-13.9,18.1-23.7,24l17.4,29.2c14.7-8.8,27.1-21.3,35.7-36.1c8.9-15.3,13.6-32.8,13.6-50.6
					C1928.5,858.4,1903.7,823,1868.3,807.3z"/>
				<path class="st15" d="M1867.8,828.2l0.6-20.9c-12.4-5.5-26.2-8.5-40.6-8.5v34c28.7,0,53.2,18.2,62.7,43.7
					C1892.1,848.5,1867.8,828.2,1867.8,828.2z"/>
			</g>
			<g>
				<path class="st16" d="M1879.2,986.2l-17.4-29.2c9.8-5.8,18-14.1,23.7-24c5.9-10.1,9-21.7,9-33.5c0-36.8-30-66.8-66.8-66.8v-34
					c55.6,0,100.8,45.2,100.8,100.8c0,17.8-4.7,35.3-13.6,50.6C1906.3,965,1894,977.5,1879.2,986.2z"/>
			</g>
			<path class="st17" d="M1916.9,908.8c-0.2,1.3-0.5,2.7-0.7,4"/>
			<path class="st17" d="M1877,820.8c24.6,15.6,40.9,43,40.9,74.3"/>
			<path class="st18" d="M1783.4,915.7h-7.9c-7.2,0-13-5.8-13-13l0,0h34l0,0C1796.4,909.9,1790.6,915.7,1783.4,915.7z"/>
			<rect x="1762.4" y="985.4" class="st19" width="34" height="11.3"/>
			<path class="st20" d="M1752.7,974c0,6.3,5.1,11.3,11.3,11.3h30.8c6.3,0,11.3-5.1,11.3-11.3H1752.7z"/>
			<g>
				<path class="st14" d="M1784.2,853l3.5-81.1h-16.6c-10.4,0-18.9,8.4-18.9,18.9v102.9h7.8l14.5-16.5
					C1780.4,870.4,1783.9,861.9,1784.2,853z"/>
				<path class="st15" d="M1806.6,790.8c0-10.4-8.4-18.9-18.9-18.9l-3.5,81.1c-0.4,8.9-3.8,17.4-9.7,24.2l-14.5,16.5h46.6V790.8z"/>
			</g>
			<path class="st16" d="M1806.6,893.6h-54.4V790.8c0-10.4,8.4-18.9,18.9-18.9h16.6c10.4,0,18.9,8.4,18.9,18.9V893.6z"/>
			<rect x="1771.8" y="764" class="st20" width="15.3" height="7.9"/>
			<path class="st21" d="M1785.9,764h-13c-6.4,0-11.6-5.2-11.6-11.6v-7.6h36.2v7.6C1797.5,758.8,1792.3,764,1785.9,764z"/>
			<path class="st20" d="M1800.1,744.7h-41.3c-1.7,0-3.1-1.4-3.1-3.1v-2c0-1.7,1.4-3.1,3.1-3.1h41.3c1.7,0,3.1,1.4,3.1,3.1v2
				C1803.2,743.3,1801.8,744.7,1800.1,744.7z"/>
			<path class="st20" d="M1809.6,902.7h-60.3c-2.1,0-3.8-1.7-3.8-3.8v-1.4c0-2.1,1.7-3.8,3.8-3.8h60.3c2.1,0,3.8,1.7,3.8,3.8v1.4
				C1813.4,901,1811.7,902.7,1809.6,902.7z"/>
			<path class="st20" d="M1894.5,996.4h-45.3v-22.6c0-12.5,10.2-22.6,22.6-22.6l0,0c12.5,0,22.6,10.2,22.6,22.6L1894.5,996.4
				L1894.5,996.4z"/>
			<circle class="st22" cx="1872.1" cy="974.3" r="13.1"/>
			<path class="st23" d="M1696.4,1017.3h238.4l0,0c0-11.6-9.4-21-21-21h-196.5C1705.7,996.4,1696.4,1005.8,1696.4,1017.3
				L1696.4,1017.3z"/>
			<line class="st16" x1="1929.6" y1="1006" x2="1863.7" y2="1006"/>
			<line class="st16" x1="1853.8" y1="1006" x2="1850.4" y2="1006"/>
			<path class="st24" d="M1762.9,855.9v-62.4c0-6.3,5.1-11.4,11.4-11.4"/>
			<circle class="st20" cx="1827.2" cy="816.3" r="26"/>
			<circle class="st22" cx="1827.2" cy="816.3" r="13.1"/>
			<g>
				<g>
					<ellipse class="st25" cx="1778.2" cy="674.4" rx="25.1" ry="13"/>
				</g>
				<circle class="st25" cx="1778.3" cy="679.2" r="6.5"/>
				<line class="st25" x1="1777.5" y1="650.4" x2="1777.5" y2="638.2"/>
				<line class="st25" x1="1794.3" y1="654.7" x2="1798.5" y2="647.7"/>
				<line class="st25" x1="1762" y1="654.7" x2="1757.8" y2="647.7"/>
			</g>
		</g>
		<g>
			<path class="st26" d="M1686.8,1006.3l-88.9-8.9c-2.1-0.2-3.7-2.1-3.5-4.3l0,0c0.2-2.1-1.3-4-3.5-4.3l-131-13.1l-2.3,22.6
				l131,13.1c2.1,0.2,4-1.3,4.3-3.5l0,0c0.2-2.1,2.1-3.7,4.3-3.5l88.9,8.9L1686.8,1006.3z"/>
			<path class="st27" d="M1459.9,975.8l-1.2-0.1c-10.7-1.1-20-7.2-25.7-16.3c-6.4-10.3-17.8-17.3-31.1-17.5
				c-18.1-0.3-34,13-37.1,30.8c-3.7,21.5,11.6,41.2,32.9,43.3c10.9,1.1,21.2-2.7,28.7-9.5c7-6.4,16.5-9.5,26-8.5l5.1,0.5
				L1459.9,975.8z"/>
			<path class="st28" d="M1423,961.7c0.2,0.2,0.4,0.5,0.5,0.7"/>
			<path class="st28" d="M1374,978.6c0-15.1,12.3-27.4,27.4-27.4c5.7,0,11,1.7,15.3,4.7"/>
		</g>
	</g>
</g>
<g id="Mode_Isolation_1_">
</g>
<g id="middle">
	<g>
		<g>
			<g>
				<path class="st29" d="M-65.2,648.5H70.4c27.1,0,49.1-22,49.1-49.1V495.2c0-35.9,29.2-65.1,65.1-65.1h369.7v16H184.7
					c-27.1,0-49.1,22-49.1,49.1v104.2c0,35.9-29.2,65.1-65.1,65.1H-66"/>
			</g>
			<g>
				<path class="st30" d="M-72.1,603.5c28.5,0,56.3,5.5,82.6,16.4c26.3,10.9,49.9,26.7,70.1,46.8l10,10
					c21.6,21.6,46.8,38.4,74.9,50.1c28.2,11.7,57.9,17.6,88.4,17.6h48.2c59.3,0,107.5-48.2,107.5-107.5V322.8
					c0-41-33.4-74.4-74.4-74.4h-1.8c-41,0-74.4,33.4-74.4,74.4v17.3h15v-17.3c0-32.7,26.6-59.4,59.4-59.4h1.8
					c32.7,0,59.4,26.6,59.4,59.4v314.1c0,51-41.5,92.5-92.5,92.5h-48.2c-28.5,0-56.3-5.5-82.6-16.4c-26.3-10.9-49.9-26.7-70.1-46.8
					l-10-10c-21.6-21.6-46.8-38.4-74.9-50.1s-57.9-17.6-88.4-17.6"/>
			</g>
			<g>
				<path class="st20" d="M263.1,713.9h32.1c9,0,16.3,7.3,16.3,16.3v12.3c0,9-7.3,16.3-16.3,16.3H287v34.3h-15v-34.3h-8.9
					c-9,0-16.3-7.3-16.3-16.3v-12.3C246.8,721.2,254.1,713.9,263.1,713.9z"/>
				<line class="st31" x1="272" y1="758.8" x2="277.7" y2="758.8"/>
				<path class="st32" d="M277,748.4h15.4c4.6,0,8.3-3.7,8.3-8.3v-8.4"/>
				<line class="st32" x1="267.8" y1="748.4" x2="268.4" y2="748.4"/>
			</g>
			<g>
				<path class="st23" d="M503.7,1017.1h108l0,0c0-15.5-12.5-28-28-28h-52C516.2,989.1,503.7,1001.6,503.7,1017.1L503.7,1017.1z"/>
				<g>
					<path class="st33" d="M541.6,414.8h32.1c9,0,16.3,7.3,16.3,16.3v12.3c0,9-7.3,16.3-16.3,16.3h-8.2V990h-15V459.7h-8.9
						c-9,0-16.3-7.3-16.3-16.3v-12.3C525.3,422.1,532.6,414.8,541.6,414.8z"/>
					<line class="st31" x1="550.5" y1="459.7" x2="556.2" y2="459.7"/>
					<path class="st25" d="M555.6,449.3h15.4c4.6,0,8.3-3.7,8.3-8.3v-8.4"/>
					<line class="st25" x1="546.4" y1="449.3" x2="547" y2="449.3"/>
				</g>
			</g>
			<path class="st19" d="M270.2,971.9h0.3v-17.7c0-2.1,1.7-3.9,3.9-3.9h18.4c2.1,0,3.9,1.7,3.9,3.9l0.3,17.7
				c7.6,0,13.7,6.2,13.7,13.7v30.5h-54.2v-30.5C256.5,978.1,262.6,971.9,270.2,971.9z"/>
			<line class="st31" x1="270.4" y1="971.9" x2="280.5" y2="971.9"/>
			
				<rect x="310.7" y="994.9" transform="matrix(-1 -4.489310e-11 4.489310e-11 -1 639.9385 2000.5948)" class="st22" width="18.5" height="10.8"/>
			<g>
				
					<rect x="466.1" y="821.8" transform="matrix(-1 -4.489976e-11 4.489976e-11 -1 937.2737 1655.1331)" class="st31" width="5.1" height="11.5"/>
				<path class="st34" d="M454.6,821.6h28c4.5,0,8.1-3.6,8.1-8.1v0c0-4.5-3.6-8.1-8.1-8.1h-28c-4.5,0-8.1,3.6-8.1,8.1v0
					C446.5,818,450.2,821.6,454.6,821.6z"/>
				<path class="st21" d="M410.6,994.7h3.8v-89.4c0-24,19.4-43.4,43.4-43.4h3.2v-4.2c0-3.3-2.7-6-6-6h-10v-13h10c3.3,0,6-2.7,6-6
					l0,0h15.2v29.2h4.7c24,0,43.4,19.4,43.4,43.4v89.4h2.3c4,0,7.3,3.3,7.3,7.3v8.3c0,4-3.3,7.3-7.3,7.3h-116c-4,0-7.3-3.3-7.3-7.3
					v-8.3C403.4,998,406.6,994.7,410.6,994.7z"/>
				<line class="st31" x1="413.6" y1="994.7" x2="420.7" y2="994.7"/>
				<line class="st31" x1="499.5" y1="987.7" x2="499.5" y2="994.4"/>
				<line class="st31" x1="478.6" y1="987.7" x2="478.6" y2="994.4"/>
				<line class="st31" x1="457.7" y1="987.7" x2="457.7" y2="994.4"/>
				<line class="st31" x1="436.8" y1="987.7" x2="436.8" y2="994.4"/>
				<line class="st35" x1="516.7" y1="982.1" x2="516.7" y2="984.6"/>
				<path class="st35" d="M469.7,841.1v19.6c0,4.3,3.5,7.9,7.9,7.9h3.5c19.7,0,35.6,16,35.6,35.6v63.5"/>
				<path class="st35" d="M498.7,981.3L498.7,981.3c-3.1,0-5.7,2.5-5.7,5.7v7.5"/>
				<path class="st35" d="M477.9,981.3L477.9,981.3c-3.1,0-5.7,2.5-5.7,5.7v7.5"/>
				<path class="st35" d="M457,981.3L457,981.3c-3.1,0-5.7,2.5-5.7,5.7v7.5"/>
				<path class="st35" d="M436.2,981.3L436.2,981.3c-3.1,0-5.7,2.5-5.7,5.7v7.5"/>
				<path class="st14" d="M449.7,932.1c3.9-24.3,29.5-36.5,29.5-36.5s-3.6,10.6,7.5,30.8c8.5,15.5-2.2,25.5-12.5,27.4
					c1.6-2.3,2.6-5.9,2.6-9.9c0-6.9-3-12.5-6.6-12.5s-6.6,5.6-6.6,12.5c0,4,1,7.5,2.5,9.8C456.6,951.8,447.8,944.2,449.7,932.1z"/>
				<path class="st22" d="M333.1,989.7h-12.3v21.8h12.3c1.8,0,3.3-1.5,3.3-3.3v-0.3h0.9c33.2,0,60.1-26.9,60.1-60.1v-95.1h34.9
					c0.9,0,1.7,0.8,1.7,1.7v0.1c0,0.9,0.8,1.7,1.7,1.7h13.9v-21.8h-13.9c-0.9,0-1.7,0.8-1.7,1.7l0,0c0,0.9-0.8,1.7-1.7,1.7h-34.9
					v-12.5c0-12.3-10.2-22.2-22.6-21.7c-13.1,0.5-22.5,12.7-20.6,25.7c2,13.3,13.4,23.5,27.3,23.5h0.9v95.1
					c0,24.9-20.2,45.1-45.1,45.1h-0.9l0,0C336.3,991.1,334.9,989.7,333.1,989.7z M382.3,837.7h-0.9c-6.9,0-12.5-5.6-12.5-12.5
					c0-3.7,3-6.7,6.7-6.7s6.7,3,6.7,6.7V837.7z"/>
				<line class="st22" x1="382.3" y1="852.7" x2="382.3" y2="837.7"/>
				<line class="st22" x1="397.3" y1="852.7" x2="397.3" y2="837.7"/>
			</g>
			<path class="st34" d="M291.1,940.5L291.1,940.5c4.2-4.2,4.2-10.9,0-15.1l-7.5-7.5l-7.5,7.5c-4.2,4.2-4.2,10.9,0,15.1l0,0
				C280.2,944.7,287,944.7,291.1,940.5z"/>
			<g>
				<g>
					<path class="st33" d="M27.7,865.8V765.1h106.6c5.6,0,8.9,6.3,5.6,10.9l-11.8,16.6c-8.1,11.4-12.5,25.1-12.5,39.1v34.1H27.7z"/>
					<path class="st27" d="M115.7,1007.4c0,5.4-4.4,9.7-9.7,9.7H37.4c-5.4,0-9.7-4.4-9.7-9.7V865.8h88V1007.4z"/>
				</g>
				<path class="st16" d="M141.2,774.3l-12.4,17.4c-8.5,12-13.1,26.3-13.1,41v174.6c0,5.4-4.4,9.7-9.7,9.7H37.4
					c-5.4,0-9.7-4.4-9.7-9.7V765.1h108.7C141.2,765.1,143.9,770.4,141.2,774.3z"/>
				<g>
					<line class="st19" x1="115.5" y1="831.6" x2="87.5" y2="831.6"/>
					<line class="st19" x1="115.5" y1="848.6" x2="97.5" y2="848.6"/>
					<line class="st19" x1="115.5" y1="865.6" x2="87.5" y2="865.6"/>
					<line class="st19" x1="115.5" y1="882.6" x2="97.5" y2="882.6"/>
					<line class="st19" x1="115.5" y1="899.6" x2="87.5" y2="899.6"/>
					<line class="st19" x1="115.5" y1="916.6" x2="97.5" y2="916.6"/>
					<line class="st19" x1="115.5" y1="933.6" x2="87.5" y2="933.6"/>
					<line class="st19" x1="115.5" y1="950.6" x2="97.5" y2="950.6"/>
					<line class="st19" x1="115.5" y1="967.6" x2="87.5" y2="967.6"/>
					<line class="st19" x1="115.5" y1="984.6" x2="97.5" y2="984.6"/>
				</g>
				<g>
					<path class="st13" d="M80.5,946.1l24.6-24.6c3.9-3.9,3.9-10.3,0-14.2l-24.6-24.6c-3.9-3.9-10.3-3.9-14.2,0l-24.6,24.6
						c-3.9,3.9-3.9,10.3,0,14.2l24.6,24.6C70.1,950.1,76.5,950.1,80.5,946.1z"/>
					<g>
						<path class="st36" d="M57,910.8c0,3.2,0.9,6.1,2.5,8.6c1.9,3,3,6.5,3,10v0.2c0,1.3,1.1,2.4,2.4,2.4c1.3,0,2.4-1.1,2.4-2.4
							v-3.7c1.1,0.4,2.2,0.7,3.4,0.9v2.8c0,1.3,1.1,2.4,2.4,2.4c1.3,0,2.4-1.1,2.4-2.4v-2.8c1.2-0.2,2.3-0.5,3.4-0.9v3.7
							c0,1.3,1.1,2.4,2.4,2.4c1.3,0,2.4-1.1,2.4-2.4v-0.2c0-3.6,1.1-7,3-10c1.8-2.8,2.7-6.2,2.4-9.9c-0.6-7.9-7.1-14.2-15-14.8
							C64.9,894,57,901.5,57,910.8z M73.9,910.1c1.3-1.4,3.1-2.1,5.2-2.1c1.8,0,3.5,0.6,4.8,1.7c0.9,0.8,1,2.2,0.2,3.1
							c-0.8,0.9-2.2,1-3.1,0.2c-0.4-0.4-1.1-0.6-1.9-0.6c-1,0-1.7,0.4-2,0.7c-0.4,0.5-1,0.7-1.6,0.7c-0.5,0-1.1-0.2-1.5-0.6
							C73.1,912.3,73.1,911,73.9,910.1z M59.5,910.1c1.3-1.4,3.1-2.1,5.2-2.1c1.8,0,3.5,0.6,4.8,1.7c0.9,0.8,1,2.2,0.2,3.1
							c-0.8,0.9-2.2,1-3.1,0.2c-0.4-0.4-1.1-0.6-1.9-0.6c-1,0-1.7,0.4-2,0.7c-0.4,0.5-1,0.7-1.6,0.7c-0.5,0-1.1-0.2-1.5-0.6
							C58.8,912.3,58.7,911,59.5,910.1z"/>
						<circle class="st36" cx="81.8" cy="911" r="1.3"/>
						<circle class="st36" cx="67.7" cy="911" r="1.3"/>
					</g>
				</g>
			</g>
			<path class="st29" d="M569.6,644.5v-37.3c0-2.2-1.8-4-4-4l-16.5,0c-2.2,0-4,1.8-4,4v37.3c0,2.2,1.8,4,4,4l16.5,0
				C567.8,648.5,569.6,646.7,569.6,644.5z"/>
			<path class="st37" d="M558.7,416.1"/>
		</g>
	</g>
</g>
<g id="motions">
	<g>
		<g>
			<path class="st38" d="M117.8,514.2h20c6.4,0,11.5,5.2,11.5,11.5v11.4h38.5c2-28.9,19.5-53.6,44.2-65.7c6.6-3.3,10.8-10,10.8-17.3
				v-58.3H242c-5.4,0-9.8-4.4-9.8-9.8s4.4-9.8,9.8-9.8h50c5.4,0,9.8,4.4,9.8,9.8s-4.4,9.8-9.8,9.8H291v58.3c0,7.4,4.3,14.1,11,17.4
				c2.2,1.1,4.3,2.2,6.3,3.5l-17.2,3.8c-5.6,1.2-8.7,7.3-6.5,12.5l1.7,4.1c2.6,6.1-2,12.9-8.6,12.8l-15.9-0.2
				c-5.5-0.1-9.8,4.7-9.3,10.2l1.6,15c0.8,7.6-7.5,12.8-14,8.8l-1.7-1.1c-6.6-4.1-15.1,1.4-13.9,9.1l0.2,1.3
				c1.2,8-7.9,13.5-14.5,8.8h0c-3-2.1-6.9-2.3-10-0.5l-9.4,5.5c-1.1-3.6-1.9-7.4-2.5-11.2h-39.1v14c0,6.4-5.2,11.5-11.5,11.5h-20
				c-6.4,0-11.5-5.2-11.5-11.5v-42.2C106.3,519.4,111.4,514.2,117.8,514.2z"/>
			<path class="st27" d="M210.4,560.1L210.4,560.1c6.6,4.8,15.6-0.8,14.5-8.8l-0.2-1.3c-1.1-7.7,7.3-13.3,13.9-9.1l1.7,1.1
				c6.5,4,14.8-1.2,14-8.8l-1.6-15c-0.6-5.5,3.7-10.2,9.3-10.2l15.9,0.2c6.6,0.1,11.2-6.7,8.6-12.8l-1.7-4.1
				c-2.2-5.3,0.9-11.3,6.5-12.5l17.2-3.8c22.6,13.9,37.8,38.7,38,67.2c0.3,43-34.4,78.8-77.4,79.8c-36.8,0.9-68.1-23.4-78-56.8
				l9.4-5.5C203.5,557.8,207.4,557.9,210.4,560.1z"/>
			<circle class="st38" cx="281.3" cy="537" r="7.6"/>
			<circle class="st27" cx="232.3" cy="497.9" r="12"/>
		</g>
		<path class="st16" d="M117.8,514.2h20c6.4,0,11.5,5.2,11.5,11.5v11.4h38.5c2-28.9,19.5-53.6,44.2-65.7c6.6-3.3,10.8-10,10.8-17.3
			v-58.3H242c-5.4,0-9.8-4.4-9.8-9.8s4.4-9.8,9.8-9.8h50c5.4,0,9.8,4.4,9.8,9.8s-4.4,9.8-9.8,9.8H291v58.3c0,7.4,4.3,14.1,11,17.4
			c26.1,12.9,44.1,39.6,44.3,70.6c0.3,43-34.4,78.8-77.4,79.8c-40.8,1-74.9-29-80.4-68h-39.1v14c0,6.4-5.2,11.5-11.5,11.5h-20
			c-6.4,0-11.5-5.2-11.5-11.5v-42.2C106.3,519.4,111.4,514.2,117.8,514.2z"/>
		<path class="st39" d="M254.8,606.7c0.5,0.1,1,0.1,1.5,0.2"/>
		<path class="st39" d="M264,607.4c35.7,0,64.7-29,64.7-64.7"/>
		<line class="st31" x1="242.9" y1="395.8" x2="260.1" y2="395.8"/>
		
			<rect x="246.2" y="342" transform="matrix(-1 -4.486379e-11 4.486379e-11 -1 532.3077 717.4829)" class="st20" width="39.9" height="33.6"/>
		<line class="st31" x1="187.8" y1="537.1" x2="187.8" y2="543.5"/>
		<line class="st31" x1="149.3" y1="553.9" x2="149.3" y2="548.1"/>
	</g>
	<g>
		<g>
			<path class="st30" d="M283.3,855.9l-0.2,0.1c-15.7,2.4-18.4-9.7-35.3-12.4c-14.3-2.3-16.4,8.4-16.6,12.6
				c0.6-18.2,11.3-33.8,26.6-41.5c6.5-3.3,10.7-9.7,10.7-17v-7.2H268c-3.9,0-7.2-2.9-7.5-6.7c-0.3-4.2,3.1-7.7,7.2-7.7h23.3
				c3.9,0,7.2,2.9,7.5,6.7c0.3,4.2-3.1,7.7-7.2,7.7h-0.8v7.2c0,7.2,4.2,13.7,10.7,17c15.8,7.9,26.6,24.3,26.6,43.2v0
				c0,1.5-0.1,3-0.2,4.5l-12.4-5.9C305.2,851.6,293.5,851.4,283.3,855.9z"/>
			<path class="st16" d="M231.2,857.8c0,0,0-0.6,0-1.6C231.2,856.7,231.2,857.2,231.2,857.8L231.2,857.8z"/>
			<path class="st20" d="M247.8,843.6c16.8,2.7,19.5,14.9,35.3,12.4l-13.3,5.9c-9.2,4-19.5,4.3-28.9,0.8l-9.7-3.6c0-0.4,0-0.8,0-1.2
				v0c0-0.5,0-1.1,0-1.6C231.5,851.9,233.6,841.3,247.8,843.6z"/>
			<path class="st34" d="M240.9,862.7c9.4,3.5,19.7,3.2,28.9-0.8l13.3-5.9l0.2-0.1c10.2-4.5,21.9-4.3,31.9,0.5l12.4,5.9
				c-1.2,12.9-7.4,24.3-16.7,32.2c-8.4,7.2-19.4,11.6-31.4,11.6h0c-26.3,0-47.6-21-48.3-47.1L240.9,862.7z"/>
		</g>
		<path class="st16" d="M268.5,797.6v-7.2H268c-3.9,0-7.2-2.9-7.5-6.7c-0.3-4.2,3.1-7.7,7.2-7.7h23.3c3.9,0,7.2,2.9,7.5,6.7
			c0.3,4.2-3.1,7.7-7.2,7.7h-0.8v7.2c0,7.2,4.2,13.7,10.7,17c15.8,7.9,26.6,24.3,26.6,43.2v0c0,26.7-21.6,48.3-48.3,48.3h0
			c-26.7,0-48.3-21.6-48.3-48.3v0c0-18.9,10.8-35.2,26.6-43.2C264.3,811.3,268.5,804.9,268.5,797.6z"/>
		<line class="st31" x1="268.5" y1="790.4" x2="276.8" y2="790.4"/>
		<path class="st40" d="M312.4,850.4c-0.4-1.6-1-3.2-1.7-4.7"/>
		<path class="st40" d="M282.9,888.6c16.8,0,30.4-13.6,30.4-30.4"/>
		<circle class="st34" cx="284" cy="831.2" r="7.7"/>
	</g>
</g>
</svg>
