<svg id="front" xmlns="http://www.w3.org/2000/svg" viewBox="0 0 5760 1080"><title>foreground</title><rect y="1017" width="5767.35" height="71.41" style="fill:#ecf1f8"/><path d="M2486.79,989h782a28,28,0,0,1,28,28v0a0,0,0,0,1,0,0h-838a0,0,0,0,1,0,0v0A28,28,0,0,1,2486.79,989Z" style="fill:#feb8a7;stroke:#002f69;stroke-linecap:round;stroke-linejoin:round;stroke-width:5px"/><path d="M2491.29,732.24h0a5,5,0,0,1,5,5V988.5a0,0,0,0,1,0,0h-10a0,0,0,0,1,0,0V737.24a5,5,0,0,1,5-5Z" style="fill:#f9bc95;stroke:#002f69;stroke-linecap:round;stroke-linejoin:round;stroke-width:5px"/><path d="M3262.29,732.24h0a5,5,0,0,1,5,5V988.5a0,0,0,0,1,0,0h-10a0,0,0,0,1,0,0V737.24a5,5,0,0,1,5-5Z" style="fill:#f9bc95;stroke:#002f69;stroke-linecap:round;stroke-linejoin:round;stroke-width:5px"/><rect x="2468.29" y="755.5" width="819" height="17" rx="8.5" ry="8.5" style="fill:#feb8a7;stroke:#002f69;stroke-linecap:round;stroke-linejoin:round;stroke-width:5px"/><circle cx="2491.34" cy="763.78" r="3" style="fill:#fff;stroke:#002f69;stroke-linecap:round;stroke-linejoin:round;stroke-width:5px"/><circle cx="3262.53" cy="763.78" r="3" style="fill:#fff;stroke:#002f69;stroke-linecap:round;stroke-linejoin:round;stroke-width:5px"/><polygon points="2434.18 1004.29 2432.5 981.93 2452.74 971.43 2474.73 981.11 2475.69 989.03 2456.96 1003.62 2434.18 1004.29" style="fill:#feeee4;stroke:#002f69;stroke-linecap:round;stroke-linejoin:round;stroke-width:5px"/><polygon points="2481.84 984.25 2475.69 989.03 2474.73 981.11 2481.84 984.25" style="fill:#002f69;stroke:#002f69;stroke-linecap:round;stroke-linejoin:round;stroke-width:5px"/><path d="M2354.45,983.37l10.63-1.29,3.91,32.22-10.62,1.3a10.82,10.82,0,0,1-12-9.44L2345,995.41A10.82,10.82,0,0,1,2354.45,983.37Z" style="fill:#efa7bb;stroke:#002f69;stroke-linecap:round;stroke-linejoin:round;stroke-width:5px"/><rect x="2366.99" y="981.13" width="13.76" height="32.46" transform="translate(-102.95 293.56) rotate(-6.93)" style="fill:#ecf1f8;stroke:#002f69;stroke-linecap:round;stroke-linejoin:round;stroke-width:5px"/><path d="M2452.74,971.43a8.34,8.34,0,0,0,2.68,16,8.35,8.35,0,0,0,1.54,16.21l-74.3,9-3.92-32.22Z" style="fill:#f88645;stroke:#002f69;stroke-linecap:round;stroke-linejoin:round;stroke-width:5px"/><line x1="2406.96" y1="993.3" x2="2406.34" y2="993.38" style="fill:#002f69;stroke:#002f69;stroke-linecap:round;stroke-linejoin:round;stroke-width:5px"/><line x1="2455.42" y1="987.41" x2="2415.42" y2="992.27" style="fill:#002f69;stroke:#002f69;stroke-linecap:round;stroke-linejoin:round;stroke-width:5px"/><line x1="5760.79" y1="1017" y2="1017" style="fill:#fcedf0;stroke:#002f69;stroke-linecap:round;stroke-linejoin:round;stroke-width:5px"/><path d="M2511.77,1017.22h11.64a21.86,21.86,0,0,1,15.48,6.42l4.6,4.59a21.82,21.82,0,0,0,11.11,6l17.29,3.52a21.94,21.94,0,0,1,10.85,5.71h0a21.89,21.89,0,0,0,25.33,3.68l7.08-3.69a21.77,21.77,0,0,0,7.4-6.28l4.78-6.38a21.83,21.83,0,0,1,8.53-6.82l11.81-5.32a22,22,0,0,1,9-1.93H2670a29.29,29.29,0,0,0-24.62-10.68l-48.83,3.23a274.69,274.69,0,0,1-32.59.22l-30.53-1.63a26.5,26.5,0,0,0-21.67,9.39Z" style="fill:#92dbac;stroke:#002f69;stroke-linecap:round;stroke-linejoin:round;stroke-width:5px"/><circle cx="2598.41" cy="1068.3" r="8.46" style="fill:#92dbac;stroke:#002f69;stroke-linecap:round;stroke-linejoin:round;stroke-width:5px"/><path d="M2946.29,989.14l15.42,5.86c13.51,5.14,20.28,22.1,36.91,22.1h0l2.29,5a35.55,35.55,0,0,0,15.22,16.43h0a7.71,7.71,0,0,1,4,6.76v6.36a7.71,7.71,0,0,0,7.71,7.71h0a7.71,7.71,0,0,0,7.45-5.7l2.16-8a54.64,54.64,0,0,1,12.41-22.6h0a20.52,20.52,0,0,1,15.17-6.7h24.63c11.67,0,6.26-16,12.6-21.85l8.19-7.54h0a45.66,45.66,0,0,0-28.38-7.56l-42,2.83a292.55,292.55,0,0,1-34.15.31l-29.79-1.48a45.63,45.63,0,0,0-21.37,4.15Z" style="fill:#e1526e;stroke:#002f69;stroke-linecap:round;stroke-linejoin:round;stroke-width:5px"/><line x1="3029.84" y1="1016.38" x2="3028.85" y2="1016.38" style="fill:#e1526e;stroke:#002f69;stroke-linecap:round;stroke-linejoin:round;stroke-width:5px"/><line x1="3065.03" y1="1016.38" x2="3042.79" y2="1016.38" style="fill:#e1526e;stroke:#002f69;stroke-linecap:round;stroke-linejoin:round;stroke-width:5px"/></svg>