<svg xmlns="http://www.w3.org/2000/svg" viewBox="0 0 3847.82 1080"><title>foreground</title><g id="front"><line x1="3847.82" y1="1017" x2="4.82" y2="1017" style="fill:#fcedf0;stroke:#002f69;stroke-linecap:round;stroke-linejoin:round;stroke-width:5px"/><rect x="-1.74" y="1017" width="3849.56" height="71.41" style="fill:#ecf1f8;stroke:#002f69;stroke-linecap:round;stroke-linejoin:round;stroke-width:5px"/><path d="M2496.82,989h782a28,28,0,0,1,28,28v0a0,0,0,0,1,0,0h-838a0,0,0,0,1,0,0v0A28,28,0,0,1,2496.82,989Z" style="fill:#feb8a7;stroke:#002f69;stroke-linecap:round;stroke-linejoin:round;stroke-width:5px"/><path d="M2501.32,732.24h0a5,5,0,0,1,5,5V988.5a0,0,0,0,1,0,0h-10a0,0,0,0,1,0,0V737.24A5,5,0,0,1,2501.32,732.24Z" style="fill:#f9bc95;stroke:#002f69;stroke-linecap:round;stroke-linejoin:round;stroke-width:5px"/><path d="M3272.32,732.24h0a5,5,0,0,1,5,5V988.5a0,0,0,0,1,0,0h-10a0,0,0,0,1,0,0V737.24a5,5,0,0,1,5-5Z" style="fill:#f9bc95;stroke:#002f69;stroke-linecap:round;stroke-linejoin:round;stroke-width:5px"/><rect x="2478.32" y="755.5" width="819" height="17" rx="8.5" ry="8.5" style="fill:#feb8a7;stroke:#002f69;stroke-linecap:round;stroke-linejoin:round;stroke-width:5px"/><circle cx="2501.37" cy="763.78" r="3" style="fill:#fff;stroke:#002f69;stroke-linecap:round;stroke-linejoin:round;stroke-width:5px"/><circle cx="3272.56" cy="763.78" r="3" style="fill:#fff;stroke:#002f69;stroke-linecap:round;stroke-linejoin:round;stroke-width:5px"/><path d="M2189.75,984.61H2447a8.19,8.19,0,0,1,8.19,8.19V1017a0,0,0,0,1,0,0H2181.56a0,0,0,0,1,0,0V992.79A8.19,8.19,0,0,1,2189.75,984.61Z" style="fill:#feb8a7;stroke:#002f69;stroke-linecap:round;stroke-linejoin:round;stroke-width:5px"/><path d="M2212.12,792.34h213.43a22.24,22.24,0,0,1,22.24,22.24v170a0,0,0,0,1,0,0h-257.9a0,0,0,0,1,0,0v-170A22.24,22.24,0,0,1,2212.12,792.34Z" style="fill:#ffded5;stroke:#002f69;stroke-linecap:round;stroke-linejoin:round;stroke-width:5px"/><path d="M2226.3,816h185.07a12.09,12.09,0,0,1,12.09,12.09V932.5a0,0,0,0,1,0,0H2214.21a0,0,0,0,1,0,0V828.13A12.09,12.09,0,0,1,2226.3,816Z" style="fill:#002f69;stroke:#002f69;stroke-linecap:round;stroke-linejoin:round;stroke-width:5px"/><circle cx="2237.32" cy="959" r="14.5" style="fill:#ddf2e3;stroke:#002f69;stroke-linecap:round;stroke-linejoin:round;stroke-width:5px"/><line x1="2237.32" y1="944.5" x2="2237.32" y2="956.16" style="fill:#feb8a7;stroke:#002f69;stroke-linecap:round;stroke-linejoin:round;stroke-width:5px"/><circle cx="2296.51" cy="959" r="14.5" transform="translate(-134.59 426.65) rotate(-10.31)" style="fill:#ddf2e3;stroke:#002f69;stroke-linecap:round;stroke-linejoin:round;stroke-width:5px"/><line x1="2306.77" y1="948.75" x2="2298.52" y2="956.99" style="fill:#feb8a7;stroke:#002f69;stroke-linecap:round;stroke-linejoin:round;stroke-width:5px"/><circle cx="2355.71" cy="959" r="14.5" transform="translate(957.1 3083.37) rotate(-78.79)" style="fill:#ddf2e3;stroke:#002f69;stroke-linecap:round;stroke-linejoin:round;stroke-width:5px"/><line x1="2345.46" y1="948.75" x2="2353.7" y2="956.99" style="fill:#feb8a7;stroke:#002f69;stroke-linecap:round;stroke-linejoin:round;stroke-width:5px"/><rect x="2395.28" y="949.13" width="17.85" height="17.85" style="fill:#e1526e;stroke:#002f69;stroke-linecap:round;stroke-linejoin:round;stroke-width:5px"/><path d="M2393.92,800.81H2215.73a17.1,17.1,0,0,0-17.11,17.1V973.07" style="fill:none;stroke:#fef7f3;stroke-linecap:round;stroke-linejoin:round;stroke-width:5px"/><line x1="2410.83" y1="800.81" x2="2408.37" y2="800.81" style="fill:none;stroke:#fef7f3;stroke-linecap:round;stroke-linejoin:round;stroke-width:5px"/><path d="M2218.82,912h6a5,5,0,0,0,5-5V852.5a5,5,0,0,1,5-5h4a5,5,0,0,1,5,5V907a5,5,0,0,0,5,5h3a5,5,0,0,0,5-5V852a5,5,0,0,1,5-5h3a5,5,0,0,1,5,5v55.5a5,5,0,0,0,5,5h0a5,5,0,0,0,5-5V852a5,5,0,0,1,5-5h2.5a5,5,0,0,1,5,5v56a5,5,0,0,0,5,5h6a5,5,0,0,0,5-5V878.5a5,5,0,0,1,5-5h27.5a5,5,0,0,0,5-5v-10a5,5,0,0,1,5-5h2a5,5,0,0,1,5,5v27a5,5,0,0,0,5,5h10.5a5,5,0,0,0,5-5v-29a5,5,0,0,1,5-5h3.5a5,5,0,0,1,5,5v47a5,5,0,0,0,5,5h7.5a5,5,0,0,0,5-5V844a5,5,0,0,1,5-5h4" style="fill:none;stroke:#e1526e;stroke-linecap:round;stroke-linejoin:round;stroke-width:5px"/><path d="M3582.37,931.83a7.5,7.5,0,0,1,0-15,88.5,88.5,0,0,0,0-177,7.5,7.5,0,0,1,0-15,103.5,103.5,0,0,1,0,207Z" style="fill:#f7b5ba;stroke:#002f69;stroke-linecap:round;stroke-linejoin:round;stroke-width:5px"/><path d="M3486.37,870.67s-5.41,23-1.86,43.36a8.39,8.39,0,0,0,7.89,6.93h.13a8.45,8.45,0,0,0,8.65-6.84c1-5.24,3.42-12,8.85-15.8" style="fill:#fff;stroke:#838eb1;stroke-linecap:round;stroke-linejoin:round;stroke-width:5px"/><path d="M3629.74,907c-2.42-17.36-17.68-29.78-35.21-30A54.34,54.34,0,0,1,3552.12,856a26.25,26.25,0,0,0-15.71-50.06,35.08,35.08,0,0,0-20.8-16.8,127,127,0,0,1-13.84-10.62c-5.34,6.6-15.43,16.27-28.57,16.25a207.85,207.85,0,0,0-2.51,27.93A124.55,124.55,0,0,0,3595.1,947.08,35,35,0,0,0,3629.74,907Z" style="fill:#fff;stroke:#838eb1;stroke-linecap:round;stroke-linejoin:round;stroke-width:5px"/><path d="M3501.77,778.49c-2.13-1.84-4-3.55-5.44-4.86a12,12,0,0,0-19.48,5.1,118.92,118.92,0,0,0-3.65,16C3486.34,794.76,3496.43,785.09,3501.77,778.49Z" style="fill:#f7b5ba;stroke:#002f69;stroke-linecap:round;stroke-linejoin:round;stroke-width:5px"/><circle cx="3541.53" cy="831" r="15.5" style="fill:#efa7bb"/><ellipse cx="3512.87" cy="803.67" rx="2.67" ry="6.83" transform="translate(1348.87 3685.2) rotate(-65.98)" style="fill:#002f69"/><path d="M3488,843s-9.91-10.33-21.94-16.51a8,8,0,0,0-11.49,6h0a8,8,0,0,0,2.1,6.65c5.6,5.91,18.44,20,23.33,29.21,6.34,12,14.67,13.34,14.67,13.34" style="fill:#fff;stroke:#838eb1;stroke-linecap:round;stroke-linejoin:round;stroke-width:5px"/><path d="M3555.7,932.67s17,22.35,40.77,26.13a12.37,12.37,0,0,0,10.25-3.13h0a12.4,12.4,0,0,0,3.49-13,18.4,18.4,0,0,1,.16-11.66" style="fill:#fff;stroke:#838eb1;stroke-linecap:round;stroke-linejoin:round;stroke-width:5px"/><path d="M3582.64,988.31c-87.63,0-158.92-71.3-158.92-158.93S3495,670.45,3582.64,670.45s158.93,71.3,158.93,158.93S3670.28,988.31,3582.64,988.31Zm0-293.71c-74.31,0-134.78,60.46-134.78,134.78s60.47,134.78,134.78,134.78,134.78-60.46,134.78-134.78S3657,694.6,3582.64,694.6Z" style="fill:#92dbac;stroke:#002f69;stroke-linecap:round;stroke-linejoin:round;stroke-width:5px"/><polygon points="3664.74 964.75 3500.54 964.75 3510.99 949.83 3653.03 949.83 3664.74 964.75" style="fill:#f9bc95;stroke:#002f69;stroke-linecap:round;stroke-linejoin:round;stroke-width:5px"/><path d="M3684,1017.59a7.51,7.51,0,0,1-6.55-3.83l-94.8-169-94.8,169a7.5,7.5,0,1,1-13.08-7.34L3576.1,825.71a7.5,7.5,0,0,1,13.08,0l101.35,180.71a7.51,7.51,0,0,1-6.54,11.17Z" style="fill:#feeee4;stroke:#002f69;stroke-linecap:round;stroke-linejoin:round;stroke-width:5px"/><circle cx="3582.64" cy="829.38" r="20.04" style="fill:#f9bc95;stroke:#002f69;stroke-linecap:round;stroke-linejoin:round;stroke-width:5px"/><circle cx="3582.64" cy="829.38" r="10.14" style="fill:#92dbac;stroke:#002f69;stroke-linecap:round;stroke-linejoin:round;stroke-width:5px"/><path d="M3582.64,646.73a181.8,181.8,0,0,0-64.42,11.74,4.57,4.57,0,0,1-5.75-2.33h0a4.61,4.61,0,0,1,2.54-6.28,191.19,191.19,0,0,1,63.17-12.3,4.58,4.58,0,0,0,4.46-4.59v-.81a4.61,4.61,0,0,0-4.71-4.6A202.34,202.34,0,0,0,3394,757.32a4.61,4.61,0,0,0,2.76,6l.76.27a4.59,4.59,0,0,0,5.82-2.69q1.83-4.75,3.87-9.37a4.6,4.6,0,0,1,6-2.37l.09,0a4.58,4.58,0,0,1,2.41,6.09,181.34,181.34,0,0,0-15.65,69.37,4.6,4.6,0,0,0,4.59,4.73h.82a4.57,4.57,0,0,0,4.58-4.46c2.37-93.14,78.88-168.19,172.59-168.19A173.13,173.13,0,0,1,3661,675.49a4.56,4.56,0,0,0,6.09-1.9l.39-.72a4.59,4.59,0,0,0-1.95-6.29A183,183,0,0,0,3582.64,646.73Z" style="fill:#fdf6f8"/><path d="M3388.91,786.69l2.93.64a3.49,3.49,0,0,0,4.15-2.6l0-.07a3.5,3.5,0,0,0-2.53-4.2l-2.9-.75a3.5,3.5,0,0,0-4.28,2.57l0,.18A3.5,3.5,0,0,0,3388.91,786.69Z" style="fill:#fdf6f8"/><polygon points="3332.45 1004.29 3334.14 981.93 3313.9 971.43 3291.91 981.11 3290.95 989.03 3309.67 1003.62 3332.45 1004.29" style="fill:#feeee4;stroke:#002f69;stroke-linecap:round;stroke-linejoin:round;stroke-width:5px"/><polygon points="3284.79 984.25 3290.95 989.03 3291.91 981.11 3284.79 984.25" style="fill:#002f69;stroke:#002f69;stroke-linecap:round;stroke-linejoin:round;stroke-width:5px"/><path d="M3412.18,983.37l-10.62-1.29-3.92,32.22,10.63,1.3a10.84,10.84,0,0,0,12.05-9.44l1.3-10.75A10.81,10.81,0,0,0,3412.18,983.37Z" style="fill:#efa7bb;stroke:#002f69;stroke-linecap:round;stroke-linejoin:round;stroke-width:5px"/><rect x="3376.54" y="990.48" width="32.46" height="13.76" transform="translate(1993.53 4245.09) rotate(-83.07)" style="fill:#ecf1f8;stroke:#002f69;stroke-linecap:round;stroke-linejoin:round;stroke-width:5px"/><path d="M3313.9,971.43a8.34,8.34,0,0,1-2.69,16,8.35,8.35,0,0,1-1.54,16.21l74.31,9,3.91-32.22Z" style="fill:#f88645;stroke:#002f69;stroke-linecap:round;stroke-linejoin:round;stroke-width:5px"/><line x1="3359.68" y1="993.3" x2="3360.3" y2="993.38" style="fill:#002f69;stroke:#002f69;stroke-linecap:round;stroke-linejoin:round;stroke-width:5px"/><line x1="3311.21" y1="987.41" x2="3351.21" y2="992.27" style="fill:#002f69;stroke:#002f69;stroke-linecap:round;stroke-linejoin:round;stroke-width:5px"/><path d="M2521.79,1017.22h11.65a21.9,21.9,0,0,1,15.48,6.42l4.59,4.59a21.82,21.82,0,0,0,11.11,6l17.29,3.52a21.94,21.94,0,0,1,10.85,5.71h0a21.89,21.89,0,0,0,25.33,3.68l7.08-3.69a21.89,21.89,0,0,0,7.41-6.28l4.78-6.38a21.8,21.8,0,0,1,8.52-6.82l11.82-5.32a21.87,21.87,0,0,1,9-1.93H2680a29.3,29.3,0,0,0-24.62-10.68l-48.83,3.23a274.88,274.88,0,0,1-32.6.22l-30.53-1.63a26.51,26.51,0,0,0-21.67,9.39Z" style="fill:#92dbac;stroke:#002f69;stroke-linecap:round;stroke-linejoin:round;stroke-width:5px"/><circle cx="2608.44" cy="1068.3" r="8.46" style="fill:#92dbac;stroke:#002f69;stroke-linecap:round;stroke-linejoin:round;stroke-width:5px"/><path d="M2956.31,989.14l15.42,5.86c13.51,5.14,20.28,22.1,36.91,22.1h0l2.29,5a35.55,35.55,0,0,0,15.22,16.43h0a7.69,7.69,0,0,1,4,6.76v6.36a7.71,7.71,0,0,0,7.71,7.71h0a7.71,7.71,0,0,0,7.45-5.7l2.17-8a54.51,54.51,0,0,1,12.4-22.6h0a20.52,20.52,0,0,1,15.17-6.7h24.63c11.67,0,6.26-16,12.6-21.85l8.19-7.54h0a45.65,45.65,0,0,0-28.37-7.56l-42,2.83a292.4,292.4,0,0,1-34.14.31l-29.79-1.48a45.65,45.65,0,0,0-21.38,4.15Z" style="fill:#e1526e;stroke:#002f69;stroke-linecap:round;stroke-linejoin:round;stroke-width:5px"/><line x1="3075.05" y1="1016.38" x2="3052.82" y2="1016.38" style="fill:#e1526e;stroke:#002f69;stroke-linecap:round;stroke-linejoin:round;stroke-width:5px"/><line x1="3039.87" y1="1016.38" x2="3038.88" y2="1016.38" style="fill:#e1526e;stroke:#002f69;stroke-linecap:round;stroke-linejoin:round;stroke-width:5px"/></g></svg>