<?xml version="1.0" encoding="utf-8"?>
<!-- Generator: Adobe Illustrator 23.0.4, SVG Export Plug-In . SVG Version: 6.00 Build 0)  -->
<svg version="1.1" xmlns="http://www.w3.org/2000/svg" xmlns:xlink="http://www.w3.org/1999/xlink" x="0px" y="0px"
	 viewBox="0 0 5760 1080" style="enable-background:new 0 0 5760 1080;" xml:space="preserve">
<style type="text/css">
	.st0{fill:#ECF1F8;}
	.st1{fill:#FEB8A7;stroke:#002F69;stroke-width:5;stroke-linecap:round;stroke-linejoin:round;}
	.st2{fill:#F9BC95;stroke:#002F69;stroke-width:5;stroke-linecap:round;stroke-linejoin:round;}
	.st3{fill:#FFFFFF;stroke:#002F69;stroke-width:5;stroke-linecap:round;stroke-linejoin:round;}
	.st4{fill:#FEEEE4;stroke:#002F69;stroke-width:5;stroke-linecap:round;stroke-linejoin:round;}
	.st5{fill:#002F69;stroke:#002F69;stroke-width:5;stroke-linecap:round;stroke-linejoin:round;}
	.st6{fill:#EFA7BB;stroke:#002F69;stroke-width:5;stroke-linecap:round;stroke-linejoin:round;}
	.st7{fill:#ECF1F8;stroke:#002F69;stroke-width:5;stroke-linecap:round;stroke-linejoin:round;}
	.st8{fill:#F88645;stroke:#002F69;stroke-width:5;stroke-linecap:round;stroke-linejoin:round;}
	.st9{fill:none;stroke:#002F69;stroke-width:5;stroke-linecap:round;stroke-linejoin:round;}
	.st10{fill:#92DBAC;stroke:#002F69;stroke-width:5;stroke-linecap:round;stroke-linejoin:round;}
	.st11{fill:#E1526E;stroke:#002F69;stroke-width:5;stroke-linecap:round;stroke-linejoin:round;}
	.st12{opacity:0.3;fill:#5C6C98;}
	.st13{fill:#F9BC95;}
	.st14{fill:#B5C8E6;}
	.st15{fill:#4B7CC4;}
	.st16{fill:none;stroke:#002F69;stroke-width:5;stroke-linecap:round;stroke-linejoin:round;stroke-miterlimit:10;}
	.st17{fill:none;stroke:#ECF1F8;stroke-width:5;stroke-linecap:round;stroke-miterlimit:10;}
	.st18{fill:#92DBAC;stroke:#002F69;stroke-width:5;stroke-linecap:round;stroke-linejoin:round;stroke-miterlimit:10;}
	.st19{fill:#B5C8E6;stroke:#002F69;stroke-width:5;stroke-linecap:round;stroke-linejoin:round;stroke-miterlimit:10;}
	.st20{fill:#F9BC95;stroke:#002F69;stroke-width:5;stroke-linecap:round;stroke-linejoin:round;stroke-miterlimit:10;}
	.st21{fill:#4B7CC4;stroke:#002F69;stroke-width:5;stroke-linecap:round;stroke-linejoin:round;stroke-miterlimit:10;}
	.st22{fill:#DDF2E3;stroke:#002F69;stroke-width:5;stroke-linecap:round;stroke-linejoin:round;stroke-miterlimit:10;}
	.st23{fill:#FEB8A7;stroke:#002F69;stroke-width:5;stroke-linecap:round;stroke-linejoin:round;stroke-miterlimit:10;}
	.st24{fill:#FFFFFF;stroke:#002F69;stroke-width:5;stroke-linecap:round;stroke-linejoin:round;stroke-miterlimit:10;}
	.st25{fill:none;stroke:#4B7CC4;stroke-width:5;stroke-linecap:round;stroke-linejoin:round;stroke-miterlimit:10;}
	.st26{fill:none;stroke:#838EB1;stroke-width:5;stroke-linecap:round;stroke-linejoin:round;stroke-miterlimit:10;}
	.st27{fill:#FFDED5;stroke:#002F69;stroke-width:5;stroke-linecap:round;stroke-linejoin:round;stroke-miterlimit:10;}
	.st28{fill:#E1526E;stroke:#002F69;stroke-width:5;stroke-linecap:round;stroke-linejoin:round;stroke-miterlimit:10;}
	.st29{fill:none;stroke:#FFDED5;stroke-width:5;stroke-linecap:round;stroke-linejoin:round;stroke-miterlimit:10;}
</style>
<g id="front">
	<title>foreground</title>
	<rect y="1017" class="st0" width="5767.4" height="71.4"/>
	<path class="st1" d="M2486.8,989h782c15.5,0,28,12.5,28,28l0,0l0,0h-838l0,0l0,0C2458.8,1001.5,2471.3,989,2486.8,989z"/>
	<path class="st2" d="M2491.3,732.2L2491.3,732.2c2.8,0,5,2.2,5,5v251.3l0,0h-10l0,0V737.2C2486.3,734.5,2488.5,732.2,2491.3,732.2z
		"/>
	<path class="st2" d="M3262.3,732.2L3262.3,732.2c2.8,0,5,2.2,5,5v251.3l0,0h-10l0,0V737.2C3257.3,734.5,3259.5,732.2,3262.3,732.2z
		"/>
	<path class="st1" d="M2476.8,755.5h802c4.7,0,8.5,3.8,8.5,8.5l0,0c0,4.7-3.8,8.5-8.5,8.5h-802c-4.7,0-8.5-3.8-8.5-8.5l0,0
		C2468.3,759.3,2472.1,755.5,2476.8,755.5z"/>
	<circle class="st3" cx="2491.3" cy="763.8" r="3"/>
	<circle class="st3" cx="3262.5" cy="763.8" r="3"/>
	<polygon class="st4" points="2434.2,1004.3 2432.5,981.9 2452.7,971.4 2474.7,981.1 2475.7,989 2457,1003.6 	"/>
	<polygon class="st5" points="2481.8,984.2 2475.7,989 2474.7,981.1 	"/>
	<path class="st6" d="M2354.4,983.4l10.6-1.3l3.9,32.2l-10.6,1.3c-5.9,0.7-11.3-3.5-12-9.4l-1.4-10.8
		C2344.3,989.5,2348.5,984.1,2354.4,983.4C2354.4,983.4,2354.4,983.4,2354.4,983.4z"/>
	
		<rect x="2367" y="981" transform="matrix(0.9927 -0.1207 0.1207 0.9927 -102.9769 293.7139)" class="st7" width="13.8" height="32.5"/>
	<path class="st8" d="M2452.7,971.4c-4.2,1.8-6.2,6.7-4.4,10.9c1.2,2.9,4,4.9,7.1,5.1c-4.4,1.4-6.8,6.2-5.3,10.5
		c1,3,3.7,5.3,6.9,5.7l-74.3,9l-3.9-32.2L2452.7,971.4z"/>
	<line class="st9" x1="2407" y1="993.3" x2="2406.3" y2="993.4"/>
	<line class="st9" x1="2455.4" y1="987.4" x2="2415.4" y2="992.3"/>
	<line class="st9" x1="5760.8" y1="1017" x2="0" y2="1017"/>
	<path class="st10" d="M2511.8,1017.2h11.6c5.8,0,11.4,2.3,15.5,6.4l4.6,4.6c3,3.1,6.9,5.1,11.1,6l17.3,3.5
		c4.1,0.8,7.8,2.8,10.9,5.7l0,0c6.8,6.5,17,8,25.3,3.7l7.1-3.7c2.9-1.5,5.4-3.7,7.4-6.3l4.8-6.4c2.2-3,5.2-5.3,8.5-6.8l11.8-5.3
		c2.8-1.3,5.9-1.9,9-1.9h13.3c-6-7.3-15.2-11.3-24.6-10.7l-48.8,3.2c-10.8,0.7-21.7,0.8-32.6,0.2l-30.5-1.6
		C2525.1,1007.4,2517.1,1010.9,2511.8,1017.2L2511.8,1017.2z"/>
	<circle class="st10" cx="2598.4" cy="1068.3" r="8.5"/>
	<path class="st11" d="M2946.3,989.1l15.4,5.9c13.5,5.1,20.3,22.1,36.9,22.1l0,0l2.3,5c3.2,7,8.5,12.7,15.2,16.4l0,0
		c2.5,1.4,4,3.9,4,6.8v6.4c0,4.3,3.5,7.7,7.7,7.7l0,0c3.5,0,6.5-2.3,7.4-5.7l2.2-8c2.3-8.4,6.5-16.2,12.4-22.6l0,0
		c3.9-4.3,9.4-6.7,15.2-6.7h24.6c11.7,0,6.3-16,12.6-21.8l8.2-7.5l0,0c-8.4-5.6-18.3-8.2-28.4-7.6l-42,2.8
		c-11.4,0.8-22.8,0.9-34.1,0.3l-29.8-1.5c-7.4-0.4-14.7,1.1-21.4,4.2L2946.3,989.1z"/>
	<line class="st9" x1="3029.8" y1="1016.4" x2="3028.9" y2="1016.4"/>
	<line class="st9" x1="3065" y1="1016.4" x2="3042.8" y2="1016.4"/>
</g>
<g id="Mode_Isolation">
	<g>
		<polygon class="st12" points="104.2,715.7 104.2,719 203.8,724.4 195.5,635 		"/>
		<rect x="100.9" y="621.2" class="st13" width="95" height="95"/>
		<g>
			<path class="st14" d="M238.7,807.3l-0.6,20.9c0,0,24.4,20.3,22.7,48.2c2.7,7.2,4.1,15,4.1,23.1c0,11.8-3.1,23.4-9,33.5
				c-5.7,9.8-13.9,18.1-23.7,24l17.4,29.2c14.7-8.8,27.1-21.3,35.7-36.1c8.9-15.3,13.6-32.8,13.6-50.6
				C298.9,858.4,274.1,823,238.7,807.3z"/>
			<path class="st15" d="M238.2,828.2l0.6-20.9c-12.4-5.5-26.2-8.5-40.6-8.5v34c28.7,0,53.2,18.2,62.7,43.7
				C262.5,848.5,238.2,828.2,238.2,828.2z"/>
		</g>
		<g>
			<path class="st16" d="M249.6,986.2L232.2,957c9.8-5.8,18-14.1,23.7-24c5.9-10.1,9-21.7,9-33.5c0-36.8-30-66.8-66.8-66.8v-34
				c55.6,0,100.8,45.2,100.8,100.8c0,17.8-4.7,35.3-13.6,50.6C276.7,965,264.4,977.5,249.6,986.2z"/>
		</g>
		<path class="st17" d="M287.3,908.8c-0.2,1.3-0.5,2.7-0.7,4"/>
		<path class="st17" d="M247.4,820.8c24.6,15.6,40.9,43,40.9,74.3"/>
		<path class="st18" d="M153.8,915.7h-7.9c-7.2,0-13-5.8-13-13l0,0h34l0,0C166.8,909.9,161,915.7,153.8,915.7z"/>
		<rect x="132.8" y="985.4" class="st19" width="34" height="11.3"/>
		<path class="st20" d="M123.1,974c0,6.3,5.1,11.3,11.3,11.3h30.8c6.3,0,11.3-5.1,11.3-11.3H123.1z"/>
		<g>
			<path class="st14" d="M154.6,853l3.5-81.1h-16.6c-10.4,0-18.9,8.4-18.9,18.9v102.9h7.8l14.5-16.5
				C150.8,870.4,154.3,861.9,154.6,853z"/>
			<path class="st15" d="M177,790.8c0-10.4-8.4-18.9-18.9-18.9l-3.5,81.1c-0.4,8.9-3.8,17.4-9.7,24.2l-14.5,16.5H177V790.8z"/>
		</g>
		<path class="st16" d="M177,893.6h-54.4V790.8c0-10.4,8.4-18.9,18.9-18.9h16.6c10.4,0,18.9,8.4,18.9,18.9V893.6z"/>
		<rect x="142.2" y="764" class="st20" width="15.3" height="7.9"/>
		<path class="st21" d="M156.3,764h-13c-6.4,0-11.6-5.2-11.6-11.6v-7.6h36.2v7.6C167.9,758.8,162.7,764,156.3,764z"/>
		<path class="st20" d="M170.5,744.7h-41.3c-1.7,0-3.1-1.4-3.1-3.1v-2c0-1.7,1.4-3.1,3.1-3.1h41.3c1.7,0,3.1,1.4,3.1,3.1v2
			C173.6,743.3,172.2,744.7,170.5,744.7z"/>
		<path class="st20" d="M180,902.7h-60.3c-2.1,0-3.8-1.7-3.8-3.8v-1.4c0-2.1,1.7-3.8,3.8-3.8H180c2.1,0,3.8,1.7,3.8,3.8v1.4
			C183.8,901,182.1,902.7,180,902.7z"/>
		<path class="st20" d="M264.9,996.4h-45.3v-22.6c0-12.5,10.2-22.6,22.6-22.6h0c12.5,0,22.6,10.2,22.6,22.6V996.4z"/>
		<circle class="st22" cx="242.5" cy="974.3" r="13.1"/>
		<path class="st23" d="M66.8,1017.3h238.4l0,0c0-11.6-9.4-21-21-21H87.7C76.1,996.4,66.8,1005.8,66.8,1017.3L66.8,1017.3z"/>
		<line class="st24" x1="300" y1="1006" x2="234.1" y2="1006"/>
		<line class="st24" x1="224.2" y1="1006" x2="220.8" y2="1006"/>
		<path class="st25" d="M133.3,855.9v-62.4c0-6.3,5.1-11.4,11.4-11.4"/>
		<circle class="st20" cx="197.6" cy="816.3" r="26"/>
		<circle class="st22" cx="197.6" cy="816.3" r="13.1"/>
		<g>
			<g>
				<ellipse class="st26" cx="148.6" cy="674.4" rx="25.1" ry="13"/>
			</g>
			<circle class="st26" cx="148.7" cy="679.2" r="6.5"/>
			<line class="st26" x1="147.9" y1="650.4" x2="147.9" y2="638.2"/>
			<line class="st26" x1="164.7" y1="654.7" x2="168.9" y2="647.7"/>
			<line class="st26" x1="132.4" y1="654.7" x2="128.2" y2="647.7"/>
		</g>
	</g>
	<g>
		<path class="st27" d="M1686.8,1006.3l-88.9-8.9c-2.1-0.2-3.7-2.1-3.5-4.3l0,0c0.2-2.1-1.3-4-3.5-4.3l-131-13.1l-2.3,22.6l131,13.1
			c2.1,0.2,4-1.3,4.3-3.5v0c0.2-2.1,2.1-3.7,4.3-3.5l88.9,8.9L1686.8,1006.3z"/>
		<path class="st28" d="M1459.9,975.8l-1.2-0.1c-10.7-1.1-20-7.2-25.7-16.3c-6.4-10.3-17.8-17.3-31.1-17.5
			c-18.1-0.3-34,13-37.1,30.8c-3.7,21.5,11.6,41.2,32.9,43.3c10.9,1.1,21.2-2.7,28.7-9.5c7-6.4,16.5-9.5,26-8.5l5.1,0.5
			L1459.9,975.8z"/>
		<path class="st29" d="M1423,961.7c0.2,0.2,0.4,0.5,0.5,0.7"/>
		<path class="st29" d="M1374,978.6c0-15.1,12.3-27.4,27.4-27.4c5.7,0,11,1.7,15.3,4.7"/>
	</g>
</g>
</svg>
