<?xml version="1.0" encoding="utf-8"?>
<!-- Generator: Adobe Illustrator 23.0.4, SVG Export Plug-In . SVG Version: 6.00 Build 0)  -->
<svg version="1.1" xmlns="http://www.w3.org/2000/svg" xmlns:xlink="http://www.w3.org/1999/xlink" x="0px" y="0px"
	 viewBox="0 0 135 135" style="enable-background:new 0 0 135 135;" xml:space="preserve">
<style type="text/css">
	.st0{fill:#92DBAC;stroke:#002F69;stroke-width:5;stroke-linecap:round;stroke-linejoin:round;}
	.st1{fill:#ECF1F8;}
	.st2{fill:none;stroke:#DDF2E3;stroke-width:10;stroke-linecap:round;stroke-linejoin:round;}
	.st3{fill:#E1526E;}
	.st4{fill:#F9BC95;}
	.st5{opacity:0.1;fill:#606060;}
</style>
<g id="Calque_1">
</g>
<g id="middle">
	<g>
		<circle class="st0" cx="67.5" cy="67.5" r="64.4"/>
		<path class="st1" d="M24.3,67.5c0-11.2,4.4-22,12.2-30c19.8-13.2,46.6-7.8,59.9,12c11.3,16.9,9.2,39.4-5,54
			c-19.9,13.2-46.7,7.8-59.9-12.1C26.8,84.3,24.3,76,24.3,67.5L24.3,67.5z"/>
		<path class="st2" d="M121.8,49.8c-7.7-23.5-29.6-39.4-54.3-39.4"/>
		<path class="st2" d="M124.6,67.5c0-1.1,0-2.2-0.1-3.3"/>
		<g>
			<path class="st1" d="M24.3,67.4"/>
		</g>
		<g>
			<path class="st1" d="M35.6,38c-7.1,7.7-11.5,18-11.5,29.3c0,23.8,19.3,43.1,43.1,43.1c23.8,0,43.1-19.2,43.1-43h-43L35.6,38z"/>
			<path class="st3" d="M67.4,24.2v43.2h43c0,0,0-0.1,0-0.1C110.4,43.5,91.1,24.2,67.4,24.2z"/>
			<path class="st4" d="M67.4,24.2c0,0-0.1,0-0.1,0c-12.5,0-23.8,5.3-31.7,13.8l31.8,29.4V24.2z"/>
		</g>
		<path class="st5" d="M60.4,30.2c-8.5,0-16.8,2.5-23.9,7.2c16.6-17.2,43.9-17.6,61.1-1.1c17.2,16.6,17.6,43.9,1.1,61.1
			c-2.2,2.3-4.6,4.3-7.2,6c16.6-17.1,16.2-44.4-0.9-61C82.4,34.6,71.6,30.2,60.4,30.2L60.4,30.2z"/>
	</g>
</g>
</svg>
