<?xml version="1.0" encoding="utf-8"?>
<!-- Generator: Adobe Illustrator 23.0.4, SVG Export Plug-In . SVG Version: 6.00 Build 0)  -->
<svg version="1.1" id="light" xmlns="http://www.w3.org/2000/svg" xmlns:xlink="http://www.w3.org/1999/xlink" x="0px" y="0px"
	 viewBox="0 0 5760 1080" style="enable-background:new 0 0 5760 1080;" xml:space="preserve">
<style type="text/css">
	.st0{opacity:5.000000e-02;fill:#5C6C98;enable-background:new    ;}
	.st1{fill:#FFC099;stroke:#FFDCC5;stroke-width:5;stroke-miterlimit:10;}
	.st2{fill:#ECF1F8;stroke:#002F69;stroke-width:5;stroke-linecap:round;stroke-linejoin:round;}
</style>
<title>light</title>
<polyline class="st0" points="2787.5,100.7 1821.6,1085.1 -11.8,1088.4 -4,0 5760,0 5760,939.6 4962.8,99.7 4814.8,99.7 
	3826.8,1082.7 3837.8,1083.7 2938.5,100.7 2787.5,100.7 "/>
<path class="st1" d="M2876.5,79.8V77h-25.3v3.5c0.1,11-3,21.8-9.1,31c-8.1,12-5,28.4,7,36.5c12,8.1,28.4,5,36.5-7
	c6-8.8,6-20.4,0.1-29.3C2879.6,102.2,2876.4,91.1,2876.5,79.8z"/>
<path class="st1" d="M2856.6,94.1c0,0,0,16.4-2.7,21.4s-5,21.2,5.5,21.2s10.1-22,4.8-22s-5.6,26.5,8.6,21.4
	c8.8-3.1,2.3-17.8-0.2-23.1c-2.9-6-1.3-22-1.3-22"/>
<path class="st2" d="M2787.5,100.7c-0.7-41.7,32.6-76.1,74.3-76.7c41.7-0.7,76.1,32.6,76.7,74.3c0,0.8,0,1.6,0,2.5H2787.5z"/>
<path class="st2" d="M2856.8,10.3h12.5c10.8,0,19.5,8.7,19.5,19.5c0,0,0,0,0,0l0,0l0,0h-51.6l0,0l0,0
	C2837.3,19.1,2846,10.3,2856.8,10.3L2856.8,10.3z"/>
<rect x="2858.8" y="-20" class="st2" width="8.4" height="30.3"/>
<path class="st1" d="M4900.1,79.8V77h-25.3v3.5c0.1,11-3,21.8-9.1,31c-8.2,12-5,28.4,7,36.5c12,8.2,28.4,5,36.5-7
	c6-8.8,6.1-20.4,0.1-29.3C4903.2,102.2,4900,91.1,4900.1,79.8z"/>
<path class="st1" d="M4880.2,94.1c0,0,0,16.4-2.7,21.4s-5,21.2,5.5,21.2s10.1-22,4.8-22s-5.6,26.5,8.6,21.4
	c8.8-3.1,2.3-17.8-0.2-23.1c-2.9-6-1.3-22-1.3-22"/>
<path class="st2" d="M4811.1,100.7c0-41.7,33.8-75.5,75.5-75.5s75.5,33.8,75.5,75.5H4811.1z"/>
<path class="st2" d="M4880.4,10.3h12.5c10.8,0,19.5,8.7,19.5,19.5c0,0,0,0,0,0l0,0l0,0h-51.5l0,0l0,0
	C4860.9,19.1,4869.6,10.3,4880.4,10.3z"/>
<rect x="4882.4" y="-20" class="st2" width="8.4" height="30.3"/>
</svg>
