<svg id="light" xmlns="http://www.w3.org/2000/svg" viewBox="0 0 5760 1080"><title>light</title><polyline points="2787.53 100.68 1821.56 1085.14 -11.76 1088.41 -4.02 0 5761.41 0 5761.41 635.65 5262.79 99.65 5114.79 99.65 4126.79 1082.74 3837.79 1083.65 2938.54 100.68 2787.53 100.68" style="fill:#5c6c98;opacity:0.05"/><path d="M2876.51,79.83V77h-25.27v3.49a55,55,0,0,1-9.12,31,26.28,26.28,0,1,0,43.64.2A57.35,57.35,0,0,1,2876.51,79.83Z" style="fill:#ffc099;stroke:#ffdcc5;stroke-miterlimit:10;stroke-width:5px"/><path d="M2856.59,94.1s0,16.37-2.73,21.41-5,21.2,5.46,21.2,10.07-22,4.83-22-5.63,26.5,8.6,21.41c8.82-3.14,2.31-17.84-.21-23.09-2.9-6-1.26-22-1.26-22" style="fill:#ffc099;stroke:#ffdcc5;stroke-miterlimit:10;stroke-width:5px"/><path d="M2787.53,100.68a75.51,75.51,0,1,1,151,0Z" style="fill:#ecf1f8;stroke:#002f69;stroke-linecap:round;stroke-linejoin:round;stroke-width:5px"/><path d="M2856.8,10.31h12.47a19.54,19.54,0,0,1,19.54,19.54v0a0,0,0,0,1,0,0h-51.55a0,0,0,0,1,0,0v0A19.54,19.54,0,0,1,2856.8,10.31Z" style="fill:#ecf1f8;stroke:#002f69;stroke-linecap:round;stroke-linejoin:round;stroke-width:5px"/><rect x="2858.82" y="-20.02" width="8.42" height="30.32" style="fill:#ecf1f8;stroke:#002f69;stroke-linecap:round;stroke-linejoin:round;stroke-width:5px"/><path d="M5200.12,79.83V77h-25.27v3.49a55,55,0,0,1-9.12,31,26.29,26.29,0,1,0,43.64.2A57.35,57.35,0,0,1,5200.12,79.83Z" style="fill:#ffc099;stroke:#ffdcc5;stroke-miterlimit:10;stroke-width:5px"/><path d="M5180.2,94.1s0,16.37-2.73,21.41-5,21.2,5.46,21.2,10.08-22,4.83-22-5.63,26.5,8.61,21.41c8.81-3.14,2.31-17.84-.21-23.09-2.91-6-1.26-22-1.26-22" style="fill:#ffc099;stroke:#ffdcc5;stroke-miterlimit:10;stroke-width:5px"/><path d="M5111.15,100.68a75.5,75.5,0,1,1,151,0Z" style="fill:#ecf1f8;stroke:#002f69;stroke-linecap:round;stroke-linejoin:round;stroke-width:5px"/><path d="M5180.42,10.31h12.47a19.54,19.54,0,0,1,19.54,19.54v0a0,0,0,0,1,0,0h-51.55a0,0,0,0,1,0,0v0A19.54,19.54,0,0,1,5180.42,10.31Z" style="fill:#ecf1f8;stroke:#002f69;stroke-linecap:round;stroke-linejoin:round;stroke-width:5px"/><rect x="5182.44" y="-20.02" width="8.42" height="30.32" style="fill:#ecf1f8;stroke:#002f69;stroke-linecap:round;stroke-linejoin:round;stroke-width:5px"/></svg>