<?xml version="1.0" encoding="utf-8"?>
<!-- Generator: Adobe Illustrator 23.0.4, SVG Export Plug-In . SVG Version: 6.00 Build 0)  -->
<svg version="1.1" id="middle" xmlns="http://www.w3.org/2000/svg" xmlns:xlink="http://www.w3.org/1999/xlink" x="0px" y="0px"
	 viewBox="0 0 5760 1080" style="enable-background:new 0 0 5760 1080;" xml:space="preserve">
<style type="text/css">
	.st0{fill:#F9BC95;stroke:#002F69;stroke-width:5;stroke-linecap:round;stroke-linejoin:round;}
	.st1{fill:#FEEEE4;stroke:#002F69;stroke-width:5;stroke-linecap:round;stroke-linejoin:round;}
	.st2{fill:#F88645;stroke:#002F69;stroke-width:5;stroke-linecap:round;stroke-linejoin:round;}
	.st3{opacity:0.3;fill:#5C6C98;enable-background:new    ;}
	.st4{fill:#F9BC95;}
	.st5{fill:#B5C8E6;}
	.st6{fill:#4B7CC4;}
	.st7{fill:none;stroke:#002F69;stroke-width:5;stroke-linecap:round;stroke-linejoin:round;}
	.st8{fill:none;stroke:#ECF1F8;stroke-width:5;stroke-linecap:round;stroke-miterlimit:10;}
	.st9{fill:#92DBAC;stroke:#002F69;stroke-width:5;stroke-linecap:round;stroke-linejoin:round;}
	.st10{fill:#B5C8E6;stroke:#002F69;stroke-width:5;stroke-linecap:round;stroke-linejoin:round;}
	.st11{fill:#4B7CC4;stroke:#002F69;stroke-width:5;stroke-linecap:round;stroke-linejoin:round;}
	.st12{fill:#DDF2E3;stroke:#002F69;stroke-width:5;stroke-linecap:round;stroke-linejoin:round;}
	.st13{fill:#FEB8A7;stroke:#002F69;stroke-width:5;stroke-linecap:round;stroke-linejoin:round;}
	.st14{fill:none;stroke:#4B7CC4;stroke-width:5;stroke-linecap:round;stroke-linejoin:round;}
	.st15{fill:none;stroke:#838EB1;stroke-width:5;stroke-linecap:round;stroke-linejoin:round;}
	.st16{fill:#ECF1F8;stroke:#002F69;stroke-width:5;stroke-linecap:round;stroke-linejoin:round;}
	.st17{fill:none;stroke:#92DBAC;stroke-width:5;stroke-linecap:round;stroke-linejoin:round;}
	.st18{fill:none;stroke:#F88645;stroke-width:5;stroke-linecap:round;stroke-linejoin:round;}
	.st19{fill:#FCEDF0;stroke:#002F69;stroke-width:5;stroke-linecap:round;stroke-linejoin:round;}
	.st20{fill:none;stroke:#DDF2E3;stroke-width:5;stroke-linecap:round;stroke-linejoin:round;}
	.st21{fill:#FFFFFF;stroke:#002F69;stroke-width:5;stroke-linecap:round;stroke-linejoin:round;}
	.st22{fill:none;stroke:#B5C8E6;stroke-width:5;stroke-linecap:round;stroke-linejoin:round;}
	.st23{fill:#E1526E;stroke:#002F69;stroke-width:5;stroke-linecap:round;stroke-linejoin:round;}
	.st24{fill:#002F69;}
	.st25{fill:#FFDED5;stroke:#002F69;stroke-width:5;stroke-linecap:round;stroke-linejoin:round;}
	.st26{fill:#E1526E;}
	.st27{fill:none;stroke:#FFDED5;stroke-width:5;stroke-linecap:round;stroke-linejoin:round;}
	.st28{fill:none;stroke:#FEF7F3;stroke-width:5;stroke-linecap:round;stroke-linejoin:round;}
	.st29{fill:#EC5444;stroke:#002F69;stroke-width:5;stroke-linecap:round;stroke-linejoin:round;}
	.st30{fill:#EFA7BB;stroke:#002F69;stroke-width:5;stroke-linecap:round;stroke-linejoin:round;}
</style>
<title>middle</title>
<polyline class="st0" points="2570.4,712 2565.5,731.4 2586.9,731.4 2580.1,711 "/>
<polyline class="st0" points="2724.6,712.6 2724,732.1 2741.2,732.1 2734.4,711.7 "/>
<polyline class="st0" points="2879.2,712.6 2876,732.1 2895.7,732.1 2888.9,711.7 "/>
<polyline class="st0" points="3026.7,712.6 3023.4,732.1 3039.9,732.1 3036.4,711.7 "/>
<polyline class="st0" points="3182.5,712.6 3180.9,730.5 3195.8,732.1 3192.2,711.7 "/>
<path class="st1" d="M4412.7,639.5c2,0,4-0.8,5.4-2.3l190.5-195c2.9-3,2.7-7.7-0.3-10.6c-2.9-2.8-7.6-2.7-10.5,0.1l-190.5,195
	c-2.9,3-2.9,7.7,0.1,10.6C4408.8,638.7,4410.7,639.5,4412.7,639.5z"/>
<path class="st1" d="M4659.1,440.8c4.1,0,7.5-3.4,7.5-7.5l0,0v-27.7c0-4.1-3.4-7.5-7.5-7.5s-7.5,3.4-7.5,7.5v27.7
	C4651.6,437.5,4654.9,440.8,4659.1,440.8z"/>
<path class="st2" d="M4642.8,410.7h32.5c4.1,0,7.5-3.4,7.5-7.5s-3.4-7.5-7.5-7.5h-32.5c-4.1,0-7.5,3.4-7.5,7.5
	S4638.7,410.7,4642.8,410.7z"/>
<polygon class="st3" points="4643.7,716 4643.7,719.3 4544,724.7 4552.4,635.3 "/>
<rect x="4552" y="621.5" class="st4" width="95" height="95"/>
<path class="st5" d="M4509.1,807.6l0.6,20.9c0,0-24.4,20.3-22.7,48.2c-6.9,18.7-5.1,39.4,4.9,56.6c5.7,9.9,13.9,18.1,23.7,24
	l-17.4,29.2c-47.9-28.4-63.6-90.3-35.2-138.1C4473.8,830.4,4489.9,816.1,4509.1,807.6L4509.1,807.6z"/>
<path class="st6" d="M4509.7,828.5l-0.6-20.9c12.8-5.6,26.6-8.6,40.6-8.5v34c-28,0-53,17.5-62.7,43.7
	C4485.3,848.8,4509.7,828.5,4509.7,828.5z"/>
<path class="st7" d="M4498.2,986.5l17.4-29.2c-31.7-18.9-42.2-59.9-23.3-91.6c12-20.3,33.9-32.7,57.4-32.7v-34
	c-55.7,0-100.8,45.1-100.8,100.8C4448.9,935.4,4467.7,968.3,4498.2,986.5L4498.2,986.5z"/>
<path class="st8" d="M4460.6,909.1c0.2,1.3,0.5,2.7,0.7,4"/>
<path class="st8" d="M4500.4,821.1c-25.5,16.1-40.9,44.1-40.9,74.3"/>
<path class="st9" d="M4602,916h-7.9c-7.2,0-13-5.8-13-13l0,0l0,0h34l0,0l0,0C4615.1,910.2,4609.2,916,4602,916L4602,916z"/>
<rect x="4581.1" y="985.7" class="st10" width="34" height="11.3"/>
<path class="st0" d="M4624.8,974.3c0,6.3-5.1,11.3-11.3,11.3l0,0h-30.8c-6.3,0-11.3-5.1-11.3-11.3l0,0H4624.8z"/>
<path class="st5" d="M4593.2,853.3l-3.5-81.1h16.6c10.4,0,18.9,8.4,18.9,18.9l0,0V894h-7.8l-14.5-16.5
	C4597,870.7,4593.6,862.2,4593.2,853.3z"/>
<path class="st6" d="M4570.9,791.1c0-10.4,8.4-18.9,18.9-18.9l0,0l3.5,81.1c0.4,8.9,3.8,17.4,9.7,24.2l14.5,16.5H4571L4570.9,791.1z
	"/>
<path class="st7" d="M4625.2,893.9h-54.4l0,0V791.1c0-10.4,8.4-18.9,18.9-18.9l0,0h16.6c10.4,0,18.9,8.4,18.9,18.9l0,0V893.9
	L4625.2,893.9z"/>
<rect x="4590.4" y="764.3" class="st0" width="15.3" height="7.9"/>
<path class="st11" d="M4604.5,764.3h-13c-6.4,0-11.6-5.2-11.6-11.6l0,0V745l0,0h36.2l0,0v7.6C4616.2,759.1,4611,764.3,4604.5,764.3
	L4604.5,764.3z"/>
<path class="st0" d="M4618.7,745h-41.3c-1.7,0-3.1-1.4-3.1-3.1v-2c0-1.7,1.4-3.1,3.1-3.1h41.3c1.7,0,3.1,1.4,3.1,3.1v2
	C4621.8,743.6,4620.4,745,4618.7,745z"/>
<path class="st0" d="M4628.2,903h-60.3c-2.1,0-3.8-1.7-3.8-3.8v-1.4c0-2.1,1.7-3.8,3.8-3.8h60.3c2.1,0,3.8,1.7,3.8,3.8v1.4
	C4632,901.3,4630.3,903,4628.2,903z"/>
<path class="st0" d="M4528.2,996.7h-45.3l0,0v-22.6c0-12.5,10.1-22.6,22.6-22.7l0,0c12.5,0,22.6,10.1,22.6,22.7L4528.2,996.7
	L4528.2,996.7z"/>
<circle class="st12" cx="4505.4" cy="974.6" r="13.1"/>
<path class="st13" d="M4681.1,1017.6h-238.4l0,0l0,0c0-11.6,9.4-21,21-21h196.4C4671.7,996.6,4681.1,1006.1,4681.1,1017.6
	L4681.1,1017.6L4681.1,1017.6L4681.1,1017.6z"/>
<line class="st7" x1="4447.9" y1="1006.3" x2="4513.8" y2="1006.3"/>
<line class="st7" x1="4523.6" y1="1006.3" x2="4527.1" y2="1006.3"/>
<path class="st14" d="M4614.5,856.2v-62.4c0-6.3-5.1-11.4-11.4-11.5"/>
<circle class="st0" cx="4550.3" cy="816.6" r="26"/>
<circle class="st12" cx="4550.3" cy="816.6" r="13.1"/>
<ellipse class="st15" cx="4599.3" cy="674.7" rx="25.1" ry="13"/>
<circle class="st15" cx="4599.2" cy="679.5" r="6.5"/>
<line class="st15" x1="4600" y1="650.8" x2="4600" y2="638.5"/>
<line class="st15" x1="4583.2" y1="655" x2="4579" y2="648"/>
<line class="st15" x1="4615.5" y1="655" x2="4619.7" y2="648"/>
<path class="st13" d="M3612.7,1017h108c0-15.5-12.5-28-28-28h-52C3625.2,989,3612.7,1001.5,3612.7,1017z"/>
<path class="st1" d="M2567.8,711.5h16v-22.6c0-13.5,11-24.4,24.4-24.4h1314.1c36,0,65.1-29.2,65.1-65.1V495.1
	c0-27.1,22-49.1,49.1-49.1h369.7v-16h-369.7c-36,0-65.1,29.2-65.1,65.1v104.2c0,27.1-22,49.1-49.1,49.1H2608.2
	c-22.3,0-40.4,18.1-40.4,40.4V711.5z"/>
<path class="st16" d="M4105.9,744.4h48.2c59.4-0.1,107.5-48.2,107.5-107.5V322.7c0-41.1-33.3-74.3-74.4-74.4h-1.8
	c-41.1,0-74.3,33.3-74.4,74.4V340h15v-17.3c0-32.8,26.6-59.4,59.4-59.4h1.8c32.8,0,59.3,26.6,59.4,59.4v314.1
	c-0.1,51.1-41.5,92.5-92.5,92.5h-48.2c-57.3,0-112.2-22.7-152.7-63.2l-10-10c-43.3-43.3-102.1-67.7-163.3-67.7H2781
	c-32.5,0-58.8,26.4-58.8,58.8v64h15v-64c0-24.2,19.6-43.8,43.8-43.9h998.9c57.3,0,112.2,22.8,152.7,63.3l10,10
	C3985.9,720,4044.7,744.4,4105.9,744.4L4105.9,744.4z"/>
<path class="st12" d="M2868.7,632.2h32.1c9,0,16.3,7.3,16.3,16.3l0,0v12.3c0,9-7.3,16.3-16.3,16.3l0,0h-8.2v34.3h-15v-34.3h-8.9
	c-9,0-16.3-7.3-16.3-16.3l0,0v-12.3C2852.4,639.5,2859.7,632.2,2868.7,632.2z"/>
<line class="st7" x1="2877.6" y1="677.2" x2="2883.3" y2="677.2"/>
<path class="st17" d="M2882.6,666.8h15.4c4.6,0,8.3-3.7,8.3-8.3l0,0v-8.3"/>
<line class="st17" x1="2873.4" y1="666.8" x2="2874.1" y2="666.8"/>
<path class="st12" d="M3015,632.2h32.1c9,0,16.3,7.3,16.3,16.3l0,0v12.3c0,9-7.3,16.3-16.3,16.3l0,0h-8.2v34.3h-15v-34.3h-8.9
	c-9,0-16.3-7.3-16.3-16.3l0,0v-12.3C2998.7,639.5,3006,632.2,3015,632.2L3015,632.2z"/>
<line class="st7" x1="3023.9" y1="677.2" x2="3029.6" y2="677.2"/>
<path class="st17" d="M3028.9,666.8h15.4c4.6,0,8.3-3.7,8.3-8.3l0,0v-8.3"/>
<line class="st17" x1="3019.7" y1="666.8" x2="3020.4" y2="666.8"/>
<path class="st12" d="M3171.3,632.2h32.1c9,0,16.3,7.3,16.3,16.3l0,0v12.3c0,9-7.3,16.3-16.3,16.3l0,0h-8.2v34.3h-15v-34.3h-8.9
	c-9,0-16.3-7.3-16.3-16.3v-12.3C3155,639.5,3162.3,632.2,3171.3,632.2z"/>
<line class="st7" x1="3180.2" y1="677.2" x2="3185.9" y2="677.2"/>
<path class="st17" d="M3185.2,666.8h15.4c4.6,0,8.3-3.7,8.3-8.3l0,0v-8.3"/>
<line class="st17" x1="3176" y1="666.8" x2="3176.7" y2="666.8"/>
<path class="st0" d="M4115.1,713.8h32.1c9,0,16.3,7.3,16.3,16.3v12.3c0,9-7.3,16.3-16.3,16.3h-8.2V793h-15v-34.3h-8.9
	c-9,0-16.3-7.3-16.3-16.3v-12.3C4098.8,721.1,4106.1,713.8,4115.1,713.8z"/>
<line class="st7" x1="4124" y1="758.8" x2="4129.7" y2="758.8"/>
<path class="st18" d="M4129,748.3h15.4c4.6,0,8.3-3.7,8.3-8.3l0,0v-8.3"/>
<line class="st18" x1="4119.8" y1="748.3" x2="4120.5" y2="748.3"/>
<path class="st19" d="M3650.7,570h32.1c9,0,16.3,7.3,16.3,16.3l0,0v12.3c0,9-7.3,16.3-16.3,16.3l0,0h-8.2v374.9h-15V614.9h-8.9
	c-9,0-16.3-7.3-16.3-16.3l0,0v-12.3C3634.4,577.3,3641.7,570,3650.7,570z"/>
<line class="st7" x1="3659.6" y1="614.9" x2="3665.3" y2="614.9"/>
<path class="st15" d="M3664.6,604.5h15.4c4.6,0,8.3-3.7,8.3-8.3l0,0v-8.3"/>
<line class="st15" x1="3655.4" y1="604.5" x2="3656" y2="604.5"/>
<path class="st13" d="M4355.7,1017h108c0-15.5-12.5-28-28-28h-52C4368.2,989,4355.7,1001.5,4355.7,1017z"/>
<path class="st19" d="M4393.6,414.7h32.1c9,0,16.3,7.3,16.3,16.3v12.3c0,9-7.3,16.3-16.3,16.3h-8.2v530.2h-15V459.6h-8.9
	c-9,0-16.3-7.3-16.3-16.3l0,0V431C4377.3,422,4384.6,414.7,4393.6,414.7L4393.6,414.7z"/>
<line class="st7" x1="4402.5" y1="459.6" x2="4408.2" y2="459.6"/>
<path class="st15" d="M4407.6,449.2h15.4c4.6,0,8.3-3.7,8.3-8.3l0,0v-8.4"/>
<line class="st15" x1="4398.4" y1="449.2" x2="4399" y2="449.2"/>
<path class="st0" d="M3531.7,616h-32.1c-9,0-16.3-7.3-16.3-16.3l0,0v-12.4c0-9,7.3-16.3,16.3-16.3h8.2v-45h15v45h8.9
	c9,0,16.3,7.3,16.3,16.3l0,0v12.3C3548,608.6,3540.7,616,3531.7,616L3531.7,616z"/>
<line class="st7" x1="3522.8" y1="571" x2="3517.1" y2="571"/>
<path class="st18" d="M3517.7,581.4h-15.4c-4.6,0-8.3,3.7-8.3,8.3l0,0v8.3"/>
<line class="st18" x1="3526.9" y1="581.4" x2="3526.3" y2="581.4"/>
<path class="st9" d="M3561.5,632.2h32.1c9,0,16.3,7.3,16.3,16.3l0,0v12.3c0,9-7.3,16.3-16.3,16.3l0,0h-9.7v65.2
	c0,12.6,10.3,22.9,22.9,22.9h37V756c0-9,7.3-16.3,16.3-16.3l0,0h12.3c9,0,16.3,7.3,16.3,16.3v32.1c0,9-7.3,16.3-16.3,16.3l0,0H3660
	c-9,0-16.3-7.3-16.3-16.3l0,0v-7.8h-37c-20.9,0-37.9-17-37.9-37.9v-65.2h-7.4c-9,0-16.3-7.3-16.3-16.3v-12.3
	C3545.1,639.5,3552.4,632.2,3561.5,632.2z"/>
<path class="st20" d="M3575.4,666.7h15.4c4.6,0,8.3-3.7,8.3-8.3l0,0v-8.3"/>
<line class="st20" x1="3566.2" y1="666.7" x2="3566.8" y2="666.7"/>
<path class="st20" d="M3654.1,769.9v15.4c0,4.6,3.7,8.3,8.3,8.3l0,0h8.4"/>
<line class="st20" x1="3654.1" y1="760.7" x2="3654.1" y2="761.4"/>
<line class="st7" x1="3583.9" y1="677.1" x2="3577.4" y2="677.1"/>
<line class="st7" x1="3643.7" y1="765.2" x2="3643.7" y2="771.7"/>
<path class="st10" d="M4122.2,971.8h0.3v-17.7c0-2.1,1.7-3.8,3.9-3.8l0,0h18.4c2.1,0,3.9,1.7,3.9,3.8l0.3,17.7
	c7.6,0,13.7,6.1,13.8,13.7v30.4h-54.2v-30.4C4108.5,978,4114.6,971.8,4122.2,971.8L4122.2,971.8z"/>
<line class="st7" x1="4122.5" y1="971.8" x2="4132.5" y2="971.8"/>
<rect x="4162.7" y="994.8" class="st12" width="18.5" height="10.8"/>
<rect x="4318.1" y="821.7" class="st21" width="5.1" height="11.5"/>
<path class="st2" d="M4334.6,821.5h-28c-4.5,0-8.1-3.6-8.1-8.1l0,0c0-4.5,3.6-8.1,8.1-8.1h28c4.5,0,8.1,3.6,8.1,8.1l0,0
	C4342.8,817.9,4339.1,821.5,4334.6,821.5z"/>
<path class="st11" d="M4262.6,994.6h3.8v-89.4c0-23.9,19.4-43.4,43.4-43.4h3.2v-4.2c0-3.3-2.7-6-6-6h-10v-13h10c3.3,0,6-2.7,6-6
	h15.2v29.2h4.7c23.9,0,43.4,19.4,43.4,43.3l0,0v89.4h2.3c4,0,7.3,3.3,7.3,7.3v8.3c0,4-3.2,7.3-7.3,7.3l0,0h-116
	c-4,0-7.3-3.3-7.3-7.3l0,0v-8.3C4255.4,997.9,4258.6,994.6,4262.6,994.6z"/>
<line class="st7" x1="4265.6" y1="994.6" x2="4272.7" y2="994.6"/>
<line class="st7" x1="4351.5" y1="987.6" x2="4351.5" y2="994.4"/>
<line class="st7" x1="4330.6" y1="987.6" x2="4330.6" y2="994.4"/>
<line class="st7" x1="4309.7" y1="987.6" x2="4309.7" y2="994.4"/>
<line class="st7" x1="4288.8" y1="987.6" x2="4288.8" y2="994.4"/>
<line class="st22" x1="4368.7" y1="982" x2="4368.7" y2="984.5"/>
<path class="st22" d="M4321.7,841v19.6c0,4.3,3.5,7.9,7.9,7.9l0,0h3.5c19.7,0,35.6,16,35.6,35.6v63.5"/>
<path class="st22" d="M4350.7,981.2L4350.7,981.2c-3.1,0-5.7,2.5-5.7,5.7l0,0v7.5"/>
<path class="st22" d="M4329.9,981.2L4329.9,981.2c-3.1,0-5.7,2.5-5.7,5.6l0,0v7.5"/>
<path class="st22" d="M4309,981.2L4309,981.2c-3.1,0-5.7,2.5-5.7,5.7l0,0v7.5"/>
<path class="st22" d="M4288.2,981.2L4288.2,981.2c-3.1,0-5.7,2.5-5.7,5.7l0,0v7.5"/>
<path class="st5" d="M4301.7,932c3.9-24.3,29.5-36.5,29.5-36.5s-3.6,10.7,7.5,30.8c8.5,15.5-2.2,25.5-12.5,27.4
	c1.8-3,2.7-6.4,2.6-9.9c0-6.9-3-12.5-6.6-12.5s-6.6,5.6-6.6,12.5c-0.1,3.4,0.8,6.8,2.5,9.8C4308.6,951.7,4299.8,944.1,4301.7,932z"
	/>
<path class="st12" d="M4185.1,989.6h-12.3v21.8h12.3c1.8,0,3.3-1.5,3.3-3.3v-0.3h0.9c33.2,0,60.1-26.9,60.1-60.1v-95.1h34.9
	c0.9,0,1.7,0.8,1.7,1.7v0.1c0,0.9,0.8,1.7,1.7,1.7l0,0h13.9v-21.8h-13.9c-0.9,0-1.7,0.8-1.7,1.7l0,0l0,0c0,0.9-0.7,1.7-1.7,1.7
	h-34.9v-12.5c0-12-9.8-21.7-21.8-21.7c-0.3,0-0.5,0-0.8,0c-13.1,0.5-22.5,12.7-20.6,25.7c2,13.5,13.6,23.5,27.2,23.5h0.9v95.1
	c0,24.9-20.2,45.1-45.1,45.1h-0.9C4188.3,991,4186.9,989.6,4185.1,989.6z M4234.3,837.7h-0.9c-6.9,0-12.5-5.6-12.5-12.5
	c0.1-3.7,3.3-6.6,7-6.5c3.5,0.1,6.3,3,6.5,6.5v12.5H4234.3z"/>
<line class="st7" x1="4234.3" y1="852.7" x2="4234.3" y2="837.7"/>
<line class="st7" x1="4249.3" y1="852.7" x2="4249.3" y2="837.7"/>
<path class="st2" d="M4143.1,940.4L4143.1,940.4c-4.2,4.2-10.9,4.2-15.1,0l0,0c-4.2-4.2-4.2-10.9,0-15.1l7.5-7.5l0,0l7.5,7.5
	C4147.3,929.5,4147.3,936.2,4143.1,940.4z"/>
<path class="st19" d="M3879.7,865.7V765h106.6c3.8,0,6.9,3.1,6.9,6.9c0,1.4-0.4,2.8-1.3,4l-11.8,16.5c-8.1,11.4-12.5,25.1-12.5,39.1
	v34.1h-87.9V865.7z"/>
<path class="st23" d="M3967.7,1007.3c0,5.4-4.3,9.7-9.7,9.7h-68.5c-5.4,0-9.7-4.4-9.7-9.7V865.7h88L3967.7,1007.3z"/>
<path class="st7" d="M3993.2,774.2l-12.4,17.4c-8.5,12-13.1,26.3-13.1,41v174.6c0,5.4-4.3,9.7-9.7,9.8h-68.5c-5.4,0-9.7-4.4-9.7-9.7
	V765h108.7c3.2,0,5.8,2.6,5.8,5.9C3994.2,772.1,3993.9,773.2,3993.2,774.2z"/>
<line class="st7" x1="3967.5" y1="831.5" x2="3939.5" y2="831.5"/>
<line class="st7" x1="3967.5" y1="848.5" x2="3949.5" y2="848.5"/>
<line class="st7" x1="3967.5" y1="865.5" x2="3939.5" y2="865.5"/>
<line class="st7" x1="3967.5" y1="882.5" x2="3949.5" y2="882.5"/>
<line class="st7" x1="3967.5" y1="899.5" x2="3939.5" y2="899.5"/>
<line class="st7" x1="3967.5" y1="916.5" x2="3949.5" y2="916.5"/>
<line class="st7" x1="3967.5" y1="933.5" x2="3939.5" y2="933.5"/>
<line class="st7" x1="3967.5" y1="950.5" x2="3949.5" y2="950.5"/>
<line class="st7" x1="3967.5" y1="967.5" x2="3939.5" y2="967.5"/>
<line class="st7" x1="3967.5" y1="984.5" x2="3949.5" y2="984.5"/>
<path class="st4" d="M3957,921.4l-24.6,24.6c-3.9,3.9-10.3,3.9-14.3,0l-24.6-24.6c-3.9-3.9-3.9-10.3,0-14.3l24.6-24.6
	c3.9-3.9,10.3-3.9,14.3,0l24.6,24.6C3961,911.1,3961,917.5,3957,921.4z"/>
<path class="st24" d="M3909,910.7c0,3,0.9,6,2.5,8.6c1.9,3,3,6.5,3,10v0.2c0,1.3,1.1,2.4,2.4,2.5c1.3,0,2.4-1.1,2.5-2.4l0,0v-3.7
	c1.1,0.4,2.2,0.7,3.4,0.9v2.8c0,1.3,1.1,2.4,2.4,2.5c1.3,0,2.4-1.1,2.5-2.4l0,0v-2.8c1.2-0.2,2.3-0.5,3.4-0.9v3.7
	c0.1,1.4,1.3,2.4,2.6,2.3c1.2-0.1,2.2-1.1,2.3-2.3v-0.2c0-3.5,1.1-7,3-10c4.7-7.6,2.4-17.5-5.1-22.3s-17.5-2.4-22.3,5.1
	C3909.9,904.7,3909,907.7,3909,910.7L3909,910.7z M3925.8,910c1.4-1.4,3.2-2.2,5.2-2.1c1.7,0,3.4,0.6,4.8,1.7c0.9,0.8,1,2.2,0.2,3.1
	c-0.8,0.9-2.2,1-3.1,0.2l0,0c-0.5-0.4-1.2-0.7-1.9-0.6c-0.7,0-1.5,0.2-2,0.7c-0.4,0.4-1,0.7-1.6,0.7c-0.5,0-1.1-0.2-1.5-0.6
	C3925.1,912.2,3925.1,910.9,3925.8,910L3925.8,910z M3911.5,910c1.4-1.4,3.2-2.2,5.2-2.1c1.7,0,3.4,0.6,4.8,1.7
	c0.9,0.8,1,2.2,0.2,3.1c-0.8,0.9-2.2,1-3.1,0.2c-0.5-0.4-1.2-0.7-1.9-0.6c-0.7,0-1.5,0.2-2,0.7c-0.4,0.4-1,0.7-1.6,0.7
	c-0.5,0-1.1-0.2-1.5-0.6C3910.7,912.2,3910.7,910.9,3911.5,910L3911.5,910z"/>
<circle class="st24" cx="3933.9" cy="910.9" r="1.3"/>
<circle class="st24" cx="3919.7" cy="910.9" r="1.3"/>
<path class="st1" d="M4689.5,468h15c0-20.9-16.9-37.8-37.8-37.8H4442v15h224.7C4679.3,445.2,4689.5,455.4,4689.5,468z"/>
<path class="st1" d="M4613,449.8h-37.2c-2.2,0-4-1.8-4-4v-16.5c0-2.2,1.8-4,4-4h37.2c2.2,0,4,1.8,4,4v16.5
	C4617,448,4615.2,449.8,4613,449.8z"/>
<path class="st1" d="M4421.6,607.1v37.2c0,2.2-1.8,4-4,4h-16.5c-2.2,0-4-1.8-4-4v-37.2c0-2.2,1.8-4,4-4h16.5
	C4419.8,603.1,4421.6,604.9,4421.6,607.1z"/>
<path class="st25" d="M4670.9,662.6l120.6-47.5c4-1.6,8.4,0.4,10,4.3c0.4,0.9,0.5,1.9,0.5,2.9l-0.7,64.6h-121.9l-11.3-11.9
	c-2.9-3.1-2.8-7.9,0.3-10.9C4669.1,663.5,4670,663,4670.9,662.6z"/>
<path class="st7" d="M4753,926c0-23.4,18.4-42.7,41.9-43.8v87.6C4771.4,968.7,4753,949.4,4753,926z"/>
<path class="st25" d="M4866.1,1003.3L4800.2,836l0,0c-3,0-5.4,2.4-5.4,5.4l0,0V863c-34.8,1.4-61.8,30.7-60.4,65.5
	c1.3,32.8,27.6,59.1,60.4,60.4v21.5c0,3.6,3,6.6,6.6,6.6h93.8c3.6,0,6.6-3,6.6-6.6l0,0V868.3l16.6-26.8c1.1-1.7,0.5-4-1.2-5
	c-0.6-0.4-1.2-0.5-1.9-0.5h-97.9l63.6,161.4L4866.1,1003.3z M4794.8,969.8c-24.2-1.2-42.9-21.7-41.7-45.9
	c1.1-22.6,19.1-40.6,41.7-41.7V969.8z"/>
<polygon class="st9" points="4817.4,836 4800.2,836 4785.4,798.3 4679.5,687 4801.4,687 4800.3,792.4 "/>
<path class="st26" d="M4893.2,1011.7h-88.9c-1.9,0-3.5-1.5-3.5-3.5V895.7l0,0h95.3l0,0v113
	C4896.2,1010.3,4894.8,1011.7,4893.2,1011.7L4893.2,1011.7z"/>
<polyline class="st9" points="4866.1,1003.3 4800.2,836 4817.4,836 4881,997.4 "/>
<line class="st27" x1="4791.5" y1="754.8" x2="4791.4" y2="756.8"/>
<line class="st27" x1="4792.5" y1="635.7" x2="4791.6" y2="732.7"/>
<line class="st7" x1="4901.9" y1="868.3" x2="4885.1" y2="868.3"/>
<line class="st7" x1="4901.9" y1="881.3" x2="4892.2" y2="881.3"/>
<line class="st7" x1="4901.9" y1="895.7" x2="4885.1" y2="895.7"/>
<line class="st7" x1="4901.9" y1="908.7" x2="4892.2" y2="908.7"/>
<line class="st7" x1="4901.9" y1="923" x2="4885.1" y2="923"/>
<line class="st7" x1="4901.9" y1="936" x2="4892.2" y2="936"/>
<line class="st7" x1="4901.9" y1="950.3" x2="4885.1" y2="950.3"/>
<line class="st7" x1="4901.9" y1="963.3" x2="4892.2" y2="963.3"/>
<line class="st7" x1="4901.9" y1="977.7" x2="4885.1" y2="977.7"/>
<line class="st7" x1="4901.9" y1="990.7" x2="4892.2" y2="990.7"/>
<line class="st7" x1="4794.9" y1="863" x2="4794.9" y2="872.7"/>
<path class="st28" d="M4742.9,925.7c0,0.4,0,0.8,0,1.2"/>
<path class="st28" d="M4778.9,874.5c-17.3,6.2-30.3,20.8-34.6,38.7"/>
<path class="st0" d="M4402.2,320v95h15v-95c0-25.1,5.9-49.8,17.2-72.2c3.6-7.3,9.6-13.1,16.9-16.4c14.2-6.3,26.4,0.2,33,5.2
	c-7.6,8.2-19.3,23-19.3,35.5c0,19.6,12.4,33.4,30.1,33.4s30.1-13.7,30.1-33.4c0-12.5-11.6-27.2-19.2-35.4c7.1-5.5,14.3-8.2,21.5-7.9
	c8.4,0.3,15.5,4.4,20,7.9c-7.6,8.2-19.3,23-19.3,35.5c0,19.6,12.4,33.4,30.1,33.4s30.1-13.7,30.1-33.4c0-12.5-11.6-27.2-19.2-35.4
	c7-5.5,14.2-8.1,21.4-7.9c8.5,0.3,15.6,4.4,20.1,7.9c-7.6,8.2-19.3,23-19.3,35.5c0,19.6,12.4,33.4,30.1,33.4s30.1-13.7,30.1-33.4
	c0-12.5-11.6-27.2-19.2-35.4c7-5.5,14.2-8.1,21.4-7.9c14.5,0.4,25.2,12.4,25.3,12.5l0.1,0.1c7.8,8.3,16.1,16,25,23.2
	c19.8,16,36.8,24.1,50.6,24.1h62.5c12.7,0,23,10.3,23,23h15c0-21-17-38-38-38h-62.5c-21,0-53.6-30.5-64.4-42.3
	c-1.3-1.5-15.4-16.8-35.9-17.5c-11.4-0.4-22.5,3.7-32.8,12.3l-0.1-0.1l-0.1,0.1c-6.1-5-16.8-11.7-30.2-12.2
	c-11.4-0.4-22.5,3.7-32.8,12.3l-0.1-0.1l-0.1,0.1c-6.1-5-16.8-11.7-30.2-12.2c-11.4-0.4-22.5,3.7-32.8,12.3l-0.1-0.1l0,0
	c-10.6-8.7-29.3-17.4-49.8-8.2c-10.5,4.8-19,13-24.2,23.4C4408.7,265.5,4402.2,292.5,4402.2,320z M4606.4,272
	c0-6.1,7.7-16.9,15.1-25.1c7.4,8.2,15.1,18.9,15.1,25.1c0,8.5-3.9,18.4-15.1,18.4S4606.4,280.5,4606.4,272z M4543.2,272
	c0-4,4.7-13.9,15-25.1c7.4,8.2,15.1,19,15.1,25.1c0,8.5-3.9,18.4-15.1,18.4S4543.2,280.5,4543.2,272L4543.2,272z M4480,272
	c0-4,4.7-13.9,15-25.1c7.4,8.2,15.1,19,15.1,25.1c0,8.5-4,18.4-15.1,18.4S4480,280.5,4480,272z"/>
<path class="st2" d="M4484.3,237.5c3.9,3.1,7.5,6.6,10.7,10.4"/>
<path class="st2" d="M4495.2,227c3.9,3.2,7.5,6.8,10.8,10.6"/>
<path class="st2" d="M4547.5,237.5c3.3-3.9,6.9-7.4,10.9-10.5"/>
<path class="st2" d="M4558.3,247.9c3.3-3.8,7-7.2,10.9-10.3"/>
<path class="st2" d="M4610.7,237.5c3.9,3.2,7.5,6.7,10.8,10.5"/>
<path class="st2" d="M4621.6,227c3.7,3.4,7.3,6.9,10.7,10.6"/>
<path class="st29" d="M4834-3h-108c0,15.5,12.5,28,28,28h52C4821.5,25,4834,12.5,4834-3z"/>
<path class="st30" d="M4796.1,301.6H4764c-9,0-16.3-7.3-16.3-16.3V273c0-9,7.3-16.3,16.3-16.3h8.2V24.1h15v232.5h8.9
	c9,0,16.3,7.3,16.3,16.3v12.3C4812.4,294.2,4805.1,301.6,4796.1,301.6z"/>
<line class="st7" x1="4787.2" y1="256.6" x2="4781.5" y2="256.6"/>
<path class="st7" d="M4782.1,267h-15.4c-4.6,0-8.3,3.7-8.3,8.3l0,0v8.4"/>
<line class="st7" x1="4791.3" y1="267" x2="4790.7" y2="267"/>
<circle class="st9" cx="4697.1" cy="468.1" r="7.5"/>
<circle class="st23" cx="4847.7" cy="311.2" r="7.5"/>
<g>
	<path class="st25" d="M5614.7,1012.8l-74.9-48.8c-1.8-1.2-4.2-0.7-5.4,1.1l0,0l0,0c-1.2,1.8-3.6,2.3-5.4,1.1l-110.3-71.9l12.4-19
		l110.3,71.9c1.8,1.2,2.3,3.6,1.1,5.4l0,0c-1.2,1.8-0.7,4.2,1.1,5.4l0,0l74.9,48.8L5614.7,1012.8z"/>
	<path class="st23" d="M5418.7,894.5l-1-0.6c-9-5.8-20.2-7-30.3-3.4c-19.4,6.8-40.6-3.4-47.4-22.8c-6.8-19.4,3.4-40.6,22.8-47.4
		c19.4-6.8,40.6,3.4,47.4,22.8c0.7,2.1,1.3,4.3,1.7,6.6c1.5,9.4,6.9,17.8,14.9,22.9l4.3,2.8L5418.7,894.5z"/>
	<path class="st27" d="M5381.2,882.3l0.9-0.2"/>
	<path class="st27" d="M5353.6,838.4c-9.5,11.8-7.6,29.1,4.2,38.6c4.3,3.4,9.4,5.5,14.9,6"/>
</g>
<line class="st7" x1="4879.8" y1="837.1" x2="4911.5" y2="837.1"/>
<g>
	<rect x="4949.9" y="910" class="st1" width="436.7" height="103.8"/>
	<polyline class="st7" points="4974.7,944.3 4974.7,927.9 5052.6,927.9 5052.6,944.3 	"/>
	<polyline class="st7" points="5079.1,944.3 5079.1,927.9 5157,927.9 5157,944.3 	"/>
	<circle class="st23" cx="5321.2" cy="964.2" r="33.2"/>
	<path class="st27" d="M5321.2,941.3c12.6,0,22.8,10.2,22.8,22.8"/>
	<path class="st27" d="M5342.9,971.1c-0.3,1.1-0.8,2.2-1.3,3.2"/>
	<circle class="st9" cx="5223.4" cy="964.2" r="33.2"/>
	<path class="st27" d="M5223.4,941.3c12.6,0,22.8,10.2,22.8,22.8"/>
	<path class="st27" d="M5245.1,971.1c-0.3,1.1-0.8,2.2-1.3,3.2"/>
	<rect x="4938.2" y="897.5" class="st1" width="460.1" height="11.7"/>
	<line class="st7" x1="5223.4" y1="997.4" x2="5223.4" y2="979.7"/>
	<line class="st7" x1="5288" y1="964.2" x2="5303.8" y2="964.2"/>
</g>
</svg>
