<svg id="middle" xmlns="http://www.w3.org/2000/svg" viewBox="0 0 5760 1080"><title>middle</title><polyline points="2570.39 711.98 2565.53 731.42 2586.92 731.42 2580.11 711.01" style="fill:#f9bc95;stroke:#002f69;stroke-linecap:round;stroke-linejoin:round;stroke-width:5px"/><polyline points="2724.64 712.63 2723.99 732.07 2741.17 732.07 2734.36 711.65" style="fill:#f9bc95;stroke:#002f69;stroke-linecap:round;stroke-linejoin:round;stroke-width:5px"/><polyline points="2879.22 712.63 2875.98 732.07 2895.74 732.07 2888.94 711.65" style="fill:#f9bc95;stroke:#002f69;stroke-linecap:round;stroke-linejoin:round;stroke-width:5px"/><polyline points="3026.66 712.63 3023.42 732.07 3039.95 732.07 3036.38 711.65" style="fill:#f9bc95;stroke:#002f69;stroke-linecap:round;stroke-linejoin:round;stroke-width:5px"/><polyline points="3182.53 712.63 3180.91 730.45 3195.82 732.07 3192.25 711.65" style="fill:#f9bc95;stroke:#002f69;stroke-linecap:round;stroke-linejoin:round;stroke-width:5px"/><path d="M4412.71,639.5a7.46,7.46,0,0,0,5.36-2.26l190.5-195a7.5,7.5,0,0,0-10.73-10.48l-190.5,195a7.49,7.49,0,0,0,5.37,12.74Z" style="fill:#feeee4;stroke:#002f69;stroke-linecap:round;stroke-linejoin:round;stroke-width:5px"/><path d="M4659.07,440.83a7.5,7.5,0,0,0,7.5-7.5V405.67a7.5,7.5,0,0,0-15,0v27.66A7.5,7.5,0,0,0,4659.07,440.83Z" style="fill:#feeee4;stroke:#002f69;stroke-linecap:round;stroke-linejoin:round;stroke-width:5px"/><path d="M4642.82,410.67h32.5a7.5,7.5,0,0,0,0-15h-32.5a7.5,7.5,0,0,0,0,15Z" style="fill:#f88645;stroke:#002f69;stroke-linecap:round;stroke-linejoin:round;stroke-width:5px"/><polygon points="4643.71 716 4643.71 719.33 4544.04 724.67 4552.37 635.33 4643.71 716" style="fill:#5c6c98;opacity:0.30000000000000004"/><rect x="4551.96" y="621.5" width="95" height="95" transform="translate(9198.91 1338) rotate(-180)" style="fill:#f9bc95"/><path d="M4509.14,807.63l.57,20.87s-24.38,20.31-22.66,48.24a66.9,66.9,0,0,0,4.86,56.64,67.28,67.28,0,0,0,23.71,24l-17.38,29.19a100.79,100.79,0,0,1,10.9-178.9Z" style="fill:#b5c8e6"/><path d="M4509.71,828.5l-.57-20.87a100.21,100.21,0,0,1,40.59-8.54v34a66.93,66.93,0,0,0-62.68,43.68C4485.33,848.81,4509.71,828.5,4509.71,828.5Z" style="fill:#4b7cc4"/><path d="M4498.24,986.53l17.38-29.19a66.83,66.83,0,0,1,34.11-124.28v-34a100.79,100.79,0,0,0-51.49,187.44Z" style="fill:none;stroke:#002f69;stroke-linecap:round;stroke-linejoin:round;stroke-width:5px"/><path d="M4460.57,909.1q.32,2,.72,4" style="fill:none;stroke:#ecf1f8;stroke-linecap:round;stroke-miterlimit:10;stroke-width:5px"/><path d="M4500.43,821.07a87.78,87.78,0,0,0-40.93,74.28" style="fill:none;stroke:#ecf1f8;stroke-linecap:round;stroke-miterlimit:10;stroke-width:5px"/><path d="M4594.07,903H4602a13,13,0,0,1,13,13v0a0,0,0,0,1,0,0h-34a0,0,0,0,1,0,0v0A13,13,0,0,1,4594.07,903Z" transform="translate(9196.07 1819) rotate(-180)" style="fill:#92dbac;stroke:#002f69;stroke-linecap:round;stroke-linejoin:round;stroke-width:5px"/><rect x="4581.05" y="985.66" width="33.97" height="11.32" transform="translate(9196.07 1982.64) rotate(-180)" style="fill:#b5c8e6;stroke:#002f69;stroke-linecap:round;stroke-linejoin:round;stroke-width:5px"/><path d="M4624.75,974.33a11.32,11.32,0,0,1-11.32,11.33h-30.79a11.32,11.32,0,0,1-11.32-11.33Z" style="fill:#f9bc95;stroke:#002f69;stroke-linecap:round;stroke-linejoin:round;stroke-width:5px"/><path d="M4593.22,853.27l-3.49-81.08h16.61a18.87,18.87,0,0,1,18.87,18.87V893.93h-7.84l-14.46-16.5A39.16,39.16,0,0,1,4593.22,853.27Z" style="fill:#b5c8e6"/><path d="M4570.86,791.06a18.87,18.87,0,0,1,18.87-18.87l3.49,81.08a39.16,39.16,0,0,0,9.69,24.16l14.46,16.5h-46.51Z" style="fill:#4b7cc4"/><path d="M4570.86,772.19h54.36a0,0,0,0,1,0,0V875.06a18.87,18.87,0,0,1-18.87,18.87h-16.61a18.87,18.87,0,0,1-18.87-18.87V772.19A0,0,0,0,1,4570.86,772.19Z" transform="translate(9196.07 1666.12) rotate(-180)" style="fill:none;stroke:#002f69;stroke-linecap:round;stroke-linejoin:round;stroke-width:5px"/><rect x="4590.39" y="764.26" width="15.29" height="7.93" transform="translate(9196.07 1536.45) rotate(-180)" style="fill:#f9bc95;stroke:#002f69;stroke-linecap:round;stroke-linejoin:round;stroke-width:5px"/><path d="M4591.53,745h13a11.62,11.62,0,0,1,11.62,11.62v7.63a0,0,0,0,1,0,0h-36.24a0,0,0,0,1,0,0v-7.63A11.62,11.62,0,0,1,4591.53,745Z" transform="translate(9196.07 1509.28) rotate(-180)" style="fill:#4b7cc4;stroke:#002f69;stroke-linecap:round;stroke-linejoin:round;stroke-width:5px"/><rect x="4574.25" y="736.83" width="47.56" height="8.18" rx="3.11" ry="3.11" transform="translate(9196.07 1481.85) rotate(-180)" style="fill:#f9bc95;stroke:#002f69;stroke-linecap:round;stroke-linejoin:round;stroke-width:5px"/><rect x="4564.06" y="893.93" width="67.95" height="9.06" rx="3.81" ry="3.81" transform="translate(9196.07 1796.92) rotate(-180)" style="fill:#f9bc95;stroke:#002f69;stroke-linecap:round;stroke-linejoin:round;stroke-width:5px"/><path d="M4482.92,951.4h45.3a0,0,0,0,1,0,0V974a22.65,22.65,0,0,1-22.65,22.65h0A22.65,22.65,0,0,1,4482.92,974V951.4a0,0,0,0,1,0,0Z" transform="translate(9011.13 1948.1) rotate(-180)" style="fill:#f9bc95;stroke:#002f69;stroke-linecap:round;stroke-linejoin:round;stroke-width:5px"/><circle cx="4505.37" cy="974.63" r="13.06" style="fill:#ddf2e3;stroke:#002f69;stroke-linecap:round;stroke-linejoin:round;stroke-width:5px"/><path d="M4442.71,996.7h238.38a0,0,0,0,1,0,0v0a21,21,0,0,1-21,21H4463.66a21,21,0,0,1-21-21v0a0,0,0,0,1,0,0Z" transform="translate(9123.81 2014.35) rotate(-180)" style="fill:#feb8a7;stroke:#002f69;stroke-linecap:round;stroke-linejoin:round;stroke-width:5px"/><line x1="4447.91" y1="1006.3" x2="4513.77" y2="1006.3" style="fill:#fff;stroke:#002f69;stroke-linecap:round;stroke-linejoin:round;stroke-width:5px"/><line x1="4523.63" y1="1006.3" x2="4527.08" y2="1006.3" style="fill:#fff;stroke:#002f69;stroke-linecap:round;stroke-linejoin:round;stroke-width:5px"/><path d="M4614.52,856.25V793.84a11.45,11.45,0,0,0-11.44-11.45" style="fill:none;stroke:#4b7cc4;stroke-linecap:round;stroke-linejoin:round;stroke-width:5px"/><circle cx="4550.3" cy="816.64" r="26.05" style="fill:#f9bc95;stroke:#002f69;stroke-linecap:round;stroke-linejoin:round;stroke-width:5px"/><circle cx="4550.3" cy="816.64" r="13.06" style="fill:#ddf2e3;stroke:#002f69;stroke-linecap:round;stroke-linejoin:round;stroke-width:5px"/><ellipse cx="4599.29" cy="674.71" rx="25.09" ry="12.97" style="fill:none;stroke:#838eb1;stroke-linecap:round;stroke-linejoin:round;stroke-width:5px"/><circle cx="4599.21" cy="679.5" r="6.5" style="fill:none;stroke:#838eb1;stroke-linecap:round;stroke-linejoin:round;stroke-width:5px"/><line x1="4599.96" y1="650.75" x2="4599.96" y2="638.5" style="fill:none;stroke:#838eb1;stroke-linecap:round;stroke-linejoin:round;stroke-width:5px"/><line x1="4583.21" y1="655" x2="4578.96" y2="648" style="fill:none;stroke:#838eb1;stroke-linecap:round;stroke-linejoin:round;stroke-width:5px"/><line x1="4615.46" y1="655" x2="4619.71" y2="648" style="fill:none;stroke:#838eb1;stroke-linecap:round;stroke-linejoin:round;stroke-width:5px"/><path d="M3612.71,1017h108a28,28,0,0,0-28-28h-52a28,28,0,0,0-28,28Z" style="fill:#feb8a7;stroke:#002f69;stroke-linecap:round;stroke-linejoin:round;stroke-width:5px"/><path d="M2567.79,711.48h16v-22.6a24.46,24.46,0,0,1,24.44-24.43H3922.38a65.21,65.21,0,0,0,65.14-65.14V495.15A49.19,49.19,0,0,1,4036.66,446H4406.4V430H4036.66a65.21,65.21,0,0,0-65.14,65.14V599.31a49.2,49.2,0,0,1-49.14,49.14H2608.23a40.48,40.48,0,0,0-40.44,40.43Z" style="fill:#feeee4;stroke:#002f69;stroke-linecap:round;stroke-linejoin:round;stroke-width:5px"/><path d="M4105.94,744.37h48.22a107.65,107.65,0,0,0,107.53-107.53V322.73a74.47,74.47,0,0,0-74.38-74.39h-1.8a74.47,74.47,0,0,0-74.39,74.39v17.32h15V322.73a59.45,59.45,0,0,1,59.39-59.39h1.8a59.45,59.45,0,0,1,59.38,59.39V636.84a92.64,92.64,0,0,1-92.53,92.53h-48.22a215.86,215.86,0,0,1-152.71-63.25l-10-10a230.94,230.94,0,0,0-163.31-67.65H2781a58.9,58.9,0,0,0-58.83,58.84v64h15v-64A43.89,43.89,0,0,1,2781,603.45H3779.9a215.93,215.93,0,0,1,152.7,63.26l10,10a230.94,230.94,0,0,0,163.31,67.64Z" style="fill:#ecf1f8;stroke:#002f69;stroke-linecap:round;stroke-linejoin:round;stroke-width:5px"/><path d="M2868.7,632.22h32.07a16.32,16.32,0,0,1,16.32,16.32v12.31a16.32,16.32,0,0,1-16.32,16.32h-8.16V711.5h-15V677.17h-8.91a16.32,16.32,0,0,1-16.32-16.32V648.54A16.32,16.32,0,0,1,2868.7,632.22Z" style="fill:#ddf2e3;stroke:#002f69;stroke-linecap:round;stroke-linejoin:round;stroke-width:5px"/><line x1="2877.61" y1="677.17" x2="2883.31" y2="677.17" style="fill:#fff;stroke:#002f69;stroke-linecap:round;stroke-linejoin:round;stroke-width:5px"/><path d="M2882.63,666.77H2898a8.33,8.33,0,0,0,8.33-8.33v-8.35" style="fill:none;stroke:#92dbac;stroke-linecap:round;stroke-linejoin:round;stroke-width:5px"/><line x1="2873.43" y1="666.77" x2="2874.06" y2="666.77" style="fill:none;stroke:#92dbac;stroke-linecap:round;stroke-linejoin:round;stroke-width:5px"/><path d="M3015,632.22h32.07a16.32,16.32,0,0,1,16.32,16.32v12.31a16.32,16.32,0,0,1-16.32,16.32h-8.16V711.5h-15V677.17H3015a16.31,16.31,0,0,1-16.32-16.32V648.54A16.31,16.31,0,0,1,3015,632.22Z" style="fill:#ddf2e3;stroke:#002f69;stroke-linecap:round;stroke-linejoin:round;stroke-width:5px"/><line x1="3023.91" y1="677.17" x2="3029.6" y2="677.17" style="fill:#fff;stroke:#002f69;stroke-linecap:round;stroke-linejoin:round;stroke-width:5px"/><path d="M3028.93,666.77h15.36a8.33,8.33,0,0,0,8.33-8.33v-8.35" style="fill:none;stroke:#92dbac;stroke-linecap:round;stroke-linejoin:round;stroke-width:5px"/><line x1="3019.73" y1="666.77" x2="3020.36" y2="666.77" style="fill:none;stroke:#92dbac;stroke-linecap:round;stroke-linejoin:round;stroke-width:5px"/><path d="M3171.29,632.22h32.08a16.32,16.32,0,0,1,16.32,16.32v12.31a16.32,16.32,0,0,1-16.32,16.32h-8.17V711.5h-15V677.17h-8.91A16.32,16.32,0,0,1,3155,660.85V648.54A16.32,16.32,0,0,1,3171.29,632.22Z" style="fill:#ddf2e3;stroke:#002f69;stroke-linecap:round;stroke-linejoin:round;stroke-width:5px"/><line x1="3180.2" y1="677.17" x2="3185.9" y2="677.17" style="fill:#fff;stroke:#002f69;stroke-linecap:round;stroke-linejoin:round;stroke-width:5px"/><path d="M3185.23,666.77h15.36a8.32,8.32,0,0,0,8.32-8.33v-8.35" style="fill:none;stroke:#92dbac;stroke-linecap:round;stroke-linejoin:round;stroke-width:5px"/><line x1="3176.03" y1="666.77" x2="3176.66" y2="666.77" style="fill:none;stroke:#92dbac;stroke-linecap:round;stroke-linejoin:round;stroke-width:5px"/><path d="M4115.08,713.79h32.08a16.32,16.32,0,0,1,16.32,16.32v12.31a16.33,16.33,0,0,1-16.32,16.33H4139v34.32h-15V758.75h-8.91a16.33,16.33,0,0,1-16.32-16.33V730.11A16.32,16.32,0,0,1,4115.08,713.79Z" style="fill:#f9bc95;stroke:#002f69;stroke-linecap:round;stroke-linejoin:round;stroke-width:5px"/><line x1="4123.99" y1="758.75" x2="4129.69" y2="758.75" style="fill:#fff;stroke:#002f69;stroke-linecap:round;stroke-linejoin:round;stroke-width:5px"/><path d="M4129,748.34h15.35a8.33,8.33,0,0,0,8.33-8.33v-8.35" style="fill:none;stroke:#f88645;stroke-linecap:round;stroke-linejoin:round;stroke-width:5px"/><line x1="4119.81" y1="748.34" x2="4120.45" y2="748.34" style="fill:none;stroke:#f88645;stroke-linecap:round;stroke-linejoin:round;stroke-width:5px"/><path d="M3650.67,570h32.08a16.32,16.32,0,0,1,16.32,16.32v12.32a16.32,16.32,0,0,1-16.32,16.32h-8.17V989.87h-15V614.93h-8.91a16.32,16.32,0,0,1-16.32-16.32V586.29A16.32,16.32,0,0,1,3650.67,570Z" style="fill:#fcedf0;stroke:#002f69;stroke-linecap:round;stroke-linejoin:round;stroke-width:5px"/><line x1="3659.58" y1="614.93" x2="3665.28" y2="614.93" style="fill:#fff;stroke:#002f69;stroke-linecap:round;stroke-linejoin:round;stroke-width:5px"/><path d="M3664.61,604.53H3680a8.32,8.32,0,0,0,8.32-8.33v-8.35" style="fill:none;stroke:#838eb1;stroke-linecap:round;stroke-linejoin:round;stroke-width:5px"/><line x1="3655.41" y1="604.53" x2="3656.04" y2="604.53" style="fill:none;stroke:#838eb1;stroke-linecap:round;stroke-linejoin:round;stroke-width:5px"/><path d="M4355.66,1017h108a28,28,0,0,0-28-28h-52a28,28,0,0,0-28,28Z" style="fill:#feb8a7;stroke:#002f69;stroke-linecap:round;stroke-linejoin:round;stroke-width:5px"/><path d="M4393.63,414.7h32.07A16.32,16.32,0,0,1,4442,431v12.31a16.32,16.32,0,0,1-16.32,16.32h-8.16V989.87h-15V459.65h-8.91a16.31,16.31,0,0,1-16.32-16.32V431A16.31,16.31,0,0,1,4393.63,414.7Z" style="fill:#fcedf0;stroke:#002f69;stroke-linecap:round;stroke-linejoin:round;stroke-width:5px"/><line x1="4402.54" y1="459.65" x2="4408.23" y2="459.65" style="fill:#fff;stroke:#002f69;stroke-linecap:round;stroke-linejoin:round;stroke-width:5px"/><path d="M4407.56,449.25h15.36a8.33,8.33,0,0,0,8.33-8.33v-8.35" style="fill:none;stroke:#838eb1;stroke-linecap:round;stroke-linejoin:round;stroke-width:5px"/><line x1="4398.36" y1="449.25" x2="4398.99" y2="449.25" style="fill:none;stroke:#838eb1;stroke-linecap:round;stroke-linejoin:round;stroke-width:5px"/><path d="M3531.67,616H3499.6a16.32,16.32,0,0,1-16.32-16.32V587.31A16.32,16.32,0,0,1,3499.6,571h8.16V526.05h15V571h8.91A16.32,16.32,0,0,1,3548,587.31v12.32A16.32,16.32,0,0,1,3531.67,616Z" style="fill:#f9bc95;stroke:#002f69;stroke-linecap:round;stroke-linejoin:round;stroke-width:5px"/><line x1="3522.76" y1="570.99" x2="3517.06" y2="570.99" style="fill:#fff;stroke:#002f69;stroke-linecap:round;stroke-linejoin:round;stroke-width:5px"/><path d="M3517.73,581.39h-15.35a8.33,8.33,0,0,0-8.33,8.33v8.35" style="fill:none;stroke:#f88645;stroke-linecap:round;stroke-linejoin:round;stroke-width:5px"/><line x1="3526.94" y1="581.39" x2="3526.3" y2="581.39" style="fill:none;stroke:#f88645;stroke-linecap:round;stroke-linejoin:round;stroke-width:5px"/><path d="M3561.46,632.18h32.07a16.32,16.32,0,0,1,16.32,16.32v12.32a16.32,16.32,0,0,1-16.32,16.32h-9.68v65.22a22.91,22.91,0,0,0,22.88,22.87h37V756a16.32,16.32,0,0,1,16.32-16.32h12.31A16.32,16.32,0,0,1,3688.68,756v32.07a16.31,16.31,0,0,1-16.32,16.32h-12.31a16.31,16.31,0,0,1-16.32-16.32v-7.85h-37a37.92,37.92,0,0,1-37.88-37.87V677.14h-7.39a16.33,16.33,0,0,1-16.33-16.32V648.5A16.33,16.33,0,0,1,3561.46,632.18Z" style="fill:#92dbac;stroke:#002f69;stroke-linecap:round;stroke-linejoin:round;stroke-width:5px"/><path d="M3575.39,666.74h15.36a8.33,8.33,0,0,0,8.33-8.33v-8.35" style="fill:none;stroke:#ddf2e3;stroke-linecap:round;stroke-linejoin:round;stroke-width:5px"/><line x1="3566.19" y1="666.74" x2="3566.82" y2="666.74" style="fill:none;stroke:#ddf2e3;stroke-linecap:round;stroke-linejoin:round;stroke-width:5px"/><path d="M3654.13,769.94V785.3a8.33,8.33,0,0,0,8.33,8.33h8.35" style="fill:none;stroke:#ddf2e3;stroke-linecap:round;stroke-linejoin:round;stroke-width:5px"/><line x1="3654.13" y1="760.74" x2="3654.13" y2="761.38" style="fill:none;stroke:#ddf2e3;stroke-linecap:round;stroke-linejoin:round;stroke-width:5px"/><line x1="3583.85" y1="677.14" x2="3577.37" y2="677.14" style="fill:#fff;stroke:#002f69;stroke-linecap:round;stroke-linejoin:round;stroke-width:5px"/><line x1="3643.73" y1="765.23" x2="3643.73" y2="771.72" style="fill:#fff;stroke:#002f69;stroke-linecap:round;stroke-linejoin:round;stroke-width:5px"/><circle cx="3515.44" cy="472.36" r="64.43" style="fill:#92dbac;stroke:#002f69;stroke-linecap:round;stroke-linejoin:round;stroke-width:5px"/><path d="M3508.34,435.09a43,43,0,0,0-23.9,7.22,43.18,43.18,0,1,1,54.9,66,43.17,43.17,0,0,0-31-73.23Z" style="fill:#d9e2f2"/><path d="M3472.26,472.36a43,43,0,0,1,12.18-30.05,43.17,43.17,0,0,1,54.9,66,43.18,43.18,0,0,1-67.08-36Z" style="fill:#ecf1f8"/><path d="M3512.49,460.87V441a3.16,3.16,0,1,1,6.32,0v20a11.88,11.88,0,1,1-6.32-.11Z" style="fill:#002f69;stroke:#002f69;stroke-linecap:round;stroke-linejoin:round;stroke-width:5px"/><path d="M3569.72,454.68a57.1,57.1,0,0,0-54.28-39.39" style="fill:none;stroke:#ddf2e3;stroke-linecap:round;stroke-linejoin:round;stroke-width:10px"/><path d="M3572.51,472.36c0-1.12,0-2.24-.1-3.34" style="fill:none;stroke:#ddf2e3;stroke-linecap:round;stroke-linejoin:round;stroke-width:10px"/><circle cx="3515.44" cy="472.36" r="9.78" style="fill:#f88645;stroke:#002f69;stroke-linecap:round;stroke-linejoin:round;stroke-width:5px"/><path d="M4122.21,971.82h.34V954.16a3.85,3.85,0,0,1,3.85-3.85h18.36a3.86,3.86,0,0,1,3.86,3.85l.33,17.66a13.75,13.75,0,0,1,13.75,13.74V1016h-54.23V985.56A13.74,13.74,0,0,1,4122.21,971.82Z" style="fill:#b5c8e6;stroke:#002f69;stroke-linecap:round;stroke-linejoin:round;stroke-width:5px"/><line x1="4122.45" y1="971.82" x2="4132.48" y2="971.82" style="fill:#fff;stroke:#002f69;stroke-linecap:round;stroke-linejoin:round;stroke-width:5px"/><rect x="4162.71" y="994.8" width="18.52" height="10.8" transform="translate(8343.94 2000.41) rotate(-180)" style="fill:#ddf2e3;stroke:#002f69;stroke-linecap:round;stroke-linejoin:round;stroke-width:5px"/><rect x="4318.06" y="821.73" width="5.15" height="11.49" transform="translate(8641.27 1654.95) rotate(-180)" style="fill:#fff;stroke:#002f69;stroke-linecap:round;stroke-linejoin:round;stroke-width:5px"/><rect x="4298.51" y="805.27" width="44.25" height="16.26" rx="8.13" ry="8.13" transform="translate(8641.27 1626.79) rotate(-180)" style="fill:#f88645;stroke:#002f69;stroke-linecap:round;stroke-linejoin:round;stroke-width:5px"/><path d="M4262.64,994.62h3.78V905.2a43.36,43.36,0,0,1,43.36-43.36H4313v-4.22a6,6,0,0,0-6-6h-10v-13h10a6,6,0,0,0,6-6h15.25v29.2h4.7a43.36,43.36,0,0,1,43.37,43.36v89.42h2.31a7.28,7.28,0,0,1,7.28,7.28v8.3a7.28,7.28,0,0,1-7.28,7.29h-116a7.29,7.29,0,0,1-7.29-7.29v-8.3A7.28,7.28,0,0,1,4262.64,994.62Z" style="fill:#4b7cc4;stroke:#002f69;stroke-linecap:round;stroke-linejoin:round;stroke-width:5px"/><line x1="4265.64" y1="994.62" x2="4272.71" y2="994.62" style="fill:#fff;stroke:#002f69;stroke-linecap:round;stroke-linejoin:round;stroke-width:5px"/><line x1="4351.49" y1="987.57" x2="4351.49" y2="994.36" style="fill:#fff;stroke:#002f69;stroke-linecap:round;stroke-linejoin:round;stroke-width:5px"/><line x1="4330.6" y1="987.57" x2="4330.6" y2="994.36" style="fill:#fff;stroke:#002f69;stroke-linecap:round;stroke-linejoin:round;stroke-width:5px"/><line x1="4309.71" y1="987.57" x2="4309.71" y2="994.36" style="fill:#fff;stroke:#002f69;stroke-linecap:round;stroke-linejoin:round;stroke-width:5px"/><line x1="4288.82" y1="987.57" x2="4288.82" y2="994.36" style="fill:#fff;stroke:#002f69;stroke-linecap:round;stroke-linejoin:round;stroke-width:5px"/><line x1="4368.71" y1="982" x2="4368.71" y2="984.5" style="fill:none;stroke:#b5c8e6;stroke-linecap:round;stroke-linejoin:round;stroke-width:5px"/><path d="M4321.71,841v19.62a7.87,7.87,0,0,0,7.87,7.88h3.48a35.65,35.65,0,0,1,35.65,35.64v63.53" style="fill:none;stroke:#b5c8e6;stroke-linecap:round;stroke-linejoin:round;stroke-width:5px"/><path d="M4350.71,981.17h0a5.66,5.66,0,0,0-5.67,5.66v7.5" style="fill:none;stroke:#b5c8e6;stroke-linecap:round;stroke-linejoin:round;stroke-width:5px"/><path d="M4329.87,981.17h0a5.65,5.65,0,0,0-5.66,5.66v7.5" style="fill:none;stroke:#b5c8e6;stroke-linecap:round;stroke-linejoin:round;stroke-width:5px"/><path d="M4309,981.17h0a5.66,5.66,0,0,0-5.67,5.66v7.5" style="fill:none;stroke:#b5c8e6;stroke-linecap:round;stroke-linejoin:round;stroke-width:5px"/><path d="M4288.21,981.17h0a5.66,5.66,0,0,0-5.67,5.66v7.5" style="fill:none;stroke:#b5c8e6;stroke-linecap:round;stroke-linejoin:round;stroke-width:5px"/><path d="M4301.71,932c3.9-24.27,29.5-36.5,29.5-36.5s-3.57,10.65,7.5,30.75c8.51,15.45-2.21,25.48-12.48,27.41a18,18,0,0,0,2.6-9.91c0-6.9-3-12.5-6.62-12.5s-6.63,5.6-6.63,12.5a18.14,18.14,0,0,0,2.51,9.79C4308.56,951.66,4299.77,944.06,4301.71,932Z" style="fill:#b5c8e6"/><path d="M4185.07,989.56h-12.3v21.82h12.3a3.26,3.26,0,0,0,3.26-3.26v-.3h.87a60.11,60.11,0,0,0,60.11-60.11V852.65h34.91a1.68,1.68,0,0,1,1.67,1.68v.11a1.68,1.68,0,0,0,1.68,1.68h13.88V834.3h-13.88a1.68,1.68,0,0,0-1.68,1.68h0a1.67,1.67,0,0,1-1.67,1.67h-34.91V825.11a21.75,21.75,0,0,0-22.58-21.71c-13.11.51-22.48,12.74-20.58,25.73a27.59,27.59,0,0,0,27.25,23.52h.91v95.06a45.11,45.11,0,0,1-45.11,45.11h-.87A3.26,3.26,0,0,0,4185.07,989.56Zm49.24-151.91h-.91a12.55,12.55,0,0,1-12.54-12.54,6.73,6.73,0,0,1,13.45,0Z" style="fill:#ddf2e3;stroke:#002f69;stroke-linecap:round;stroke-linejoin:round;stroke-width:5px"/><line x1="4234.31" y1="852.65" x2="4234.31" y2="837.65" style="fill:#ddf2e3;stroke:#002f69;stroke-linecap:round;stroke-linejoin:round;stroke-width:5px"/><line x1="4249.31" y1="852.65" x2="4249.31" y2="837.65" style="fill:#ddf2e3;stroke:#002f69;stroke-linecap:round;stroke-linejoin:round;stroke-width:5px"/><path d="M4135.58,922.23h0a10.65,10.65,0,0,1,10.65,10.65v0a10.65,10.65,0,0,1-10.65,10.65h-10.65a0,0,0,0,1,0,0V932.88A10.65,10.65,0,0,1,4135.58,922.23Z" transform="translate(7719.52 -1331.78) rotate(135)" style="fill:#f88645;stroke:#002f69;stroke-linecap:round;stroke-linejoin:round;stroke-width:5px"/><path d="M3879.71,865.67V765h106.6a6.92,6.92,0,0,1,5.64,10.92l-11.76,16.55a67.54,67.54,0,0,0-12.48,39.12v34.08Z" style="fill:#fcedf0;stroke:#002f69;stroke-linecap:round;stroke-linejoin:round;stroke-width:5px"/><path d="M3967.71,1007.27A9.74,9.74,0,0,1,3958,1017h-68.53a9.73,9.73,0,0,1-9.73-9.73V865.67h88Z" style="fill:#e1526e;stroke:#002f69;stroke-linecap:round;stroke-linejoin:round;stroke-width:5px"/><path d="M3993.17,774.2l-12.37,17.41a70.83,70.83,0,0,0-13.09,41v174.63A9.74,9.74,0,0,1,3958,1017h-68.53a9.73,9.73,0,0,1-9.73-9.73V765h108.71A5.83,5.83,0,0,1,3993.17,774.2Z" style="fill:none;stroke:#002f69;stroke-linecap:round;stroke-linejoin:round;stroke-width:5px"/><line x1="3967.46" y1="831.5" x2="3939.46" y2="831.5" style="fill:#b5c8e6;stroke:#002f69;stroke-linecap:round;stroke-linejoin:round;stroke-width:5px"/><line x1="3967.46" y1="848.5" x2="3949.46" y2="848.5" style="fill:#b5c8e6;stroke:#002f69;stroke-linecap:round;stroke-linejoin:round;stroke-width:5px"/><line x1="3967.46" y1="865.5" x2="3939.46" y2="865.5" style="fill:#b5c8e6;stroke:#002f69;stroke-linecap:round;stroke-linejoin:round;stroke-width:5px"/><line x1="3967.46" y1="882.5" x2="3949.46" y2="882.5" style="fill:#b5c8e6;stroke:#002f69;stroke-linecap:round;stroke-linejoin:round;stroke-width:5px"/><line x1="3967.46" y1="899.5" x2="3939.46" y2="899.5" style="fill:#b5c8e6;stroke:#002f69;stroke-linecap:round;stroke-linejoin:round;stroke-width:5px"/><line x1="3967.46" y1="916.5" x2="3949.46" y2="916.5" style="fill:#b5c8e6;stroke:#002f69;stroke-linecap:round;stroke-linejoin:round;stroke-width:5px"/><line x1="3967.46" y1="933.5" x2="3939.46" y2="933.5" style="fill:#b5c8e6;stroke:#002f69;stroke-linecap:round;stroke-linejoin:round;stroke-width:5px"/><line x1="3967.46" y1="950.5" x2="3949.46" y2="950.5" style="fill:#b5c8e6;stroke:#002f69;stroke-linecap:round;stroke-linejoin:round;stroke-width:5px"/><line x1="3967.46" y1="967.5" x2="3939.46" y2="967.5" style="fill:#b5c8e6;stroke:#002f69;stroke-linecap:round;stroke-linejoin:round;stroke-width:5px"/><line x1="3967.46" y1="984.5" x2="3949.46" y2="984.5" style="fill:#b5c8e6;stroke:#002f69;stroke-linecap:round;stroke-linejoin:round;stroke-width:5px"/><rect x="3897.86" y="886.85" width="54.94" height="54.94" rx="10.08" ry="10.08" transform="translate(7347.47 -1214.79) rotate(135)" style="fill:#f9bc95"/><path d="M3909,910.69a16,16,0,0,0,2.48,8.59,18.8,18.8,0,0,1,3,10v.19a2.44,2.44,0,1,0,4.88,0v-3.72a16.05,16.05,0,0,0,3.38.91v2.81a2.44,2.44,0,1,0,4.88,0v-2.81a15.73,15.73,0,0,0,3.38-.91v3.72a2.45,2.45,0,0,0,4.89,0v-.19a19,19,0,0,1,3-10,16.15,16.15,0,1,0-29.85-8.55Zm16.83-.7a7,7,0,0,1,5.19-2.14,7.17,7.17,0,0,1,4.76,1.71,2.17,2.17,0,0,1-2.88,3.26,2.84,2.84,0,0,0-1.88-.63,2.74,2.74,0,0,0-2,.74,2.15,2.15,0,0,1-1.6.7,2.19,2.19,0,0,1-1.47-.57A2.17,2.17,0,0,1,3925.87,910Zm-14.36,0a7,7,0,0,1,5.19-2.14,7.17,7.17,0,0,1,4.76,1.71,2.17,2.17,0,0,1-2.88,3.26,2.84,2.84,0,0,0-1.88-.63,2.74,2.74,0,0,0-2,.74,2.13,2.13,0,0,1-1.59.7,2.2,2.2,0,0,1-1.48-.57A2.18,2.18,0,0,1,3911.51,910Z" style="fill:#002f69"/><circle cx="3933.85" cy="910.88" r="1.32" style="fill:#002f69"/><circle cx="3919.68" cy="910.88" r="1.32" style="fill:#002f69"/><path d="M4689.51,468h15a37.87,37.87,0,0,0-37.83-37.83H4442v15h224.66A22.85,22.85,0,0,1,4689.51,468Z" style="fill:#feeee4;stroke:#002f69;stroke-linecap:round;stroke-linejoin:round;stroke-width:5px"/><rect x="4571.71" y="425.25" width="45.25" height="24.5" rx="4" ry="4" transform="translate(9188.66 875) rotate(-180)" style="fill:#feeee4;stroke:#002f69;stroke-linecap:round;stroke-linejoin:round;stroke-width:5px"/><rect x="4386.71" y="613.5" width="45.25" height="24.5" rx="4" ry="4" transform="translate(5035.08 -3783.58) rotate(90)" style="fill:#feeee4;stroke:#002f69;stroke-linecap:round;stroke-linejoin:round;stroke-width:5px"/><path d="M4908.26,1007.35l88.89-8.92a3.88,3.88,0,0,0,3.48-4.26h0a3.91,3.91,0,0,1,3.49-4.26l131-13.13,2.26,22.61-131,13.13a3.89,3.89,0,0,1-4.26-3.48h0a3.88,3.88,0,0,0-4.25-3.48l-88.9,8.91Z" style="fill:#ffded5;stroke:#002f69;stroke-linecap:round;stroke-linejoin:round;stroke-width:5px"/><path d="M5135.11,976.78l1.17-.12A34.4,34.4,0,0,0,5162,960.31a37.17,37.17,0,1,1,6.54,47.1,33.59,33.59,0,0,0-26-8.54l-5.13.52Z" style="fill:#e1526e;stroke:#002f69;stroke-linecap:round;stroke-linejoin:round;stroke-width:5px"/><path d="M5172,962.73l-.54.71" style="fill:none;stroke:#ffded5;stroke-linecap:round;stroke-linejoin:round;stroke-width:5px"/><path d="M5221.05,979.64a27.42,27.42,0,0,0-42.76-22.73" style="fill:none;stroke:#ffded5;stroke-linecap:round;stroke-linejoin:round;stroke-width:5px"/><path d="M4670.91,662.61l120.64-47.48a7.69,7.69,0,0,1,10.51,7.24l-.68,64.63H4679.5l-11.34-11.93A7.69,7.69,0,0,1,4670.91,662.61Z" style="fill:#ffded5;stroke:#002f69;stroke-linecap:round;stroke-linejoin:round;stroke-width:5px"/><path d="M4753,926a43.84,43.84,0,0,1,41.85-43.8v87.6A43.84,43.84,0,0,1,4753,926Z" style="fill:none;stroke:#002f69;stroke-linecap:round;stroke-linejoin:round;stroke-width:5px"/><path d="M4866.07,1003.29,4800.22,836h0a5.37,5.37,0,0,0-5.37,5.37v21.68a63,63,0,0,0,0,125.9v21.45a6.61,6.61,0,0,0,6.61,6.6h93.79a6.6,6.6,0,0,0,6.6-6.6V868.32l16.56-26.76a3.64,3.64,0,0,0-3.1-5.56h-97.89L4881,997.43Zm-71.22-33.49a43.85,43.85,0,0,1,0-87.6Z" style="fill:#ffded5;stroke:#002f69;stroke-linecap:round;stroke-linejoin:round;stroke-width:5px"/><polygon points="4817.41 836 4800.22 836 4785.38 798.29 4679.5 687 4801.38 687 4800.27 792.43 4817.41 836" style="fill:#92dbac;stroke:#002f69;stroke-linecap:round;stroke-linejoin:round;stroke-width:5px"/><path d="M4803.87,895.67h88.86a3.46,3.46,0,0,1,3.46,3.46v112.54a0,0,0,0,1,0,0h-95.33a0,0,0,0,1,0,0v-113A3,3,0,0,1,4803.87,895.67Z" transform="translate(9697.04 1907.33) rotate(-180)" style="fill:#e1526e"/><polyline points="4866.07 1003.29 4800.22 836 4817.41 836 4880.95 997.43" style="fill:#92dbac;stroke:#002f69;stroke-linecap:round;stroke-linejoin:round;stroke-width:5px"/><line x1="4791.45" y1="754.83" x2="4791.43" y2="756.75" style="fill:none;stroke:#ffded5;stroke-linecap:round;stroke-linejoin:round;stroke-width:5px"/><line x1="4792.48" y1="635.65" x2="4791.64" y2="732.66" style="fill:none;stroke:#ffded5;stroke-linecap:round;stroke-linejoin:round;stroke-width:5px"/><line x1="4901.85" y1="868.32" x2="4885.1" y2="868.32" style="fill:#ffded5;stroke:#002f69;stroke-linecap:round;stroke-linejoin:round;stroke-width:5px"/><line x1="4901.85" y1="881.32" x2="4892.18" y2="881.32" style="fill:#ffded5;stroke:#002f69;stroke-linecap:round;stroke-linejoin:round;stroke-width:5px"/><line x1="4901.85" y1="895.66" x2="4885.1" y2="895.66" style="fill:#ffded5;stroke:#002f69;stroke-linecap:round;stroke-linejoin:round;stroke-width:5px"/><line x1="4901.85" y1="908.66" x2="4892.18" y2="908.66" style="fill:#ffded5;stroke:#002f69;stroke-linecap:round;stroke-linejoin:round;stroke-width:5px"/><line x1="4901.85" y1="922.99" x2="4885.1" y2="922.99" style="fill:#ffded5;stroke:#002f69;stroke-linecap:round;stroke-linejoin:round;stroke-width:5px"/><line x1="4901.85" y1="935.99" x2="4892.18" y2="935.99" style="fill:#ffded5;stroke:#002f69;stroke-linecap:round;stroke-linejoin:round;stroke-width:5px"/><line x1="4901.85" y1="950.32" x2="4885.1" y2="950.32" style="fill:#ffded5;stroke:#002f69;stroke-linecap:round;stroke-linejoin:round;stroke-width:5px"/><line x1="4901.85" y1="963.32" x2="4892.18" y2="963.32" style="fill:#ffded5;stroke:#002f69;stroke-linecap:round;stroke-linejoin:round;stroke-width:5px"/><line x1="4901.85" y1="977.66" x2="4885.1" y2="977.66" style="fill:#ffded5;stroke:#002f69;stroke-linecap:round;stroke-linejoin:round;stroke-width:5px"/><line x1="4901.85" y1="990.66" x2="4892.18" y2="990.66" style="fill:#ffded5;stroke:#002f69;stroke-linecap:round;stroke-linejoin:round;stroke-width:5px"/><line x1="4794.85" y1="863.05" x2="4794.85" y2="872.67" style="fill:#ffded5;stroke:#002f69;stroke-linecap:round;stroke-linejoin:round;stroke-width:5px"/><path d="M4742.85,925.67c0,.39,0,.78,0,1.16" style="fill:none;stroke:#fef7f3;stroke-linecap:round;stroke-linejoin:round;stroke-width:5px"/><path d="M4778.86,874.5a54.47,54.47,0,0,0-34.58,38.73" style="fill:none;stroke:#fef7f3;stroke-linecap:round;stroke-linejoin:round;stroke-width:5px"/><path d="M4691.21,510.15a6.48,6.48,0,0,0,13,0c0-3.58-6.48-8.65-6.48-8.65S4691.21,506.57,4691.21,510.15Z" style="fill:#92dbac;stroke:#002f69;stroke-linecap:round;stroke-linejoin:round;stroke-width:5px"/><path d="M4691.21,589.17a6.48,6.48,0,0,0,13,0c0-3.58-6.48-9.17-6.48-9.17S4691.21,585.59,4691.21,589.17Z" style="fill:#92dbac;stroke:#002f69;stroke-linecap:round;stroke-linejoin:round;stroke-width:5px"/><circle cx="4697.69" cy="683.09" r="6.48" style="fill:#92dbac;stroke:#002f69;stroke-linecap:round;stroke-linejoin:round;stroke-width:5px"/><path d="M4402.21,320v95h15V320a160.69,160.69,0,0,1,17.24-72.24,35.36,35.36,0,0,1,16.93-16.44c14.21-6.33,26.4.16,32.95,5.19-7.58,8.25-19.3,23-19.3,35.54,0,19.65,12.37,33.38,30.06,33.38s30.07-13.73,30.07-33.38c0-12.48-11.63-27.18-19.21-35.45,7.08-5.5,14.29-8.17,21.55-7.91,8.39.3,15.5,4.44,20,7.86-7.59,8.25-19.26,23-19.26,35.5,0,19.65,12.36,33.38,30.06,33.38s30.06-13.73,30.06-33.38c0-12.48-11.63-27.18-19.21-35.44,7.05-5.48,14.23-8.14,21.43-7.92,8.46.26,15.61,4.42,20.12,7.86-7.58,8.25-19.26,23-19.26,35.5,0,19.65,12.36,33.38,30.06,33.38s30.06-13.73,30.06-33.38c0-12.48-11.62-27.18-19.21-35.44,7-5.48,14.24-8.15,21.44-7.92,14.51.45,25.17,12.35,25.27,12.47l.11.12a253.11,253.11,0,0,0,24.95,23.18c19.78,16,36.8,24.07,50.59,24.07h62.5a23,23,0,0,1,23,23h15a38,38,0,0,0-38-38h-62.5c-21.05,0-53.6-30.5-64.43-42.33-1.34-1.51-15.38-16.77-35.85-17.5-11.44-.4-22.45,3.73-32.79,12.28l-.14-.13-.06.06c-6.13-5-16.78-11.73-30.21-12.21-11.44-.4-22.45,3.73-32.8,12.28l-.13-.13-.07.06c-6.12-5-16.77-11.73-30.2-12.21-11.44-.41-22.45,3.73-32.8,12.28l-.14-.13h0c-10.62-8.69-29.33-17.36-49.81-8.24a50.35,50.35,0,0,0-24.2,23.36A175.77,175.77,0,0,0,4402.21,320Zm204.23-48c0-6.13,7.68-16.9,15.06-25.06,7.38,8.16,15.06,18.93,15.06,25.06,0,8.48-3.94,18.38-15.06,18.38S4606.44,280.5,4606.44,272Zm-63.2,0c0-4,4.7-13.87,15-25.1,7.39,8.16,15.1,19,15.1,25.1,0,8.48-3.94,18.38-15.06,18.38S4543.24,280.5,4543.24,272ZM4480,272c0-4,4.71-13.87,15-25.1,7.39,8.16,15.1,19,15.1,25.1,0,8.48-3.95,18.38-15.07,18.38S4480,280.5,4480,272Z" style="fill:#f9bc95;stroke:#002f69;stroke-linecap:round;stroke-linejoin:round;stroke-width:5px"/><path d="M4484.33,237.48a74.19,74.19,0,0,1,10.73,10.44" style="fill:#f88645;stroke:#002f69;stroke-linecap:round;stroke-linejoin:round;stroke-width:5px"/><path d="M4495.23,227A89.86,89.86,0,0,1,4506,237.57" style="fill:#f88645;stroke:#002f69;stroke-linecap:round;stroke-linejoin:round;stroke-width:5px"/><path d="M4547.5,237.52A70.4,70.4,0,0,1,4558.43,227" style="fill:#f88645;stroke:#002f69;stroke-linecap:round;stroke-linejoin:round;stroke-width:5px"/><path d="M4558.26,247.92a83.27,83.27,0,0,1,10.89-10.34" style="fill:#f88645;stroke:#002f69;stroke-linecap:round;stroke-linejoin:round;stroke-width:5px"/><path d="M4610.7,237.52A85,85,0,0,1,4621.5,248" style="fill:#f88645;stroke:#002f69;stroke-linecap:round;stroke-linejoin:round;stroke-width:5px"/><path d="M4621.64,227a148.08,148.08,0,0,1,10.71,10.63" style="fill:#f88645;stroke:#002f69;stroke-linecap:round;stroke-linejoin:round;stroke-width:5px"/><path d="M4834-3H4726a28,28,0,0,0,28,28h52a28,28,0,0,0,28-28Z" style="fill:#ec5444;stroke:#002f69;stroke-linecap:round;stroke-linejoin:round;stroke-width:5px"/><path d="M4796.07,301.56H4764a16.33,16.33,0,0,1-16.32-16.33V272.92A16.32,16.32,0,0,1,4764,256.6h8.16V24.13h15V256.6h8.91a16.32,16.32,0,0,1,16.32,16.32v12.31A16.33,16.33,0,0,1,4796.07,301.56Z" style="fill:#efa7bb;stroke:#002f69;stroke-linecap:round;stroke-linejoin:round;stroke-width:5px"/><line x1="4787.16" y1="256.6" x2="4781.46" y2="256.6" style="fill:#fff;stroke:#002f69;stroke-linecap:round;stroke-linejoin:round;stroke-width:5px"/><path d="M4782.14,267h-15.36a8.33,8.33,0,0,0-8.33,8.33v8.35" style="fill:none;stroke:#002f69;stroke-linecap:round;stroke-linejoin:round;stroke-width:5px"/><line x1="4791.34" y1="267" x2="4790.71" y2="267" style="fill:#fff;stroke:#002f69;stroke-linecap:round;stroke-linejoin:round;stroke-width:5px"/><circle cx="4697.11" cy="468.12" r="7.51" style="fill:#92dbac;stroke:#002f69;stroke-linecap:round;stroke-linejoin:round;stroke-width:5px"/><circle cx="4847.73" cy="311.22" r="7.51" style="fill:#e1526e;stroke:#002f69;stroke-linecap:round;stroke-linejoin:round;stroke-width:5px"/><path d="M4840.22,341.18a7.52,7.52,0,1,0,15,0c0-4.15-7.52-11.83-7.52-11.83S4840.22,337,4840.22,341.18Z" style="fill:#e1526e;stroke:#002f69;stroke-linecap:round;stroke-linejoin:round;stroke-width:5px"/><path d="M4840.22,572.25a7.52,7.52,0,0,0,15,0c0-4.15-7.52-11.83-7.52-11.83S4840.22,568.1,4840.22,572.25Z" style="fill:#e1526e;stroke:#002f69;stroke-linecap:round;stroke-linejoin:round;stroke-width:5px"/><path d="M4840.22,840a7.52,7.52,0,1,0,15,0c0-4.15-7.52-11.83-7.52-11.83S4840.22,835.82,4840.22,840Z" style="fill:#e1526e;stroke:#002f69;stroke-linecap:round;stroke-linejoin:round;stroke-width:5px"/><rect x="5399.24" y="720.36" width="249.45" height="296.27" style="fill:#ffded5;stroke:#002f69;stroke-linecap:round;stroke-linejoin:round;stroke-width:5px"/><rect x="5419.67" y="744.2" width="208.58" height="186.45" style="fill:#92dbac;stroke:#002f69;stroke-linecap:round;stroke-linejoin:round;stroke-width:5px"/><polygon points="5594.85 957.63 5594.85 962.88 5551.15 962.88 5551.15 968.12 5594.85 968.12 5594.85 973.37 5620.48 973.37 5620.48 957.63 5594.85 957.63" style="fill:#002f69;stroke:#002f69;stroke-linecap:round;stroke-linejoin:round;stroke-width:5px"/><line x1="5399.24" y1="720.36" x2="5408.03" y2="729.15" style="fill:#ffded5;stroke:#002f69;stroke-linecap:round;stroke-linejoin:round;stroke-width:5px"/><line x1="5648.68" y1="720.36" x2="5638.29" y2="730.75" style="fill:#ffded5;stroke:#002f69;stroke-linecap:round;stroke-linejoin:round;stroke-width:5px"/><line x1="5399.24" y1="1016.63" x2="5409.04" y2="1006.83" style="fill:#ffded5;stroke:#002f69;stroke-linecap:round;stroke-linejoin:round;stroke-width:5px"/><line x1="5648.68" y1="1016.63" x2="5637.88" y2="1005.83" style="fill:#ffded5;stroke:#002f69;stroke-linecap:round;stroke-linejoin:round;stroke-width:5px"/><text transform="translate(5461.22 848)" style="font-size:32px;fill:#002f69;font-family:Uni0554, uni 05_54">HELLO</text></svg>