<svg xmlns="http://www.w3.org/2000/svg" viewBox="0 0 3847.82 1080"><title>middle</title><g id="front"><path d="M1366,639.5a7.43,7.43,0,0,1-5.36-2.26l-190.5-195a7.5,7.5,0,1,1,10.72-10.48l190.5,195A7.49,7.49,0,0,1,1366,639.5Z" style="fill:#feeee4;stroke:#002f69;stroke-linecap:round;stroke-linejoin:round;stroke-width:5px"/><path d="M1119.64,440.83a7.5,7.5,0,0,1-7.5-7.5V405.67a7.5,7.5,0,0,1,15,0v27.66A7.5,7.5,0,0,1,1119.64,440.83Z" style="fill:#feeee4;stroke:#002f69;stroke-linecap:round;stroke-linejoin:round;stroke-width:5px"/><path d="M1135.89,410.67h-32.5a7.5,7.5,0,0,1,0-15h32.5a7.5,7.5,0,0,1,0,15Z" style="fill:#f88645;stroke:#002f69;stroke-linecap:round;stroke-linejoin:round;stroke-width:5px"/><polygon points="1135 716 1135 719.33 1234.67 724.67 1226.33 635.33 1135 716" style="fill:#5c6c98;opacity:0.30000000000000004"/><rect x="1131.75" y="621.5" width="95" height="95" style="fill:#f9bc95"/><path d="M1269.56,807.63,1269,828.5s24.37,20.31,22.66,48.24a66.9,66.9,0,0,1-4.86,56.64,67.36,67.36,0,0,1-23.71,24l17.37,29.19a100.79,100.79,0,0,0-10.9-178.9Z" style="fill:#b5c8e6"/><path d="M1269,828.5l.56-20.87a100.13,100.13,0,0,0-40.58-8.54v34a66.93,66.93,0,0,1,62.68,43.68C1293.37,848.81,1269,828.5,1269,828.5Z" style="fill:#4b7cc4"/><path d="M1280.46,986.53l-17.37-29.19A66.83,66.83,0,0,0,1229,833.06v-34a100.79,100.79,0,0,1,51.48,187.44Z" style="fill:none;stroke:#002f69;stroke-linecap:round;stroke-linejoin:round;stroke-width:5px"/><path d="M1318.14,909.1q-.32,2-.72,4" style="fill:none;stroke:#ecf1f8;stroke-linecap:round;stroke-miterlimit:10;stroke-width:5px"/><path d="M1278.28,821.07a87.78,87.78,0,0,1,40.93,74.28" style="fill:none;stroke:#ecf1f8;stroke-linecap:round;stroke-miterlimit:10;stroke-width:5px"/><path d="M1163.68,903h34a0,0,0,0,1,0,0v0a13,13,0,0,1-13,13h-7.93a13,13,0,0,1-13-13v0A0,0,0,0,1,1163.68,903Z" style="fill:#92dbac;stroke:#002f69;stroke-linecap:round;stroke-linejoin:round;stroke-width:5px"/><rect x="1163.68" y="985.66" width="33.97" height="11.32" style="fill:#b5c8e6;stroke:#002f69;stroke-linecap:round;stroke-linejoin:round;stroke-width:5px"/><path d="M1154,974.33a11.33,11.33,0,0,0,11.33,11.33h30.78a11.33,11.33,0,0,0,11.33-11.33Z" style="fill:#f9bc95;stroke:#002f69;stroke-linecap:round;stroke-linejoin:round;stroke-width:5px"/><path d="M1185.49,853.27l3.49-81.08h-16.62a18.87,18.87,0,0,0-18.87,18.87V893.93h7.85l14.46-16.5A39.16,39.16,0,0,0,1185.49,853.27Z" style="fill:#b5c8e6"/><path d="M1207.85,791.06A18.87,18.87,0,0,0,1189,772.19l-3.49,81.08a39.16,39.16,0,0,1-9.69,24.16l-14.46,16.5h46.51Z" style="fill:#4b7cc4"/><path d="M1172.36,772.19H1189a18.87,18.87,0,0,1,18.87,18.87V893.93a0,0,0,0,1,0,0h-54.36a0,0,0,0,1,0,0V791.06A18.87,18.87,0,0,1,1172.36,772.19Z" style="fill:none;stroke:#002f69;stroke-linecap:round;stroke-linejoin:round;stroke-width:5px"/><rect x="1173.03" y="764.26" width="15.29" height="7.93" style="fill:#f9bc95;stroke:#002f69;stroke-linecap:round;stroke-linejoin:round;stroke-width:5px"/><path d="M1162.55,745h36.24a0,0,0,0,1,0,0v7.63a11.62,11.62,0,0,1-11.62,11.62h-13a11.62,11.62,0,0,1-11.62-11.62V745A0,0,0,0,1,1162.55,745Z" style="fill:#4b7cc4;stroke:#002f69;stroke-linecap:round;stroke-linejoin:round;stroke-width:5px"/><rect x="1156.89" y="736.83" width="47.56" height="8.18" rx="3.11" ry="3.11" style="fill:#f9bc95;stroke:#002f69;stroke-linecap:round;stroke-linejoin:round;stroke-width:5px"/><rect x="1146.7" y="893.93" width="67.95" height="9.06" rx="3.81" ry="3.81" style="fill:#f9bc95;stroke:#002f69;stroke-linecap:round;stroke-linejoin:round;stroke-width:5px"/><path d="M1273.14,951.4h0A22.65,22.65,0,0,1,1295.79,974V996.7a0,0,0,0,1,0,0h-45.3a0,0,0,0,1,0,0V974A22.65,22.65,0,0,1,1273.14,951.4Z" style="fill:#f9bc95;stroke:#002f69;stroke-linecap:round;stroke-linejoin:round;stroke-width:5px"/><circle cx="1273.34" cy="974.63" r="13.06" style="fill:#ddf2e3;stroke:#002f69;stroke-linecap:round;stroke-linejoin:round;stroke-width:5px"/><path d="M1118.56,996.7H1315a21,21,0,0,1,21,21v0a0,0,0,0,1,0,0H1097.61a0,0,0,0,1,0,0v0A21,21,0,0,1,1118.56,996.7Z" style="fill:#feb8a7;stroke:#002f69;stroke-linecap:round;stroke-linejoin:round;stroke-width:5px"/><line x1="1330.8" y1="1006.3" x2="1264.93" y2="1006.3" style="fill:#fff;stroke:#002f69;stroke-linecap:round;stroke-linejoin:round;stroke-width:5px"/><line x1="1255.07" y1="1006.3" x2="1251.63" y2="1006.3" style="fill:#fff;stroke:#002f69;stroke-linecap:round;stroke-linejoin:round;stroke-width:5px"/><path d="M1164.18,856.25V793.84a11.45,11.45,0,0,1,11.45-11.45" style="fill:none;stroke:#4b7cc4;stroke-linecap:round;stroke-linejoin:round;stroke-width:5px"/><circle cx="1228.41" cy="816.64" r="26.05" style="fill:#f9bc95;stroke:#002f69;stroke-linecap:round;stroke-linejoin:round;stroke-width:5px"/><circle cx="1228.41" cy="816.64" r="13.06" style="fill:#ddf2e3;stroke:#002f69;stroke-linecap:round;stroke-linejoin:round;stroke-width:5px"/><ellipse cx="1179.41" cy="674.71" rx="25.09" ry="12.97" style="fill:none;stroke:#838eb1;stroke-linecap:round;stroke-linejoin:round;stroke-width:5px"/><circle cx="1179.5" cy="679.5" r="6.5" style="fill:none;stroke:#838eb1;stroke-linecap:round;stroke-linejoin:round;stroke-width:5px"/><line x1="1178.75" y1="650.75" x2="1178.75" y2="638.5" style="fill:none;stroke:#838eb1;stroke-linecap:round;stroke-linejoin:round;stroke-width:5px"/><line x1="1195.5" y1="655" x2="1199.75" y2="648" style="fill:none;stroke:#838eb1;stroke-linecap:round;stroke-linejoin:round;stroke-width:5px"/><line x1="1163.25" y1="655" x2="1159" y2="648" style="fill:none;stroke:#838eb1;stroke-linecap:round;stroke-linejoin:round;stroke-width:5px"/><path d="M2166,1017H2058a28,28,0,0,1,28-28h52a28,28,0,0,1,28,28Z" style="fill:#feb8a7;stroke:#002f69;stroke-linecap:round;stroke-linejoin:round;stroke-width:5px"/><path d="M3190.91,711.48h-16v-22.6a24.46,24.46,0,0,0-24.43-24.43H1856.33a65.21,65.21,0,0,1-65.14-65.14V495.15A49.2,49.2,0,0,0,1742.05,446H1372.31V430h369.74a65.22,65.22,0,0,1,65.14,65.14V599.31a49.19,49.19,0,0,0,49.14,49.14H3150.48a40.48,40.48,0,0,1,40.43,40.43Z" style="fill:#feeee4;stroke:#002f69;stroke-linecap:round;stroke-linejoin:round;stroke-width:5px"/><path d="M1808.91,514.14h-20a11.52,11.52,0,0,0-11.52,11.52V537h-38.5a79.34,79.34,0,0,0-44.23-65.69A19.33,19.33,0,0,1,1683.8,454V395.7h1a9.82,9.82,0,0,0,0-19.64h-50a9.82,9.82,0,0,0,0,19.64h1V454a19.5,19.5,0,0,1-11,17.43c-2.16,1.06-4.26,2.23-6.31,3.48l17.19,3.8a9.18,9.18,0,0,1,6.48,12.55l-1.74,4.11a9.19,9.19,0,0,0,8.58,12.77l15.91-.21a9.19,9.19,0,0,1,9.25,10.17l-1.6,15a9.18,9.18,0,0,0,14,8.78l1.74-1.07a9.18,9.18,0,0,1,13.93,9.14l-.19,1.29a9.19,9.19,0,0,0,14.46,8.8h0a9.2,9.2,0,0,1,10-.46l9.41,5.55a80.52,80.52,0,0,0,2.45-11.24h39.12v14a11.52,11.52,0,0,0,11.52,11.52h20a11.52,11.52,0,0,0,11.52-11.52V525.66A11.52,11.52,0,0,0,1808.91,514.14Z" style="fill:#f7b5ba;stroke:#002f69;stroke-linecap:round;stroke-linejoin:round;stroke-width:5px"/><path d="M1716.35,560h0a9.19,9.19,0,0,1-14.46-8.8l.19-1.29a9.18,9.18,0,0,0-13.93-9.14l-1.74,1.07a9.18,9.18,0,0,1-14-8.78l1.6-15a9.19,9.19,0,0,0-9.25-10.17l-15.91.21a9.19,9.19,0,0,1-8.58-12.77l1.74-4.11a9.18,9.18,0,0,0-6.48-12.55l-17.19-3.8a79.27,79.27,0,0,0-37.95,67.16c-.28,43,34.39,78.81,77.41,79.83a79.34,79.34,0,0,0,78-56.8l-9.41-5.55A9.2,9.2,0,0,0,1716.35,560Z" style="fill:#e1526e;stroke:#002f69;stroke-linecap:round;stroke-linejoin:round;stroke-width:5px"/><circle cx="1645.43" cy="536.95" r="7.55" style="fill:#f7b5ba;stroke:#002f69;stroke-linecap:round;stroke-linejoin:round;stroke-width:5px"/><circle cx="1694.38" cy="497.79" r="12.03" style="fill:#e1526e;stroke:#002f69;stroke-linecap:round;stroke-linejoin:round;stroke-width:5px"/><path d="M1808.91,514.14h-20a11.52,11.52,0,0,0-11.52,11.52V537h-38.5a79.34,79.34,0,0,0-44.23-65.69A19.33,19.33,0,0,1,1683.8,454V395.7h1a9.82,9.82,0,0,0,0-19.64h-50a9.82,9.82,0,0,0,0,19.64h1V454a19.5,19.5,0,0,1-11,17.43,79.3,79.3,0,0,0-44.26,70.64c-.28,43,34.39,78.81,77.41,79.83a79.33,79.33,0,0,0,80.43-68h39.12v14a11.52,11.52,0,0,0,11.52,11.52h20a11.52,11.52,0,0,0,11.52-11.52V525.66A11.52,11.52,0,0,0,1808.91,514.14Z" style="fill:none;stroke:#002f69;stroke-linecap:round;stroke-linejoin:round;stroke-width:5px"/><path d="M1671.88,606.61l-1.53.2" style="fill:none;stroke:#efa7bb;stroke-linecap:round;stroke-linejoin:round;stroke-width:5px"/><path d="M1662.67,607.26A64.69,64.69,0,0,1,1598,542.57" style="fill:none;stroke:#efa7bb;stroke-linecap:round;stroke-linejoin:round;stroke-width:5px"/><line x1="1683.8" y1="395.7" x2="1666.57" y2="395.7" style="fill:#fff;stroke:#002f69;stroke-linecap:round;stroke-linejoin:round;stroke-width:5px"/><rect x="1640.6" y="341.87" width="39.9" height="33.56" style="fill:#f9bc95;stroke:#002f69;stroke-linecap:round;stroke-linejoin:round;stroke-width:5px"/><line x1="1738.87" y1="537.02" x2="1738.87" y2="543.38" style="fill:#fff;stroke:#002f69;stroke-linecap:round;stroke-linejoin:round;stroke-width:5px"/><line x1="1777.37" y1="553.84" x2="1777.37" y2="547.96" style="fill:#fff;stroke:#002f69;stroke-linecap:round;stroke-linejoin:round;stroke-width:5px"/><path d="M1672.77,744.37h-48.22A107.66,107.66,0,0,1,1517,636.84V322.73a74.47,74.47,0,0,1,74.39-74.39h1.8a74.47,74.47,0,0,1,74.38,74.39v17.32h-15V322.73a59.45,59.45,0,0,0-59.38-59.39h-1.8A59.45,59.45,0,0,0,1532,322.73V636.84a92.64,92.64,0,0,0,92.54,92.53h48.22a215.86,215.86,0,0,0,152.7-63.25l10-10a230.89,230.89,0,0,1,163.3-67.65h988.88a58.9,58.9,0,0,1,58.83,58.84v64h-15v-64a43.89,43.89,0,0,0-43.83-43.84H1998.8a215.93,215.93,0,0,0-152.7,63.26l-10,10a231,231,0,0,1-163.31,67.64Z" style="fill:#ecf1f8;stroke:#002f69;stroke-linecap:round;stroke-linejoin:round;stroke-width:5px"/><path d="M2910,632.22h-32.07a16.32,16.32,0,0,0-16.33,16.32v12.31a16.32,16.32,0,0,0,16.33,16.32h8.16V711.5h15V677.17H2910a16.32,16.32,0,0,0,16.32-16.32V648.54A16.32,16.32,0,0,0,2910,632.22Z" style="fill:#ddf2e3;stroke:#002f69;stroke-linecap:round;stroke-linejoin:round;stroke-width:5px"/><line x1="2901.1" y1="677.17" x2="2895.4" y2="677.17" style="fill:#fff;stroke:#002f69;stroke-linecap:round;stroke-linejoin:round;stroke-width:5px"/><path d="M2896.07,666.77h-15.35a8.33,8.33,0,0,1-8.33-8.33v-8.35" style="fill:none;stroke:#92dbac;stroke-linecap:round;stroke-linejoin:round;stroke-width:5px"/><line x1="2905.28" y1="666.77" x2="2904.64" y2="666.77" style="fill:none;stroke:#92dbac;stroke-linecap:round;stroke-linejoin:round;stroke-width:5px"/><path d="M2763.71,632.22h-32.07a16.31,16.31,0,0,0-16.32,16.32v12.31a16.31,16.31,0,0,0,16.32,16.32h8.16V711.5h15V677.17h8.91A16.32,16.32,0,0,0,2780,660.85V648.54A16.32,16.32,0,0,0,2763.71,632.22Z" style="fill:#ddf2e3;stroke:#002f69;stroke-linecap:round;stroke-linejoin:round;stroke-width:5px"/><line x1="2754.8" y1="677.17" x2="2749.1" y2="677.17" style="fill:#fff;stroke:#002f69;stroke-linecap:round;stroke-linejoin:round;stroke-width:5px"/><path d="M2749.78,666.77h-15.36a8.33,8.33,0,0,1-8.33-8.33v-8.35" style="fill:none;stroke:#92dbac;stroke-linecap:round;stroke-linejoin:round;stroke-width:5px"/><line x1="2758.98" y1="666.77" x2="2758.34" y2="666.77" style="fill:none;stroke:#92dbac;stroke-linecap:round;stroke-linejoin:round;stroke-width:5px"/><path d="M2617.41,632.22h-32.07A16.32,16.32,0,0,0,2569,648.54v12.31a16.32,16.32,0,0,0,16.32,16.32h8.16V711.5h15V677.17h8.91a16.32,16.32,0,0,0,16.32-16.32V648.54A16.32,16.32,0,0,0,2617.41,632.22Z" style="fill:#ddf2e3;stroke:#002f69;stroke-linecap:round;stroke-linejoin:round;stroke-width:5px"/><line x1="2608.5" y1="677.17" x2="2602.8" y2="677.17" style="fill:#fff;stroke:#002f69;stroke-linecap:round;stroke-linejoin:round;stroke-width:5px"/><path d="M2603.48,666.77h-15.36a8.33,8.33,0,0,1-8.33-8.33v-8.35" style="fill:none;stroke:#92dbac;stroke-linecap:round;stroke-linejoin:round;stroke-width:5px"/><line x1="2612.68" y1="666.77" x2="2612.05" y2="666.77" style="fill:none;stroke:#92dbac;stroke-linecap:round;stroke-linejoin:round;stroke-width:5px"/><path d="M1663.62,713.79h-32.07a16.32,16.32,0,0,0-16.32,16.32v12.31a16.33,16.33,0,0,0,16.32,16.33h8.16v34.32h15V758.75h8.91a16.32,16.32,0,0,0,16.32-16.33V730.11A16.31,16.31,0,0,0,1663.62,713.79Z" style="fill:#f9bc95;stroke:#002f69;stroke-linecap:round;stroke-linejoin:round;stroke-width:5px"/><line x1="1654.71" y1="758.75" x2="1649.01" y2="758.75" style="fill:#fff;stroke:#002f69;stroke-linecap:round;stroke-linejoin:round;stroke-width:5px"/><path d="M1649.69,748.34h-15.36A8.33,8.33,0,0,1,1626,740v-8.35" style="fill:none;stroke:#f88645;stroke-linecap:round;stroke-linejoin:round;stroke-width:5px"/><line x1="1658.89" y1="748.34" x2="1658.26" y2="748.34" style="fill:none;stroke:#f88645;stroke-linecap:round;stroke-linejoin:round;stroke-width:5px"/><path d="M2128,570H2096a16.32,16.32,0,0,0-16.32,16.32v12.32A16.32,16.32,0,0,0,2096,614.93h8.16V989.87h15V614.93H2128a16.32,16.32,0,0,0,16.32-16.32V586.29A16.32,16.32,0,0,0,2128,570Z" style="fill:#fcedf0;stroke:#002f69;stroke-linecap:round;stroke-linejoin:round;stroke-width:5px"/><line x1="2119.12" y1="614.93" x2="2113.42" y2="614.93" style="fill:#fff;stroke:#002f69;stroke-linecap:round;stroke-linejoin:round;stroke-width:5px"/><path d="M2114.1,604.53h-15.36a8.33,8.33,0,0,1-8.33-8.33v-8.35" style="fill:none;stroke:#838eb1;stroke-linecap:round;stroke-linejoin:round;stroke-width:5px"/><line x1="2123.3" y1="604.53" x2="2122.67" y2="604.53" style="fill:none;stroke:#838eb1;stroke-linecap:round;stroke-linejoin:round;stroke-width:5px"/><path d="M1423,1017H1315a28,28,0,0,1,28-28h52a28,28,0,0,1,28,28Z" style="fill:#feb8a7;stroke:#002f69;stroke-linecap:round;stroke-linejoin:round;stroke-width:5px"/><path d="M1385.08,414.7H1353A16.31,16.31,0,0,0,1336.69,431v12.31A16.31,16.31,0,0,0,1353,459.65h8.16V989.87h15V459.65h8.91a16.32,16.32,0,0,0,16.32-16.32V431A16.32,16.32,0,0,0,1385.08,414.7Z" style="fill:#fcedf0;stroke:#002f69;stroke-linecap:round;stroke-linejoin:round;stroke-width:5px"/><line x1="1376.17" y1="459.65" x2="1370.47" y2="459.65" style="fill:#fff;stroke:#002f69;stroke-linecap:round;stroke-linejoin:round;stroke-width:5px"/><path d="M1371.14,449.25h-15.35a8.33,8.33,0,0,1-8.33-8.33v-8.35" style="fill:none;stroke:#838eb1;stroke-linecap:round;stroke-linejoin:round;stroke-width:5px"/><line x1="1380.35" y1="449.25" x2="1379.71" y2="449.25" style="fill:none;stroke:#838eb1;stroke-linecap:round;stroke-linejoin:round;stroke-width:5px"/><path d="M2247,616h32.07a16.32,16.32,0,0,0,16.32-16.32V587.31A16.32,16.32,0,0,0,2279.11,571H2271V526.05h-15V571H2247a16.32,16.32,0,0,0-16.32,16.32v12.32A16.32,16.32,0,0,0,2247,616Z" style="fill:#f9bc95;stroke:#002f69;stroke-linecap:round;stroke-linejoin:round;stroke-width:5px"/><line x1="2255.95" y1="570.99" x2="2261.64" y2="570.99" style="fill:#fff;stroke:#002f69;stroke-linecap:round;stroke-linejoin:round;stroke-width:5px"/><path d="M2261,581.39h15.36a8.33,8.33,0,0,1,8.33,8.33v8.35" style="fill:none;stroke:#f88645;stroke-linecap:round;stroke-linejoin:round;stroke-width:5px"/><line x1="2251.77" y1="581.39" x2="2252.4" y2="581.39" style="fill:none;stroke:#f88645;stroke-linecap:round;stroke-linejoin:round;stroke-width:5px"/><path d="M2217.25,632.18h-32.07a16.32,16.32,0,0,0-16.32,16.32v12.32a16.32,16.32,0,0,0,16.32,16.32h9.67v65.22A22.9,22.9,0,0,1,2172,765.23h-37V756a16.32,16.32,0,0,0-16.32-16.32h-12.32A16.32,16.32,0,0,0,2090,756v32.07a16.32,16.32,0,0,0,16.32,16.32h12.32A16.32,16.32,0,0,0,2135,788.08v-7.85h37a37.91,37.91,0,0,0,37.87-37.87V677.14h7.4a16.32,16.32,0,0,0,16.32-16.32V648.5A16.32,16.32,0,0,0,2217.25,632.18Z" style="fill:#92dbac;stroke:#002f69;stroke-linecap:round;stroke-linejoin:round;stroke-width:5px"/><path d="M2203.32,666.74H2188a8.33,8.33,0,0,1-8.33-8.33v-8.35" style="fill:none;stroke:#ddf2e3;stroke-linecap:round;stroke-linejoin:round;stroke-width:5px"/><line x1="2212.52" y1="666.74" x2="2211.88" y2="666.74" style="fill:none;stroke:#ddf2e3;stroke-linecap:round;stroke-linejoin:round;stroke-width:5px"/><path d="M2124.58,769.94V785.3a8.33,8.33,0,0,1-8.33,8.33h-8.35" style="fill:none;stroke:#ddf2e3;stroke-linecap:round;stroke-linejoin:round;stroke-width:5px"/><line x1="2124.58" y1="760.74" x2="2124.58" y2="761.38" style="fill:none;stroke:#ddf2e3;stroke-linecap:round;stroke-linejoin:round;stroke-width:5px"/><line x1="2194.85" y1="677.14" x2="2201.34" y2="677.14" style="fill:#fff;stroke:#002f69;stroke-linecap:round;stroke-linejoin:round;stroke-width:5px"/><line x1="2134.98" y1="765.23" x2="2134.98" y2="771.72" style="fill:#fff;stroke:#002f69;stroke-linecap:round;stroke-linejoin:round;stroke-width:5px"/><circle cx="2263.26" cy="472.36" r="64.43" style="fill:#92dbac;stroke:#002f69;stroke-linecap:round;stroke-linejoin:round;stroke-width:5px"/><path d="M2270.36,435.09a42.94,42.94,0,0,1,23.9,7.22,43.18,43.18,0,1,0-54.9,66,43.17,43.17,0,0,1,31-73.23Z" style="fill:#d9e2f2"/><path d="M2306.45,472.36a43,43,0,0,0-12.19-30.05,43.18,43.18,0,0,0-54.9,66,43.18,43.18,0,0,0,67.09-36Z" style="fill:#ecf1f8"/><path d="M2266.21,460.87V441a3.16,3.16,0,1,0-6.31,0v20a11.88,11.88,0,1,0,6.31-.11Z" style="fill:#002f69;stroke:#002f69;stroke-linecap:round;stroke-linejoin:round;stroke-width:5px"/><path d="M2209,454.68a57.12,57.12,0,0,1,54.28-39.39" style="fill:none;stroke:#ddf2e3;stroke-linecap:round;stroke-linejoin:round;stroke-width:10px"/><path d="M2206.19,472.36c0-1.12,0-2.24.1-3.34" style="fill:none;stroke:#ddf2e3;stroke-linecap:round;stroke-linejoin:round;stroke-width:10px"/><circle cx="2263.26" cy="472.36" r="9.78" style="fill:#f88645;stroke:#002f69;stroke-linecap:round;stroke-linejoin:round;stroke-width:5px"/><path d="M1643.38,855.79l.23.11c15.73,2.45,18.42-9.7,35.26-12.42,14.28-2.31,16.36,8.37,16.64,12.58a48.33,48.33,0,0,0-26.6-41.55,19.09,19.09,0,0,1-10.67-17v-7.19h.51a7.4,7.4,0,0,0,7.47-6.75,7.23,7.23,0,0,0-7.22-7.71h-23.35a7.39,7.39,0,0,0-7.46,6.75,7.23,7.23,0,0,0,7.22,7.71h.76v7.19a19.09,19.09,0,0,1-10.67,17,48.32,48.32,0,0,0-26.63,43.18h0c0,1.53.08,3,.22,4.53l12.38-5.93A38.17,38.17,0,0,1,1643.38,855.79Z" style="fill:#ecf1f8;stroke:#002f69;stroke-linecap:round;stroke-linejoin:round;stroke-width:5px"/><path d="M1695.54,857.69a13.55,13.55,0,0,0,0-1.63c0,.54,0,1.09,0,1.63Z" style="fill:none;stroke:#002f69;stroke-linecap:round;stroke-linejoin:round;stroke-width:5px"/><path d="M1678.87,843.48c-16.84,2.72-19.53,14.87-35.26,12.42l13.34,5.89a38.16,38.16,0,0,0,28.88.79l9.68-3.64c0-.42,0-.83,0-1.25h0c0-.54,0-1.09,0-1.63C1695.23,851.85,1693.15,841.17,1678.87,843.48Z" style="fill:#f9bc95;stroke:#002f69;stroke-linecap:round;stroke-linejoin:round;stroke-width:5px"/><path d="M1685.83,862.58a38.16,38.16,0,0,1-28.88-.79l-13.34-5.89-.23-.11a38.17,38.17,0,0,0-31.91.5l-12.38,5.93A48.36,48.36,0,0,0,1647.2,906h0a48.33,48.33,0,0,0,48.31-47.09Z" style="fill:#f88645;stroke:#002f69;stroke-linecap:round;stroke-linejoin:round;stroke-width:5px"/><path d="M1658.24,797.52v-7.19h.51a7.4,7.4,0,0,0,7.47-6.75,7.23,7.23,0,0,0-7.22-7.71h-23.35a7.39,7.39,0,0,0-7.46,6.75,7.23,7.23,0,0,0,7.22,7.71h.76v7.19a19.09,19.09,0,0,1-10.67,17,48.32,48.32,0,0,0-26.63,43.18h0A48.33,48.33,0,0,0,1647.2,906h0a48.34,48.34,0,0,0,48.34-48.34h0a48.32,48.32,0,0,0-26.63-43.18A19.09,19.09,0,0,1,1658.24,797.52Z" style="fill:none;stroke:#002f69;stroke-linecap:round;stroke-linejoin:round;stroke-width:5px"/><line x1="1658.24" y1="790.33" x2="1649.87" y2="790.33" style="fill:#fff;stroke:#002f69;stroke-linecap:round;stroke-linejoin:round;stroke-width:5px"/><path d="M1614.34,850.27a30.39,30.39,0,0,1,1.68-4.72" style="fill:none;stroke:#feeee4;stroke-linecap:round;stroke-linejoin:round;stroke-width:5px"/><path d="M1643.78,888.52a30.44,30.44,0,0,1-30.45-30.44" style="fill:none;stroke:#feeee4;stroke-linecap:round;stroke-linejoin:round;stroke-width:5px"/><circle cx="1642.67" cy="831.13" r="7.72" style="fill:#f88645;stroke:#002f69;stroke-linecap:round;stroke-linejoin:round;stroke-width:5px"/><path d="M1656.49,971.82h-.33V954.16a3.86,3.86,0,0,0-3.86-3.85h-18.36a3.85,3.85,0,0,0-3.85,3.85l-.34,17.66A13.74,13.74,0,0,0,1616,985.56V1016h54.22V985.56A13.74,13.74,0,0,0,1656.49,971.82Z" style="fill:#b5c8e6;stroke:#002f69;stroke-linecap:round;stroke-linejoin:round;stroke-width:5px"/><line x1="1656.26" y1="971.82" x2="1646.22" y2="971.82" style="fill:#fff;stroke:#002f69;stroke-linecap:round;stroke-linejoin:round;stroke-width:5px"/><rect x="1597.48" y="994.8" width="18.52" height="10.8" style="fill:#ddf2e3;stroke:#002f69;stroke-linecap:round;stroke-linejoin:round;stroke-width:5px"/><rect x="1455.5" y="821.73" width="5.15" height="11.49" style="fill:#fff;stroke:#002f69;stroke-linecap:round;stroke-linejoin:round;stroke-width:5px"/><rect x="1435.94" y="805.27" width="44.25" height="16.26" rx="8.13" ry="8.13" style="fill:#f88645;stroke:#002f69;stroke-linecap:round;stroke-linejoin:round;stroke-width:5px"/><path d="M1516.07,994.62h-3.78V905.2a43.36,43.36,0,0,0-43.37-43.36h-3.23v-4.22a6,6,0,0,1,6-6h10v-13h-10a6,6,0,0,1-6-6h-15.24v29.2h-4.71a43.36,43.36,0,0,0-43.37,43.36v89.42h-2.3a7.28,7.28,0,0,0-7.29,7.28v8.3a7.29,7.29,0,0,0,7.29,7.29h116a7.28,7.28,0,0,0,7.28-7.29v-8.3A7.28,7.28,0,0,0,1516.07,994.62Z" style="fill:#4b7cc4;stroke:#002f69;stroke-linecap:round;stroke-linejoin:round;stroke-width:5px"/><line x1="1513.07" y1="994.62" x2="1506" y2="994.62" style="fill:#fff;stroke:#002f69;stroke-linecap:round;stroke-linejoin:round;stroke-width:5px"/><line x1="1427.21" y1="987.57" x2="1427.21" y2="994.36" style="fill:#fff;stroke:#002f69;stroke-linecap:round;stroke-linejoin:round;stroke-width:5px"/><line x1="1448.11" y1="987.57" x2="1448.11" y2="994.36" style="fill:#fff;stroke:#002f69;stroke-linecap:round;stroke-linejoin:round;stroke-width:5px"/><line x1="1469" y1="987.57" x2="1469" y2="994.36" style="fill:#fff;stroke:#002f69;stroke-linecap:round;stroke-linejoin:round;stroke-width:5px"/><line x1="1489.89" y1="987.57" x2="1489.89" y2="994.36" style="fill:#fff;stroke:#002f69;stroke-linecap:round;stroke-linejoin:round;stroke-width:5px"/><line x1="1410" y1="982" x2="1410" y2="984.5" style="fill:none;stroke:#b5c8e6;stroke-linecap:round;stroke-linejoin:round;stroke-width:5px"/><path d="M1457,841v19.62a7.88,7.88,0,0,1-7.88,7.88h-3.48A35.64,35.64,0,0,0,1410,904.14v63.53" style="fill:none;stroke:#b5c8e6;stroke-linecap:round;stroke-linejoin:round;stroke-width:5px"/><path d="M1428,981.17h0a5.66,5.66,0,0,1,5.67,5.66v7.5" style="fill:none;stroke:#b5c8e6;stroke-linecap:round;stroke-linejoin:round;stroke-width:5px"/><path d="M1448.83,981.17h0a5.66,5.66,0,0,1,5.67,5.66v7.5" style="fill:none;stroke:#b5c8e6;stroke-linecap:round;stroke-linejoin:round;stroke-width:5px"/><path d="M1469.67,981.17h0a5.65,5.65,0,0,1,5.66,5.66v7.5" style="fill:none;stroke:#b5c8e6;stroke-linecap:round;stroke-linejoin:round;stroke-width:5px"/><path d="M1490.5,981.17h0a5.66,5.66,0,0,1,5.67,5.66v7.5" style="fill:none;stroke:#b5c8e6;stroke-linecap:round;stroke-linejoin:round;stroke-width:5px"/><path d="M1477,932c-3.9-24.27-29.5-36.5-29.5-36.5s3.57,10.65-7.5,30.75c-8.51,15.45,2.2,25.48,12.47,27.41a18,18,0,0,1-2.59-9.91c0-6.9,3-12.5,6.62-12.5s6.62,5.6,6.62,12.5a18.14,18.14,0,0,1-2.51,9.79C1470.15,951.66,1478.94,944.06,1477,932Z" style="fill:#b5c8e6"/><path d="M1590.37,992.82h-.86a45.1,45.1,0,0,1-45.11-45.11V852.65h.9a27.58,27.58,0,0,0,27.25-23.52c1.91-13-7.46-25.22-20.58-25.73a21.75,21.75,0,0,0-22.57,21.71v12.54h-34.91a1.68,1.68,0,0,1-1.68-1.67h0a1.68,1.68,0,0,0-1.67-1.68h-13.89v21.82h13.89a1.68,1.68,0,0,0,1.67-1.68v-.11a1.68,1.68,0,0,1,1.68-1.68h34.91v95.06a60.11,60.11,0,0,0,60.11,60.11h.86v.3a3.26,3.26,0,0,0,3.26,3.26h12.3V989.56h-12.3A3.26,3.26,0,0,0,1590.37,992.82Zm-46-167.71a6.72,6.72,0,0,1,13.44,0,12.55,12.55,0,0,1-12.54,12.54h-.9Z" style="fill:#ddf2e3;stroke:#002f69;stroke-linecap:round;stroke-linejoin:round;stroke-width:5px"/><line x1="1544.4" y1="852.65" x2="1544.4" y2="837.65" style="fill:#ddf2e3;stroke:#002f69;stroke-linecap:round;stroke-linejoin:round;stroke-width:5px"/><line x1="1529.4" y1="852.65" x2="1529.4" y2="837.65" style="fill:#ddf2e3;stroke:#002f69;stroke-linecap:round;stroke-linejoin:round;stroke-width:5px"/><path d="M1632.47,922.23h10.65a10.65,10.65,0,0,1,10.65,10.65v0a10.65,10.65,0,0,1-10.65,10.65h0a10.65,10.65,0,0,1-10.65-10.65V922.23a0,0,0,0,1,0,0Z" transform="translate(1140.91 -888.63) rotate(45)" style="fill:#f88645;stroke:#002f69;stroke-linecap:round;stroke-linejoin:round;stroke-width:5px"/><path d="M1899,865.67V765H1792.4a6.92,6.92,0,0,0-5.64,10.92l11.76,16.55A67.54,67.54,0,0,1,1811,831.59v34.08Z" style="fill:#fcedf0;stroke:#002f69;stroke-linecap:round;stroke-linejoin:round;stroke-width:5px"/><path d="M1811,1007.27a9.73,9.73,0,0,0,9.73,9.73h68.54a9.73,9.73,0,0,0,9.73-9.73V865.67h-88Z" style="fill:#e1526e;stroke:#002f69;stroke-linecap:round;stroke-linejoin:round;stroke-width:5px"/><path d="M1785.54,774.2l12.37,17.41a70.9,70.9,0,0,1,13.09,41v174.63a9.73,9.73,0,0,0,9.73,9.73h68.54a9.73,9.73,0,0,0,9.73-9.73V765H1790.29A5.83,5.83,0,0,0,1785.54,774.2Z" style="fill:none;stroke:#002f69;stroke-linecap:round;stroke-linejoin:round;stroke-width:5px"/><line x1="1811.25" y1="831.5" x2="1839.25" y2="831.5" style="fill:#b5c8e6;stroke:#002f69;stroke-linecap:round;stroke-linejoin:round;stroke-width:5px"/><line x1="1811.25" y1="848.5" x2="1829.25" y2="848.5" style="fill:#b5c8e6;stroke:#002f69;stroke-linecap:round;stroke-linejoin:round;stroke-width:5px"/><line x1="1811.25" y1="865.5" x2="1839.25" y2="865.5" style="fill:#b5c8e6;stroke:#002f69;stroke-linecap:round;stroke-linejoin:round;stroke-width:5px"/><line x1="1811.25" y1="882.5" x2="1829.25" y2="882.5" style="fill:#b5c8e6;stroke:#002f69;stroke-linecap:round;stroke-linejoin:round;stroke-width:5px"/><line x1="1811.25" y1="899.5" x2="1839.25" y2="899.5" style="fill:#b5c8e6;stroke:#002f69;stroke-linecap:round;stroke-linejoin:round;stroke-width:5px"/><line x1="1811.25" y1="916.5" x2="1829.25" y2="916.5" style="fill:#b5c8e6;stroke:#002f69;stroke-linecap:round;stroke-linejoin:round;stroke-width:5px"/><line x1="1811.25" y1="933.5" x2="1839.25" y2="933.5" style="fill:#b5c8e6;stroke:#002f69;stroke-linecap:round;stroke-linejoin:round;stroke-width:5px"/><line x1="1811.25" y1="950.5" x2="1829.25" y2="950.5" style="fill:#b5c8e6;stroke:#002f69;stroke-linecap:round;stroke-linejoin:round;stroke-width:5px"/><line x1="1811.25" y1="967.5" x2="1839.25" y2="967.5" style="fill:#b5c8e6;stroke:#002f69;stroke-linecap:round;stroke-linejoin:round;stroke-width:5px"/><line x1="1811.25" y1="984.5" x2="1829.25" y2="984.5" style="fill:#b5c8e6;stroke:#002f69;stroke-linecap:round;stroke-linejoin:round;stroke-width:5px"/><rect x="1825.91" y="886.85" width="54.94" height="54.94" rx="10.08" ry="10.08" transform="translate(1189.36 -1042.74) rotate(45)" style="fill:#f9bc95"/><path d="M1852.37,894.58a16.15,16.15,0,0,0-12.56,24.66,18.9,18.9,0,0,1,3,10v.19a2.44,2.44,0,0,0,4.88,0v-3.72a16.05,16.05,0,0,0,3.38.91v2.81a2.44,2.44,0,0,0,4.88,0v-2.81a15.73,15.73,0,0,0,3.38-.91v3.72a2.45,2.45,0,0,0,4.89,0v-.19a18.8,18.8,0,0,1,3-10,16.15,16.15,0,0,0-14.82-24.7Zm.34,18.48a2.16,2.16,0,0,1-1.47.57,2.13,2.13,0,0,1-1.59-.7,2.79,2.79,0,0,0-2-.74,2.88,2.88,0,0,0-1.88.63,2.17,2.17,0,0,1-2.87-3.26,7.16,7.16,0,0,1,4.75-1.71,7.05,7.05,0,0,1,5.2,2.14A2.17,2.17,0,0,1,1852.71,913.06Zm14.36,0a2.18,2.18,0,0,1-1.47.57,2.15,2.15,0,0,1-1.6-.7,2.74,2.74,0,0,0-2-.74,2.86,2.86,0,0,0-1.88.63,2.17,2.17,0,0,1-2.88-3.26,7.21,7.21,0,0,1,4.76-1.71,7,7,0,0,1,5.19,2.14A2.17,2.17,0,0,1,1867.07,913.06Z" style="fill:#002f69"/><circle cx="1844.86" cy="910.88" r="1.32" style="fill:#002f69"/><circle cx="1859.02" cy="910.88" r="1.32" style="fill:#002f69"/><circle cx="1846" cy="722" r="30" style="fill:#e1526e;stroke:#002f69;stroke-linecap:round;stroke-linejoin:round;stroke-width:5px"/><circle cx="1862.33" cy="693.45" r="19.55" style="fill:#e1526e;stroke:#002f69;stroke-linecap:round;stroke-linejoin:round;stroke-width:5px"/><polygon points="1861.5 699.5 1861 726 1831.5 724.5 1856.5 691 1861.5 699.5" style="fill:#e1526e"/><path d="M1089.19,468h-15A37.87,37.87,0,0,1,1112,430.17h224.66v15H1112A22.86,22.86,0,0,0,1089.19,468Z" style="fill:#feeee4;stroke:#002f69;stroke-linecap:round;stroke-linejoin:round;stroke-width:5px"/><rect x="1161.75" y="425.25" width="45.25" height="24.5" rx="4" ry="4" style="fill:#feeee4;stroke:#002f69;stroke-linecap:round;stroke-linejoin:round;stroke-width:5px"/><rect x="1346.75" y="613.5" width="45.25" height="24.5" rx="4" ry="4" transform="translate(1995.12 -743.63) rotate(90)" style="fill:#feeee4;stroke:#002f69;stroke-linecap:round;stroke-linejoin:round;stroke-width:5px"/><path d="M870.45,1007.35l-88.9-8.92a3.89,3.89,0,0,1-3.48-4.26h0a3.89,3.89,0,0,0-3.48-4.26l-131-13.13-2.27,22.61,131,13.13a3.88,3.88,0,0,0,4.26-3.48h0a3.89,3.89,0,0,1,4.26-3.48l88.89,8.91Z" style="fill:#ffded5;stroke:#002f69;stroke-linecap:round;stroke-linejoin:round;stroke-width:5px"/><path d="M643.6,976.78l-1.18-.12a34.43,34.43,0,0,1-25.67-16.35,37.17,37.17,0,1,0-6.54,47.1,33.62,33.62,0,0,1,26-8.54l5.12.52Z" style="fill:#e1526e;stroke:#002f69;stroke-linecap:round;stroke-linejoin:round;stroke-width:5px"/><path d="M606.66,962.73c.19.24.37.47.54.71" style="fill:none;stroke:#ffded5;stroke-linecap:round;stroke-linejoin:round;stroke-width:5px"/><path d="M557.66,979.64a27.42,27.42,0,0,1,42.75-22.73" style="fill:none;stroke:#ffded5;stroke-linecap:round;stroke-linejoin:round;stroke-width:5px"/><path d="M1107.79,662.61,987.16,615.13a7.69,7.69,0,0,0-10.51,7.24l.68,64.63H1099.2l11.35-11.93A7.69,7.69,0,0,0,1107.79,662.61Z" style="fill:#ffded5;stroke:#002f69;stroke-linecap:round;stroke-linejoin:round;stroke-width:5px"/><path d="M1025.71,926a43.85,43.85,0,0,0-41.86-43.8v87.6A43.85,43.85,0,0,0,1025.71,926Z" style="fill:none;stroke:#002f69;stroke-linecap:round;stroke-linejoin:round;stroke-width:5px"/><path d="M897.75,997.43,961.29,836h-97.9a3.65,3.65,0,0,0-3.1,5.56l16.56,26.76V1010.4a6.61,6.61,0,0,0,6.6,6.6h93.8a6.6,6.6,0,0,0,6.6-6.6V989a63,63,0,0,0,0-125.9V841.37a5.36,5.36,0,0,0-5.37-5.37h0l-65.84,167.29Zm86.1-115.23a43.84,43.84,0,0,1,0,87.6Z" style="fill:#ffded5;stroke:#002f69;stroke-linecap:round;stroke-linejoin:round;stroke-width:5px"/><polygon points="961.29 836 978.48 836 993.33 798.29 1099.2 687 977.33 687 978.44 792.43 961.29 836" style="fill:#92dbac;stroke:#002f69;stroke-linecap:round;stroke-linejoin:round;stroke-width:5px"/><path d="M882.52,895.67h95.33a0,0,0,0,1,0,0v109.4a6.6,6.6,0,0,1-6.6,6.6H889.12a6.6,6.6,0,0,1-6.6-6.6V895.67A0,0,0,0,1,882.52,895.67Z" style="fill:#e1526e"/><polyline points="912.64 1003.29 978.48 836 961.29 836 897.75 997.43" style="fill:#92dbac;stroke:#002f69;stroke-linecap:round;stroke-linejoin:round;stroke-width:5px"/><line x1="987.26" y1="754.83" x2="987.27" y2="756.75" style="fill:none;stroke:#ffded5;stroke-linecap:round;stroke-linejoin:round;stroke-width:5px"/><line x1="986.22" y1="635.65" x2="987.06" y2="732.66" style="fill:none;stroke:#ffded5;stroke-linecap:round;stroke-linejoin:round;stroke-width:5px"/><line x1="876.85" y1="868.32" x2="893.6" y2="868.32" style="fill:#ffded5;stroke:#002f69;stroke-linecap:round;stroke-linejoin:round;stroke-width:5px"/><line x1="876.85" y1="881.32" x2="886.52" y2="881.32" style="fill:#ffded5;stroke:#002f69;stroke-linecap:round;stroke-linejoin:round;stroke-width:5px"/><line x1="876.85" y1="895.66" x2="893.6" y2="895.66" style="fill:#ffded5;stroke:#002f69;stroke-linecap:round;stroke-linejoin:round;stroke-width:5px"/><line x1="876.85" y1="908.66" x2="886.52" y2="908.66" style="fill:#ffded5;stroke:#002f69;stroke-linecap:round;stroke-linejoin:round;stroke-width:5px"/><line x1="876.85" y1="922.99" x2="893.6" y2="922.99" style="fill:#ffded5;stroke:#002f69;stroke-linecap:round;stroke-linejoin:round;stroke-width:5px"/><line x1="876.85" y1="935.99" x2="886.52" y2="935.99" style="fill:#ffded5;stroke:#002f69;stroke-linecap:round;stroke-linejoin:round;stroke-width:5px"/><line x1="876.85" y1="950.32" x2="893.6" y2="950.32" style="fill:#ffded5;stroke:#002f69;stroke-linecap:round;stroke-linejoin:round;stroke-width:5px"/><line x1="876.85" y1="963.32" x2="886.52" y2="963.32" style="fill:#ffded5;stroke:#002f69;stroke-linecap:round;stroke-linejoin:round;stroke-width:5px"/><line x1="876.85" y1="977.66" x2="893.6" y2="977.66" style="fill:#ffded5;stroke:#002f69;stroke-linecap:round;stroke-linejoin:round;stroke-width:5px"/><line x1="876.85" y1="990.66" x2="886.52" y2="990.66" style="fill:#ffded5;stroke:#002f69;stroke-linecap:round;stroke-linejoin:round;stroke-width:5px"/><line x1="983.85" y1="863.05" x2="983.85" y2="872.67" style="fill:#ffded5;stroke:#002f69;stroke-linecap:round;stroke-linejoin:round;stroke-width:5px"/><path d="M1035.85,925.67c0,.39,0,.78,0,1.16" style="fill:none;stroke:#fef7f3;stroke-linecap:round;stroke-linejoin:round;stroke-width:5px"/><path d="M999.85,874.5a54.43,54.43,0,0,1,34.57,38.73" style="fill:none;stroke:#fef7f3;stroke-linecap:round;stroke-linejoin:round;stroke-width:5px"/><path d="M1087.49,510.15a6.48,6.48,0,1,1-13,0c0-3.58,6.47-8.65,6.47-8.65S1087.49,506.57,1087.49,510.15Z" style="fill:#92dbac;stroke:#002f69;stroke-linecap:round;stroke-linejoin:round;stroke-width:5px"/><path d="M1087.49,589.17a6.48,6.48,0,1,1-13,0c0-3.58,6.47-9.17,6.47-9.17S1087.49,585.59,1087.49,589.17Z" style="fill:#92dbac;stroke:#002f69;stroke-linecap:round;stroke-linejoin:round;stroke-width:5px"/><circle cx="1081.01" cy="683.09" r="6.48" style="fill:#92dbac;stroke:#002f69;stroke-linecap:round;stroke-linejoin:round;stroke-width:5px"/><path d="M1357.63,241a50.31,50.31,0,0,0-24.2-23.36c-20.47-9.12-39.18-.45-49.81,8.24h0l-.13.13c-10.35-8.55-21.36-12.69-32.8-12.28-13.43.48-24.08,7.21-30.21,12.21l-.06-.06-.14.13c-10.35-8.55-21.36-12.68-32.8-12.28-13.42.48-24.08,7.21-30.2,12.21l-.07-.06-.13.13c-10.35-8.55-21.35-12.68-32.8-12.28-20.47.73-34.5,16-35.85,17.5C1077.59,243,1045.05,273.5,1024,273.5H961.5a38,38,0,0,0-38,38h15a23,23,0,0,1,23-23H1024c13.79,0,30.81-8.1,50.59-24.07a251,251,0,0,0,24.94-23.18l.11-.12c.11-.12,10.77-12,25.28-12.47,7.2-.23,14.39,2.44,21.43,7.92-7.58,8.26-19.21,23-19.21,35.44,0,19.65,12.36,33.38,30.06,33.38s30.06-13.73,30.06-33.38c0-12.51-11.68-27.25-19.26-35.5,4.52-3.44,11.66-7.6,20.12-7.86,7.2-.22,14.39,2.44,21.43,7.92-7.58,8.26-19.2,23-19.2,35.44,0,19.65,12.36,33.38,30.06,33.38s30.06-13.73,30.06-33.38c0-12.5-11.68-27.25-19.26-35.5,4.49-3.42,11.61-7.56,20-7.86,7.25-.26,14.47,2.41,21.55,7.91-7.58,8.27-19.21,23-19.21,35.45,0,19.65,12.36,33.38,30.06,33.38s30.06-13.73,30.06-33.38c0-12.52-11.71-27.29-19.29-35.54,6.55-5,18.74-11.52,32.95-5.19a35.3,35.3,0,0,1,16.92,16.44A160.57,160.57,0,0,1,1361.5,320v95h15V320A175.65,175.65,0,0,0,1357.63,241ZM1157.2,290.4c-11.11,0-15.06-9.9-15.06-18.38,0-6.13,7.68-16.9,15.06-25.06,7.38,8.16,15.06,18.93,15.06,25.06C1172.26,280.5,1168.32,290.4,1157.2,290.4Zm63.21,0c-11.12,0-15.06-9.9-15.06-18.38,0-6.14,7.7-16.94,15.09-25.1,10.32,11.23,15,21.12,15,25.1C1235.47,280.5,1231.52,290.4,1220.41,290.4Zm63.2,0c-11.12,0-15.06-9.9-15.06-18.38,0-6.14,7.71-16.94,15.1-25.1,10.32,11.23,15,21.12,15,25.1C1298.67,280.5,1294.73,290.4,1283.61,290.4Z" style="fill:#f9bc95;stroke:#002f69;stroke-linecap:round;stroke-linejoin:round;stroke-width:5px"/><path d="M1294.38,237.48a74.19,74.19,0,0,0-10.73,10.44" style="fill:#f88645;stroke:#002f69;stroke-linecap:round;stroke-linejoin:round;stroke-width:5px"/><path d="M1283.48,227a89.86,89.86,0,0,0-10.72,10.62" style="fill:#f88645;stroke:#002f69;stroke-linecap:round;stroke-linejoin:round;stroke-width:5px"/><path d="M1231.21,237.52A70.21,70.21,0,0,0,1220.27,227" style="fill:#f88645;stroke:#002f69;stroke-linecap:round;stroke-linejoin:round;stroke-width:5px"/><path d="M1220.44,247.92a82.53,82.53,0,0,0-10.89-10.34" style="fill:#f88645;stroke:#002f69;stroke-linecap:round;stroke-linejoin:round;stroke-width:5px"/><path d="M1168,237.52A85,85,0,0,0,1157.2,248" style="fill:#f88645;stroke:#002f69;stroke-linecap:round;stroke-linejoin:round;stroke-width:5px"/><path d="M1157.07,227a147.23,147.23,0,0,0-10.72,10.63" style="fill:#f88645;stroke:#002f69;stroke-linecap:round;stroke-linejoin:round;stroke-width:5px"/><path d="M944.67-3h108a28,28,0,0,1-28,28h-52a28,28,0,0,1-28-28Z" style="fill:#ec5444;stroke:#002f69;stroke-linecap:round;stroke-linejoin:round;stroke-width:5px"/><path d="M982.63,301.56h32.08A16.33,16.33,0,0,0,1031,285.23V272.92a16.32,16.32,0,0,0-16.32-16.32h-8.17V24.13h-15V256.6h-8.91a16.32,16.32,0,0,0-16.32,16.32v12.31A16.33,16.33,0,0,0,982.63,301.56Z" style="fill:#efa7bb;stroke:#002f69;stroke-linecap:round;stroke-linejoin:round;stroke-width:5px"/><line x1="991.54" y1="256.6" x2="997.24" y2="256.6" style="fill:#fff;stroke:#002f69;stroke-linecap:round;stroke-linejoin:round;stroke-width:5px"/><path d="M996.57,267h15.36a8.32,8.32,0,0,1,8.32,8.33v8.35" style="fill:none;stroke:#002f69;stroke-linecap:round;stroke-linejoin:round;stroke-width:5px"/><line x1="987.37" y1="267" x2="988" y2="267" style="fill:#fff;stroke:#002f69;stroke-linecap:round;stroke-linejoin:round;stroke-width:5px"/><circle cx="1081.59" cy="468.12" r="7.51" style="fill:#92dbac;stroke:#002f69;stroke-linecap:round;stroke-linejoin:round;stroke-width:5px"/><circle cx="930.97" cy="311.22" r="7.51" style="fill:#e1526e;stroke:#002f69;stroke-linecap:round;stroke-linejoin:round;stroke-width:5px"/><path d="M938.49,341.18a7.52,7.52,0,1,1-15,0c0-4.15,7.51-11.83,7.51-11.83S938.49,337,938.49,341.18Z" style="fill:#e1526e;stroke:#002f69;stroke-linecap:round;stroke-linejoin:round;stroke-width:5px"/><path d="M938.49,572.25a7.52,7.52,0,0,1-15,0c0-4.15,7.51-11.83,7.51-11.83S938.49,568.1,938.49,572.25Z" style="fill:#e1526e;stroke:#002f69;stroke-linecap:round;stroke-linejoin:round;stroke-width:5px"/><path d="M938.49,840a7.52,7.52,0,1,1-15,0c0-4.15,7.51-11.83,7.51-11.83S938.49,835.82,938.49,840Z" style="fill:#e1526e;stroke:#002f69;stroke-linecap:round;stroke-linejoin:round;stroke-width:5px"/><rect x="130.02" y="720.36" width="249.45" height="296.27" style="fill:#ffded5;stroke:#002f69;stroke-linecap:round;stroke-linejoin:round;stroke-width:5px"/><rect x="150.45" y="744.2" width="208.58" height="186.45" style="fill:#92dbac;stroke:#002f69;stroke-linecap:round;stroke-linejoin:round;stroke-width:5px"/><polygon points="325.63 957.63 325.63 962.88 281.93 962.88 281.93 968.12 325.63 968.12 325.63 973.37 351.27 973.37 351.27 957.63 325.63 957.63" style="fill:#002f69;stroke:#002f69;stroke-linecap:round;stroke-linejoin:round;stroke-width:5px"/><line x1="130.02" y1="720.36" x2="138.82" y2="729.15" style="fill:#ffded5;stroke:#002f69;stroke-linecap:round;stroke-linejoin:round;stroke-width:5px"/><line x1="379.47" y1="720.36" x2="369.08" y2="730.75" style="fill:#ffded5;stroke:#002f69;stroke-linecap:round;stroke-linejoin:round;stroke-width:5px"/><line x1="130.02" y1="1016.63" x2="139.83" y2="1006.83" style="fill:#ffded5;stroke:#002f69;stroke-linecap:round;stroke-linejoin:round;stroke-width:5px"/><line x1="379.47" y1="1016.63" x2="368.67" y2="1005.83" style="fill:#ffded5;stroke:#002f69;stroke-linecap:round;stroke-linejoin:round;stroke-width:5px"/><text transform="translate(192 848)" style="font-size:32px;fill:#002f69;font-family:Uni0554, uni 05_54">HELLO</text></g></svg>