<svg xmlns="http://www.w3.org/2000/svg" xmlns:xlink="http://www.w3.org/1999/xlink" viewBox="0 0 2800 100"><defs><linearGradient id="Dégradé_sans_nom_2" x1="23.44" y1="19.8" x2="26.21" y2="73.39" gradientUnits="userSpaceOnUse"><stop offset="0" stop-color="#333"/><stop offset="1"/></linearGradient><linearGradient id="Dégradé_sans_nom_2-2" x1="73.44" y1="19.8" x2="76.21" y2="73.39" xlink:href="#Dégradé_sans_nom_2"/><linearGradient id="Dégradé_sans_nom_2-3" x1="123.44" y1="19.8" x2="126.21" y2="73.39" xlink:href="#Dégradé_sans_nom_2"/><linearGradient id="Dégradé_sans_nom_2-4" x1="173.44" y1="19.8" x2="176.21" y2="73.39" xlink:href="#Dégradé_sans_nom_2"/><linearGradient id="Dégradé_sans_nom_2-5" x1="223.44" y1="19.8" x2="226.21" y2="73.39" xlink:href="#Dégradé_sans_nom_2"/><linearGradient id="Dégradé_sans_nom_2-6" x1="273.44" y1="19.8" x2="276.21" y2="73.39" xlink:href="#Dégradé_sans_nom_2"/><linearGradient id="Dégradé_sans_nom_2-7" x1="323.44" y1="19.8" x2="326.21" y2="73.39" xlink:href="#Dégradé_sans_nom_2"/><linearGradient id="Dégradé_sans_nom_2-8" x1="373.44" y1="19.8" x2="376.21" y2="73.39" xlink:href="#Dégradé_sans_nom_2"/><linearGradient id="Dégradé_sans_nom_2-9" x1="423.44" y1="19.8" x2="426.21" y2="73.39" xlink:href="#Dégradé_sans_nom_2"/><linearGradient id="Dégradé_sans_nom_2-10" x1="473.44" y1="19.8" x2="476.21" y2="73.39" xlink:href="#Dégradé_sans_nom_2"/><linearGradient id="Dégradé_sans_nom_2-11" x1="523.44" y1="19.8" x2="526.21" y2="73.39" xlink:href="#Dégradé_sans_nom_2"/><linearGradient id="Dégradé_sans_nom_2-12" x1="573.44" y1="19.8" x2="576.21" y2="73.39" xlink:href="#Dégradé_sans_nom_2"/><linearGradient id="Dégradé_sans_nom_2-13" x1="623.44" y1="19.8" x2="626.21" y2="73.39" xlink:href="#Dégradé_sans_nom_2"/><linearGradient id="Dégradé_sans_nom_2-14" x1="673.44" y1="19.8" x2="676.21" y2="73.39" xlink:href="#Dégradé_sans_nom_2"/><linearGradient id="Dégradé_sans_nom_2-15" x1="723.44" y1="19.8" x2="726.21" y2="73.39" xlink:href="#Dégradé_sans_nom_2"/><linearGradient id="Dégradé_sans_nom_2-16" x1="773.44" y1="19.8" x2="776.21" y2="73.39" xlink:href="#Dégradé_sans_nom_2"/><linearGradient id="Dégradé_sans_nom_2-17" x1="823.44" y1="19.8" x2="826.21" y2="73.39" xlink:href="#Dégradé_sans_nom_2"/><linearGradient id="Dégradé_sans_nom_2-18" x1="873.44" y1="19.8" x2="876.21" y2="73.39" xlink:href="#Dégradé_sans_nom_2"/><linearGradient id="Dégradé_sans_nom_2-19" x1="923.44" y1="19.8" x2="926.21" y2="73.39" xlink:href="#Dégradé_sans_nom_2"/><linearGradient id="Dégradé_sans_nom_2-20" x1="973.44" y1="19.8" x2="976.21" y2="73.39" xlink:href="#Dégradé_sans_nom_2"/><linearGradient id="Dégradé_sans_nom_2-21" x1="1023.44" y1="19.8" x2="1026.21" y2="73.39" xlink:href="#Dégradé_sans_nom_2"/><linearGradient id="Dégradé_sans_nom_2-22" x1="1073.44" y1="19.8" x2="1076.21" y2="73.39" xlink:href="#Dégradé_sans_nom_2"/><linearGradient id="Dégradé_sans_nom_2-23" x1="1123.44" y1="19.8" x2="1126.21" y2="73.39" xlink:href="#Dégradé_sans_nom_2"/><linearGradient id="Dégradé_sans_nom_2-24" x1="1173.44" y1="19.8" x2="1176.21" y2="73.39" xlink:href="#Dégradé_sans_nom_2"/><linearGradient id="Dégradé_sans_nom_2-25" x1="1223.44" y1="19.8" x2="1226.21" y2="73.39" xlink:href="#Dégradé_sans_nom_2"/><linearGradient id="Dégradé_sans_nom_2-26" x1="1273.44" y1="19.8" x2="1276.21" y2="73.39" xlink:href="#Dégradé_sans_nom_2"/><linearGradient id="Dégradé_sans_nom_2-27" x1="1323.44" y1="19.8" x2="1326.21" y2="73.39" xlink:href="#Dégradé_sans_nom_2"/><linearGradient id="Dégradé_sans_nom_2-28" x1="1373.44" y1="19.8" x2="1376.21" y2="73.39" xlink:href="#Dégradé_sans_nom_2"/><linearGradient id="Dégradé_sans_nom_2-29" x1="1423.44" y1="19.8" x2="1426.21" y2="73.39" xlink:href="#Dégradé_sans_nom_2"/><linearGradient id="Dégradé_sans_nom_2-30" x1="1473.44" y1="19.8" x2="1476.21" y2="73.39" xlink:href="#Dégradé_sans_nom_2"/><linearGradient id="Dégradé_sans_nom_2-31" x1="1523.44" y1="19.8" x2="1526.21" y2="73.39" xlink:href="#Dégradé_sans_nom_2"/><linearGradient id="Dégradé_sans_nom_2-32" x1="1573.44" y1="19.8" x2="1576.21" y2="73.39" xlink:href="#Dégradé_sans_nom_2"/><linearGradient id="Dégradé_sans_nom_2-33" x1="1623.44" y1="19.8" x2="1626.21" y2="73.39" xlink:href="#Dégradé_sans_nom_2"/><linearGradient id="Dégradé_sans_nom_2-34" x1="1673.44" y1="19.8" x2="1676.21" y2="73.39" xlink:href="#Dégradé_sans_nom_2"/><linearGradient id="Dégradé_sans_nom_2-35" x1="1723.44" y1="19.8" x2="1726.21" y2="73.39" xlink:href="#Dégradé_sans_nom_2"/><linearGradient id="Dégradé_sans_nom_2-36" x1="1773.44" y1="19.8" x2="1776.21" y2="73.39" xlink:href="#Dégradé_sans_nom_2"/><linearGradient id="Dégradé_sans_nom_2-37" x1="1823.44" y1="19.8" x2="1826.21" y2="73.39" xlink:href="#Dégradé_sans_nom_2"/><linearGradient id="Dégradé_sans_nom_2-38" x1="1873.44" y1="19.8" x2="1876.21" y2="73.39" xlink:href="#Dégradé_sans_nom_2"/><linearGradient id="Dégradé_sans_nom_2-39" x1="1923.44" y1="19.8" x2="1926.21" y2="73.39" xlink:href="#Dégradé_sans_nom_2"/><linearGradient id="Dégradé_sans_nom_2-40" x1="1973.44" y1="19.8" x2="1976.21" y2="73.39" xlink:href="#Dégradé_sans_nom_2"/><linearGradient id="Dégradé_sans_nom_2-41" x1="2023.44" y1="19.8" x2="2026.21" y2="73.39" xlink:href="#Dégradé_sans_nom_2"/><linearGradient id="Dégradé_sans_nom_2-42" x1="2073.44" y1="19.8" x2="2076.21" y2="73.39" xlink:href="#Dégradé_sans_nom_2"/><linearGradient id="Dégradé_sans_nom_2-43" x1="2123.44" y1="19.8" x2="2126.21" y2="73.39" xlink:href="#Dégradé_sans_nom_2"/><linearGradient id="Dégradé_sans_nom_2-44" x1="2173.44" y1="19.8" x2="2176.21" y2="73.39" xlink:href="#Dégradé_sans_nom_2"/><linearGradient id="Dégradé_sans_nom_2-45" x1="2223.44" y1="19.8" x2="2226.21" y2="73.39" xlink:href="#Dégradé_sans_nom_2"/><linearGradient id="Dégradé_sans_nom_2-46" x1="2273.44" y1="19.8" x2="2276.21" y2="73.39" xlink:href="#Dégradé_sans_nom_2"/><linearGradient id="Dégradé_sans_nom_2-47" x1="2323.44" y1="19.8" x2="2326.21" y2="73.39" xlink:href="#Dégradé_sans_nom_2"/><linearGradient id="Dégradé_sans_nom_2-48" x1="2373.44" y1="19.8" x2="2376.21" y2="73.39" xlink:href="#Dégradé_sans_nom_2"/><linearGradient id="Dégradé_sans_nom_2-49" x1="2423.44" y1="19.8" x2="2426.21" y2="73.39" xlink:href="#Dégradé_sans_nom_2"/><linearGradient id="Dégradé_sans_nom_2-50" x1="2473.44" y1="19.8" x2="2476.21" y2="73.39" xlink:href="#Dégradé_sans_nom_2"/><linearGradient id="Dégradé_sans_nom_2-51" x1="2523.44" y1="19.8" x2="2526.21" y2="73.39" xlink:href="#Dégradé_sans_nom_2"/><linearGradient id="Dégradé_sans_nom_2-52" x1="2573.44" y1="19.8" x2="2576.21" y2="73.39" xlink:href="#Dégradé_sans_nom_2"/><linearGradient id="Dégradé_sans_nom_2-53" x1="2623.44" y1="19.8" x2="2626.21" y2="73.39" xlink:href="#Dégradé_sans_nom_2"/><linearGradient id="Dégradé_sans_nom_2-54" x1="2673.44" y1="19.8" x2="2676.21" y2="73.39" xlink:href="#Dégradé_sans_nom_2"/><linearGradient id="Dégradé_sans_nom_2-55" x1="2723.44" y1="19.8" x2="2726.21" y2="73.39" xlink:href="#Dégradé_sans_nom_2"/><linearGradient id="Dégradé_sans_nom_2-56" x1="2773.44" y1="19.8" x2="2776.21" y2="73.39" xlink:href="#Dégradé_sans_nom_2"/></defs><title>CHARS</title><g id="Calque_1" data-name="Calque 1"><rect x="0.5" y="0.5" width="49" height="99" rx="6.57" ry="6.57" style="fill:url(#Dégradé_sans_nom_2)"/><path d="M42.93,1A6.07,6.07,0,0,1,49,7.07V92.93A6.07,6.07,0,0,1,42.93,99H7.07A6.07,6.07,0,0,1,1,92.93V7.07A6.07,6.07,0,0,1,7.07,1H42.93m0-1H7.07A7.09,7.09,0,0,0,0,7.07V92.93A7.09,7.09,0,0,0,7.07,100H42.93A7.09,7.09,0,0,0,50,92.93V7.07A7.09,7.09,0,0,0,42.93,0Z"/><rect x="2" y="47" width="2" height="2" style="fill:#fff"/><rect x="2" y="52" width="2" height="2" style="fill:#fff"/><rect x="46" y="47" width="2" height="2" style="fill:#fff"/><rect x="46" y="52" width="2" height="2" style="fill:#fff"/><rect x="50.5" y="0.5" width="49" height="99" rx="6.57" ry="6.57" style="fill:url(#Dégradé_sans_nom_2-2)"/><path d="M92.93,1A6.07,6.07,0,0,1,99,7.07V92.93A6.07,6.07,0,0,1,92.93,99H57.07A6.07,6.07,0,0,1,51,92.93V7.07A6.07,6.07,0,0,1,57.07,1H92.93m0-1H57.07A7.09,7.09,0,0,0,50,7.07V92.93A7.09,7.09,0,0,0,57.07,100H92.93A7.09,7.09,0,0,0,100,92.93V7.07A7.09,7.09,0,0,0,92.93,0Z"/><rect x="52" y="47" width="2" height="2" style="fill:#fff"/><rect x="52" y="52" width="2" height="2" style="fill:#fff"/><rect x="96" y="47" width="2" height="2" style="fill:#fff"/><rect x="96" y="52" width="2" height="2" style="fill:#fff"/><rect x="100.5" y="0.5" width="49" height="99" rx="6.57" ry="6.57" style="fill:url(#Dégradé_sans_nom_2-3)"/><path d="M142.93,1A6.07,6.07,0,0,1,149,7.07V92.93A6.07,6.07,0,0,1,142.93,99H107.07A6.07,6.07,0,0,1,101,92.93V7.07A6.07,6.07,0,0,1,107.07,1h35.86m0-1H107.07A7.09,7.09,0,0,0,100,7.07V92.93a7.09,7.09,0,0,0,7.07,7.07h35.86A7.09,7.09,0,0,0,150,92.93V7.07A7.09,7.09,0,0,0,142.93,0Z"/><rect x="102" y="47" width="2" height="2" style="fill:#fff"/><rect x="102" y="52" width="2" height="2" style="fill:#fff"/><rect x="146" y="47" width="2" height="2" style="fill:#fff"/><rect x="146" y="52" width="2" height="2" style="fill:#fff"/><rect x="150.5" y="0.5" width="49" height="99" rx="6.57" ry="6.57" style="fill:url(#Dégradé_sans_nom_2-4)"/><path d="M192.93,1A6.07,6.07,0,0,1,199,7.07V92.93A6.07,6.07,0,0,1,192.93,99H157.07A6.07,6.07,0,0,1,151,92.93V7.07A6.07,6.07,0,0,1,157.07,1h35.86m0-1H157.07A7.09,7.09,0,0,0,150,7.07V92.93a7.09,7.09,0,0,0,7.07,7.07h35.86A7.09,7.09,0,0,0,200,92.93V7.07A7.09,7.09,0,0,0,192.93,0Z"/><rect x="152" y="47" width="2" height="2" style="fill:#fff"/><rect x="152" y="52" width="2" height="2" style="fill:#fff"/><rect x="196" y="47" width="2" height="2" style="fill:#fff"/><rect x="196" y="52" width="2" height="2" style="fill:#fff"/><rect x="200.5" y="0.5" width="49" height="99" rx="6.57" ry="6.57" style="fill:url(#Dégradé_sans_nom_2-5)"/><path d="M242.93,1A6.07,6.07,0,0,1,249,7.07V92.93A6.07,6.07,0,0,1,242.93,99H207.07A6.07,6.07,0,0,1,201,92.93V7.07A6.07,6.07,0,0,1,207.07,1h35.86m0-1H207.07A7.09,7.09,0,0,0,200,7.07V92.93a7.09,7.09,0,0,0,7.07,7.07h35.86A7.09,7.09,0,0,0,250,92.93V7.07A7.09,7.09,0,0,0,242.93,0Z"/><rect x="202" y="47" width="2" height="2" style="fill:#fff"/><rect x="202" y="52" width="2" height="2" style="fill:#fff"/><rect x="246" y="47" width="2" height="2" style="fill:#fff"/><rect x="246" y="52" width="2" height="2" style="fill:#fff"/><rect x="250.5" y="0.5" width="49" height="99" rx="6.57" ry="6.57" style="fill:url(#Dégradé_sans_nom_2-6)"/><path d="M292.93,1A6.07,6.07,0,0,1,299,7.07V92.93A6.07,6.07,0,0,1,292.93,99H257.07A6.07,6.07,0,0,1,251,92.93V7.07A6.07,6.07,0,0,1,257.07,1h35.86m0-1H257.07A7.09,7.09,0,0,0,250,7.07V92.93a7.09,7.09,0,0,0,7.07,7.07h35.86A7.09,7.09,0,0,0,300,92.93V7.07A7.09,7.09,0,0,0,292.93,0Z"/><rect x="252" y="47" width="2" height="2" style="fill:#fff"/><rect x="252" y="52" width="2" height="2" style="fill:#fff"/><rect x="296" y="47" width="2" height="2" style="fill:#fff"/><rect x="296" y="52" width="2" height="2" style="fill:#fff"/><rect x="300.5" y="0.5" width="49" height="99" rx="6.57" ry="6.57" style="fill:url(#Dégradé_sans_nom_2-7)"/><path d="M342.93,1A6.07,6.07,0,0,1,349,7.07V92.93A6.07,6.07,0,0,1,342.93,99H307.07A6.07,6.07,0,0,1,301,92.93V7.07A6.07,6.07,0,0,1,307.07,1h35.86m0-1H307.07A7.09,7.09,0,0,0,300,7.07V92.93a7.09,7.09,0,0,0,7.07,7.07h35.86A7.09,7.09,0,0,0,350,92.93V7.07A7.09,7.09,0,0,0,342.93,0Z"/><rect x="302" y="47" width="2" height="2" style="fill:#fff"/><rect x="302" y="52" width="2" height="2" style="fill:#fff"/><rect x="346" y="47" width="2" height="2" style="fill:#fff"/><rect x="346" y="52" width="2" height="2" style="fill:#fff"/><rect x="350.5" y="0.5" width="49" height="99" rx="6.57" ry="6.57" style="fill:url(#Dégradé_sans_nom_2-8)"/><path d="M392.93,1A6.07,6.07,0,0,1,399,7.07V92.93A6.07,6.07,0,0,1,392.93,99H357.07A6.07,6.07,0,0,1,351,92.93V7.07A6.07,6.07,0,0,1,357.07,1h35.86m0-1H357.07A7.09,7.09,0,0,0,350,7.07V92.93a7.09,7.09,0,0,0,7.07,7.07h35.86A7.09,7.09,0,0,0,400,92.93V7.07A7.09,7.09,0,0,0,392.93,0Z"/><rect x="352" y="47" width="2" height="2" style="fill:#fff"/><rect x="352" y="52" width="2" height="2" style="fill:#fff"/><rect x="396" y="47" width="2" height="2" style="fill:#fff"/><rect x="396" y="52" width="2" height="2" style="fill:#fff"/><rect x="400.5" y="0.5" width="49" height="99" rx="6.57" ry="6.57" style="fill:url(#Dégradé_sans_nom_2-9)"/><path d="M442.93,1A6.07,6.07,0,0,1,449,7.07V92.93A6.07,6.07,0,0,1,442.93,99H407.07A6.07,6.07,0,0,1,401,92.93V7.07A6.07,6.07,0,0,1,407.07,1h35.86m0-1H407.07A7.09,7.09,0,0,0,400,7.07V92.93a7.09,7.09,0,0,0,7.07,7.07h35.86A7.09,7.09,0,0,0,450,92.93V7.07A7.09,7.09,0,0,0,442.93,0Z"/><rect x="402" y="47" width="2" height="2" style="fill:#fff"/><rect x="402" y="52" width="2" height="2" style="fill:#fff"/><rect x="446" y="47" width="2" height="2" style="fill:#fff"/><rect x="446" y="52" width="2" height="2" style="fill:#fff"/><rect x="450.5" y="0.5" width="49" height="99" rx="6.57" ry="6.57" style="fill:url(#Dégradé_sans_nom_2-10)"/><path d="M492.93,1A6.07,6.07,0,0,1,499,7.07V92.93A6.07,6.07,0,0,1,492.93,99H457.07A6.07,6.07,0,0,1,451,92.93V7.07A6.07,6.07,0,0,1,457.07,1h35.86m0-1H457.07A7.09,7.09,0,0,0,450,7.07V92.93a7.09,7.09,0,0,0,7.07,7.07h35.86A7.09,7.09,0,0,0,500,92.93V7.07A7.09,7.09,0,0,0,492.93,0Z"/><rect x="452" y="47" width="2" height="2" style="fill:#fff"/><rect x="452" y="52" width="2" height="2" style="fill:#fff"/><rect x="496" y="47" width="2" height="2" style="fill:#fff"/><rect x="496" y="52" width="2" height="2" style="fill:#fff"/><rect x="500.5" y="0.5" width="49" height="99" rx="6.57" ry="6.57" style="fill:url(#Dégradé_sans_nom_2-11)"/><path d="M542.93,1A6.07,6.07,0,0,1,549,7.07V92.93A6.07,6.07,0,0,1,542.93,99H507.07A6.07,6.07,0,0,1,501,92.93V7.07A6.07,6.07,0,0,1,507.07,1h35.86m0-1H507.07A7.09,7.09,0,0,0,500,7.07V92.93a7.09,7.09,0,0,0,7.07,7.07h35.86A7.09,7.09,0,0,0,550,92.93V7.07A7.09,7.09,0,0,0,542.93,0Z"/><rect x="502" y="47" width="2" height="2" style="fill:#fff"/><rect x="502" y="52" width="2" height="2" style="fill:#fff"/><rect x="546" y="47" width="2" height="2" style="fill:#fff"/><rect x="546" y="52" width="2" height="2" style="fill:#fff"/><rect x="550.5" y="0.5" width="49" height="99" rx="6.57" ry="6.57" style="fill:url(#Dégradé_sans_nom_2-12)"/><path d="M592.93,1A6.07,6.07,0,0,1,599,7.07V92.93A6.07,6.07,0,0,1,592.93,99H557.07A6.07,6.07,0,0,1,551,92.93V7.07A6.07,6.07,0,0,1,557.07,1h35.86m0-1H557.07A7.09,7.09,0,0,0,550,7.07V92.93a7.09,7.09,0,0,0,7.07,7.07h35.86A7.09,7.09,0,0,0,600,92.93V7.07A7.09,7.09,0,0,0,592.93,0Z"/><rect x="552" y="47" width="2" height="2" style="fill:#fff"/><rect x="552" y="52" width="2" height="2" style="fill:#fff"/><rect x="596" y="47" width="2" height="2" style="fill:#fff"/><rect x="596" y="52" width="2" height="2" style="fill:#fff"/><rect x="600.5" y="0.5" width="49" height="99" rx="6.57" ry="6.57" style="fill:url(#Dégradé_sans_nom_2-13)"/><path d="M642.93,1A6.07,6.07,0,0,1,649,7.07V92.93A6.07,6.07,0,0,1,642.93,99H607.07A6.07,6.07,0,0,1,601,92.93V7.07A6.07,6.07,0,0,1,607.07,1h35.86m0-1H607.07A7.09,7.09,0,0,0,600,7.07V92.93a7.09,7.09,0,0,0,7.07,7.07h35.86A7.09,7.09,0,0,0,650,92.93V7.07A7.09,7.09,0,0,0,642.93,0Z"/><rect x="602" y="47" width="2" height="2" style="fill:#fff"/><rect x="602" y="52" width="2" height="2" style="fill:#fff"/><rect x="646" y="47" width="2" height="2" style="fill:#fff"/><rect x="646" y="52" width="2" height="2" style="fill:#fff"/><rect x="650.5" y="0.5" width="49" height="99" rx="6.57" ry="6.57" style="fill:url(#Dégradé_sans_nom_2-14)"/><path d="M692.93,1A6.07,6.07,0,0,1,699,7.07V92.93A6.07,6.07,0,0,1,692.93,99H657.07A6.07,6.07,0,0,1,651,92.93V7.07A6.07,6.07,0,0,1,657.07,1h35.86m0-1H657.07A7.09,7.09,0,0,0,650,7.07V92.93a7.09,7.09,0,0,0,7.07,7.07h35.86A7.09,7.09,0,0,0,700,92.93V7.07A7.09,7.09,0,0,0,692.93,0Z"/><rect x="652" y="47" width="2" height="2" style="fill:#fff"/><rect x="652" y="52" width="2" height="2" style="fill:#fff"/><rect x="696" y="47" width="2" height="2" style="fill:#fff"/><rect x="696" y="52" width="2" height="2" style="fill:#fff"/><rect x="700.5" y="0.5" width="49" height="99" rx="6.57" ry="6.57" style="fill:url(#Dégradé_sans_nom_2-15)"/><path d="M742.93,1A6.07,6.07,0,0,1,749,7.07V92.93A6.07,6.07,0,0,1,742.93,99H707.07A6.07,6.07,0,0,1,701,92.93V7.07A6.07,6.07,0,0,1,707.07,1h35.86m0-1H707.07A7.09,7.09,0,0,0,700,7.07V92.93a7.09,7.09,0,0,0,7.07,7.07h35.86A7.09,7.09,0,0,0,750,92.93V7.07A7.09,7.09,0,0,0,742.93,0Z"/><rect x="702" y="47" width="2" height="2" style="fill:#fff"/><rect x="702" y="52" width="2" height="2" style="fill:#fff"/><rect x="746" y="47" width="2" height="2" style="fill:#fff"/><rect x="746" y="52" width="2" height="2" style="fill:#fff"/><rect x="750.5" y="0.5" width="49" height="99" rx="6.57" ry="6.57" style="fill:url(#Dégradé_sans_nom_2-16)"/><path d="M792.93,1A6.07,6.07,0,0,1,799,7.07V92.93A6.07,6.07,0,0,1,792.93,99H757.07A6.07,6.07,0,0,1,751,92.93V7.07A6.07,6.07,0,0,1,757.07,1h35.86m0-1H757.07A7.09,7.09,0,0,0,750,7.07V92.93a7.09,7.09,0,0,0,7.07,7.07h35.86A7.09,7.09,0,0,0,800,92.93V7.07A7.09,7.09,0,0,0,792.93,0Z"/><rect x="752" y="47" width="2" height="2" style="fill:#fff"/><rect x="752" y="52" width="2" height="2" style="fill:#fff"/><rect x="796" y="47" width="2" height="2" style="fill:#fff"/><rect x="796" y="52" width="2" height="2" style="fill:#fff"/><rect x="800.5" y="0.5" width="49" height="99" rx="6.57" ry="6.57" style="fill:url(#Dégradé_sans_nom_2-17)"/><path d="M842.93,1A6.07,6.07,0,0,1,849,7.07V92.93A6.07,6.07,0,0,1,842.93,99H807.07A6.07,6.07,0,0,1,801,92.93V7.07A6.07,6.07,0,0,1,807.07,1h35.86m0-1H807.07A7.09,7.09,0,0,0,800,7.07V92.93a7.09,7.09,0,0,0,7.07,7.07h35.86A7.09,7.09,0,0,0,850,92.93V7.07A7.09,7.09,0,0,0,842.93,0Z"/><rect x="802" y="47" width="2" height="2" style="fill:#fff"/><rect x="802" y="52" width="2" height="2" style="fill:#fff"/><rect x="846" y="47" width="2" height="2" style="fill:#fff"/><rect x="846" y="52" width="2" height="2" style="fill:#fff"/><rect x="850.5" y="0.5" width="49" height="99" rx="6.57" ry="6.57" style="fill:url(#Dégradé_sans_nom_2-18)"/><path d="M892.93,1A6.07,6.07,0,0,1,899,7.07V92.93A6.07,6.07,0,0,1,892.93,99H857.07A6.07,6.07,0,0,1,851,92.93V7.07A6.07,6.07,0,0,1,857.07,1h35.86m0-1H857.07A7.09,7.09,0,0,0,850,7.07V92.93a7.09,7.09,0,0,0,7.07,7.07h35.86A7.09,7.09,0,0,0,900,92.93V7.07A7.09,7.09,0,0,0,892.93,0Z"/><rect x="852" y="47" width="2" height="2" style="fill:#fff"/><rect x="852" y="52" width="2" height="2" style="fill:#fff"/><rect x="896" y="47" width="2" height="2" style="fill:#fff"/><rect x="896" y="52" width="2" height="2" style="fill:#fff"/><rect x="900.5" y="0.5" width="49" height="99" rx="6.57" ry="6.57" style="fill:url(#Dégradé_sans_nom_2-19)"/><path d="M942.93,1A6.07,6.07,0,0,1,949,7.07V92.93A6.07,6.07,0,0,1,942.93,99H907.07A6.07,6.07,0,0,1,901,92.93V7.07A6.07,6.07,0,0,1,907.07,1h35.86m0-1H907.07A7.09,7.09,0,0,0,900,7.07V92.93a7.09,7.09,0,0,0,7.07,7.07h35.86A7.09,7.09,0,0,0,950,92.93V7.07A7.09,7.09,0,0,0,942.93,0Z"/><rect x="902" y="47" width="2" height="2" style="fill:#fff"/><rect x="902" y="52" width="2" height="2" style="fill:#fff"/><rect x="946" y="47" width="2" height="2" style="fill:#fff"/><rect x="946" y="52" width="2" height="2" style="fill:#fff"/><rect x="950.5" y="0.5" width="49" height="99" rx="6.57" ry="6.57" style="fill:url(#Dégradé_sans_nom_2-20)"/><path d="M992.93,1A6.07,6.07,0,0,1,999,7.07V92.93A6.07,6.07,0,0,1,992.93,99H957.07A6.07,6.07,0,0,1,951,92.93V7.07A6.07,6.07,0,0,1,957.07,1h35.86m0-1H957.07A7.09,7.09,0,0,0,950,7.07V92.93a7.09,7.09,0,0,0,7.07,7.07h35.86a7.09,7.09,0,0,0,7.07-7.07V7.07A7.09,7.09,0,0,0,992.93,0Z"/><rect x="952" y="47" width="2" height="2" style="fill:#fff"/><rect x="952" y="52" width="2" height="2" style="fill:#fff"/><rect x="996" y="47" width="2" height="2" style="fill:#fff"/><rect x="996" y="52" width="2" height="2" style="fill:#fff"/><rect x="1000.5" y="0.5" width="49" height="99" rx="6.57" ry="6.57" style="fill:url(#Dégradé_sans_nom_2-21)"/><path d="M1042.93,1A6.07,6.07,0,0,1,1049,7.07V92.93a6.07,6.07,0,0,1-6.07,6.07h-35.86a6.07,6.07,0,0,1-6.07-6.07V7.07A6.07,6.07,0,0,1,1007.07,1h35.86m0-1h-35.86A7.09,7.09,0,0,0,1000,7.07V92.93a7.09,7.09,0,0,0,7.07,7.07h35.86a7.09,7.09,0,0,0,7.07-7.07V7.07A7.09,7.09,0,0,0,1042.93,0Z"/><rect x="1002" y="47" width="2" height="2" style="fill:#fff"/><rect x="1002" y="52" width="2" height="2" style="fill:#fff"/><rect x="1046" y="47" width="2" height="2" style="fill:#fff"/><rect x="1046" y="52" width="2" height="2" style="fill:#fff"/><rect x="1050.5" y="0.5" width="49" height="99" rx="6.57" ry="6.57" style="fill:url(#Dégradé_sans_nom_2-22)"/><path d="M1092.93,1A6.07,6.07,0,0,1,1099,7.07V92.93a6.07,6.07,0,0,1-6.07,6.07h-35.86a6.07,6.07,0,0,1-6.07-6.07V7.07A6.07,6.07,0,0,1,1057.07,1h35.86m0-1h-35.86A7.09,7.09,0,0,0,1050,7.07V92.93a7.09,7.09,0,0,0,7.07,7.07h35.86a7.09,7.09,0,0,0,7.07-7.07V7.07A7.09,7.09,0,0,0,1092.93,0Z"/><rect x="1052" y="47" width="2" height="2" style="fill:#fff"/><rect x="1052" y="52" width="2" height="2" style="fill:#fff"/><rect x="1096" y="47" width="2" height="2" style="fill:#fff"/><rect x="1096" y="52" width="2" height="2" style="fill:#fff"/><rect x="1100.5" y="0.5" width="49" height="99" rx="6.57" ry="6.57" style="fill:url(#Dégradé_sans_nom_2-23)"/><path d="M1142.93,1A6.07,6.07,0,0,1,1149,7.07V92.93a6.07,6.07,0,0,1-6.07,6.07h-35.86a6.07,6.07,0,0,1-6.07-6.07V7.07A6.07,6.07,0,0,1,1107.07,1h35.86m0-1h-35.86A7.09,7.09,0,0,0,1100,7.07V92.93a7.09,7.09,0,0,0,7.07,7.07h35.86a7.09,7.09,0,0,0,7.07-7.07V7.07A7.09,7.09,0,0,0,1142.93,0Z"/><rect x="1102" y="47" width="2" height="2" style="fill:#fff"/><rect x="1102" y="52" width="2" height="2" style="fill:#fff"/><rect x="1146" y="47" width="2" height="2" style="fill:#fff"/><rect x="1146" y="52" width="2" height="2" style="fill:#fff"/><rect x="1150.5" y="0.5" width="49" height="99" rx="6.57" ry="6.57" style="fill:url(#Dégradé_sans_nom_2-24)"/><path d="M1192.93,1A6.07,6.07,0,0,1,1199,7.07V92.93a6.07,6.07,0,0,1-6.07,6.07h-35.86a6.07,6.07,0,0,1-6.07-6.07V7.07A6.07,6.07,0,0,1,1157.07,1h35.86m0-1h-35.86A7.09,7.09,0,0,0,1150,7.07V92.93a7.09,7.09,0,0,0,7.07,7.07h35.86a7.09,7.09,0,0,0,7.07-7.07V7.07A7.09,7.09,0,0,0,1192.93,0Z"/><rect x="1152" y="47" width="2" height="2" style="fill:#fff"/><rect x="1152" y="52" width="2" height="2" style="fill:#fff"/><rect x="1196" y="47" width="2" height="2" style="fill:#fff"/><rect x="1196" y="52" width="2" height="2" style="fill:#fff"/><rect x="1200.5" y="0.5" width="49" height="99" rx="6.57" ry="6.57" style="fill:url(#Dégradé_sans_nom_2-25)"/><path d="M1242.93,1A6.07,6.07,0,0,1,1249,7.07V92.93a6.07,6.07,0,0,1-6.07,6.07h-35.86a6.07,6.07,0,0,1-6.07-6.07V7.07A6.07,6.07,0,0,1,1207.07,1h35.86m0-1h-35.86A7.09,7.09,0,0,0,1200,7.07V92.93a7.09,7.09,0,0,0,7.07,7.07h35.86a7.09,7.09,0,0,0,7.07-7.07V7.07A7.09,7.09,0,0,0,1242.93,0Z"/><rect x="1202" y="47" width="2" height="2" style="fill:#fff"/><rect x="1202" y="52" width="2" height="2" style="fill:#fff"/><rect x="1246" y="47" width="2" height="2" style="fill:#fff"/><rect x="1246" y="52" width="2" height="2" style="fill:#fff"/><rect x="1250.5" y="0.5" width="49" height="99" rx="6.57" ry="6.57" style="fill:url(#Dégradé_sans_nom_2-26)"/><path d="M1292.93,1A6.07,6.07,0,0,1,1299,7.07V92.93a6.07,6.07,0,0,1-6.07,6.07h-35.86a6.07,6.07,0,0,1-6.07-6.07V7.07A6.07,6.07,0,0,1,1257.07,1h35.86m0-1h-35.86A7.09,7.09,0,0,0,1250,7.07V92.93a7.09,7.09,0,0,0,7.07,7.07h35.86a7.09,7.09,0,0,0,7.07-7.07V7.07A7.09,7.09,0,0,0,1292.93,0Z"/><rect x="1252" y="47" width="2" height="2" style="fill:#fff"/><rect x="1252" y="52" width="2" height="2" style="fill:#fff"/><rect x="1296" y="47" width="2" height="2" style="fill:#fff"/><rect x="1296" y="52" width="2" height="2" style="fill:#fff"/><rect x="1300.5" y="0.5" width="49" height="99" rx="6.57" ry="6.57" style="fill:url(#Dégradé_sans_nom_2-27)"/><path d="M1342.93,1A6.07,6.07,0,0,1,1349,7.07V92.93a6.07,6.07,0,0,1-6.07,6.07h-35.86a6.07,6.07,0,0,1-6.07-6.07V7.07A6.07,6.07,0,0,1,1307.07,1h35.86m0-1h-35.86A7.09,7.09,0,0,0,1300,7.07V92.93a7.09,7.09,0,0,0,7.07,7.07h35.86a7.09,7.09,0,0,0,7.07-7.07V7.07A7.09,7.09,0,0,0,1342.93,0Z"/><rect x="1302" y="47" width="2" height="2" style="fill:#fff"/><rect x="1302" y="52" width="2" height="2" style="fill:#fff"/><rect x="1346" y="47" width="2" height="2" style="fill:#fff"/><rect x="1346" y="52" width="2" height="2" style="fill:#fff"/><rect x="1350.5" y="0.5" width="49" height="99" rx="6.57" ry="6.57" style="fill:url(#Dégradé_sans_nom_2-28)"/><path d="M1392.93,1A6.07,6.07,0,0,1,1399,7.07V92.93a6.07,6.07,0,0,1-6.07,6.07h-35.86a6.07,6.07,0,0,1-6.07-6.07V7.07A6.07,6.07,0,0,1,1357.07,1h35.86m0-1h-35.86A7.09,7.09,0,0,0,1350,7.07V92.93a7.09,7.09,0,0,0,7.07,7.07h35.86a7.09,7.09,0,0,0,7.07-7.07V7.07A7.09,7.09,0,0,0,1392.93,0Z"/><rect x="1352" y="47" width="2" height="2" style="fill:#fff"/><rect x="1352" y="52" width="2" height="2" style="fill:#fff"/><rect x="1396" y="47" width="2" height="2" style="fill:#fff"/><rect x="1396" y="52" width="2" height="2" style="fill:#fff"/><rect x="1400.5" y="0.5" width="49" height="99" rx="6.57" ry="6.57" style="fill:url(#Dégradé_sans_nom_2-29)"/><path d="M1442.93,1A6.07,6.07,0,0,1,1449,7.07V92.93a6.07,6.07,0,0,1-6.07,6.07h-35.86a6.07,6.07,0,0,1-6.07-6.07V7.07A6.07,6.07,0,0,1,1407.07,1h35.86m0-1h-35.86A7.09,7.09,0,0,0,1400,7.07V92.93a7.09,7.09,0,0,0,7.07,7.07h35.86a7.09,7.09,0,0,0,7.07-7.07V7.07A7.09,7.09,0,0,0,1442.93,0Z"/><rect x="1402" y="47" width="2" height="2" style="fill:#fff"/><rect x="1402" y="52" width="2" height="2" style="fill:#fff"/><rect x="1446" y="47" width="2" height="2" style="fill:#fff"/><rect x="1446" y="52" width="2" height="2" style="fill:#fff"/><rect x="1450.5" y="0.5" width="49" height="99" rx="6.57" ry="6.57" style="fill:url(#Dégradé_sans_nom_2-30)"/><path d="M1492.93,1A6.07,6.07,0,0,1,1499,7.07V92.93a6.07,6.07,0,0,1-6.07,6.07h-35.86a6.07,6.07,0,0,1-6.07-6.07V7.07A6.07,6.07,0,0,1,1457.07,1h35.86m0-1h-35.86A7.09,7.09,0,0,0,1450,7.07V92.93a7.09,7.09,0,0,0,7.07,7.07h35.86a7.09,7.09,0,0,0,7.07-7.07V7.07A7.09,7.09,0,0,0,1492.93,0Z"/><rect x="1452" y="47" width="2" height="2" style="fill:#fff"/><rect x="1452" y="52" width="2" height="2" style="fill:#fff"/><rect x="1496" y="47" width="2" height="2" style="fill:#fff"/><rect x="1496" y="52" width="2" height="2" style="fill:#fff"/><rect x="1500.5" y="0.5" width="49" height="99" rx="6.57" ry="6.57" style="fill:url(#Dégradé_sans_nom_2-31)"/><path d="M1542.93,1A6.07,6.07,0,0,1,1549,7.07V92.93a6.07,6.07,0,0,1-6.07,6.07h-35.86a6.07,6.07,0,0,1-6.07-6.07V7.07A6.07,6.07,0,0,1,1507.07,1h35.86m0-1h-35.86A7.09,7.09,0,0,0,1500,7.07V92.93a7.09,7.09,0,0,0,7.07,7.07h35.86a7.09,7.09,0,0,0,7.07-7.07V7.07A7.09,7.09,0,0,0,1542.93,0Z"/><rect x="1502" y="47" width="2" height="2" style="fill:#fff"/><rect x="1502" y="52" width="2" height="2" style="fill:#fff"/><rect x="1546" y="47" width="2" height="2" style="fill:#fff"/><rect x="1546" y="52" width="2" height="2" style="fill:#fff"/><rect x="1550.5" y="0.5" width="49" height="99" rx="6.57" ry="6.57" style="fill:url(#Dégradé_sans_nom_2-32)"/><path d="M1592.93,1A6.07,6.07,0,0,1,1599,7.07V92.93a6.07,6.07,0,0,1-6.07,6.07h-35.86a6.07,6.07,0,0,1-6.07-6.07V7.07A6.07,6.07,0,0,1,1557.07,1h35.86m0-1h-35.86A7.09,7.09,0,0,0,1550,7.07V92.93a7.09,7.09,0,0,0,7.07,7.07h35.86a7.09,7.09,0,0,0,7.07-7.07V7.07A7.09,7.09,0,0,0,1592.93,0Z"/><rect x="1552" y="47" width="2" height="2" style="fill:#fff"/><rect x="1552" y="52" width="2" height="2" style="fill:#fff"/><rect x="1596" y="47" width="2" height="2" style="fill:#fff"/><rect x="1596" y="52" width="2" height="2" style="fill:#fff"/><rect x="1600.5" y="0.5" width="49" height="99" rx="6.57" ry="6.57" style="fill:url(#Dégradé_sans_nom_2-33)"/><path d="M1642.93,1A6.07,6.07,0,0,1,1649,7.07V92.93a6.07,6.07,0,0,1-6.07,6.07h-35.86a6.07,6.07,0,0,1-6.07-6.07V7.07A6.07,6.07,0,0,1,1607.07,1h35.86m0-1h-35.86A7.09,7.09,0,0,0,1600,7.07V92.93a7.09,7.09,0,0,0,7.07,7.07h35.86a7.09,7.09,0,0,0,7.07-7.07V7.07A7.09,7.09,0,0,0,1642.93,0Z"/><rect x="1602" y="47" width="2" height="2" style="fill:#fff"/><rect x="1602" y="52" width="2" height="2" style="fill:#fff"/><rect x="1646" y="47" width="2" height="2" style="fill:#fff"/><rect x="1646" y="52" width="2" height="2" style="fill:#fff"/><rect x="1650.5" y="0.5" width="49" height="99" rx="6.57" ry="6.57" style="fill:url(#Dégradé_sans_nom_2-34)"/><path d="M1692.93,1A6.07,6.07,0,0,1,1699,7.07V92.93a6.07,6.07,0,0,1-6.07,6.07h-35.86a6.07,6.07,0,0,1-6.07-6.07V7.07A6.07,6.07,0,0,1,1657.07,1h35.86m0-1h-35.86A7.09,7.09,0,0,0,1650,7.07V92.93a7.09,7.09,0,0,0,7.07,7.07h35.86a7.09,7.09,0,0,0,7.07-7.07V7.07A7.09,7.09,0,0,0,1692.93,0Z"/><rect x="1652" y="47" width="2" height="2" style="fill:#fff"/><rect x="1652" y="52" width="2" height="2" style="fill:#fff"/><rect x="1696" y="47" width="2" height="2" style="fill:#fff"/><rect x="1696" y="52" width="2" height="2" style="fill:#fff"/><rect x="1700.5" y="0.5" width="49" height="99" rx="6.57" ry="6.57" style="fill:url(#Dégradé_sans_nom_2-35)"/><path d="M1742.93,1A6.07,6.07,0,0,1,1749,7.07V92.93a6.07,6.07,0,0,1-6.07,6.07h-35.86a6.07,6.07,0,0,1-6.07-6.07V7.07A6.07,6.07,0,0,1,1707.07,1h35.86m0-1h-35.86A7.09,7.09,0,0,0,1700,7.07V92.93a7.09,7.09,0,0,0,7.07,7.07h35.86a7.09,7.09,0,0,0,7.07-7.07V7.07A7.09,7.09,0,0,0,1742.93,0Z"/><rect x="1702" y="47" width="2" height="2" style="fill:#fff"/><rect x="1702" y="52" width="2" height="2" style="fill:#fff"/><rect x="1746" y="47" width="2" height="2" style="fill:#fff"/><rect x="1746" y="52" width="2" height="2" style="fill:#fff"/><rect x="1750.5" y="0.5" width="49" height="99" rx="6.57" ry="6.57" style="fill:url(#Dégradé_sans_nom_2-36)"/><path d="M1792.93,1A6.07,6.07,0,0,1,1799,7.07V92.93a6.07,6.07,0,0,1-6.07,6.07h-35.86a6.07,6.07,0,0,1-6.07-6.07V7.07A6.07,6.07,0,0,1,1757.07,1h35.86m0-1h-35.86A7.09,7.09,0,0,0,1750,7.07V92.93a7.09,7.09,0,0,0,7.07,7.07h35.86a7.09,7.09,0,0,0,7.07-7.07V7.07A7.09,7.09,0,0,0,1792.93,0Z"/><rect x="1752" y="47" width="2" height="2" style="fill:#fff"/><rect x="1752" y="52" width="2" height="2" style="fill:#fff"/><rect x="1796" y="47" width="2" height="2" style="fill:#fff"/><rect x="1796" y="52" width="2" height="2" style="fill:#fff"/><rect x="1800.5" y="0.5" width="49" height="99" rx="6.57" ry="6.57" style="fill:url(#Dégradé_sans_nom_2-37)"/><path d="M1842.93,1A6.07,6.07,0,0,1,1849,7.07V92.93a6.07,6.07,0,0,1-6.07,6.07h-35.86a6.07,6.07,0,0,1-6.07-6.07V7.07A6.07,6.07,0,0,1,1807.07,1h35.86m0-1h-35.86A7.09,7.09,0,0,0,1800,7.07V92.93a7.09,7.09,0,0,0,7.07,7.07h35.86a7.09,7.09,0,0,0,7.07-7.07V7.07A7.09,7.09,0,0,0,1842.93,0Z"/><rect x="1802" y="47" width="2" height="2" style="fill:#fff"/><rect x="1802" y="52" width="2" height="2" style="fill:#fff"/><rect x="1846" y="47" width="2" height="2" style="fill:#fff"/><rect x="1846" y="52" width="2" height="2" style="fill:#fff"/><rect x="1850.5" y="0.5" width="49" height="99" rx="6.57" ry="6.57" style="fill:url(#Dégradé_sans_nom_2-38)"/><path d="M1892.93,1A6.07,6.07,0,0,1,1899,7.07V92.93a6.07,6.07,0,0,1-6.07,6.07h-35.86a6.07,6.07,0,0,1-6.07-6.07V7.07A6.07,6.07,0,0,1,1857.07,1h35.86m0-1h-35.86A7.09,7.09,0,0,0,1850,7.07V92.93a7.09,7.09,0,0,0,7.07,7.07h35.86a7.09,7.09,0,0,0,7.07-7.07V7.07A7.09,7.09,0,0,0,1892.93,0Z"/><rect x="1852" y="47" width="2" height="2" style="fill:#fff"/><rect x="1852" y="52" width="2" height="2" style="fill:#fff"/><rect x="1896" y="47" width="2" height="2" style="fill:#fff"/><rect x="1896" y="52" width="2" height="2" style="fill:#fff"/><rect x="1900.5" y="0.5" width="49" height="99" rx="6.57" ry="6.57" style="fill:url(#Dégradé_sans_nom_2-39)"/><path d="M1942.93,1A6.07,6.07,0,0,1,1949,7.07V92.93a6.07,6.07,0,0,1-6.07,6.07h-35.86a6.07,6.07,0,0,1-6.07-6.07V7.07A6.07,6.07,0,0,1,1907.07,1h35.86m0-1h-35.86A7.09,7.09,0,0,0,1900,7.07V92.93a7.09,7.09,0,0,0,7.07,7.07h35.86a7.09,7.09,0,0,0,7.07-7.07V7.07A7.09,7.09,0,0,0,1942.93,0Z"/><rect x="1902" y="47" width="2" height="2" style="fill:#fff"/><rect x="1902" y="52" width="2" height="2" style="fill:#fff"/><rect x="1946" y="47" width="2" height="2" style="fill:#fff"/><rect x="1946" y="52" width="2" height="2" style="fill:#fff"/><rect x="1950.5" y="0.5" width="49" height="99" rx="6.57" ry="6.57" style="fill:url(#Dégradé_sans_nom_2-40)"/><path d="M1992.93,1A6.07,6.07,0,0,1,1999,7.07V92.93a6.07,6.07,0,0,1-6.07,6.07h-35.86a6.07,6.07,0,0,1-6.07-6.07V7.07A6.07,6.07,0,0,1,1957.07,1h35.86m0-1h-35.86A7.09,7.09,0,0,0,1950,7.07V92.93a7.09,7.09,0,0,0,7.07,7.07h35.86a7.09,7.09,0,0,0,7.07-7.07V7.07A7.09,7.09,0,0,0,1992.93,0Z"/><rect x="1952" y="47" width="2" height="2" style="fill:#fff"/><rect x="1952" y="52" width="2" height="2" style="fill:#fff"/><rect x="1996" y="47" width="2" height="2" style="fill:#fff"/><rect x="1996" y="52" width="2" height="2" style="fill:#fff"/><rect x="2000.5" y="0.5" width="49" height="99" rx="6.57" ry="6.57" style="fill:url(#Dégradé_sans_nom_2-41)"/><path d="M2042.93,1A6.07,6.07,0,0,1,2049,7.07V92.93a6.07,6.07,0,0,1-6.07,6.07h-35.86a6.07,6.07,0,0,1-6.07-6.07V7.07A6.07,6.07,0,0,1,2007.07,1h35.86m0-1h-35.86A7.09,7.09,0,0,0,2000,7.07V92.93a7.09,7.09,0,0,0,7.07,7.07h35.86a7.09,7.09,0,0,0,7.07-7.07V7.07A7.09,7.09,0,0,0,2042.93,0Z"/><rect x="2002" y="47" width="2" height="2" style="fill:#fff"/><rect x="2002" y="52" width="2" height="2" style="fill:#fff"/><rect x="2046" y="47" width="2" height="2" style="fill:#fff"/><rect x="2046" y="52" width="2" height="2" style="fill:#fff"/><rect x="2050.5" y="0.5" width="49" height="99" rx="6.57" ry="6.57" style="fill:url(#Dégradé_sans_nom_2-42)"/><path d="M2092.93,1A6.07,6.07,0,0,1,2099,7.07V92.93a6.07,6.07,0,0,1-6.07,6.07h-35.86a6.07,6.07,0,0,1-6.07-6.07V7.07A6.07,6.07,0,0,1,2057.07,1h35.86m0-1h-35.86A7.09,7.09,0,0,0,2050,7.07V92.93a7.09,7.09,0,0,0,7.07,7.07h35.86a7.09,7.09,0,0,0,7.07-7.07V7.07A7.09,7.09,0,0,0,2092.93,0Z"/><rect x="2052" y="47" width="2" height="2" style="fill:#fff"/><rect x="2052" y="52" width="2" height="2" style="fill:#fff"/><rect x="2096" y="47" width="2" height="2" style="fill:#fff"/><rect x="2096" y="52" width="2" height="2" style="fill:#fff"/><rect x="2100.5" y="0.5" width="49" height="99" rx="6.57" ry="6.57" style="fill:url(#Dégradé_sans_nom_2-43)"/><path d="M2142.93,1A6.07,6.07,0,0,1,2149,7.07V92.93a6.07,6.07,0,0,1-6.07,6.07h-35.86a6.07,6.07,0,0,1-6.07-6.07V7.07A6.07,6.07,0,0,1,2107.07,1h35.86m0-1h-35.86A7.09,7.09,0,0,0,2100,7.07V92.93a7.09,7.09,0,0,0,7.07,7.07h35.86a7.09,7.09,0,0,0,7.07-7.07V7.07A7.09,7.09,0,0,0,2142.93,0Z"/><rect x="2102" y="47" width="2" height="2" style="fill:#fff"/><rect x="2102" y="52" width="2" height="2" style="fill:#fff"/><rect x="2146" y="47" width="2" height="2" style="fill:#fff"/><rect x="2146" y="52" width="2" height="2" style="fill:#fff"/><rect x="2150.5" y="0.5" width="49" height="99" rx="6.57" ry="6.57" style="fill:url(#Dégradé_sans_nom_2-44)"/><path d="M2192.93,1A6.07,6.07,0,0,1,2199,7.07V92.93a6.07,6.07,0,0,1-6.07,6.07h-35.86a6.07,6.07,0,0,1-6.07-6.07V7.07A6.07,6.07,0,0,1,2157.07,1h35.86m0-1h-35.86A7.09,7.09,0,0,0,2150,7.07V92.93a7.09,7.09,0,0,0,7.07,7.07h35.86a7.09,7.09,0,0,0,7.07-7.07V7.07A7.09,7.09,0,0,0,2192.93,0Z"/><rect x="2152" y="47" width="2" height="2" style="fill:#fff"/><rect x="2152" y="52" width="2" height="2" style="fill:#fff"/><rect x="2196" y="47" width="2" height="2" style="fill:#fff"/><rect x="2196" y="52" width="2" height="2" style="fill:#fff"/><rect x="2200.5" y="0.5" width="49" height="99" rx="6.57" ry="6.57" style="fill:url(#Dégradé_sans_nom_2-45)"/><path d="M2242.93,1A6.07,6.07,0,0,1,2249,7.07V92.93a6.07,6.07,0,0,1-6.07,6.07h-35.86a6.07,6.07,0,0,1-6.07-6.07V7.07A6.07,6.07,0,0,1,2207.07,1h35.86m0-1h-35.86A7.09,7.09,0,0,0,2200,7.07V92.93a7.09,7.09,0,0,0,7.07,7.07h35.86a7.09,7.09,0,0,0,7.07-7.07V7.07A7.09,7.09,0,0,0,2242.93,0Z"/><rect x="2202" y="47" width="2" height="2" style="fill:#fff"/><rect x="2202" y="52" width="2" height="2" style="fill:#fff"/><rect x="2246" y="47" width="2" height="2" style="fill:#fff"/><rect x="2246" y="52" width="2" height="2" style="fill:#fff"/><rect x="2250.5" y="0.5" width="49" height="99" rx="6.57" ry="6.57" style="fill:url(#Dégradé_sans_nom_2-46)"/><path d="M2292.93,1A6.07,6.07,0,0,1,2299,7.07V92.93a6.07,6.07,0,0,1-6.07,6.07h-35.86a6.07,6.07,0,0,1-6.07-6.07V7.07A6.07,6.07,0,0,1,2257.07,1h35.86m0-1h-35.86A7.09,7.09,0,0,0,2250,7.07V92.93a7.09,7.09,0,0,0,7.07,7.07h35.86a7.09,7.09,0,0,0,7.07-7.07V7.07A7.09,7.09,0,0,0,2292.93,0Z"/><rect x="2252" y="47" width="2" height="2" style="fill:#fff"/><rect x="2252" y="52" width="2" height="2" style="fill:#fff"/><rect x="2296" y="47" width="2" height="2" style="fill:#fff"/><rect x="2296" y="52" width="2" height="2" style="fill:#fff"/><rect x="2300.5" y="0.5" width="49" height="99" rx="6.57" ry="6.57" style="fill:url(#Dégradé_sans_nom_2-47)"/><path d="M2342.93,1A6.07,6.07,0,0,1,2349,7.07V92.93a6.07,6.07,0,0,1-6.07,6.07h-35.86a6.07,6.07,0,0,1-6.07-6.07V7.07A6.07,6.07,0,0,1,2307.07,1h35.86m0-1h-35.86A7.09,7.09,0,0,0,2300,7.07V92.93a7.09,7.09,0,0,0,7.07,7.07h35.86a7.09,7.09,0,0,0,7.07-7.07V7.07A7.09,7.09,0,0,0,2342.93,0Z"/><rect x="2302" y="47" width="2" height="2" style="fill:#fff"/><rect x="2302" y="52" width="2" height="2" style="fill:#fff"/><rect x="2346" y="47" width="2" height="2" style="fill:#fff"/><rect x="2346" y="52" width="2" height="2" style="fill:#fff"/><rect x="2350.5" y="0.5" width="49" height="99" rx="6.57" ry="6.57" style="fill:url(#Dégradé_sans_nom_2-48)"/><path d="M2392.93,1A6.07,6.07,0,0,1,2399,7.07V92.93a6.07,6.07,0,0,1-6.07,6.07h-35.86a6.07,6.07,0,0,1-6.07-6.07V7.07A6.07,6.07,0,0,1,2357.07,1h35.86m0-1h-35.86A7.09,7.09,0,0,0,2350,7.07V92.93a7.09,7.09,0,0,0,7.07,7.07h35.86a7.09,7.09,0,0,0,7.07-7.07V7.07A7.09,7.09,0,0,0,2392.93,0Z"/><rect x="2352" y="47" width="2" height="2" style="fill:#fff"/><rect x="2352" y="52" width="2" height="2" style="fill:#fff"/><rect x="2396" y="47" width="2" height="2" style="fill:#fff"/><rect x="2396" y="52" width="2" height="2" style="fill:#fff"/><rect x="2400.5" y="0.5" width="49" height="99" rx="6.57" ry="6.57" style="fill:url(#Dégradé_sans_nom_2-49)"/><path d="M2442.93,1A6.07,6.07,0,0,1,2449,7.07V92.93a6.07,6.07,0,0,1-6.07,6.07h-35.86a6.07,6.07,0,0,1-6.07-6.07V7.07A6.07,6.07,0,0,1,2407.07,1h35.86m0-1h-35.86A7.09,7.09,0,0,0,2400,7.07V92.93a7.09,7.09,0,0,0,7.07,7.07h35.86a7.09,7.09,0,0,0,7.07-7.07V7.07A7.09,7.09,0,0,0,2442.93,0Z"/><rect x="2402" y="47" width="2" height="2" style="fill:#fff"/><rect x="2402" y="52" width="2" height="2" style="fill:#fff"/><rect x="2446" y="47" width="2" height="2" style="fill:#fff"/><rect x="2446" y="52" width="2" height="2" style="fill:#fff"/><rect x="2450.5" y="0.5" width="49" height="99" rx="6.57" ry="6.57" style="fill:url(#Dégradé_sans_nom_2-50)"/><path d="M2492.93,1A6.07,6.07,0,0,1,2499,7.07V92.93a6.07,6.07,0,0,1-6.07,6.07h-35.86a6.07,6.07,0,0,1-6.07-6.07V7.07A6.07,6.07,0,0,1,2457.07,1h35.86m0-1h-35.86A7.09,7.09,0,0,0,2450,7.07V92.93a7.09,7.09,0,0,0,7.07,7.07h35.86a7.09,7.09,0,0,0,7.07-7.07V7.07A7.09,7.09,0,0,0,2492.93,0Z"/><rect x="2452" y="47" width="2" height="2" style="fill:#fff"/><rect x="2452" y="52" width="2" height="2" style="fill:#fff"/><rect x="2496" y="47" width="2" height="2" style="fill:#fff"/><rect x="2496" y="52" width="2" height="2" style="fill:#fff"/><rect x="2500.5" y="0.5" width="49" height="99" rx="6.57" ry="6.57" style="fill:url(#Dégradé_sans_nom_2-51)"/><path d="M2542.93,1A6.07,6.07,0,0,1,2549,7.07V92.93a6.07,6.07,0,0,1-6.07,6.07h-35.86a6.07,6.07,0,0,1-6.07-6.07V7.07A6.07,6.07,0,0,1,2507.07,1h35.86m0-1h-35.86A7.09,7.09,0,0,0,2500,7.07V92.93a7.09,7.09,0,0,0,7.07,7.07h35.86a7.09,7.09,0,0,0,7.07-7.07V7.07A7.09,7.09,0,0,0,2542.93,0Z"/><rect x="2502" y="47" width="2" height="2" style="fill:#fff"/><rect x="2502" y="52" width="2" height="2" style="fill:#fff"/><rect x="2546" y="47" width="2" height="2" style="fill:#fff"/><rect x="2546" y="52" width="2" height="2" style="fill:#fff"/><rect x="2550.5" y="0.5" width="49" height="99" rx="6.57" ry="6.57" style="fill:url(#Dégradé_sans_nom_2-52)"/><path d="M2592.93,1A6.07,6.07,0,0,1,2599,7.07V92.93a6.07,6.07,0,0,1-6.07,6.07h-35.86a6.07,6.07,0,0,1-6.07-6.07V7.07A6.07,6.07,0,0,1,2557.07,1h35.86m0-1h-35.86A7.09,7.09,0,0,0,2550,7.07V92.93a7.09,7.09,0,0,0,7.07,7.07h35.86a7.09,7.09,0,0,0,7.07-7.07V7.07A7.09,7.09,0,0,0,2592.93,0Z"/><rect x="2552" y="47" width="2" height="2" style="fill:#fff"/><rect x="2552" y="52" width="2" height="2" style="fill:#fff"/><rect x="2596" y="47" width="2" height="2" style="fill:#fff"/><rect x="2596" y="52" width="2" height="2" style="fill:#fff"/><rect x="2600.5" y="0.5" width="49" height="99" rx="6.57" ry="6.57" style="fill:url(#Dégradé_sans_nom_2-53)"/><path d="M2642.93,1A6.07,6.07,0,0,1,2649,7.07V92.93a6.07,6.07,0,0,1-6.07,6.07h-35.86a6.07,6.07,0,0,1-6.07-6.07V7.07A6.07,6.07,0,0,1,2607.07,1h35.86m0-1h-35.86A7.09,7.09,0,0,0,2600,7.07V92.93a7.09,7.09,0,0,0,7.07,7.07h35.86a7.09,7.09,0,0,0,7.07-7.07V7.07A7.09,7.09,0,0,0,2642.93,0Z"/><rect x="2602" y="47" width="2" height="2" style="fill:#fff"/><rect x="2602" y="52" width="2" height="2" style="fill:#fff"/><rect x="2646" y="47" width="2" height="2" style="fill:#fff"/><rect x="2646" y="52" width="2" height="2" style="fill:#fff"/><rect x="2650.5" y="0.5" width="49" height="99" rx="6.57" ry="6.57" style="fill:url(#Dégradé_sans_nom_2-54)"/><path d="M2692.93,1A6.07,6.07,0,0,1,2699,7.07V92.93a6.07,6.07,0,0,1-6.07,6.07h-35.86a6.07,6.07,0,0,1-6.07-6.07V7.07A6.07,6.07,0,0,1,2657.07,1h35.86m0-1h-35.86A7.09,7.09,0,0,0,2650,7.07V92.93a7.09,7.09,0,0,0,7.07,7.07h35.86a7.09,7.09,0,0,0,7.07-7.07V7.07A7.09,7.09,0,0,0,2692.93,0Z"/><rect x="2652" y="47" width="2" height="2" style="fill:#fff"/><rect x="2652" y="52" width="2" height="2" style="fill:#fff"/><rect x="2696" y="47" width="2" height="2" style="fill:#fff"/><rect x="2696" y="52" width="2" height="2" style="fill:#fff"/><rect x="2700.5" y="0.5" width="49" height="99" rx="6.57" ry="6.57" style="fill:url(#Dégradé_sans_nom_2-55)"/><path d="M2742.93,1A6.07,6.07,0,0,1,2749,7.07V92.93a6.07,6.07,0,0,1-6.07,6.07h-35.86a6.07,6.07,0,0,1-6.07-6.07V7.07A6.07,6.07,0,0,1,2707.07,1h35.86m0-1h-35.86A7.09,7.09,0,0,0,2700,7.07V92.93a7.09,7.09,0,0,0,7.07,7.07h35.86a7.09,7.09,0,0,0,7.07-7.07V7.07A7.09,7.09,0,0,0,2742.93,0Z"/><rect x="2702" y="47" width="2" height="2" style="fill:#fff"/><rect x="2702" y="52" width="2" height="2" style="fill:#fff"/><rect x="2746" y="47" width="2" height="2" style="fill:#fff"/><rect x="2746" y="52" width="2" height="2" style="fill:#fff"/><rect x="2750.5" y="0.5" width="49" height="99" rx="6.57" ry="6.57" style="fill:url(#Dégradé_sans_nom_2-56)"/><path d="M2792.93,1A6.07,6.07,0,0,1,2799,7.07V92.93a6.07,6.07,0,0,1-6.07,6.07h-35.86a6.07,6.07,0,0,1-6.07-6.07V7.07A6.07,6.07,0,0,1,2757.07,1h35.86m0-1h-35.86A7.09,7.09,0,0,0,2750,7.07V92.93a7.09,7.09,0,0,0,7.07,7.07h35.86a7.09,7.09,0,0,0,7.07-7.07V7.07A7.09,7.09,0,0,0,2792.93,0Z"/><rect x="2752" y="47" width="2" height="2" style="fill:#fff"/><rect x="2752" y="52" width="2" height="2" style="fill:#fff"/><rect x="2796" y="47" width="2" height="2" style="fill:#fff"/><rect x="2796" y="52" width="2" height="2" style="fill:#fff"/></g><g id="Calque_2" data-name="Calque 2"><text transform="translate(9.62 74.68)" style="font-size:70px;fill:#fff;font-family:Targa, Targa ">A</text><text transform="translate(58.75 74.68)" style="font-size:70px;fill:#fff;font-family:Targa, Targa ">B</text><text transform="translate(109.03 74.68)" style="font-size:70px;fill:#fff;font-family:Targa, Targa ">C</text><text transform="translate(158.5 74.68)" style="font-size:70px;fill:#fff;font-family:Targa, Targa ">D</text><text transform="translate(208.85 74.68)" style="font-size:70px;fill:#fff;font-family:Targa, Targa ">E</text><text transform="translate(259.45 74.68)" style="font-size:70px;fill:#fff;font-family:Targa, Targa ">F</text><text transform="translate(308.96 74.68)" style="font-size:70px;fill:#fff;font-family:Targa, Targa ">G</text><text transform="translate(358.4 74.68)" style="font-size:70px;fill:#fff;font-family:Targa, Targa ">H</text><text transform="translate(408.92 74.68)" style="font-size:70px;fill:#fff;font-family:Targa, Targa ">I</text><text transform="translate(459.13 74.68)" style="font-size:70px;fill:#fff;font-family:Targa, Targa ">J</text><text transform="translate(508.64 74.68)" style="font-size:70px;fill:#fff;font-family:Targa, Targa ">K</text><text transform="translate(559.55 74.68)" style="font-size:70px;fill:#fff;font-family:Targa, Targa ">L</text><text transform="translate(608.29 74.68)" style="font-size:70px;fill:#fff;font-family:Targa, Targa ">M</text><text transform="translate(658.36 74.68)" style="font-size:70px;fill:#fff;font-family:Targa, Targa ">N</text><text transform="translate(708.68 74.68)" style="font-size:70px;fill:#fff;font-family:Targa, Targa ">O</text><text transform="translate(759.41 74.68)" style="font-size:70px;fill:#fff;font-family:Targa, Targa ">P</text><text transform="translate(809.03 74.68)" style="font-size:70px;fill:#fff;font-family:Targa, Targa ">Q</text><text transform="translate(858.61 74.68)" style="font-size:70px;fill:#fff;font-family:Targa, Targa ">R</text><text transform="translate(909.17 74.68)" style="font-size:70px;fill:#fff;font-family:Targa, Targa ">S</text><text transform="translate(959.94 74.68)" style="font-size:70px;fill:#fff;font-family:Targa, Targa ">T</text><text transform="translate(1008.54 74.68)" style="font-size:70px;fill:#fff;font-family:Targa, Targa ">U</text><text transform="translate(1059.59 74.68)" style="font-size:70px;fill:#fff;font-family:Targa, Targa ">V</text><text transform="translate(1108.71 74.68)" style="font-size:70px;fill:#fff;font-family:Targa, Targa ">W</text><text transform="translate(1158.61 74.68)" style="font-size:70px;fill:#fff;font-family:Targa, Targa ">X</text><text transform="translate(1209.69 74.68)" style="font-size:70px;fill:#fff;font-family:Targa, Targa ">Y</text><text transform="translate(1258.89 74.68)" style="font-size:70px;fill:#fff;font-family:Targa, Targa ">Z</text><text transform="translate(1307.31 74.68)" style="font-size:70px;fill:#fff;font-family:Targa, Targa "> </text><text transform="translate(1358.68 74.68)" style="font-size:70px;fill:#fc3;font-family:Targa, Targa ">0</text><text transform="translate(1416.62 74.68)" style="font-size:70px;fill:#fc3;font-family:Targa, Targa ">1</text><text transform="translate(1458.89 74.68)" style="font-size:70px;fill:#fc3;font-family:Targa, Targa ">2</text><text transform="translate(1508.19 74.68)" style="font-size:70px;fill:#fc3;font-family:Targa, Targa ">3</text><text transform="translate(1559.34 74.68)" style="font-size:70px;fill:#fc3;font-family:Targa, Targa ">4</text><text transform="translate(1608.85 74.68)" style="font-size:70px;fill:#fc3;font-family:Targa, Targa ">5</text><text transform="translate(1658.78 74.68)" style="font-size:70px;fill:#fc3;font-family:Targa, Targa ">6</text><text transform="translate(1709.55 74.68)" style="font-size:70px;fill:#fc3;font-family:Targa, Targa ">7</text><text transform="translate(1758.85 74.68)" style="font-size:70px;fill:#fc3;font-family:Targa, Targa ">8</text><text transform="translate(1808.85 74.68)" style="font-size:70px;fill:#fc3;font-family:Targa, Targa ">9</text><text transform="translate(1867.88 74.68)" style="font-size:70px;fill:#fff;font-family:Targa, Targa ">.</text><text transform="translate(1917.18 74.68)" style="font-size:70px;fill:#fff;font-family:Targa, Targa ">,</text><text transform="translate(1969.04 74.68)" style="font-size:70px;fill:#fff;font-family:Targa, Targa ">!</text><text transform="translate(2009.97 74.68)" style="font-size:70px;fill:#fff;font-family:Targa, Targa ">?</text><text transform="translate(2059.03 74.68)" style="font-size:70px;fill:#fff;font-family:Targa, Targa ">#</text><text transform="translate(2108.89 74.68)" style="font-size:70px;fill:#fff;font-family:Targa, Targa ">§</text><text transform="translate(2165.43 74.68)" style="font-size:70px;fill:#fff;font-family:Targa, Targa ">(</text><text transform="translate(2215.47 74.68)" style="font-size:70px;fill:#fff;font-family:Targa, Targa ">)</text><text transform="translate(2260.22 74.68)" style="font-size:70px;fill:#fff;font-family:Targa, Targa ">+</text><text transform="translate(2308.33 74.68)" style="font-size:70px;fill:#fff;font-family:Targa, Targa ">-</text><text transform="translate(2358.36 74.68)" style="font-size:70px;fill:#fff;font-family:Targa, Targa ">=</text><text transform="translate(2409.55 74.68)" style="font-size:70px;fill:#fff;font-family:Targa, Targa ">É</text><text transform="translate(2466.27 74.68)" style="font-size:70px;fill:#fff;font-family:Targa, Targa ">‘</text><text transform="translate(2517.67 74.68)" style="font-size:70px;fill:#fff;font-family:Targa, Targa ">:</text><text transform="translate(2567.88 74.68)" style="font-size:70px;fill:#fff;font-family:Targa, Targa ">°</text><text transform="translate(2607.31 74.68)" style="font-size:70px;fill:#fff;font-family:Targa, Targa "> </text><text transform="translate(2657.31 74.68)" style="font-size:70px;fill:#fff;font-family:Targa, Targa "> </text><text transform="translate(2707.31 74.68)" style="font-size:70px;fill:#fff;font-family:Targa, Targa "> </text><text transform="translate(2757.31 74.68)" style="font-size:70px;fill:#fff;font-family:Targa, Targa "> </text></g><g id="Calque_3" data-name="Calque 3"><line y1="50.19" x2="50" y2="50.19" style="fill:none;stroke:#000;stroke-miterlimit:10"/><line x1="50" y1="50.19" x2="100" y2="50.19" style="fill:none;stroke:#000;stroke-miterlimit:10"/><line x1="100" y1="50.19" x2="150" y2="50.19" style="fill:none;stroke:#000;stroke-miterlimit:10"/><line x1="150" y1="50.19" x2="200" y2="50.19" style="fill:none;stroke:#000;stroke-miterlimit:10"/><line x1="200" y1="50.19" x2="250" y2="50.19" style="fill:none;stroke:#000;stroke-miterlimit:10"/><line x1="250" y1="50.19" x2="300" y2="50.19" style="fill:none;stroke:#000;stroke-miterlimit:10"/><line x1="300" y1="50.19" x2="350" y2="50.19" style="fill:none;stroke:#000;stroke-miterlimit:10"/><line x1="350" y1="50.19" x2="400" y2="50.19" style="fill:none;stroke:#000;stroke-miterlimit:10"/><line x1="400" y1="50.19" x2="450" y2="50.19" style="fill:none;stroke:#000;stroke-miterlimit:10"/><line x1="450" y1="50.19" x2="500" y2="50.19" style="fill:none;stroke:#000;stroke-miterlimit:10"/><line x1="500" y1="50.19" x2="550" y2="50.19" style="fill:none;stroke:#000;stroke-miterlimit:10"/><line x1="550" y1="50.19" x2="600" y2="50.19" style="fill:none;stroke:#000;stroke-miterlimit:10"/><line x1="600" y1="50.19" x2="650" y2="50.19" style="fill:none;stroke:#000;stroke-miterlimit:10"/><line x1="650" y1="50.19" x2="700" y2="50.19" style="fill:none;stroke:#000;stroke-miterlimit:10"/><line x1="700" y1="50.19" x2="750" y2="50.19" style="fill:none;stroke:#000;stroke-miterlimit:10"/><line x1="750" y1="50.19" x2="800" y2="50.19" style="fill:none;stroke:#000;stroke-miterlimit:10"/><line x1="800" y1="50.19" x2="850" y2="50.19" style="fill:none;stroke:#000;stroke-miterlimit:10"/><line x1="850" y1="50.19" x2="900" y2="50.19" style="fill:none;stroke:#000;stroke-miterlimit:10"/><line x1="900" y1="50.19" x2="950" y2="50.19" style="fill:none;stroke:#000;stroke-miterlimit:10"/><line x1="950" y1="50.19" x2="1000" y2="50.19" style="fill:none;stroke:#000;stroke-miterlimit:10"/><line x1="1000" y1="50.19" x2="1050" y2="50.19" style="fill:none;stroke:#000;stroke-miterlimit:10"/><line x1="1050" y1="50.19" x2="1100" y2="50.19" style="fill:none;stroke:#000;stroke-miterlimit:10"/><line x1="1100" y1="50.19" x2="1150" y2="50.19" style="fill:none;stroke:#000;stroke-miterlimit:10"/><line x1="1150" y1="50.19" x2="1200" y2="50.19" style="fill:none;stroke:#000;stroke-miterlimit:10"/><line x1="1200" y1="50.19" x2="1250" y2="50.19" style="fill:none;stroke:#000;stroke-miterlimit:10"/><line x1="1250" y1="50.19" x2="1300" y2="50.19" style="fill:none;stroke:#000;stroke-miterlimit:10"/><line x1="1300" y1="50.19" x2="1350" y2="50.19" style="fill:none;stroke:#000;stroke-miterlimit:10"/><line x1="1350" y1="50.19" x2="1400" y2="50.19" style="fill:none;stroke:#000;stroke-miterlimit:10"/><line x1="1400" y1="50.19" x2="1450" y2="50.19" style="fill:none;stroke:#000;stroke-miterlimit:10"/><line x1="1450" y1="50.19" x2="1500" y2="50.19" style="fill:none;stroke:#000;stroke-miterlimit:10"/><line x1="1500" y1="50.19" x2="1550" y2="50.19" style="fill:none;stroke:#000;stroke-miterlimit:10"/><line x1="1550" y1="50.19" x2="1600" y2="50.19" style="fill:none;stroke:#000;stroke-miterlimit:10"/><line x1="1600" y1="50.19" x2="1650" y2="50.19" style="fill:none;stroke:#000;stroke-miterlimit:10"/><line x1="1650" y1="50.19" x2="1700" y2="50.19" style="fill:none;stroke:#000;stroke-miterlimit:10"/><line x1="1700" y1="50.19" x2="1750" y2="50.19" style="fill:none;stroke:#000;stroke-miterlimit:10"/><line x1="1750" y1="50.19" x2="1800" y2="50.19" style="fill:none;stroke:#000;stroke-miterlimit:10"/><line x1="1800" y1="50.19" x2="1850" y2="50.19" style="fill:none;stroke:#000;stroke-miterlimit:10"/><line x1="1850" y1="50.19" x2="1900" y2="50.19" style="fill:none;stroke:#000;stroke-miterlimit:10"/><line x1="1900" y1="50.19" x2="1950" y2="50.19" style="fill:none;stroke:#000;stroke-miterlimit:10"/><line x1="1950" y1="50.19" x2="2000" y2="50.19" style="fill:none;stroke:#000;stroke-miterlimit:10"/><line x1="2000" y1="50.19" x2="2050" y2="50.19" style="fill:none;stroke:#000;stroke-miterlimit:10"/><line x1="2050" y1="50.19" x2="2100" y2="50.19" style="fill:none;stroke:#000;stroke-miterlimit:10"/><line x1="2100" y1="50.19" x2="2150" y2="50.19" style="fill:none;stroke:#000;stroke-miterlimit:10"/><line x1="2150" y1="50.19" x2="2200" y2="50.19" style="fill:none;stroke:#000;stroke-miterlimit:10"/><line x1="2200" y1="50.19" x2="2250" y2="50.19" style="fill:none;stroke:#000;stroke-miterlimit:10"/><line x1="2250" y1="50.19" x2="2300" y2="50.19" style="fill:none;stroke:#000;stroke-miterlimit:10"/><line x1="2300" y1="50.19" x2="2350" y2="50.19" style="fill:none;stroke:#000;stroke-miterlimit:10"/><line x1="2350" y1="50.19" x2="2400" y2="50.19" style="fill:none;stroke:#000;stroke-miterlimit:10"/><line x1="2400" y1="50.19" x2="2450" y2="50.19" style="fill:none;stroke:#000;stroke-miterlimit:10"/><line x1="2450" y1="50.19" x2="2500" y2="50.19" style="fill:none;stroke:#000;stroke-miterlimit:10"/><line x1="2500" y1="50.19" x2="2550" y2="50.19" style="fill:none;stroke:#000;stroke-miterlimit:10"/><line x1="2550" y1="50.19" x2="2600" y2="50.19" style="fill:none;stroke:#000;stroke-miterlimit:10"/><line x1="2600" y1="50.19" x2="2650" y2="50.19" style="fill:none;stroke:#000;stroke-miterlimit:10"/><line x1="2650" y1="50.19" x2="2700" y2="50.19" style="fill:none;stroke:#000;stroke-miterlimit:10"/><line x1="2700" y1="50.19" x2="2750" y2="50.19" style="fill:none;stroke:#000;stroke-miterlimit:10"/><line x1="2750" y1="50.19" x2="2800" y2="50.19" style="fill:none;stroke:#000;stroke-miterlimit:10"/></g></svg>