<svg xmlns="http://www.w3.org/2000/svg" viewBox="0 0 128 128"><title>icon_NJOY</title><g id="N_JOY" data-name="N&apos;JOY"><path d="M64,11.88A52.12,52.12,0,1,0,116.12,64,52.18,52.18,0,0,0,64,11.88Zm0,96.42A44.3,44.3,0,1,1,108.3,64,44.3,44.3,0,0,1,64,108.3Z" style="fill:#fff04b"/><path d="M84.5,65.51a11,11,0,0,0,1-4.5,10.76,10.76,0,0,0-20.27-5.1A10.75,10.75,0,0,0,45,61a11.26,11.26,0,0,0,1,4.61C48.3,71.36,58.62,79.25,61,81.23l3.11,2.42a1.84,1.84,0,0,0,2.33-.05l2.78-2.37C73.79,77.47,82.59,70.64,84.5,65.51Z" style="fill:#fff04b"/><path d="M93.61,40.92l-5.39-2,.32-5.74a.72.72,0,0,0-1.28-.48L83.7,37.21l-5.36-2.08a.71.71,0,0,0-.81.22.71.71,0,0,0,0,.84L80.68,41,77,45.43a.72.72,0,0,0,0,.84.71.71,0,0,0,.79.3L83.32,45l3.12,4.84a.7.7,0,0,0,.6.33l.19,0a.71.71,0,0,0,.52-.66L88,43.75l5.56-1.47a.71.71,0,0,0,.53-.66A.7.7,0,0,0,93.61,40.92Z" style="fill:#fff04b"/><path d="M80.78,82.63a18.94,18.94,0,0,1-33.56,0H40.8a24.81,24.81,0,0,0,46.4,0Z" style="fill:#fff04b"/></g></svg>