<svg xmlns="http://www.w3.org/2000/svg" viewBox="0 0 128 128"><title>plane</title><g id="Mode_Isolation" data-name="Mode Isolation"><path d="M32.61,93.65l-.56.91A1.07,1.07,0,0,0,33.54,96l.77-.5,7.48,16.42a1.22,1.22,0,0,0,2,.36l1.56-1.57a1.26,1.26,0,0,0,.36-1L44.15,89.21,47,87.39a45.38,45.38,0,0,0,7.54-6.07L70.77,65.08l3.34,3.34a39.17,39.17,0,0,1,7.94,11.43l13.64,29.82a1.21,1.21,0,0,0,1.94.34l.83-.83a3.1,3.1,0,0,0,.84-2.78L90.78,63.82l1-.22a9.7,9.7,0,0,0,5.38-3.19l2.42-2.8L95.3,53.28,89.78,58.8,87.66,48.19l18.12-18.12a19.09,19.09,0,0,0,3.29-4.44l3.45-6.44a2.61,2.61,0,0,0-3.42-3.58l-6.44,3.06a19.23,19.23,0,0,0-5.24,3.7L79.63,40.16,69,38l5.52-5.52L70.21,28.2l-2.8,2.41A9.76,9.76,0,0,0,64.22,36L64,37,21.42,28.52a3.12,3.12,0,0,0-2.79.84l-.83.83a1.21,1.21,0,0,0,.35,1.94L48,45.77A39.08,39.08,0,0,1,59.4,53.71l3.34,3.34-16,16a45.83,45.83,0,0,0-6.49,8.2l-1.52,2.47L18,82.13a1.18,1.18,0,0,0-.95.36l-1.57,1.56a1.23,1.23,0,0,0,.36,2Z" style="fill:#fff203"/><polygon points="77.08 76.81 55.07 96.36 75.44 73.93 77.08 76.81" style="fill:#fff203"/><polygon points="51.57 51.3 32.02 73.31 54.45 52.95 51.57 51.3" style="fill:#fff203"/></g></svg>