<svg xmlns="http://www.w3.org/2000/svg" viewBox="0 0 128 128"><title>plane</title><g id="Mode_Isolation" data-name="Mode Isolation"><path d="M28.05,69.13a.16.16,0,0,1,0-.25c.77-.71,1.45-1.37,2.19-2a1,1,0,0,1,.8-.15c3.78.93,7.54,1.89,11.31,2.83a1.4,1.4,0,0,0,.93-.07c4.08-2.27,8.14-4.58,12.2-6.88h0a.16.16,0,0,0,0-.29l-27-6.8a.16.16,0,0,1-.06-.28c1.42-1.14,2.75-2.21,4.1-3.26a1.28,1.28,0,0,1,.74-.14q15,.12,30.08.27c3.33,0,6.65.07,10,.08a2.51,2.51,0,0,0,1.19-.33c5.41-3,10.8-6.09,16.21-9.12A5.41,5.41,0,1,1,96,52.18c-4.27,2.45-8.57,4.85-12.86,7.28Q64.88,69.78,46.62,80.1a.9.9,0,0,1-1.07,0Q37,74.74,28.42,69.38l-.37-.25" style="fill:#fff04b"/><rect x="17" y="13" width="96" height="96" rx="8.26" ry="8.26" style="fill:none;stroke:#fff04b;stroke-miterlimit:10;stroke-width:4px"/></g></svg>