<svg xmlns="http://www.w3.org/2000/svg" viewBox="0 0 128 128"><title>plane_1</title><g id="Mode_Isolation" data-name="Mode Isolation"><path d="M11.76,62.9l-1,.24a1.07,1.07,0,0,0,0,2.09l.9.2L5.32,82.32A1.22,1.22,0,0,0,6.47,84H8.68a1.21,1.21,0,0,0,.92-.42L23.06,67.92l3.29.72a45.15,45.15,0,0,0,9.63,1h23V74.4a39.28,39.28,0,0,1-2.46,13.7L45,118.83a1.2,1.2,0,0,0,1.12,1.61h1.17a3.08,3.08,0,0,0,2.57-1.37L74,82.94l.88.57a9.79,9.79,0,0,0,6.07,1.56l3.69-.28V78.68h-7.8l6-9h25.62a19.06,19.06,0,0,0,5.47-.81l7-2.12a2.61,2.61,0,0,0,.12-5l-6.72-2.39A18.88,18.88,0,0,0,108,58.32H82.83l-6-9h7.8V43.21l-3.69-.28a9.79,9.79,0,0,0-6.07,1.56l-.88.57L49.9,8.93a3.08,3.08,0,0,0-2.57-1.37H46.16A1.2,1.2,0,0,0,45,9.17L56.48,39.9a39.28,39.28,0,0,1,2.46,13.7v4.72H36.37A44.83,44.83,0,0,0,26,59.54l-2.83.66L9.6,44.45A1.21,1.21,0,0,0,8.68,44H6.47a1.22,1.22,0,0,0-1.15,1.65Z" style="fill:#fff04b"/><polygon points="55.11 82.44 25.72 80.69 55.98 79.24 55.11 82.44" style="fill:#fff04b"/><polygon points="55.11 46.36 25.72 48.1 55.98 49.56 55.11 46.36" style="fill:#fff04b"/></g></svg>