<svg xmlns="http://www.w3.org/2000/svg" viewBox="0 0 1920 1080"><defs><style>.cls-1{fill:#211845;}.cls-2{fill:#fde100;}.cls-3{fill:#e51794;}.cls-4{fill:#430096;}.cls-5{fill:#231d33;}.cls-6{fill:#fff;}</style></defs><title>Plan de travail 1</title><g id="Calque_1" data-name="Calque 1"><rect class="cls-1" width="1920" height="1080"/></g><g id="Calque_11" data-name="Calque 11"><path class="cls-2" d="M1545.17,241.09c6.74-10.42,14.13-29,.42-37.2a2.57,2.57,0,0,0-3.42.9,392.84,392.84,0,0,1-92.37,87.13c-8.54,5.76-17.3,11.22-26.3,16.24-5.07,2.83-14.84,7.64-17.71-.5-1.5-4.25.42-9.54,2.14-13.44,4.56-10.34,11.34-20.06,17-29.83l18.58-32a2.53,2.53,0,0,0-2.16-3.76,99.91,99.91,0,0,0-41.29,6.87c-3.19,1.28-4.86,2.27-8.3,1.48-3.11-.71-6.13-1.66-9.27-2.27a101.94,101.94,0,0,0-17.74-1.82,103.1,103.1,0,0,0-23.1,2.3c-4.91-2-9.95-5.48-11.52-10.79-1.72-5.83,2.09-11.13,5.62-15.4,7.6-9.19,15.57-18.16,23.81-26.78,8.53-8.92,17.73-16.62,27.27-24.4,3.38-2.76,6.06-6.47,5.22-11a8.07,8.07,0,0,0-8.86-6.85c-10,.59-20.44,7-29,11.64-9.71,5.26-19.57,11-30.67,12.67-11.44,1.72-22.74.56-34,3.74-23.61,6.65-43.13,22.71-66.3,30.4-35.48-4.42-67.35,17.44-95.83,35.78q-6.9,4.44-13.72,9c-19.38,6.29-38.89,12.18-58.44,17.86-56.93,16.52-114.37,31.31-170.91,49.19-55.63,17.59-110.48,38.31-161.87,66.13-27.24,14.74-53.58,31.16-81.52,44.6-28.82,13.86-59.57,21.58-89.42,32.7A299.08,299.08,0,0,0,422.4,547.14q-1.28,1.61-2.54,3.25Q393.32,567.7,368,586.87,338.46,609.28,310.8,634c-1.82,1.63.09,5,2.43,4.18q55.64-19.95,111.9-38.1c1.73,19.29-28.36,27-34,43.85-3,8.93,2.51,20.86,11.25,22.92L319.94,746c-1.76,1.69,0,5,2.43,4.18,44.68-14.55,82.12-44.67,126.26-60.35A138.83,138.83,0,0,1,482.21,682c8.22-.76,34.52-3.33,35.51,8.41.52,6.21-4.69,12.65-8.66,16.81-4.9,5.13-10.29,9.88-15.41,14.78L460.9,753.33l-73.45,70.2a2.51,2.51,0,0,0,0,3.54c26.66,22.15,62.66-11.62,84.24-25.94A706.54,706.54,0,0,1,573.57,745q29.78-13.32,60.71-23.79a68,68,0,0,1-11.19,36.34,2.52,2.52,0,0,0,1.49,3.67c10.47,2.77,19.93-3.07,29.15-7.21,4.85-2.18,11-4.91,16.29-2.42,8.57,4.06,5.77,14,2.27,20.49-6.8,12.65-18.79,22.38-27.4,33.81a213,213,0,0,0-13.14,19.62c-3.47,5.85-8.29,13-7,20.18,2,10.85,13.6,10.8,21.85,7.48,11.64-4.68,20.49-14,32.39-18.55,13.11-5,28.47-6,38.56,5.33,3.59,4,6.57,8.87,12,10.6,5,1.61,10-.14,14-3.32,5.3-4.21,8.74-10.17,12.28-15.8a124.65,124.65,0,0,1,16.31-20.72A126.19,126.19,0,0,1,810.52,784L794.34,822c-1,2.45,1.75,5.19,3.93,3,83.66-82.73,190.5-135.33,296.73-182.82,104.45-46.69,211.69-90.15,305.35-157a620.9,620.9,0,0,0,72.45-60q17-16.53,32.42-34.55c7.59-8.89,19.25-21.49,11.89-33.75a2.53,2.53,0,0,0-3.93-.51c-26.76,28.08-55.6,57.72-93.61,69.11l82.91-121.72C1516.7,282.91,1531.45,262.3,1545.17,241.09Z"/><path class="cls-2" d="M1572.83,162.61c-8.89,0-17.41,7.82-17,17s7.47,17,17,17c8.89,0,17.41-7.82,17-17S1582.36,162.61,1572.83,162.61Z"/><path class="cls-2" d="M290.41,758.22c-5.79,0-5.8,9,0,9S296.22,758.22,290.41,758.22Z"/><path class="cls-2" d="M265.51,766.52c-5.79,0-5.8,9,0,9S271.31,766.52,265.51,766.52Z"/><path class="cls-2" d="M1546.26,339.46a7.19,7.19,0,0,0-7-7l-.61,0a6.76,6.76,0,0,0-4.61.85,6.91,6.91,0,0,0-3.22,4.18,7.77,7.77,0,0,0,0,4,7.59,7.59,0,0,0,1.94,3.32,8.06,8.06,0,0,0,3.32,2,7.33,7.33,0,0,0,2.27.35,7.66,7.66,0,0,0,2.25-.28,8.07,8.07,0,0,0,2.68-1.38,6,6,0,0,0,2-2.19A7.29,7.29,0,0,0,1546.26,339.46Z"/><path class="cls-2" d="M794.66,832.49c-9,0-9,14,0,14S803.69,832.49,794.66,832.49Z"/></g><g id="N_JOY" data-name="N&apos;JOY"><path class="cls-3" d="M1360,553.89c-11-22.2-51.68-68.93-14.29-50S1393,542.69,1415,537.19,1247.76,375.57,997.69,348.08c0,0-46-1.1-44.13-18.69s114,22,148.08,22,84.66,14,109.95,28.42,147.33,91.42,155,81.53c3.2-4.11-31.73-26.24-77.75-50.86-40.35-27.12-82-52.67-128.23-68.37-30.2-10.26-61.65-14.69-93.15-18.83l-7.37-1a6.38,6.38,0,0,1,3.43-3.31c4.07-1.8,9.12-1.77,13.46-2.22l33.09-3.43c2.69-.28,5-2.1,5-5,0-2.58-2.29-5.17-5-5-51.22,3.11-101.56-9.22-152.56-11.07a288.53,288.53,0,0,0-43.07,1.4q9-3.63,17.77-7.86A271,271,0,0,0,967,265.66a5.13,5.13,0,0,0,1.8-6.85c-1.29-2.21-4.61-3.33-6.85-1.8a268.1,268.1,0,0,1-61.74,31.39,271.87,271.87,0,0,1-68,14.72,271,271,0,0,1-39.46.38c-2.7-.17-5,2.42-5,5a5.1,5.1,0,0,0,5,5,277.06,277.06,0,0,0,63-3.32l-1.82.91c-4.91,2.49-9.69,5.22-14.42,8a4.64,4.64,0,0,0-5,0A115.64,115.64,0,0,1,810,332.92c-8.85,3.59-18.31,6.25-27.94,5.39-9.24-.83-17.18-7.53-26.69-6.43a16.18,16.18,0,0,0-12,7.08c-1,1.44-1.77,3-2.77,4.46a3,3,0,0,1-2.59,1.51c-1.45-.07-3.33-1.1-4.91-2.17-1.8-1.22-3.36-2.76-5.07-4.1-4.62-3.62-9.93-6.33-15.93-4.76a4.47,4.47,0,0,0-3.5,3.81,29.71,29.71,0,0,0-6.51,5.82c-3.57,4.18-6.19,9-10.46,12.47a10.34,10.34,0,0,1-6.37,2.57l-.49,0-.58-.12c-.24-.07-1.57-.55-.91-.25a6.21,6.21,0,0,1-2.43-1.63,18.49,18.49,0,0,1-3.94-5.71,46.21,46.21,0,0,1-2.7-7c-1.08-3.41-5.73-5.13-8.37-2.21a53.83,53.83,0,0,1-33.2,17.48c-2.69.31-5,2.08-5,5a5.42,5.42,0,0,0,3.29,4.78,4.52,4.52,0,0,0,4.6,3.36c13.36-.12,26.79-.25,40.21-.66a20.62,20.62,0,0,1,5.87,4.17c1.59,1.61,3.46,3.65,4,6.34.34,1.81-3.11,3.88-4.76,5.14q-2.05,1.57-4.21,3c-44.48,12.35-83.59,19.13-102.34,19.94-38.92,1.68-74.39,5-72,17.07s65,14.29,89.2,1.1,48.81-4,19.79,13.57c0,0-75.51,41.45-94.93,75.51s-29.31,50.25-65.6,83.94-41.78,33.19-33,42.23,51.68-43.79,62.67-38.81S495.83,643.7,476,663,431,706.52,431,724.66s-1.1,36.83-12.09,50-18.34,22-4.77,20.89,24.56-34.08,43.26-45.08,88.84-71.47,117-77,76.52-15.78,58.93,22.9S531,767.17,533.21,795.66s150.8-129.83,193-117.74,42.25,17.59,18.06,36.28-38.48,27.49-34.08,44S686,797.77,697,804.37s46.7-9.9,65.13-31.88,87.7-89.58,139.37-64.58-19.1,17.3-37.59,27.2-19.59,41.78,6.8,30.79c7.66-3.19,18.75-9,31.6-14.88.31,2.78,2.67,5.38,6.15,4.39q15.92-4.5,32.2-7.52a5.2,5.2,0,0,0-.13,2.94c.78,2.85,3.48,3.91,6.16,3.5a60.88,60.88,0,0,1,15.48-.16,62.69,62.69,0,0,1,12.23,2.9,30.23,30.23,0,0,1,1.57-9.92,71.51,71.51,0,0,0-12.36-2.72q2.7-.31,5.4-.58c2.83-.28,5.68-.53,8.52-.67,4.06-8.89,11.48-16.86,18.91-23-1.65-1.52-2.54-2.81-2.44-3.78,1-8.8,2.06-40.11,79-8.51s89.71,4.11,115.22,12.91,98.8,52.77,100.64,42.88-60.19-35.57-100.64-67.26-50.35-66.21-18.47-62.14,61.57,87.1,107.75,73.62,91.26,14,107.75,34.9,64.87,49.48,63.77,22-82.46-59.37-91.26-82.46-20.89-101.21,19.79-77.54,51.71,53.36,71.48,47.86,38.46,26.39,50.56,20.89S1371,576.09,1360,553.89ZM1055.86,312a15.08,15.08,0,0,0-1.26,1.06l-.61-1.23ZM1039,310.3c-.78.17-1.56.31-2.34.44l-1.23-.84ZM921,303q4.69-.42,9.41-.66l-4.73.72Q923.38,302.95,921,303Zm52.57,430.42a350.38,350.38,0,0,0-43.37,6.34l-.76.16c18.09-6.25,37.21-10.15,54.11-6.82A94.45,94.45,0,0,0,973.62,733.41Z"/><path class="cls-3" d="M1063.28,761.79a24.93,24.93,0,0,1-2.29,9.71,8.61,8.61,0,0,0,5.47-3.42C1067.56,766.62,1066.23,764.44,1063.28,761.79Z"/><path class="cls-3" d="M482.55,422.85c-1-3.32-4.14-4.36-7.17-5.05a33,33,0,0,0-16.53.47c-5.19,1.5-4.16,8.56,0,9.71a12.27,12.27,0,0,0,8.09,4.67c4.55.75,9.83.62,13.42-2.68A7,7,0,0,0,482.55,422.85Z"/><path class="cls-3" d="M435.35,419.78a13.05,13.05,0,0,0-8.37-5.6,5.46,5.46,0,0,0-3.86.5,5.1,5.1,0,0,0-2.3,3c-.55,2.4.73,5.72,3.5,6.16.43.07.84.18,1.27.28h0l.38.21.32.21c.28.33,1.16,1.38.37.29,1.53,2.12,4.42,3.36,6.85,1.8C435.65,425.28,437,422,435.35,419.78Z"/><path class="cls-3" d="M681.84,762.61a62.84,62.84,0,0,0-18,7.73c-5.31,3.37-12,8.08-11.88,15.14s6.25,12.09,12.77,13.17,15.17,1.57,18.88-5,4.34-15,2.82-22.31C690,768.45,687.32,761.21,681.84,762.61Z"/><path class="cls-3" d="M637.33,802.42c-3.41-1.22-7.2-1.92-10.56-.24-2.44-2.17-7.16-2-8.42,2.12-2.07,6.74-2.13,16.26,6,18.86,4,1.29,8.52-.32,11.46-3.19s4.21-7.31,5-11.39A5.17,5.17,0,0,0,637.33,802.42Z"/><path class="cls-3" d="M1322.34,780.06a18,18,0,0,0-19.34-8.65c-2.65.53-4.18,3.68-3.5,6.16a4.8,4.8,0,0,0,3.43,3.4,4,4,0,0,0,1.2,1.82,18.89,18.89,0,0,0,13.9,4.8C1321.78,787.27,1324.28,783.58,1322.34,780.06Z"/><path class="cls-3" d="M1347.37,792.77a11.13,11.13,0,0,0-2.39-1,5,5,0,0,0-6.12-.84,5.11,5.11,0,0,0-1.8,6.85,6.8,6.8,0,0,0,2.28,2.39,4.2,4.2,0,0,0,1.36,2.61,6.11,6.11,0,0,0,3.91,1.64,5.58,5.58,0,0,0,3.85-1.57,6.56,6.56,0,0,0,1.85-4.67A6.34,6.34,0,0,0,1347.37,792.77Z"/><path class="cls-3" d="M1436.79,540.73a9.52,9.52,0,0,0-7.17,1.2c-3.49,2.29-3.14,7.51-.31,10.21a5,5,0,0,0,4.85,3.93l5.79-.08c2.92,0,4.72-2.27,5-5C1445.46,546.17,1441.34,541.64,1436.79,540.73Z"/><path class="cls-3" d="M1468.78,554.71c-6.44,0-6.45,10,0,10S1475.24,554.71,1468.78,554.71Z"/><path class="cls-3" d="M607.89,362.16a8.51,8.51,0,0,0-5.59-5.6c-2.55-.86-6-.24-7.69,2a5.48,5.48,0,0,0-1.47,3.54,5.22,5.22,0,0,0,.36,1.84,7.79,7.79,0,0,0-.45,5.56,5.16,5.16,0,0,0,4.83,3.68C603.62,373.48,609.56,368.17,607.89,362.16Z"/><path class="cls-3" d="M915.8,707.47c-2.57-2.19-7.66-1.82-8.36,2.19l-2.93-4.85a5,5,0,0,0-6.42-1.91c-.3-.28-.6-.55-.91-.81a5.14,5.14,0,0,0-7.08,0,4.58,4.58,0,0,0-1.4,3.68L876.31,690.7c-1.56-1.9-4.79-1.81-6.57-.39a5,5,0,0,0-1.29,6.46q1.05,1.79,2,3.62c-1.63-1.19-3.3-2.31-5-3.35a5,5,0,0,0-6.46,1.29c-1.6,2.14-1.21,4.57.39,6.57,1.39,1.73,2.78,3.47,4.16,5.23a152.52,152.52,0,0,0-16.83-12c-5-3.06-9.8,3.75-6.07,7.86l11.51,12.7c-9.29-2-19-1.09-28.39,1.15a102.16,102.16,0,0,0-71.49,64.46c-2,5.48,6.27,8.55,9.15,3.86a152.46,152.46,0,0,1,36.23-40.6c12.88-10,30.19-19.4,46.9-16.61,4.3.72,8.57,2.27,11.45,5.69a10,10,0,0,1,2.11,9.6,5,5,0,1,0,9.65,2.66,18.15,18.15,0,0,0-.17-11.55,146.51,146.51,0,0,1,14.11,13.94,5.07,5.07,0,0,0,7.08,0,4.83,4.83,0,0,0,1.2-2,5.06,5.06,0,0,0,3.45-6.11,75.62,75.62,0,0,0-4.93-13.06,4.86,4.86,0,0,0,2.36-5.52l-.21-.76,3.79,4.61c2.37,2.89,7.6,1.26,8.37-2.21a29.32,29.32,0,0,0,.6-3.9l2.14,3.55a4.77,4.77,0,0,0-.34,1.71c0,3,2.31,4.69,5,5l6.53.76c2.3.27,4.11-1.77,4.83-3.68A20.62,20.62,0,0,0,915.8,707.47Z"/></g><g id="Calque_9" data-name="Calque 9"><path class="cls-3" d="M1257.33,285.19c-8.86-7.84-20.11-2.68-28.08,3.55a29.94,29.94,0,0,1-5.81,4,4.55,4.55,0,0,1-2.73.32,6.88,6.88,0,0,1,.33-.69c1.55-2.51,3.25-4.94,5-7.33,6.53-9,14.34-16.73,22.56-24.18,8-7.29,13.4-17.41,7.86-27.91a7.57,7.57,0,0,0-10.26-2.69A317.92,317.92,0,0,0,1217.52,251c-5.56,4.51-15.29,16.19-23.63,13-2.35-.89-4-3-6.41-3.83a12.69,12.69,0,0,0-6.78-.58c-5.05,1-9,4.57-14.18,5.25-11,1.44-16.5-7-25.68-10.67-11.29-4.47-19.11,3.28-26.83,10.33-8.2,7.48-17.47,13.64-27,19.22-4.57,2.66-9.22,5.2-13.91,7.64-3.85,2-8.29,4.47-12.76,4.44-3.26,0-4.9-1.85-4.78-5.18.17-4.7,3.89-8.42,7.08-11.48,9.59-9.2,19.84-17.79,29.75-26.64,9-8.06,23.58-16.83,20.9-30.76-.82-4.26-5.5-5.87-9.23-5.24-15,2.54-26.09,13.59-37.45,22.8a289.06,289.06,0,0,1-37.92,26,228,228,0,0,1-58.71,24,6.43,6.43,0,0,0-6,.89l-1.06.71a183,183,0,0,1-19.41,3c-4,.39-7.5,3.17-7.5,7.5a7.89,7.89,0,0,0,5.91,7.42,37.5,37.5,0,0,0-8.53,19.69c-2.12,19.69,13,34.93,28.2,44.77,16.84,10.93,35.88,21.19,55.19,27,10.06,3,20,2.89,30.34,1.48,10.11-1.38,20.14-2.69,30.34-3.38,20.67-1.4,41.64-1.85,61.83-7,19.47-5,37-15,53.5-26.13,17.93-12.06,35.13-25.16,52.2-38.39,7.15-5.54,14.93-11.31,17.77-20.34C1265.06,299.23,1263.23,290.41,1257.33,285.19Z"/><path class="cls-3" d="M1141.9,180c-5.29-3.25-12.22-1.51-15.89,3a7.74,7.74,0,0,0-2.19,1.61c-5.72,5.94-5.31,15.83,1.81,20.53,6.85,4.53,15.19,1.64,19.44-4.89S1149.09,184.38,1141.9,180Z"/><path class="cls-3" d="M1168.05,161.58a5.62,5.62,0,0,0-1.55-2.41,7.55,7.55,0,0,0-5.3-2.2,7.82,7.82,0,0,0-5.3,2.2l-1.6,1.6a7.74,7.74,0,0,0-2.2,5.3,8.34,8.34,0,0,0,2.2,5.3,7.55,7.55,0,0,0,5.3,2.2,7.82,7.82,0,0,0,5.3-2.2l1.6-1.6a7.74,7.74,0,0,0,2.2-5.3A5.65,5.65,0,0,0,1168.05,161.58Z"/></g><g id="Calque_5" data-name="Calque 5"><path class="cls-4" d="M979.21,549.71h0Z"/><path class="cls-4" d="M414,827.39c-8.37,0-16.39,7.36-16,16s7,16,16,16c8.37,0,16.39-7.36,16-16S423,827.39,414,827.39Z"/><path class="cls-4" d="M1496.87,247.92c-8.37,0-16.39,7.36-16,16s7,16,16,16c8.37,0,16.39-7.36,16-16S1505.84,247.92,1496.87,247.92Z"/><path class="cls-4" d="M1472.17,278.41c-27.78,2-45.54,30.07-69.77,43.86-12,6.84-31.65-4.64-42.5,3.84-5.51,4.3-13.71,9.18-20.8,8.12L1474.88,232.5c6.92-5.18,2.81-15-5.78-13.71-35.4,5.47-65.2,26.8-94.5,45.91-14.37,9.37-29.06,18.69-44.95,25.32a124.06,124.06,0,0,1-24.26,7.38c-9.62,1.85-19.35,1.53-29.09,2-11.85.57-22.85,3-32.75,9.76-4.88,3.35-10.91,9.35-17.26,11.46a22.82,22.82,0,0,0-7.29-17.26c-1.81-1.67-4.83-2.94-7.3-1.93l-90.55,37-44.8,18.29c-3.83,1.56-7.65,3.13-11.49,4.67a563.66,563.66,0,0,1,82.43-59.88A7.65,7.65,0,0,0,1150,291.2c-5.13-9.51-15.58-8.84-24.21-4.93-9.39,4.25-16.56,11-26.84,13.4-11.25,2.67-22.94,2.71-34.28,4.92-11.91,2.32-23.25,7.18-33.92,12.84-21.88,11.6-42.33,25.64-64.38,37q-21.94,11.3-44.79,20.65a253.58,253.58,0,0,0-61.81,1.1l-11.12,0a28.85,28.85,0,0,1,6.68-5.76c5.52-3.73,11.51-6.73,17.11-10.35,12.17-7.87,23.3-17.36,30.69-30,3.67-6.28-3.83-14.43-10.26-10.26q-35.59,23.08-72.73,43.64C808.28,370,796.3,376.3,783.9,381.71c-6.15,2.68-12.43,5.07-18.81,7.14-2.44.79-4.89,1.51-7.35,2.2l.35-.43,6.1-7.9c4.18-5.41-2.7-12.61-8.47-11C742,375.5,729.41,382,717,388.82s-24.95,13.79-37.38,20.75Q641.38,431,603.45,453q-75.85,44-150.36,90.2c-24.67,15.31-53.58,29.53-70.32,54.17-4.27,6.28,4.07,14.08,10.26,10.26q32.16-19.87,64.33-39.74C477,555.79,496.8,543.93,517.6,534c20.44-9.77,42.18-17.71,64.65-21.2,3.87-.6,9.42-1.6,12.72,1.17a3.53,3.53,0,0,1,1.34,3.79c-21.32,17-41.6,35.74-54.35,60.2-3.17,6.08,3.74,15,10.26,10.26a216,216,0,0,1,52.88-28.1q-22.76,24.43-47.62,46.79-17.79,16-36.58,30.78c-11,8.66-22.7,16.59-32.83,26.29-11,10.53-19.05,23-20.79,38.36-.55,4.84,5.23,8.55,9.49,7.23,27.42-8.47,48-28.81,72.82-42.23,13.31-7.2,26.87-10.26,42-10.27,8.6,0,17.25.43,25.83.16q-68.66,62.95-142.42,120-23.67,18.28-47.83,35.9c-4.49,3.28-5.15,9.8,0,13,31.59,19.37,66-8.61,90.07-27.42q45.72-35.72,94-68,48.63-32.52,99.54-61.44c7.66-4.35,15.5-9.73,24.13-11.88,8.94-2.22,18.07,2,27,2.88,18.08,1.8,33.22-9.47,47.41-19,57.09-38.28,126.14-70,196.53-62.08,18.19,2,34.83,8.11,52.05,13.89,8.84,3,18.12,5.34,27.5,5.28,9.73-.06,19.14-2.83,28.12-6.34,36.45-14.24,72.68-29.64,108.48-45.44,33.84-14.93,67.16-31.54,97.42-53a352.93,352.93,0,0,0,76.85-74.18q8.08-10.59,15.31-21.77c4.13-6.36-4-14.05-10.26-10.26a106.65,106.65,0,0,1-36.78,13.85l1.14-1.48c2.77-3.6,0-10.33-4.48-11l-5.47-.84c9.61-22.87,34.23-36.2,55.65-46.7,25.48-12.49,52.89-25.64,67.25-51.52C1481.24,285,1478.06,278,1472.17,278.41Z"/><path class="cls-3" d="M1268.13,345.63c-2.79-10.72-14.07-15.28-24.25-13.74a38.71,38.71,0,0,0-10.26,3.1,31.51,31.51,0,0,0-14.42,7.51c-7.27,5-10.6,13.63-10.78,22.35-.25,12.09,10.84,16.29,21.25,17.1a37.22,37.22,0,0,0,27.78-9.86C1264.19,365.9,1270.59,355.07,1268.13,345.63Z"/><path class="cls-3" d="M1188,378.66a10.64,10.64,0,0,0-7.42,1l0,0a6,6,0,0,0-1.58.71,8.38,8.38,0,0,0-3.45,4.48c-1.61,4.51-.51,9.93,3.84,12.49a10,10,0,0,0,13.6-4.15,15.06,15.06,0,0,0,1.5-6.35A8.11,8.11,0,0,0,1188,378.66Z"/></g><g id="Calque_7" data-name="Calque 7"><path class="cls-5" d="M686.48,653.7c-15.94,0-32.21-5.55-47.58-16.5a95.09,95.09,0,0,1-31.1-37.12,113.14,113.14,0,0,1-10.44-42.22c-1.47-25.39,4.78-52.71,15.93-69.62C622,475,636.46,465.84,653,463a68.48,68.48,0,0,1,52.64,13.09,20,20,0,1,1-24.15,32,28.31,28.31,0,0,0-21.7-5.57c-5.66,1-10.42,3.82-13,7.81-5.48,8.32-10.47,26.53-9.38,45.26.87,14.94,5.87,25.58,24.77,39,13,9.22,25.11,11.41,36.14,6.51,11.26-5,19-16.65,20-25a20,20,0,0,1,22.22-17.55c11,1.29,18.84,21.24,17.55,32.22-1.31,11.18-6.18,22.88-13.7,32.95a75.88,75.88,0,0,1-29.83,24A68.68,68.68,0,0,1,686.48,653.7Z"/><path class="cls-5" d="M750.23,634.35a20,20,0,0,1-20-19l-8-152.83a20,20,0,0,1,5-14.26,182.37,182.37,0,0,1,22.56-21c19.36-15.11,37.62-22.43,54.25-21.77,15.31.61,28.59,7.89,38.42,21.05,9.05,12.13,12.57,26.11,10.18,40.43-3.51,21-8.08,32.76-38.25,56.55l68.16,60.69a20,20,0,0,1-21.94,33.5l-93.31-61.1,3,56.6a20,20,0,0,1-19,21Zm12.5-165.21,2.2,42.28C778.2,502,830,468,810.37,450.57c-6-5.3-20-4.07-35.93,8.33A144.86,144.86,0,0,0,762.73,469.15Z"/><path class="cls-5" d="M871.55,621.06a20,20,0,0,1-20-19.15,822.84,822.84,0,0,1,2.07-94.06c6.14-72.49,22.13-111.34,50.31-122.26,19.84-7.68,39-4.93,53.82,7.76,19.61,16.73,31.34,50.38,34.88,100,2.55,35.75.34,76.78-5.63,104.53a20,20,0,1,1-39.15-8.42c4.29-20,7.45-56.54,4.83-93.26-3.84-53.88-19.34-87.05-34.28-73.27-18,16.65-22.68,62.48-24.87,88.29a794,794,0,0,0-2,88.93A20,20,0,0,1,872.44,621Z"/><path class="cls-5" d="M1091.28,611.38q-.91,0-1.83-.08L987.35,602a20,20,0,0,1-12.91-33.52l102.08-110.6c-30.52-4.72-73.93-22.39-73.93-22.39-8.91-4.07-18.08-12.43-16.08-23.31a20,20,0,0,1,23.31-16.08s82.6,29.9,116.64,21.42,13.07,6.44,15.38,13.36a20,20,0,0,1-4.28,19.92L1040.5,556l52.57,15.41c14.54,3.39,19.13,10.74,18.14,21.75A20,20,0,0,1,1091.28,611.38Z"/><path class="cls-5" d="M1280.42,465.3a20,20,0,0,0-28.17-2.89l-56.4,47.77c4-19.32-6.72-64.52-6.72-64.52-3.23-13.38-9.5-19.76-20.56-19.48a20,20,0,0,0-19.48,20.56s11.46,71.54,2.62,97.52L1091,593.66a20,20,0,1,0,25.28,31.06l161.23-131.25A20,20,0,0,0,1280.42,465.3Z"/><path class="cls-5" d="M873.25,533.43a20,20,0,0,1-1.31-40L968.68,487a20,20,0,1,1,2.66,40l-96.73,6.44C874.15,533.41,873.7,533.43,873.25,533.43Z"/><path class="cls-5" d="M610.91,490.94s-28.84,37.75-49,56.42S509.39,585.2,529.56,582s56.53-38.83,54.89-17.54-18,32.92-27.52,40.34c-19.73,15.46-11.14,26.5-19.52,33.92-15.71,13.91-36,30.42-27.89,40.34,8.88,10.87,42.56-19.14,57.65-37.35S606.2,609.9,633,633Z"/><circle class="cls-5" cx="505.31" cy="589.35" r="7.03"/><path class="cls-5" d="M1153.27,594.48s22.57-17.2,39.08-1.25,32.86,4.37,47.92,18.16,27.28,22.87,34.31,16.18-49.72-55.14-49.72-55.14-13.09-18,2.09-25.32,27.47,10.75,39.47,12.55,25.9,29.69,33.48,26.27-16-31.47-30.1-47.54-15.75-25.12-2.61-37L1239,499l-94.7,87.77Z"/><ellipse class="cls-5" cx="1314.53" cy="600.87" rx="6.06" ry="10.09" transform="translate(-126.13 717.22) rotate(-29.18)"/><circle class="cls-5" cx="1330.1" cy="625.42" r="4.64" transform="translate(597.15 1899.43) rotate(-85.27)"/><ellipse class="cls-5" cx="1159.12" cy="407.81" rx="6.79" ry="3.99" transform="translate(-48.61 634.2) rotate(-30)"/></g><g id="Calque_3" data-name="Calque 3"><path class="cls-6" d="M690.48,637.7c-15.94,0-32.21-5.55-47.58-16.5a95.09,95.09,0,0,1-31.1-37.12,113.14,113.14,0,0,1-10.44-42.22c-1.47-25.39,4.78-52.71,15.93-69.62C626,459,640.46,449.84,657,447a68.48,68.48,0,0,1,52.64,13.09,20,20,0,1,1-24.15,32,28.31,28.31,0,0,0-21.7-5.57c-5.66,1-10.42,3.82-13,7.81-5.48,8.32-10.47,26.53-9.38,45.26.87,14.94,5.87,25.58,24.77,39,13,9.22,25.11,11.41,36.14,6.51,11.26-5,19-16.65,20-25a20,20,0,0,1,22.22-17.55c11,1.29,18.84,21.24,17.55,32.22-1.31,11.18-6.18,22.88-13.7,32.95a75.88,75.88,0,0,1-29.83,24A68.68,68.68,0,0,1,690.48,637.7Z"/><path class="cls-6" d="M754.23,618.35a20,20,0,0,1-20-19l-8-152.83a20,20,0,0,1,5-14.26,182.37,182.37,0,0,1,22.56-21c19.36-15.11,37.62-22.43,54.25-21.77,15.31.61,28.59,7.89,38.42,21.05,9.05,12.13,12.57,26.11,10.18,40.43-3.51,21-12.2,35.35-42.37,59.14l72.28,58.1a20,20,0,0,1-21.94,33.5l-93.31-61.1,3,56.6a20,20,0,0,1-19,21Zm12.5-165.21,2.2,42.28C782.2,486,834,452,814.37,434.57c-6-5.3-20-4.07-35.93,8.33A144.86,144.86,0,0,0,766.73,453.15Z"/><path class="cls-6" d="M875.55,605.06a20,20,0,0,1-20-19.15,822.84,822.84,0,0,1,2.07-94.06c6.14-72.49,22.13-111.34,50.31-122.26,19.84-7.68,39-4.93,53.82,7.76,19.61,16.73,31.34,50.38,34.88,100,2.55,35.75.34,76.78-5.63,104.53a20,20,0,1,1-39.15-8.42c4.29-20,7.45-56.54,4.83-93.26-3.84-53.88-19.34-87.05-34.28-73.27-18,16.65-22.68,62.48-24.87,88.29a794,794,0,0,0-2,88.93A20,20,0,0,1,876.44,605Z"/><path class="cls-6" d="M1095.28,595.38q-.91,0-1.83-.08L991.35,586a20,20,0,0,1-12.91-33.52l102.08-110.6c-30.52-4.72-73.93-22.39-73.93-22.39-8.91-4.07-18.08-12.43-16.08-23.31a20,20,0,0,1,23.31-16.08s82.6,29.9,116.64,21.42,13.07,6.44,15.38,13.36a20,20,0,0,1-4.28,19.92L1044.5,540l52.57,15.41c14.54,3.39,19.13,10.74,18.14,21.75A20,20,0,0,1,1095.28,595.38Z"/><path class="cls-6" d="M1284.42,449.3a20,20,0,0,0-28.17-2.89l-56.4,47.77c4-19.32-6.72-64.52-6.72-64.52-3.23-13.38-9.5-19.76-20.56-19.48a20,20,0,0,0-19.48,20.56s11.46,71.54,2.62,97.52L1095,577.66a20,20,0,1,0,25.28,31.06l161.23-131.25A20,20,0,0,0,1284.42,449.3Z"/><path class="cls-6" d="M877.25,517.43a20,20,0,0,1-1.31-40L972.68,471a20,20,0,1,1,2.66,40l-96.73,6.44C878.15,517.41,877.7,517.43,877.25,517.43Z"/><path class="cls-6" d="M614.91,474.94s-28.84,37.75-49,56.42S513.39,569.2,533.56,566s56.53-38.83,54.89-17.54-18,32.92-27.52,40.34c-19.73,15.46-11.14,26.5-19.52,33.92-15.71,13.91-36,30.42-27.89,40.34,8.88,10.87,42.56-19.14,57.65-37.35S610.2,593.9,637,617Z"/><circle class="cls-6" cx="509.31" cy="573.35" r="7.03"/><path class="cls-6" d="M1157.27,578.48s22.57-17.2,39.08-1.25,32.86,4.37,47.92,18.16,27.28,22.87,34.31,16.18-49.72-55.14-49.72-55.14-13.09-18,2.09-25.32,27.47,10.75,39.47,12.55,25.9,29.69,33.48,26.27-16-31.47-30.1-47.54-15.75-25.12-2.61-37L1243,483l-94.7,87.77Z"/><ellipse class="cls-6" cx="1318.53" cy="584.87" rx="6.06" ry="10.09" transform="translate(-117.82 717.14) rotate(-29.18)"/><circle class="cls-6" cx="1334.1" cy="609.42" r="4.64" transform="translate(616.76 1888.74) rotate(-85.27)"/><ellipse class="cls-6" cx="1163.12" cy="391.81" rx="6.79" ry="3.99" transform="translate(-40.07 634.05) rotate(-30)"/></g><g id="Calque_4" data-name="Calque 4"><path class="cls-5" d="M835.08,720.66a11.49,11.49,0,0,1-5-21.86c24.16-11.54,32.57-18.82,35.44-22.16a49.83,49.83,0,0,0-7-2.51c-5.73-1.69-12.77-3.15-19.58-4.56-8.34-1.73-16.21-3.36-22.63-5.53-4.11-1.39-16.63-5.61-17.68-17.15-.67-7.33,4.06-16.59,13-25.39,6.9-6.83,19.6-16.45,40.9-23.54a11.49,11.49,0,0,1,7.26,21.81c-15.5,5.16-24.86,11.66-30,16.2a41.67,41.67,0,0,0-5.94,6.37c5.37,1.73,14,3.52,19.79,4.72,9,1.86,18.25,3.78,25.87,6.45,4.44,1.56,18,6.29,20,18.4,2.5,14.4-11.77,25.11-16.46,28.62-7.88,5.91-18.71,12.13-33.13,19A11.45,11.45,0,0,1,835.08,720.66Zm-13.53-74.19Z"/><path class="cls-5" d="M899.7,692.42a11.49,11.49,0,0,1-11.38-10l-10.7-82.68a11.49,11.49,0,1,1,22.79-2.95l10.7,82.68a11.5,11.5,0,0,1-11.41,13Z"/><path class="cls-5" d="M897.07,648.64a11.49,11.49,0,0,1-2.14-22.78l40.19-7.68a11.49,11.49,0,1,1,4.31,22.57l-40.19,7.68A11.55,11.55,0,0,1,897.07,648.64Z"/><path class="cls-5" d="M940.49,685.58a11.49,11.49,0,0,1-11.47-11l-3.54-87.63a11.49,11.49,0,1,1,23-.93L952,673.63a11.49,11.49,0,0,1-11,11.95Z"/><path class="cls-5" d="M989.66,685.66h-.49c-11.33-.2-22.08-7.32-30.25-20.06a76.41,76.41,0,0,1-11.61-34.86c-1.16-16.74,4-31.8,14.56-42.41,8.7-8.75,20.21-13.34,31.6-12.61a40.79,40.79,0,0,1,29.16,15.19c7.69,9.4,11.4,21.69,10.71,35.52a82.63,82.63,0,0,1-12,38C1012.74,678.14,1001.52,685.65,989.66,685.66Zm1.43-87c-4.49,0-9.15,2.12-12.93,5.91-5.81,5.84-8.63,14.58-7.93,24.61a54.25,54.25,0,0,0,8,24c3.72,5.8,8.05,9.43,11.3,9.49h.08c3.44,0,8.22-4.08,12.19-10.42a59.46,59.46,0,0,0,8.55-27c.4-8.05-1.52-14.91-5.55-19.83A18,18,0,0,0,992,598.65h0Z"/><path class="cls-5" d="M1097.26,703.9a14.78,14.78,0,0,1-4.18-.61c-11.08-3.25-12.58-16.65-13.15-21.69-.62-5.49-.77-11.91-.83-18.39-2.62,6.2-5.3,12.33-8,17.28-2.4,4.41-8.77,16.14-20,14.61-4.3-.58-10.14-3.3-13.58-13-1.64-4.62-2.88-11-3.8-19.51-1.88-17.47-2.44-43.75-1.69-80.33A11.49,11.49,0,0,1,1043.49,571h.24A11.49,11.49,0,0,1,1055,582.72c-.6,29.48-.32,52.67.82,68.92.16,2.33.34,4.43.52,6.34,1.18-2.72,2.29-5.38,3.23-7.6,3.11-7.42,6.06-14.42,9-20a40.91,40.91,0,0,1,5.54-8.24c5.51-6.06,11.32-6,14.29-5.38s8.26,2.69,11,10.21a38.74,38.74,0,0,1,1.94,9.44c.61,6,.64,13.31.66,21.05,0,3.73,0,8.93.21,13.82,1.65-2.57,3.57-5.77,5.8-9.74,8.15-14.54,18.39-36,30.45-63.68a11.49,11.49,0,1,1,21.08,9.17c-14.94,34.35-26.8,58.52-36.25,73.9-4.61,7.5-8.64,12.87-12.32,16.43C1107.75,700.55,1102.95,703.9,1097.26,703.9Zm-37.69-28.5h0Z"/></g><g id="Calque_8" data-name="Calque 8"><path class="cls-2" d="M845.08,710.66a11.49,11.49,0,0,1-5-21.86c24.16-11.54,32.57-18.82,35.44-22.16a49.83,49.83,0,0,0-7-2.51c-5.73-1.69-12.77-3.15-19.58-4.56-8.34-1.73-16.21-3.36-22.63-5.53-4.11-1.39-16.63-5.61-17.68-17.15-.67-7.33,4.06-16.59,13-25.39,6.9-6.83,19.6-16.45,40.9-23.54a11.49,11.49,0,0,1,7.26,21.81c-15.5,5.16-24.86,11.66-30,16.2a41.67,41.67,0,0,0-5.94,6.37c5.37,1.73,14,3.52,19.79,4.72,9,1.86,18.25,3.78,25.87,6.45,4.44,1.56,18,6.29,20,18.4,2.5,14.4-11.77,25.11-16.46,28.62-7.88,5.91-18.71,12.13-33.13,19A11.45,11.45,0,0,1,845.08,710.66Zm-13.53-74.19Z"/><path class="cls-2" d="M909.7,682.42a11.49,11.49,0,0,1-11.38-10l-10.7-82.68a11.49,11.49,0,1,1,22.79-2.95l10.7,82.68a11.5,11.5,0,0,1-11.41,13Z"/><path class="cls-2" d="M907.07,638.64a11.49,11.49,0,0,1-2.14-22.78l40.19-7.68a11.49,11.49,0,1,1,4.31,22.57l-40.19,7.68A11.55,11.55,0,0,1,907.07,638.64Z"/><path class="cls-2" d="M950.49,675.58a11.49,11.49,0,0,1-11.47-11l-3.54-87.63a11.49,11.49,0,1,1,23-.93L962,663.63a11.49,11.49,0,0,1-11,11.95Z"/><path class="cls-2" d="M999.66,675.66h-.49c-11.33-.2-22.08-7.32-30.25-20.06a76.41,76.41,0,0,1-11.61-34.86c-1.16-16.74,4-31.8,14.56-42.41,8.7-8.75,20.21-13.34,31.6-12.61a40.79,40.79,0,0,1,29.16,15.19c7.69,9.4,11.4,21.69,10.71,35.52a82.63,82.63,0,0,1-12,38C1022.74,668.14,1011.52,675.65,999.66,675.66Zm1.43-87c-4.49,0-9.15,2.12-12.93,5.91-5.81,5.84-8.63,14.58-7.93,24.61a54.25,54.25,0,0,0,8,24c3.72,5.8,8.05,9.43,11.3,9.49h.08c3.44,0,8.22-4.08,12.19-10.42a59.46,59.46,0,0,0,8.55-27c.4-8.05-1.52-14.91-5.55-19.83a18,18,0,0,0-12.85-6.81h0Z"/><path class="cls-2" d="M1107.26,693.9a14.78,14.78,0,0,1-4.18-.61c-11.08-3.25-12.58-16.65-13.15-21.69-.62-5.49-.77-11.91-.83-18.39-2.62,6.2-5.3,12.33-8,17.28-2.4,4.41-8.77,16.14-20,14.61-4.3-.58-10.14-3.3-13.58-13-1.64-4.62-2.88-11-3.8-19.51-1.88-17.47-2.44-43.75-1.69-80.33A11.49,11.49,0,0,1,1053.49,561h.24A11.49,11.49,0,0,1,1065,572.72c-.6,29.48-.32,52.67.82,68.92.16,2.33.34,4.43.52,6.34,1.18-2.72,2.29-5.38,3.23-7.6,3.11-7.42,6.06-14.42,9-20a40.91,40.91,0,0,1,5.54-8.24c5.51-6.06,11.32-6,14.29-5.38s8.26,2.69,11,10.21a38.74,38.74,0,0,1,1.94,9.44c.61,6,.64,13.31.66,21.05,0,3.73,0,8.93.21,13.82,1.65-2.57,3.57-5.77,5.8-9.74,8.15-14.54,18.39-36,30.45-63.68a11.49,11.49,0,1,1,21.08,9.17c-14.94,34.35-26.8,58.52-36.25,73.9-4.61,7.5-8.64,12.87-12.32,16.43C1117.75,690.55,1112.95,693.9,1107.26,693.9Zm-37.69-28.5h0Z"/></g><g id="Calque_10" data-name="Calque 10"><path class="cls-5" d="M746.16,546.63c-3.89-5.62-10.65-6.21-16.93-5.47-.34.17-.68.34-1,.52-2.81,1.58-.29,5.9,2.52,4.32a14.23,14.23,0,0,1,15.33.78,2.65,2.65,0,0,0,.28.15Z"/><path class="cls-5" d="M997.68,526.59a2.61,2.61,0,0,0-.41.36,82.82,82.82,0,0,0-18.31,34,2.46,2.46,0,0,0,0,1.23c1.91-4,4.26-7.82,6.45-11.46,3.9-6.49,7.58-13.37,12.4-19.22Q997.67,529,997.68,526.59Z"/><path class="cls-5" d="M1098,575.92a43.27,43.27,0,0,0-5.36,4.16,40.16,40.16,0,0,0-9.72,14.54,25.26,25.26,0,0,0,1.12,9.62c.95,3.06,5.78,1.76,4.82-1.33-3.4-11,2.22-19,9.12-27Z"/><path class="cls-6" d="M1092.53,789.23a6.39,6.39,0,0,1-1.74-.24,4.57,4.57,0,0,1-1.52-.75,3.87,3.87,0,0,1-1.07-1.23,3.48,3.48,0,0,1-.41-1.71v0a3.9,3.9,0,0,1,.39-1.8,3.5,3.5,0,0,1,1.12-1.28,5.38,5.38,0,0,1,1.72-.78,8.41,8.41,0,0,1,2.2-.27,13.39,13.39,0,0,1,2.13.15,15.7,15.7,0,0,1,1.76.39v-.39a3.2,3.2,0,0,0-1-2.54,4.07,4.07,0,0,0-2.78-.86,8,8,0,0,0-2.05.25,10.69,10.69,0,0,0-1.81.66l-.56-1.55a13.4,13.4,0,0,1,2.14-.79,9.38,9.38,0,0,1,2.48-.3,5.58,5.58,0,0,1,4.1,1.39,5,5,0,0,1,1.33,3.72V789h-1.87v-1.88a6,6,0,0,1-1.78,1.5A5.49,5.49,0,0,1,1092.53,789.23Zm.38-1.54a5.36,5.36,0,0,0,1.64-.24,4.24,4.24,0,0,0,1.33-.69,3.34,3.34,0,0,0,.91-1.07,2.88,2.88,0,0,0,.33-1.37v-1.17q-.71-.19-1.62-.36a11.3,11.3,0,0,0-2.08-.17,4.62,4.62,0,0,0-2.73.69,2.15,2.15,0,0,0-1,1.84v0a2.19,2.19,0,0,0,.26,1.06,2.33,2.33,0,0,0,.7.79,3.35,3.35,0,0,0,1,.49A4.22,4.22,0,0,0,1092.91,787.69Z"/><path class="cls-6" d="M1103.9,776.32h1.89v2.2a6,6,0,0,1,1.67-1.75,4.58,4.58,0,0,1,2.68-.72,5.37,5.37,0,0,1,2.05.37,4.24,4.24,0,0,1,1.52,1,4.57,4.57,0,0,1,1,1.6,6.08,6.08,0,0,1,.33,2.05V789h-1.89V781.6a4,4,0,0,0-.91-2.78,3.3,3.3,0,0,0-2.6-1,4,4,0,0,0-1.51.28,3.54,3.54,0,0,0-1.22.81,3.63,3.63,0,0,0-.8,1.26,4.45,4.45,0,0,0-.28,1.61V789h-1.89Z"/><path class="cls-6" d="M1120,776.32h1.89V789H1120Z"/><path class="cls-6" d="M1127.06,776.32H1129v2.13a10.51,10.51,0,0,1,.7-.91,4.4,4.4,0,0,1,.87-.77,4.32,4.32,0,0,1,1.1-.53,4.69,4.69,0,0,1,1.43-.2,4.28,4.28,0,0,1,2.55.72,4.69,4.69,0,0,1,1.52,1.8,8.1,8.1,0,0,1,.77-1,4.87,4.87,0,0,1,1-.81,4.7,4.7,0,0,1,1.22-.54,5.42,5.42,0,0,1,1.51-.2,4.48,4.48,0,0,1,3.46,1.36,5.28,5.28,0,0,1,1.25,3.73V789h-1.89V781.6a4.12,4.12,0,0,0-.87-2.82,3.06,3.06,0,0,0-2.42-1,3.58,3.58,0,0,0-1.35.26,3.14,3.14,0,0,0-1.12.76,3.65,3.65,0,0,0-.76,1.23,4.59,4.59,0,0,0-.28,1.66V789h-1.87v-7.42a4,4,0,0,0-.87-2.77,3,3,0,0,0-2.4-1,3.32,3.32,0,0,0-1.4.29,3.36,3.36,0,0,0-1.12.83,4,4,0,0,0-.75,1.26,4.53,4.53,0,0,0-.27,1.6V789h-1.89Z"/><path class="cls-6" d="M1152.46,783.41a5,5,0,0,0,.49,1.78,4.27,4.27,0,0,0,1,1.32,4.38,4.38,0,0,0,1.38.82,4.59,4.59,0,0,0,1.6.28,4.89,4.89,0,0,0,2.27-.49,6.74,6.74,0,0,0,1.73-1.3l1.18,1.05a7.73,7.73,0,0,1-2.19,1.72,6.48,6.48,0,0,1-3,.65,6.35,6.35,0,0,1-2.46-.48,6,6,0,0,1-2-1.34,6.37,6.37,0,0,1-1.36-2.09,7,7,0,0,1-.5-2.69,7.25,7.25,0,0,1,.45-2.58,6.48,6.48,0,0,1,1.26-2.1,5.92,5.92,0,0,1,1.93-1.41,6.16,6.16,0,0,1,5,0A5.49,5.49,0,0,1,1161,778a6.21,6.21,0,0,1,1.15,2.13,8.48,8.48,0,0,1,.39,2.62V783a3.45,3.45,0,0,1,0,.38Zm8.18-1.54a5.86,5.86,0,0,0-.37-1.62,4.52,4.52,0,0,0-.8-1.35,3.67,3.67,0,0,0-1.23-.92,3.87,3.87,0,0,0-1.66-.34,3.71,3.71,0,0,0-1.52.32,3.86,3.86,0,0,0-1.25.89,5,5,0,0,0-.9,1.35,5.38,5.38,0,0,0-.45,1.68Z"/><path class="cls-6" d="M1175.38,771.11h1.89V789h-1.89Z"/><path class="cls-6" d="M1186.28,789.23a6.39,6.39,0,0,1-1.74-.24,4.57,4.57,0,0,1-1.52-.75,3.87,3.87,0,0,1-1.07-1.23,3.48,3.48,0,0,1-.41-1.71v0a3.9,3.9,0,0,1,.39-1.8,3.5,3.5,0,0,1,1.12-1.28,5.38,5.38,0,0,1,1.72-.78,8.41,8.41,0,0,1,2.2-.27,13.39,13.39,0,0,1,2.13.15,15.7,15.7,0,0,1,1.76.39v-.39a3.2,3.2,0,0,0-1-2.54,4.07,4.07,0,0,0-2.78-.86,8,8,0,0,0-2.05.25,10.69,10.69,0,0,0-1.81.66l-.56-1.55a13.4,13.4,0,0,1,2.14-.79,9.38,9.38,0,0,1,2.48-.3,5.58,5.58,0,0,1,4.1,1.39,5,5,0,0,1,1.33,3.72V789h-1.87v-1.88a6,6,0,0,1-1.78,1.5A5.49,5.49,0,0,1,1186.28,789.23Zm.38-1.54a5.36,5.36,0,0,0,1.64-.24,4.24,4.24,0,0,0,1.33-.69,3.34,3.34,0,0,0,.91-1.07,2.88,2.88,0,0,0,.33-1.37v-1.17q-.71-.19-1.62-.36a11.3,11.3,0,0,0-2.08-.17,4.62,4.62,0,0,0-2.73.69,2.15,2.15,0,0,0-1,1.84v0a2.19,2.19,0,0,0,.26,1.06,2.33,2.33,0,0,0,.7.79,3.35,3.35,0,0,0,1,.49A4.22,4.22,0,0,0,1186.66,787.69Z"/><path class="cls-6" d="M1204.8,776.32h2.09l4.27,10.49,4.3-10.49h2L1212,789.06h-1.67Z"/><path class="cls-6" d="M1221.27,776.32h1.89V789h-1.89Z"/><path class="cls-6" d="M1229.47,783.41a5,5,0,0,0,.49,1.78,4.27,4.27,0,0,0,1,1.32,4.38,4.38,0,0,0,1.38.82,4.59,4.59,0,0,0,1.6.28,4.89,4.89,0,0,0,2.27-.49,6.74,6.74,0,0,0,1.73-1.3l1.18,1.05a7.73,7.73,0,0,1-2.19,1.72,6.48,6.48,0,0,1-3,.65,6.35,6.35,0,0,1-2.46-.48,6,6,0,0,1-2-1.34,6.37,6.37,0,0,1-1.36-2.09,7,7,0,0,1-.5-2.69,7.25,7.25,0,0,1,.45-2.58,6.48,6.48,0,0,1,1.26-2.1,5.92,5.92,0,0,1,1.93-1.41,6.16,6.16,0,0,1,5,0A5.49,5.49,0,0,1,1238,778a6.21,6.21,0,0,1,1.15,2.13,8.48,8.48,0,0,1,.39,2.62V783a3.45,3.45,0,0,1,0,.38Zm8.18-1.54a5.86,5.86,0,0,0-.37-1.62,4.52,4.52,0,0,0-.8-1.35,3.67,3.67,0,0,0-1.23-.92,3.87,3.87,0,0,0-1.66-.34,3.71,3.71,0,0,0-1.52.32,3.86,3.86,0,0,0-1.25.89,5,5,0,0,0-.9,1.35,5.38,5.38,0,0,0-.45,1.68Z"/><path class="cls-6" d="M1247.19,773.24v-1.39h2.21v1.39l-.59,10.88h-1.06Z"/><path class="cls-6" d="M1020.07,709.15a48.51,48.51,0,1,0,48.51,48.51A48.56,48.56,0,0,0,1020.07,709.15Zm0,89.74a41.24,41.24,0,1,1,41.23-41.24A41.24,41.24,0,0,1,1020.07,798.89Z"/><path class="cls-6" d="M1039.15,759.05a10.25,10.25,0,0,0,.91-4.18,10,10,0,0,0-18.86-4.74,10,10,0,0,0-18.86,4.74,10.41,10.41,0,0,0,1,4.29c2.17,5.35,11.77,12.69,14,14.53l2.9,2.26a1.71,1.71,0,0,0,2.16,0l2.6-2.21C1029.18,770.19,1037.37,763.83,1039.15,759.05Z"/><path class="cls-6" d="M1047.63,736.17l-5-1.86.3-5.34a.66.66,0,0,0-1.18-.45l-3.32,4.2-5-1.94a.66.66,0,0,0-.79,1l3,4.45-3.38,4.15a.66.66,0,0,0,.69,1.06l5.15-1.45,2.9,4.5a.66.66,0,0,0,.56.3l.17,0a.66.66,0,0,0,.49-.61l.22-5.35,5.18-1.37a.66.66,0,0,0,.06-1.26Z"/><path class="cls-6" d="M1035.69,775a17.62,17.62,0,0,1-31.23,0h-6a23.09,23.09,0,0,0,43.19,0Z"/><circle class="cls-6" cx="1120.97" cy="772.68" r="1.24"/><circle class="cls-6" cx="1222.22" cy="772.68" r="1.24"/><polygon class="cls-6" points="1113.85 749.46 1096.28 726.37 1088.67 726.37 1088.67 763.87 1096.81 763.87 1096.81 740.03 1114.97 763.87 1121.99 763.87 1121.99 726.37 1113.85 726.37 1113.85 749.46"/><path class="cls-6" d="M1205.41,731.38a19.86,19.86,0,0,0-6.29-4.12,21.7,21.7,0,0,0-16,0,19.18,19.18,0,0,0-10.47,10.34,18.94,18.94,0,0,0-1.5,7.53v.11a19.23,19.23,0,0,0,1.47,7.53,18.45,18.45,0,0,0,4.12,6.11A19.84,19.84,0,0,0,1183,763a20.45,20.45,0,0,0,8,1.53,20.66,20.66,0,0,0,8-1.53,19.19,19.19,0,0,0,10.47-10.34,19,19,0,0,0,1.5-7.53V745a19.24,19.24,0,0,0-1.47-7.53A18.48,18.48,0,0,0,1205.41,731.38Zm-3,13.85a12.29,12.29,0,0,1-.83,4.53,11.92,11.92,0,0,1-2.3,3.73,10.41,10.41,0,0,1-3.56,2.52,11.25,11.25,0,0,1-4.55.91,11,11,0,0,1-4.58-.94,11.32,11.32,0,0,1-5.95-6.3,12.49,12.49,0,0,1-.83-4.55V745a12.28,12.28,0,0,1,.83-4.53,11.86,11.86,0,0,1,2.3-3.72,10.48,10.48,0,0,1,3.54-2.52,11.2,11.2,0,0,1,4.58-.91,11,11,0,0,1,4.55.94,11.24,11.24,0,0,1,6,6.3,12.51,12.51,0,0,1,.83,4.55Z"/><polygon class="cls-6" points="1240.14 726.37 1231.04 741.42 1222.09 726.37 1212.44 726.37 1226.86 749.08 1226.86 763.87 1235.11 763.87 1235.11 748.92 1249.52 726.37 1240.14 726.37"/><path class="cls-6" d="M1153.61,745.23h0v.11a12.29,12.29,0,0,1-.83,4.53,11.92,11.92,0,0,1-2.3,3.73,10.41,10.41,0,0,1-3.56,2.52,11.25,11.25,0,0,1-4.55.91h-1.44v7.61h1.39a20.65,20.65,0,0,0,8-1.52,19.19,19.19,0,0,0,10.47-10.34,19,19,0,0,0,1.5-7.53h0V726.37h-8.63Z"/><path class="cls-6" d="M1141.17,732a6.25,6.25,0,1,0-6.25,6.25h.12a9.4,9.4,0,0,1-3.48,1.83v2.67a12.76,12.76,0,0,0,2.22-.62,12.06,12.06,0,0,0,3.9-2.37,11,11,0,0,0,2.56-3.49,9.9,9.9,0,0,0,.89-3.62A6.32,6.32,0,0,0,1141.17,732Z"/></g><g id="Calque_14" data-name="Calque 14"><path class="cls-6" d="M758.48,407.81s-28.12,22.3-44.27,23-19.14.25-19.14,3.73,11.93,1.74,14.42,6,9.7,3.12,12.77,6.71,4.39,6.24,5.08,19.41,19-19.66,19-19.66Z"/><path class="cls-6" d="M683.37,430.11s6.71.75,6,3.73-12.18.5-11.68-1.86S683.37,430.11,683.37,430.11Z"/></g></svg>