<?xml version="1.0" encoding="utf-8"?>
<!-- Generator: Adobe Illustrator 22.1.0, SVG Export Plug-In . SVG Version: 6.00 Build 0)  -->
<svg version="1.1" id="Calque_1" xmlns="http://www.w3.org/2000/svg" xmlns:xlink="http://www.w3.org/1999/xlink" x="0px" y="0px"
	 viewBox="0 0 288.5 128" style="enable-background:new 0 0 288.5 128;" xml:space="preserve">
<style type="text/css">
	.st0{fill:#78A955;}
	.st1{fill:none;stroke:#78A955;stroke-width:8.14;stroke-linecap:round;stroke-miterlimit:10;}
</style>
<title>box_synchro</title>
<g id="N_JOY">
	<path class="st0" d="M77.1,6.8H25.4c-5.2,0-9.5,4.3-9.5,9.5v95.5c0,5.2,4.3,9.5,9.5,9.5h51.8c5.2,0,9.5-4.3,9.5-9.5V16.2
		C86.6,11,82.4,6.8,77.1,6.8z M51.2,117.5c-2.8,0-5.1-2.3-5.1-5.1s2.3-5.1,5.1-5.1c2.8,0,5.1,2.3,5.1,5.1l0,0
		C56.4,115.2,54.1,117.5,51.2,117.5z M80.4,104.2H22.1V14.7h58.3V104.2z"/>
	<path class="st0" d="M257.9,106.3h-45.2c-7.6,0-12.2-3.8-14.7-8.7v3.8c0,8.1,6.6,14.6,14.7,14.6H258c8.1,0,14.6-6.6,14.7-14.7v-3.8
		C270.1,102.8,265.7,106.3,257.9,106.3z"/>
	<line class="st1" x1="202.3" y1="66.5" x2="137.9" y2="66.5"/>
	<circle class="st0" cx="125.6" cy="66.7" r="3.9"/>
	<circle class="st0" cx="113.4" cy="66.7" r="3.9"/>
	<circle class="st0" cx="101.2" cy="66.7" r="3.9"/>
	<g>
		<path class="st0" d="M258.4,29.1H213c-8.1,0-14.7,6.6-14.7,14.7v45.4c0,8.1,6.6,14.7,14.7,14.7h45.4c8.1,0,14.7-6.6,14.7-14.7
			V43.9C273.1,35.7,266.5,29.2,258.4,29.1z M241.5,59.8c0,1.6-0.3,3.1-0.9,4.3c-0.6,1.2-1.4,2.3-2.4,3.1c-1,0.8-2.2,1.4-3.6,1.9
			c-1.4,0.4-2.8,0.6-4.4,0.6h-4.7V78h-6.2V50h11.4c1.7,0,3.2,0.2,4.5,0.7c1.3,0.5,2.4,1.1,3.4,2s1.6,1.9,2.1,3.1
			C241.3,56.9,241.5,58.2,241.5,59.8L241.5,59.8z M252.5,78h-6.2V50h6.2V78z"/>
		<path class="st0" d="M230.3,55.6h-4.8v8.6h4.9c1.5,0,2.7-0.4,3.6-1.2c0.9-0.8,1.3-1.8,1.3-3v-0.1c0-1.4-0.4-2.4-1.3-3.2
			C233,55.9,231.8,55.6,230.3,55.6z"/>
	</g>
</g>
</svg>
