<svg xmlns="http://www.w3.org/2000/svg" viewBox="0 0 288.47 128"><defs><style>.cls-1{fill:#78a955;}</style></defs><title>box_conf_success</title><g id="N_JOY" data-name="N&apos;JOY"><path class="cls-1" d="M76.86,6.51h-52a9.57,9.57,0,0,0-9.54,9.54v95.9a9.57,9.57,0,0,0,9.54,9.54h52a9.57,9.57,0,0,0,9.54-9.54V16.05A9.57,9.57,0,0,0,76.86,6.51Zm-26,111.19A5.16,5.16,0,1,1,56,112.54,5.16,5.16,0,0,1,50.86,117.7Zm29.29-13.38H21.57V14.51H80.15Z"/><path class="cls-1" d="M258.42,106.45H213c-7.68,0-12.29-3.86-14.72-8.76v3.85A14.77,14.77,0,0,0,213,116.27h45.42a14.77,14.77,0,0,0,14.72-14.72V97.69C270.61,103,266.22,106.45,258.42,106.45Z"/><path class="cls-1" d="M258.42,29.13H213a14.77,14.77,0,0,0-14.72,14.72V89.27A14.77,14.77,0,0,0,213,104h45.42a14.77,14.77,0,0,0,14.72-14.72V43.86A14.77,14.77,0,0,0,258.42,29.13ZM237.73,50.9a7.76,7.76,0,0,1,2.46-1.84,7.32,7.32,0,0,1,2.81-.8,6.3,6.3,0,0,1,0,.69,7.41,7.41,0,0,1-1.9,4.86,6.47,6.47,0,0,1-5.38,2.65,5.4,5.4,0,0,1,0-.66A7.61,7.61,0,0,1,237.73,50.9Zm12,24.43a18.88,18.88,0,0,1-1.87,3.36,17.07,17.07,0,0,1-2.41,2.91A4.67,4.67,0,0,1,242.37,83a7.75,7.75,0,0,1-2.86-.68,8.2,8.2,0,0,0-3.08-.68,8.47,8.47,0,0,0-3.16.68,8.51,8.51,0,0,1-2.73.72,4.39,4.39,0,0,1-3.16-1.4,17.91,17.91,0,0,1-2.52-3,20.82,20.82,0,0,1-2.66-5.29,19.35,19.35,0,0,1-1.12-6.3,11.5,11.5,0,0,1,1.51-6,8.86,8.86,0,0,1,3.16-3.2A8.51,8.51,0,0,1,230,56.58a10.07,10.07,0,0,1,3.31.77,10.63,10.63,0,0,0,2.62.77,15.7,15.7,0,0,0,2.91-.91,9.62,9.62,0,0,1,4-.7A8.4,8.4,0,0,1,249.41,60a7.6,7.6,0,0,0-1.47,12.17,7.91,7.91,0,0,0,2.41,1.58Q250.06,74.57,249.73,75.34Z"/><path class="cls-1" d="M202.56,62.43H168.49a24.6,24.6,0,0,0-48.51,0H85.52a4.09,4.09,0,0,0,0,8.18H120a24.6,24.6,0,0,0,48.51,0h34.07a4.09,4.09,0,1,0,0-8.18Zm-43.33-1.06L142.61,78a2.86,2.86,0,0,1-4,0L128.35,67.77a2.86,2.86,0,1,1,4-4l8.19,8.19,14.6-14.6a2.86,2.86,0,1,1,4,4Z"/></g></svg>