<svg xmlns="http://www.w3.org/2000/svg" viewBox="0 0 288.47 128"><defs><style>.cls-1{fill:#78a955;}.cls-2{fill:none;stroke:#78a955;stroke-linecap:round;stroke-miterlimit:10;stroke-width:8.14px;}</style></defs><title>box_synchro</title><g id="N_JOY" data-name="N&apos;JOY"><path class="cls-1" d="M77.14,6.76H25.37a9.52,9.52,0,0,0-9.5,9.5v95.49a9.52,9.52,0,0,0,9.5,9.5H77.14a9.52,9.52,0,0,0,9.5-9.5V16.25A9.52,9.52,0,0,0,77.14,6.76ZM51.25,117.48a5.14,5.14,0,1,1,5.14-5.14A5.14,5.14,0,0,1,51.25,117.48Zm29.17-13.32H22.09V14.72H80.42Z"/><path class="cls-1" d="M257.94,106.27H212.72c-7.65,0-12.24-3.85-14.66-8.72v3.83A14.7,14.7,0,0,0,212.72,116h45.23a14.7,14.7,0,0,0,14.66-14.66V97.55C270.08,102.84,265.7,106.27,257.94,106.27Z"/><path class="cls-1" d="M257.94,29.28H212.72a14.7,14.7,0,0,0-14.66,14.66V89.17a14.7,14.7,0,0,0,14.66,14.66h45.23A14.7,14.7,0,0,0,272.6,89.17V43.94A14.7,14.7,0,0,0,257.94,29.28ZM237.33,51a7.73,7.73,0,0,1,2.44-1.84,7.29,7.29,0,0,1,2.8-.79,6.28,6.28,0,0,1,0,.69,7.38,7.38,0,0,1-1.89,4.84,6.45,6.45,0,0,1-5.35,2.64,5.38,5.38,0,0,1,0-.66A7.58,7.58,0,0,1,237.33,51Zm12,24.33a18.8,18.8,0,0,1-1.86,3.34,17,17,0,0,1-2.4,2.9A4.65,4.65,0,0,1,242,82.89a7.72,7.72,0,0,1-2.84-.68,8.16,8.16,0,0,0-3.06-.68,8.44,8.44,0,0,0-3.15.68,8.47,8.47,0,0,1-2.72.72A4.38,4.38,0,0,1,227,81.53a17.84,17.84,0,0,1-2.51-3,20.73,20.73,0,0,1-2.65-5.26A19.27,19.27,0,0,1,220.76,67a11.46,11.46,0,0,1,1.5-6,8.82,8.82,0,0,1,3.15-3.19,8.48,8.48,0,0,1,4.26-1.2,10,10,0,0,1,3.29.77,10.59,10.59,0,0,0,2.61.77,15.64,15.64,0,0,0,2.9-.91,9.58,9.58,0,0,1,3.94-.7A8.36,8.36,0,0,1,249,60a7.56,7.56,0,0,0-1.47,12.12,7.88,7.88,0,0,0,2.4,1.57Q249.61,74.52,249.29,75.29Z"/><line class="cls-2" x1="202.32" y1="66.51" x2="137.89" y2="66.51"/><circle class="cls-1" cx="125.61" cy="66.67" r="3.95"/><circle class="cls-1" cx="113.4" cy="66.67" r="3.95"/><circle class="cls-1" cx="101.18" cy="66.67" r="3.95"/></g></svg>