<?xml version="1.0" encoding="utf-8"?>
<!-- Generator: Adobe Illustrator 22.1.0, SVG Export Plug-In . SVG Version: 6.00 Build 0)  -->
<svg version="1.1" id="Calque_1" xmlns="http://www.w3.org/2000/svg" xmlns:xlink="http://www.w3.org/1999/xlink" x="0px" y="0px"
	 viewBox="0 0 288.5 128" style="enable-background:new 0 0 288.5 128;" xml:space="preserve">
<style type="text/css">
	.st0{fill:#78A955;}
	.st1{fill:none;stroke:#78A955;stroke-width:8.18;stroke-linecap:round;stroke-miterlimit:10;}
</style>
<title>box_connect</title>
<g id="N_JOY">
	<path class="st0" d="M76.9,6.5h-52c-5.3,0-9.5,4.3-9.5,9.5v95.9c0,5.3,4.3,9.5,9.5,9.5h52c5.3,0,9.5-4.3,9.5-9.5V16
		C86.4,10.8,82.1,6.5,76.9,6.5z M50.9,117.7c-2.8,0-5.2-2.3-5.2-5.1c0-2.8,2.3-5.2,5.1-5.2s5.2,2.3,5.2,5.1c0,0,0,0,0,0
		C56,115.4,53.7,117.7,50.9,117.7z M80.2,104.3H21.6V14.5h58.6V104.3z"/>
	<path class="st0" d="M258.4,106.4H213c-7.7,0-12.3-3.9-14.7-8.8v3.8c0,8.1,6.6,14.7,14.7,14.7h45.4c8.1,0,14.7-6.6,14.7-14.7v-3.9
		C270.6,103,266.2,106.4,258.4,106.4z"/>
	<line class="st1" x1="86.4" y1="66.6" x2="151.1" y2="66.6"/>
	<circle class="st0" cx="163.4" cy="66.4" r="4"/>
	<circle class="st0" cx="175.7" cy="66.4" r="4"/>
	<circle class="st0" cx="188" cy="66.4" r="4"/>
	<g>
		<path class="st0" d="M258.4,29.1H213c-8.1,0-14.7,6.6-14.7,14.7v45.4c0,8.1,6.6,14.7,14.7,14.7h45.4c8.1,0,14.7-6.6,14.7-14.7
			V43.9C273.1,35.7,266.5,29.2,258.4,29.1z M241.5,59.8c0,1.6-0.3,3.1-0.9,4.3c-0.6,1.2-1.4,2.3-2.4,3.1c-1,0.8-2.2,1.4-3.6,1.9
			c-1.4,0.4-2.8,0.6-4.4,0.6h-4.7V78h-6.2V50h11.4c1.7,0,3.2,0.2,4.5,0.7c1.3,0.5,2.4,1.1,3.4,2s1.6,1.9,2.1,3.1
			C241.3,56.9,241.5,58.2,241.5,59.8L241.5,59.8z M252.5,78h-6.2V50h6.2V78z"/>
		<path class="st0" d="M230.3,55.6h-4.8v8.6h4.9c1.5,0,2.7-0.4,3.6-1.2c0.9-0.8,1.3-1.8,1.3-3v-0.1c0-1.4-0.4-2.4-1.3-3.2
			C233,55.9,231.8,55.6,230.3,55.6z"/>
	</g>
</g>
</svg>
