<svg xmlns="http://www.w3.org/2000/svg" viewBox="0 0 128 128"><defs><style>.cls-1{fill:#78a955;}</style></defs><title>cast</title><g id="Mode_Isolation" data-name="Mode Isolation"><path class="cls-1" d="M79.51,110H49.77a12.3,12.3,0,0,1-9.49-20.12l14.87-18a12.26,12.26,0,0,1,9.49-4.48h0a12.26,12.26,0,0,1,9.49,4.48L89,89.91A12.3,12.3,0,0,1,79.51,110ZM48.2,96.43a2,2,0,0,0,1.57,3.34H79.51a2,2,0,0,0,1.57-3.34l-14.87-18a2,2,0,0,0-1.57-.74h0a2,2,0,0,0-1.57.74Z"/><path class="cls-1" d="M100.67,22H27.33A14.76,14.76,0,0,0,12.58,36.77V81.66A14.76,14.76,0,0,0,27.33,96.4h4.73a17.66,17.66,0,0,1,4-10h0l.25-.3h-9a4.49,4.49,0,0,1-4.49-4.49V36.77a4.49,4.49,0,0,1,4.49-4.49h73.35a4.49,4.49,0,0,1,4.49,4.49V81.66a4.49,4.49,0,0,1-4.49,4.49H93l.25.3a17.66,17.66,0,0,1,4,10h3.45a14.76,14.76,0,0,0,14.74-14.74V36.77A14.76,14.76,0,0,0,100.67,22Z"/></g></svg>