<?xml version="1.0" encoding="utf-8"?>
<!-- Generator: Adobe Illustrator 21.0.0, SVG Export Plug-In . SVG Version: 6.00 Build 0)  -->
<svg version="1.1" id="Calque_1" xmlns="http://www.w3.org/2000/svg" xmlns:xlink="http://www.w3.org/1999/xlink" x="0px" y="0px"
	 viewBox="0 0 187.5 146.8" style="enable-background:new 0 0 187.5 146.8;" xml:space="preserve">
<style type="text/css">
	.st0{fill:#78A955;}
</style>
<title>cast_screen</title>
<g id="N_JOY">
	<path class="st0" d="M102.3,121H43.2c-8.7,0-15.8-7.1-15.9-15.8V73.4c0-8.7,7.1-15.8,15.9-15.9h59.1c8.7,0,15.8,7.1,15.8,15.9v31.8
		C118.2,113.9,111.1,121,102.3,121z M43.2,64.4c-5,0-9,4-9,9v31.8c0,5,4,9,9,9l0,0h59.1c5,0,9-4,9-9l0,0V73.4c0-5-4-9-9-9L43.2,64.4
		z"/>
	<path class="st0" d="M144.2,89.3H85.2c-8.7,0-15.8-7.1-15.8-15.8V41.7c0-8.7,7.1-15.8,15.8-15.8h59.1c8.7,0,15.8,7.1,15.9,15.8
		v31.8C160.1,82.2,153,89.3,144.2,89.3z M85.2,32.7c-5,0-9,4-9,9v31.7c0,5,4,9,9,9h59.1c5,0,9-4,9-9V41.7c0-5-4-9-9-9L85.2,32.7z"/>
</g>
</svg>
