<svg xmlns="http://www.w3.org/2000/svg" viewBox="0 0 187.47 146.79"><defs><style>.cls-1{fill:#78a955;}</style></defs><title>cast_screen</title><g id="N_JOY" data-name="N&apos;JOY"><path class="cls-1" d="M102.3,121H43.23a15.87,15.87,0,0,1-15.85-15.85V73.37A15.87,15.87,0,0,1,43.23,57.52H102.3a15.87,15.87,0,0,1,15.85,15.85v31.75A15.87,15.87,0,0,1,102.3,121ZM43.23,64.41a9,9,0,0,0-9,9v31.75a9,9,0,0,0,9,9H102.3a9,9,0,0,0,9-9V73.37a9,9,0,0,0-9-9Z"/><path class="cls-1" d="M144.24,89.27H85.17A15.87,15.87,0,0,1,69.32,73.42V41.67A15.87,15.87,0,0,1,85.17,25.82h59.07a15.87,15.87,0,0,1,15.85,15.85V73.42A15.87,15.87,0,0,1,144.24,89.27ZM85.17,32.71a9,9,0,0,0-9,9V73.42a9,9,0,0,0,9,9h59.07a9,9,0,0,0,9-9V41.67a9,9,0,0,0-9-9Z"/></g></svg>