<?xml version="1.0" encoding="utf-8"?>
<!-- Generator: Adobe Illustrator 21.0.0, SVG Export Plug-In . SVG Version: 6.00 Build 0)  -->
<svg version="1.1" id="Calque_1" xmlns="http://www.w3.org/2000/svg" xmlns:xlink="http://www.w3.org/1999/xlink" x="0px" y="0px"
	 viewBox="0 0 128 128" style="enable-background:new 0 0 128 128;" xml:space="preserve">
<style type="text/css">
	.st0{fill:#FFFFFF;}
</style>
<title>cast</title>
<g id="Mode_Isolation">
	<path class="st0" d="M79.5,110H49.8c-6.8,0-12.3-5.5-12.3-12.3c0-2.9,1-5.6,2.8-7.8l14.9-18c2.3-2.8,5.8-4.5,9.5-4.5l0,0
		c3.7,0,7.2,1.6,9.5,4.5l14.9,18c4.3,5.3,3.5,13-1.7,17.3C85.1,109,82.3,110,79.5,110z M48.2,96.4c-0.7,0.8-0.7,2.1,0.1,2.8
		c0.4,0.4,0.9,0.5,1.4,0.5h29.7c1.1,0,2-0.8,2.1-1.9c0-0.5-0.2-1-0.5-1.4l-14.9-18c-0.4-0.5-1-0.7-1.6-0.7l0,0
		c-0.6,0-1.2,0.3-1.6,0.7L48.2,96.4z"/>
	<path class="st0" d="M100.7,22H27.3c-8.2,0-14.8,6.6-14.8,14.8c0,0,0,0,0,0v44.9c0,8.1,6.6,14.7,14.8,14.7h4.7
		c0.3-3.7,1.7-7.2,4-10l0,0l0.2-0.3h-9c-2.5,0-4.5-2-4.5-4.5V36.8c0-2.5,2-4.5,4.5-4.5h0h73.4c2.5,0,4.5,2,4.5,4.5v44.9
		c0,2.5-2,4.5-4.5,4.5H93l0.2,0.3c2.3,2.8,3.7,6.3,4,10h3.4c8.1,0,14.7-6.6,14.7-14.7V36.8C115.4,28.6,108.8,22,100.7,22
		C100.7,22,100.7,22,100.7,22z"/>
</g>
</svg>
