<svg xmlns="http://www.w3.org/2000/svg" viewBox="0 0 293.94 128"><defs><style>.cls-1{fill:#fff;}.cls-2{fill:#ed433d;}</style></defs><title>energy</title><g id="Mode_Isolation" data-name="Mode Isolation"><path class="cls-1" d="M245.25,125.34H18.87a16.06,16.06,0,0,1-16-16V18.7a16.06,16.06,0,0,1,16-16H245.25a16.06,16.06,0,0,1,16,16V37.05h16.89A13.33,13.33,0,0,1,291.5,50.37V77.63a13.33,13.33,0,0,1-13.32,13.32H261.29V109.3A16.06,16.06,0,0,1,245.25,125.34ZM18.87,12.44a6.27,6.27,0,0,0-6.26,6.26v90.6a6.27,6.27,0,0,0,6.26,6.26H245.25a6.27,6.27,0,0,0,6.26-6.26V81.17h26.67a3.59,3.59,0,0,0,3.54-3.54V50.37a3.55,3.55,0,0,0-3.54-3.54H251.51V18.7a6.27,6.27,0,0,0-6.26-6.26Z"/><path class="cls-2" d="M22.35,17.09H40.76a0,0,0,0,1,0,0v94.13a0,0,0,0,1,0,0H22.35a4.2,4.2,0,0,1-4.2-4.2V21.29A4.2,4.2,0,0,1,22.35,17.09Z"/></g></svg>