<?xml version="1.0" encoding="utf-8"?>
<!-- Generator: Adobe Illustrator 21.1.0, SVG Export Plug-In . SVG Version: 6.00 Build 0)  -->
<svg version="1.1" id="Calque_1" xmlns="http://www.w3.org/2000/svg" xmlns:xlink="http://www.w3.org/1999/xlink" x="0px" y="0px"
	 viewBox="0 0 64 64" style="enable-background:new 0 0 64 64;" xml:space="preserve">
<style type="text/css">
	.st0{fill:none;stroke:#808285;stroke-width:6;stroke-miterlimit:10;}
</style>
<g id="Calque_1_1_">
</g>
<g id="Calque_1_3_">
</g>
<g id="Calque_1_2_">
</g>
<path class="st0" d="M16.8,48.5c2.8,1.3,6.1,0.9,8.5-1.1l8-6.5c0.5,0.9,1.4,1.7,2.4,2.2c1.9,0.9,4.2,0.6,5.8-0.7l8.2-6.5
	c1.3-1.1,2-2.7,2-4.2c0-1.6-0.7-3.2-2-4.2l-8.1-6.6c-1.6-1.4-3.8-1.6-5.8-0.7c-1.1,0.5-1.9,1.3-2.4,2.3l-8-6.5
	c-2.4-2-5.7-2.5-8.5-1.1c-2.8,1.3-4.6,4.1-4.6,7.2l0,19.1C12.2,44.3,14,47.2,16.8,48.5z"/>
</svg>
