<?xml version="1.0" encoding="utf-8"?>
<!-- Generator: Adobe Illustrator 21.1.0, SVG Export Plug-In . SVG Version: 6.00 Build 0)  -->
<svg version="1.1" id="Calque_1" xmlns="http://www.w3.org/2000/svg" xmlns:xlink="http://www.w3.org/1999/xlink" x="0px" y="0px"
	 viewBox="0 0 64 64" style="enable-background:new 0 0 64 64;" xml:space="preserve">
<style type="text/css">
	.st0{fill:#808285;}
</style>
<g id="Calque_1_1_">
</g>
<g id="Calque_1_3_">
</g>
<g id="Calque_1_2_">
</g>
<path class="st0" d="M52.2,15.1L35.4,7.5c-1.3-0.6-2.8-0.2-3.6,0.9l-17.9,24c-0.2,0.3-0.4,0.7-0.5,1.1l-2.8,12.1
	c-0.3,1.4,0.4,2.9,1.8,3.5l17.5,6.9c0.4,0.1,0.7,0.2,1.1,0.2c1,0,1.9-0.5,2.5-1.3l16.4-24.2c0.2-0.2,0.3-0.5,0.4-0.8l3.7-11.2
	C54.3,17.3,53.6,15.7,52.2,15.1z M29.8,49.6l-12.9-5.1l2.1-9l5.8-7.7l12,5l-1.5,8.6L29.8,49.6z"/>
</svg>
