<svg xmlns="http://www.w3.org/2000/svg" viewBox="0 0 128 128"><defs><style>.cls-1{fill:#78a955;}</style></defs><title>hand_great</title><g id="Mode_Isolation" data-name="Mode Isolation"><rect class="cls-1" x="13.97" y="64.86" width="26.94" height="48.12" rx="5.55" ry="5.55"/><path class="cls-1" d="M39.63,110.93s42.86,5.66,54.59,1.21,13.7-7.08,11.91-13.62c0,0,10.13-7.27,4.4-16.85,0,0,8-8.21-.15-15.6,0,0,6.66-10.33-4.43-14.32s-24.27.92-24.27.92-7.16,2.08-4.85-6.24,9.71-26.81-2.31-33.75c0,0-8-3.47-9.22,7.17S61.11,43.8,51.63,51.76c0,0-12,7.94-11.44,16.57"/></g></svg>