<?xml version="1.0" encoding="utf-8"?>
<!-- Generator: Adobe Illustrator 22.1.0, SVG Export Plug-In . SVG Version: 6.00 Build 0)  -->
<svg version="1.1" id="Calque_1" xmlns="http://www.w3.org/2000/svg" xmlns:xlink="http://www.w3.org/1999/xlink" x="0px" y="0px"
	 viewBox="0 0 1920 1080" style="enable-background:new 0 0 1920 1080;" xml:space="preserve">
<style type="text/css">
	.st0{fill:#78A955;}
	.st1{fill:#FFFFFF;}
</style>
<rect x="-1.2" y="-4.5" class="st0" width="1923.2" height="1086.1"/>
<g id="Calque_1_1_">
</g>
<g id="N_x27_JOY">
	<g>
		<path class="st1" d="M913.5,608.4c-1.3,0-2.7-0.2-3.8-0.4c-1.3-0.4-2.5-0.9-3.4-1.6c-0.9-0.7-1.8-1.6-2.5-2.7
			c-0.7-1.1-0.9-2.5-0.9-3.8l0,0c0-1.6,0.2-2.9,0.9-4c0.7-1.1,1.3-2,2.5-2.9c1.1-0.7,2.5-1.3,3.8-1.8c1.6-0.4,3.1-0.7,4.9-0.7
			s3.4,0,4.7,0.2c1.3,0.2,2.7,0.4,4,0.9v-0.9c0-2.5-0.7-4.5-2.2-5.6c-1.6-1.3-3.6-2-6.3-2c-1.8,0-3.1,0.2-4.7,0.4
			c-1.3,0.4-2.7,0.9-4,1.6l-1.3-3.6c1.6-0.7,3.1-1.3,4.7-1.8c1.6-0.4,3.4-0.7,5.6-0.7c4,0,7.2,1.1,9.2,3.1s2.9,4.7,2.9,8.3v17.3
			h-4.3v-4.3c-0.9,1.3-2.2,2.5-4,3.4C918,608,915.9,608.4,913.5,608.4z M914.4,605.1c1.3,0,2.5-0.2,3.6-0.4c1.1-0.4,2.2-0.9,2.9-1.6
			c0.9-0.7,1.6-1.6,2-2.5c0.4-0.9,0.7-2,0.7-3.1v-2.7c-1.1-0.2-2.2-0.7-3.6-0.9c-1.3-0.2-2.9-0.4-4.7-0.4c-2.7,0-4.7,0.4-6,1.6
			c-1.3,1.1-2.2,2.5-2.2,4l0,0c0,0.9,0.2,1.6,0.7,2.5c0.4,0.7,0.9,1.3,1.6,1.8c0.7,0.4,1.3,0.9,2.2,1.1
			C912.4,604.8,913.2,605.1,914.4,605.1z"/>
		<path class="st1" d="M939,579.5h4.3v4.9c0.9-1.6,2.2-2.9,3.8-3.8c1.6-1.1,3.6-1.6,6-1.6c1.8,0,3.4,0.2,4.7,0.9
			c1.3,0.4,2.5,1.3,3.4,2.2c0.9,0.9,1.6,2.2,2.2,3.6c0.4,1.3,0.7,2.9,0.7,4.7V608h-4.3v-16.6c0-2.7-0.7-4.7-2-6.3
			c-1.3-1.6-3.4-2.2-5.8-2.2c-1.1,0-2.2,0.2-3.4,0.7c-1.1,0.4-2,1.1-2.7,1.8c-0.7,0.7-1.3,1.8-1.8,2.9s-0.7,2.2-0.7,3.6V608h-4.3
			v-28.5H939z"/>
		<path class="st1" d="M975.1,579.5h4.3v28.2h-4.3V579.5z"/>
		<path class="st1" d="M990.8,579.5h4.3v4.7c0.4-0.7,0.9-1.3,1.6-2c0.7-0.7,1.1-1.3,2-1.8c0.7-0.4,1.6-0.9,2.5-1.1
			c0.9-0.2,2-0.4,3.1-0.4c2.2,0,4.3,0.4,5.8,1.6c1.6,1.1,2.7,2.5,3.4,4c0.4-0.7,1.1-1.6,1.8-2.2c0.7-0.7,1.3-1.3,2.2-1.8
			c0.9-0.4,1.8-0.9,2.7-1.1c1.1-0.2,2.2-0.4,3.4-0.4c3.4,0,5.8,1.1,7.8,3.1c1.8,2,2.9,4.7,2.9,8.3v17.5h-4.3v-16.4
			c0-2.7-0.7-4.9-2-6.3c-1.3-1.6-3.1-2.2-5.4-2.2c-1.1,0-2,0.2-3.1,0.7c-0.9,0.4-1.8,0.9-2.5,1.8c-0.7,0.7-1.3,1.6-1.8,2.7
			c-0.4,1.1-0.7,2.2-0.7,3.8v16.4h-4.3v-16.8c0-2.7-0.7-4.7-2-6.3c-1.3-1.6-3.1-2.2-5.4-2.2c-1.1,0-2.2,0.2-3.1,0.7
			c-0.9,0.4-1.8,1.1-2.5,1.8c-0.7,0.9-1.3,1.8-1.6,2.9c-0.4,1.1-0.7,2.2-0.7,3.6V608h-4.3L990.8,579.5L990.8,579.5z"/>
		<path class="st1" d="M1047.7,595.4c0.2,1.6,0.4,2.9,1.1,4c0.7,1.1,1.3,2.2,2.2,2.9c0.9,0.9,2,1.3,3.1,1.8c1.1,0.4,2.2,0.7,3.6,0.7
			c2,0,3.6-0.4,5.2-1.1c1.3-0.7,2.7-1.8,3.8-2.9l2.7,2.5c-1.3,1.6-3.1,2.9-4.9,3.8c-1.8,0.9-4,1.3-6.7,1.3c-2,0-3.8-0.4-5.6-1.1
			c-1.8-0.7-3.1-1.8-4.5-2.9c-1.3-1.3-2.2-2.9-3.1-4.7c-0.7-1.8-1.1-3.8-1.1-6c0-2,0.4-4,1.1-5.8c0.7-1.8,1.6-3.4,2.9-4.7
			c1.1-1.3,2.7-2.5,4.3-3.1s3.6-1.1,5.4-1.1c2,0,4,0.4,5.6,1.1c1.6,0.9,3.1,1.8,4.3,3.1c1.1,1.3,2,2.9,2.7,4.7
			c0.7,1.8,0.9,3.8,0.9,5.8c0,0.2,0,0.4,0,0.7s0,0.4,0,0.9h-22.9V595.4z M1066.1,592.1c0-1.3-0.4-2.5-0.9-3.6
			c-0.4-1.1-1.1-2.2-1.8-2.9c-0.7-0.9-1.6-1.6-2.7-2c-1.1-0.4-2.2-0.7-3.8-0.7c-1.1,0-2.2,0.2-3.4,0.7c-1.1,0.4-2,1.1-2.9,2
			c-0.9,0.9-1.6,1.8-2,2.9c-0.4,1.1-0.9,2.5-1.1,3.8h18.6V592.1z"/>
		<path class="st1" d="M1099,567.9h4.3v39.9h-4.3V567.9z"/>
		<path class="st1" d="M1123.4,608.4c-1.3,0-2.7-0.2-3.8-0.4c-1.3-0.4-2.5-0.9-3.4-1.6c-0.9-0.7-1.8-1.6-2.5-2.7
			c-0.7-1.1-0.9-2.5-0.9-3.8l0,0c0-1.6,0.2-2.9,0.9-4c0.7-1.1,1.3-2,2.5-2.9c1.1-0.7,2.5-1.3,3.8-1.8c1.6-0.4,3.1-0.7,4.9-0.7
			c1.8,0,3.4,0,4.7,0.2c1.3,0.2,2.7,0.4,4,0.9v-0.9c0-2.5-0.7-4.5-2.2-5.6c-1.6-1.3-3.6-2-6.3-2c-1.8,0-3.1,0.2-4.7,0.4
			c-1.3,0.4-2.7,0.9-4,1.6l-1.3-3.6c1.6-0.7,3.1-1.3,4.7-1.8c1.6-0.4,3.4-0.7,5.6-0.7c4,0,7.2,1.1,9.2,3.1s2.9,4.7,2.9,8.3v17.3
			h-3.8v-4.3c-0.9,1.3-2.2,2.5-4,3.4C1128.1,608,1125.9,608.4,1123.4,608.4z M1124.3,605.1c1.3,0,2.5-0.2,3.6-0.4
			c1.1-0.4,2.2-0.9,2.9-1.6c0.9-0.7,1.6-1.6,2-2.5c0.4-0.9,0.7-2,0.7-3.1v-2.7c-1.1-0.2-2.2-0.7-3.6-0.9s-2.9-0.4-4.7-0.4
			c-2.7,0-4.7,0.4-6,1.6c-1.3,1.1-2.2,2.5-2.2,4l0,0c0,0.9,0.2,1.6,0.7,2.5c0.4,0.7,0.9,1.3,1.6,1.8c0.7,0.4,1.3,0.9,2.2,1.1
			C1122.5,604.8,1123.4,605.1,1124.3,605.1z"/>
		<path class="st1" d="M1165.1,579.5h4.7l9.6,23.5l9.6-23.5h4.5l-12.3,28.5h-3.8L1165.1,579.5z"/>
		<path class="st1" d="M1201.8,579.5h4.3v28.2h-4.3V579.5z"/>
		<path class="st1" d="M1220.2,595.4c0.2,1.6,0.4,2.9,1.1,4c0.7,1.1,1.3,2.2,2.2,2.9c0.9,0.9,2,1.3,3.1,1.8c1.1,0.4,2.2,0.7,3.6,0.7
			c2,0,3.6-0.4,5.2-1.1s2.7-1.8,3.8-2.9l2.7,2.5c-1.3,1.6-3.1,2.9-4.9,3.8c-1.8,0.9-4,1.3-6.7,1.3c-2,0-3.8-0.4-5.6-1.1
			c-1.8-0.7-3.1-1.8-4.5-2.9c-1.3-1.3-2.2-2.9-3.1-4.7c-0.7-1.8-1.1-3.8-1.1-6c0-2,0.4-4,1.1-5.8s1.6-3.4,2.9-4.7
			c1.1-1.3,2.7-2.5,4.3-3.1s3.6-1.1,5.4-1.1c2,0,4,0.4,5.6,1.1c1.6,0.9,3.1,1.8,4.3,3.1c1.1,1.3,2,2.9,2.7,4.7
			c0.7,1.8,0.9,3.8,0.9,5.8c0,0.2,0,0.4,0,0.7s0,0.4,0,0.9h-22.9V595.4z M1238.6,592.1c0-1.3-0.4-2.5-0.9-3.6
			c-0.4-1.1-1.1-2.2-1.8-2.9c-0.7-0.9-1.6-1.6-2.7-2c-1.1-0.4-2.2-0.7-3.8-0.7c-1.1,0-2.2,0.2-3.4,0.7s-2,1.1-2.9,2
			c-0.9,0.9-1.6,1.8-2,2.9c-0.4,1.1-0.9,2.5-1.1,3.8h18.6V592.1z"/>
		<path class="st1" d="M1259.9,572.8v-3.1h4.9v3.1l-1.1,24.2h-2.5L1259.9,572.8z"/>
	</g>
	<g>
		<g>
			<path class="st1" d="M751,429.2c-59.8,0-108.7,48.8-108.7,108.7c0,59.8,48.8,108.7,108.7,108.7s108.7-48.8,108.7-108.7
				C859.7,477.8,811.1,429.2,751,429.2z M751,630.2c-50.9,0-92.3-41.4-92.3-92.3c0-51.1,41.4-92.3,92.3-92.3
				c51.1,0,92.3,41.4,92.3,92.3C843.6,588.7,802.1,630.2,751,630.2z"/>
			<path class="st1" d="M793.8,541c1.3-2.9,2-6,2-9.4c0-12.5-10.1-22.6-22.4-22.6c-8.5,0-16.1,4.9-19.7,11.9
				c-3.8-7.2-11.2-11.9-19.7-11.9c-12.3,0-22.4,10.1-22.4,22.6c0,3.4,0.9,6.7,2.2,9.6c4.9,11.9,26.4,28.5,31.4,32.5l6.5,5.2
				c1.3,1.1,3.4,1.1,4.9,0l5.8-4.9C771.4,565.9,789.8,551.5,793.8,541z"/>
		</g>
		<path class="st1" d="M812.9,489.7l-11.2-4.3l0.7-11.9c0-0.7-0.4-1.3-0.9-1.6c-0.7-0.2-1.3,0-1.8,0.4l-7.4,9.4l-11.2-4.3
			c-0.7-0.2-1.3,0-1.8,0.4c-0.4,0.4-0.4,1.1,0,1.8l6.7,10.1l-7.6,9.2c-0.4,0.4-0.4,1.1,0,1.8c0.4,0.4,1.1,0.9,1.6,0.7l11.7-3.1
			l6.5,10.1c0.2,0.4,0.7,0.7,1.3,0.7c0.2,0,0.2,0,0.4,0c0.7-0.2,1.1-0.7,1.1-1.3l0.4-11.9l11.7-3.1c0.7-0.2,1.1-0.7,1.1-1.3
			C813.8,490.4,813.5,489.9,812.9,489.7z"/>
		<path class="st1" d="M786,576.6c-6.7,12.5-19.9,21.3-35,21.3c-15.2,0-28.2-8.5-35-21.3h-13.4C710,596.1,729.1,610,751,610
			s41-13.9,48.4-33.4H786z"/>
	</g>
	<circle class="st1" cx="977.1" cy="571.5" r="2.7"/>
	<circle class="st1" cx="1204.1" cy="571.5" r="2.7"/>
	<circle class="st1" cx="1262.5" cy="605.3" r="2.7"/>
	<g>
		<polygon class="st1" points="961.2,519.5 921.8,467.7 904.7,467.7 904.7,551.7 923.1,551.7 923.1,498.2 963.7,551.7 979.3,551.7 
			979.3,467.7 961.2,467.7 		"/>
		<path class="st1" d="M1166.4,478.9c-4-3.8-8.7-6.9-14.1-9.2c-5.4-2.2-11.4-3.4-17.9-3.4c-6.5,0-12.5,1.1-17.9,3.4
			c-5.4,2.2-10.3,5.4-14.1,9.4c-4,4-7.2,8.5-9.4,13.9c-2.2,5.2-3.4,10.8-3.4,16.8v0.2c0,6,1.1,11.7,3.4,16.8
			c2.2,5.2,5.4,9.9,9.2,13.7c4,3.8,8.7,6.9,14.1,9.2c5.4,2.2,11.4,3.4,17.9,3.4c6.5,0,12.5-1.1,17.9-3.4c5.4-2.2,10.3-5.4,14.1-9.4
			c4-4,7.2-8.5,9.4-13.9c2.2-5.2,3.4-10.8,3.4-16.8v-0.2c0-6-1.1-11.7-3.4-16.8C1173.4,487.4,1170.2,482.7,1166.4,478.9z
			 M1159.5,509.8c0,3.6-0.7,6.9-1.8,10.1c-1.3,3.1-2.9,6-5.2,8.3c-2.2,2.5-4.9,4.3-8.1,5.6c-3.1,1.3-6.5,2-10.3,2s-7.2-0.7-10.3-2
			c-3.1-1.3-5.8-3.4-8.1-5.6c-2.2-2.5-4-5.2-5.4-8.3c-1.3-3.1-1.8-6.5-1.8-10.3v-0.2c0-3.6,0.7-6.9,1.8-10.1c1.3-3.1,2.9-6,5.2-8.3
			c2.2-2.5,4.9-4.3,7.8-5.6c3.1-1.3,6.5-2,10.3-2c3.6,0,7.2,0.7,10.3,2c3.1,1.3,5.8,3.4,8.1,5.6c2.2,2.5,4,5.2,5.4,8.5
			c1.3,3.1,1.8,6.5,1.8,10.3l0,0H1159.5z"/>
		<polygon class="st1" points="1244.2,467.7 1223.8,501.3 1203.6,467.7 1182.1,467.7 1214.4,518.6 1214.4,551.7 1233,551.7 
			1233,518.1 1265.2,467.7 		"/>
		<path class="st1" d="M1050.4,509.8L1050.4,509.8v0.2c0,3.6-0.7,6.9-1.8,10.1c-1.3,3.1-2.9,6-5.2,8.3c-2.2,2.5-4.9,4.3-8.1,5.6
			s-6.5,2-10.3,2c0,0,0,0-0.2,0h-3.1v17.3h3.1c6.5,0,12.3-1.1,17.9-3.4c5.4-2.2,10.3-5.4,14.1-9.4c4-4,7.2-8.5,9.4-13.9
			c2.2-5.2,3.4-10.8,3.4-16.8l0,0v-42.1h-19.3L1050.4,509.8L1050.4,509.8z"/>
		<path class="st1" d="M1022.4,480.3c0-7.8-6.3-13.9-13.9-13.9c-7.8,0-13.9,6.3-13.9,13.9c0,7.8,6.3,13.9,13.9,13.9h0.2
			c-2.2,1.8-4.9,3.4-7.8,4v6c1.8-0.2,3.4-0.7,4.9-1.3c3.4-1.3,6.3-3.1,8.7-5.4c2.5-2.2,4.3-4.9,5.8-7.8c1.1-2.5,1.8-5.2,2-8.1
			C1022.4,481.2,1022.4,480.7,1022.4,480.3z"/>
	</g>
</g>
</svg>
