<?xml version="1.0" encoding="utf-8"?>
<!-- Generator: Adobe Illustrator 21.1.0, SVG Export Plug-In . SVG Version: 6.00 Build 0)  -->
<svg version="1.1" id="Calque_1" xmlns="http://www.w3.org/2000/svg" xmlns:xlink="http://www.w3.org/1999/xlink" x="0px" y="0px"
	 viewBox="0 0 1920 1080" style="enable-background:new 0 0 1920 1080;" xml:space="preserve">
<style type="text/css">
	.st0{fill:#9ABC7C;}
	.st1{fill:#FFFFFF;}
	.st2{fill:none;}
	.st3{clip-path:url(#SVGID_2_);}
	.st4{fill:#4FAE4E;}
	.st5{fill:#F7AB86;}
	.st6{fill:#ED4736;}
	.st7{fill:#5A7681;}
	.st8{fill:#6CBC5C;}
	.st9{fill:#314950;}
	.st10{fill:#010101;}
	.st11{clip-path:url(#SVGID_4_);}
	.st12{clip-path:url(#SVGID_6_);}
	.st13{fill:none;stroke:#674944;stroke-width:5;stroke-linecap:round;stroke-miterlimit:10;}
	.st14{fill:#674944;}
</style>
<g id="Calque_1_1_">
	<rect class="st0" width="1920" height="1080"/>
</g>
<g id="Mode_Isolation">
	<g>
		<g>
			<path class="st1" d="M1188.9,258.5h-458c-50.8,0-92.1,41.3-92.1,92.1v280.3c0,50.8,41.3,92.1,92.1,92.1h29.6
				c1.6-22.3,10.1-44,25.1-62.2l0,0l1.5-1.9h-56.2c-15.4,0-28-12.6-28-28V350.5c0-15.4,12.6-28,28-28h458c15.4,0,28,12.6,28,28
				v280.3c0,15.4-12.6,28-28,28h-48.2l1.5,1.9c15,18.2,23.5,39.9,25.1,62.2h21.5c50.8,0,92.1-41.3,92.1-92.1V350.5
				C1281,299.8,1239.7,258.5,1188.9,258.5z"/>
		</g>
		<g>
			<g>
				<line class="st2" x1="827" y1="718.2" x2="1092.9" y2="452.4"/>
				<path class="st1" d="M827,753.7c-9.1,0-18.1-3.5-25-10.4c-13.8-13.8-13.8-36.3,0-50.1l265.8-265.8c13.8-13.8,36.3-13.8,50.1,0
					c13.8,13.8,13.8,36.3,0,50.1L852.1,743.3C845.1,750.2,836.1,753.7,827,753.7z"/>
			</g>
			<g>
				<line class="st2" x1="827" y1="452.4" x2="1092.9" y2="718.2"/>
				<path class="st1" d="M1092.9,753.7c-9.1,0-18.1-3.5-25-10.4L802,477.5c-13.8-13.8-13.8-36.3,0-50.1c13.8-13.8,36.3-13.8,50.1,0
					l265.8,265.8c13.8,13.8,13.8,36.3,0,50.1C1111,750.2,1101.9,753.7,1092.9,753.7z"/>
			</g>
		</g>
	</g>
</g>
<g id="mustach">
	<g>
		<g>
			<defs>
				<rect id="SVGID_1_" x="111.2" y="299.6" width="828.8" height="780.4"/>
			</defs>
			<clipPath id="SVGID_2_">
				<use xlink:href="#SVGID_1_"  style="overflow:visible;"/>
			</clipPath>
			<g class="st3">
				<path class="st4" d="M398.4,1051.5l-20.7-182.2c0-54.7,40.2-99.4,89.3-99.4h22.3c49.1,0,89.3,44.7,89.3,99.4l20.7,182.2H398.4z"
					/>
				<path class="st5" d="M345.8,553.6c0,90.3,73.2,165.6,163.5,165.6s163.5-75.3,163.5-165.6s-73.2-163.5-163.5-163.5
					S345.8,463.3,345.8,553.6z"/>
				<path class="st6" d="M312.6,555.7c0,80.2,51.2,148.4,122.7,173.7c18.6,47.8,68.8,85.5,173.3,70.6
					c72.5-10.4,120.1-53.8,120.1-120.1c0-40-19.6-81.7-49.7-103.5c1.3-8.8,2.1-11.5,2.1-20.7c0-101.8-82.5-184.2-184.2-184.2
					S312.6,453.9,312.6,555.7z M455.5,528.8c0,0,93.2-31.1,107.6-122.1c0,0,64,19.4,99.3,89.4c0,0,12.4,31.2,9.3,76.5
					c0,0-90-37.5-162.5,20.4c0,0-41.4,33.1-47.6-8.3C455.5,543.3,455.5,528.8,455.5,528.8z"/>
				<path class="st5" d="M672.9,605.4l-93.2,4.1c0,0,18.6,43.5,68.3,43.5S672.9,605.4,672.9,605.4z"/>
				<path class="st5" d="M664.5,614.4l8.3-9c0,0-41.4,4.1-53.8-22.8c0,0-2.1,26.9-39.3,26.9"/>
				<path class="st5" d="M360.4,559.1c25.5-4.4,48.8-11.3,68.6-18.7l-0.4,0.8c0,0-2.4,19.8-3.3,49.2c-6.9,6.7-16.3,10.9-26.7,10.9
					c-21.2,0-38.3-17.1-38.3-38.3C360.3,561.6,360.3,560.4,360.4,559.1z"/>
				<rect x="398.7" y="1051.4" class="st7" width="200.8" height="78.7"/>
				<path class="st7" d="M459.2,1329.6L459.2,1329.6c15.2-2.5,25.5-16.7,23-31.9l-28.3-175.1c-2.5-15.2-16.7-25.5-31.9-23l0,0
					c-15.2,2.5-25.5,16.7-23,31.9l28.3,175.1C429.7,1321.7,444,1332,459.2,1329.6z"/>
				<path class="st7" d="M399.6,1497.7L399.6,1497.7c14.8,4.2,30.1-4.4,34.3-19.2l48.4-170.7c4.2-14.8-4.4-30.1-19.2-34.3l0,0
					c-14.8-4.2-30.1,4.4-34.3,19.2l-48.4,170.7C376.3,1478.2,384.9,1493.6,399.6,1497.7z"/>
				<g>
					<path class="st8" d="M814.6,848.7L814.6,848.7c-6.3-11.2-20.6-15.3-31.9-9l-144.5,81c-11.2,6.3-15.3,20.6-9,31.9l0,0
						c6.3,11.2,20.6,15.3,31.9,9l144.5-81C816.9,874.3,820.9,860,814.6,848.7z"/>
					
						<ellipse transform="matrix(0.8723 -0.489 0.489 0.8723 -318.914 498.5664)" class="st5" cx="795" cy="859.8" rx="23.4" ry="23.4"/>
				</g>
				<path class="st9" d="M434,1470.3l64.3,29.8c0,0,22.5,8.1-0.1,7.8c-22.6-0.3-120.5-1.6-120.5-1.6l0.5-36.8L434,1470.3z"/>
				<path class="st7" d="M606.7,1329.6L606.7,1329.6c15.2-2.5,25.5-16.7,23-31.9l-28.3-175.1c-2.5-15.2-16.7-25.5-31.9-23l0,0
					c-15.2,2.5-25.5,16.7-23,31.9l28.3,175.1C577.3,1321.7,591.6,1332,606.7,1329.6z"/>
				<path class="st7" d="M547.2,1497.7L547.2,1497.7c14.8,4.2,30.1-4.4,34.3-19.2l48.4-170.7c4.2-14.8-4.4-30.1-19.2-34.3l0,0
					c-14.8-4.2-30.1,4.4-34.3,19.2L528,1463.4C523.8,1478.2,532.4,1493.6,547.2,1497.7z"/>
				<path class="st9" d="M581.6,1470.3l64.3,29.8c0,0,22.5,8.1-0.1,7.8c-22.6-0.3-120.5-1.6-120.5-1.6l0.5-36.8L581.6,1470.3z"/>
				<path class="st10" d="M629.8,915.4l145.8,0.5c5.5,0,11.2-4.1,12.7-9.3l35.2-116.9c1.5-5.1-1.7-9.3-7.1-9.3l-145.8-0.5
					c-5.5,0-11.2,4.1-12.7,9.3l-35.2,116.9C621.1,911.2,624.3,915.4,629.8,915.4z"/>
				<g>
					<path class="st8" d="M665.1,842.3L665.1,842.3c-6.1-11.4-20.3-15.7-31.7-9.7l-146.3,77.9c-11.4,6.1-15.7,20.3-9.7,31.7l0,0
						c6.1,11.4,20.3,15.7,31.7,9.7L655.4,874C666.8,868,671.1,853.7,665.1,842.3z"/>
					
						<ellipse transform="matrix(0.8827 -0.47 0.47 0.8827 -325.1765 403.3004)" class="st5" cx="645.2" cy="852.9" rx="23.4" ry="23.4"/>
				</g>
			</g>
		</g>
		<g>
			<defs>
				<rect id="SVGID_3_" x="111.2" y="299.6" width="828.8" height="780.4"/>
			</defs>
			<clipPath id="SVGID_4_">
				<use xlink:href="#SVGID_3_"  style="overflow:visible;"/>
			</clipPath>
			<g class="st11">
				<path class="st6" d="M535.1,496.7c-1.1,0-2.2-0.3-3.2-1c-2.8-1.8-3.6-5.5-1.8-8.3c13.2-20.5,46.6-21.7,48-21.7
					c0.1,0,0.1,0,0.2,0c3.2,0,5.9,2.6,6,5.8c0.1,3.3-2.5,6.1-5.8,6.2c-0.2,0-7.6,0.3-16.1,2.6c-7.4,2-17.3,6-22.2,13.7
					C539,495.7,537.1,496.7,535.1,496.7z"/>
			</g>
		</g>
		<g>
			<defs>
				<rect id="SVGID_5_" x="111.2" y="299.6" width="828.8" height="780.4"/>
			</defs>
			<clipPath id="SVGID_6_">
				<use xlink:href="#SVGID_5_"  style="overflow:visible;"/>
			</clipPath>
			<g class="st12">
				<path class="st6" d="M663.5,496.7c-1.6,0-3.1-0.6-4.3-1.8c-20.3-21.1-36.4-18.5-37.1-18.4c-3.2,0.7-6.4-1.4-7.1-4.6
					s1.4-6.4,4.7-7.1c0.9-0.2,22.9-4.5,48.2,21.8c2.3,2.4,2.2,6.2-0.2,8.5C666.4,496.1,664.9,496.7,663.5,496.7z"/>
			</g>
		</g>
	</g>
	<path class="st13" d="M673.5,528.2c0,0-27.5-12.3-45.5,0"/>
	<path class="st13" d="M591.8,528.2c0,0-27.5-12.3-45.5,0"/>
	<path class="st13" d="M661.8,622.4c0,0-28.9-8.6-45.1,6"/>
	<circle class="st14" cx="646.5" cy="531.8" r="8.1"/>
	<circle class="st14" cx="563.8" cy="531.8" r="8.1"/>
</g>
<g id="N_x27_JOY">
</g>
</svg>
