<svg xmlns="http://www.w3.org/2000/svg" viewBox="0 0 334.13 146.79"><defs><style>.cls-1{fill:#78a955;}</style></defs><title>logo_vertical copie</title><g id="N_JOY" data-name="N&apos;JOY"><path class="cls-1" d="M149.05,105a6.39,6.39,0,0,1-1.74-.24,4.57,4.57,0,0,1-1.52-.75,3.87,3.87,0,0,1-1.07-1.23,3.48,3.48,0,0,1-.41-1.71v0a3.9,3.9,0,0,1,.39-1.8,3.5,3.5,0,0,1,1.12-1.28,5.38,5.38,0,0,1,1.72-.78,8.41,8.41,0,0,1,2.2-.27,13.39,13.39,0,0,1,2.13.15,15.7,15.7,0,0,1,1.76.39V97a3.2,3.2,0,0,0-1-2.54,4.07,4.07,0,0,0-2.78-.86,8,8,0,0,0-2.05.25,10.69,10.69,0,0,0-1.81.66L145.44,93a13.4,13.4,0,0,1,2.14-.79,9.38,9.38,0,0,1,2.48-.3,5.58,5.58,0,0,1,4.1,1.39A5,5,0,0,1,155.49,97v7.73h-1.87v-1.88a6,6,0,0,1-1.78,1.5A5.49,5.49,0,0,1,149.05,105Zm.38-1.54a5.36,5.36,0,0,0,1.64-.24,4.24,4.24,0,0,0,1.33-.69,3.34,3.34,0,0,0,.91-1.07,2.88,2.88,0,0,0,.33-1.37V98.88q-.71-.19-1.62-.36a11.3,11.3,0,0,0-2.08-.17,4.62,4.62,0,0,0-2.73.69,2.15,2.15,0,0,0-1,1.84v0a2.19,2.19,0,0,0,.26,1.06,2.33,2.33,0,0,0,.7.79,3.35,3.35,0,0,0,1,.49A4.22,4.22,0,0,0,149.43,103.43Z"/><path class="cls-1" d="M160.43,92.06h1.89v2.2A6,6,0,0,1,164,92.52a4.58,4.58,0,0,1,2.68-.72,5.37,5.37,0,0,1,2.05.37,4.24,4.24,0,0,1,1.52,1,4.57,4.57,0,0,1,1,1.6,6.08,6.08,0,0,1,.33,2.05v7.85h-1.89V97.34a4,4,0,0,0-.91-2.78,3.3,3.3,0,0,0-2.6-1,4,4,0,0,0-1.51.28,3.54,3.54,0,0,0-1.22.81,3.63,3.63,0,0,0-.8,1.26,4.45,4.45,0,0,0-.28,1.61v7.22h-1.89Z"/><path class="cls-1" d="M176.53,92.06h1.89V104.7h-1.89Z"/><path class="cls-1" d="M183.58,92.06h1.89v2.13a10.51,10.51,0,0,1,.7-.91,4.4,4.4,0,0,1,.87-.77,4.32,4.32,0,0,1,1.1-.53,4.69,4.69,0,0,1,1.43-.2,4.28,4.28,0,0,1,2.55.72,4.69,4.69,0,0,1,1.52,1.8,8.1,8.1,0,0,1,.77-1,4.87,4.87,0,0,1,1-.81,4.7,4.7,0,0,1,1.22-.54,5.42,5.42,0,0,1,1.51-.2,4.48,4.48,0,0,1,3.46,1.36,5.28,5.28,0,0,1,1.25,3.73v7.82H201V97.34a4.12,4.12,0,0,0-.87-2.82,3.06,3.06,0,0,0-2.42-1,3.58,3.58,0,0,0-1.35.26,3.14,3.14,0,0,0-1.12.76,3.65,3.65,0,0,0-.76,1.23,4.59,4.59,0,0,0-.28,1.66v7.27h-1.87V97.29a4,4,0,0,0-.87-2.77,3,3,0,0,0-2.4-1,3.32,3.32,0,0,0-1.4.29,3.36,3.36,0,0,0-1.12.83,4,4,0,0,0-.75,1.26,4.53,4.53,0,0,0-.27,1.6v7.2h-1.89Z"/><path class="cls-1" d="M209,99.15a5,5,0,0,0,.49,1.78,4.27,4.27,0,0,0,1,1.32,4.38,4.38,0,0,0,1.38.82,4.59,4.59,0,0,0,1.6.28,4.89,4.89,0,0,0,2.27-.49,6.74,6.74,0,0,0,1.73-1.3l1.18,1.05a7.73,7.73,0,0,1-2.19,1.72,6.48,6.48,0,0,1-3,.65,6.35,6.35,0,0,1-2.46-.48,6,6,0,0,1-2-1.34,6.37,6.37,0,0,1-1.36-2.09,7,7,0,0,1-.5-2.69,7.25,7.25,0,0,1,.45-2.58,6.48,6.48,0,0,1,1.26-2.1,5.92,5.92,0,0,1,1.93-1.41,6.16,6.16,0,0,1,5,0,5.49,5.49,0,0,1,1.87,1.43,6.21,6.21,0,0,1,1.15,2.13,8.48,8.48,0,0,1,.39,2.62v.28a3.45,3.45,0,0,1,0,.38Zm8.18-1.54A5.86,5.86,0,0,0,216.8,96a4.52,4.52,0,0,0-.8-1.35,3.67,3.67,0,0,0-1.23-.92,3.87,3.87,0,0,0-1.66-.34,3.71,3.71,0,0,0-1.52.32,3.86,3.86,0,0,0-1.25.89,5,5,0,0,0-.9,1.35,5.38,5.38,0,0,0-.45,1.68Z"/><path class="cls-1" d="M231.91,86.86h1.89V104.7h-1.89Z"/><path class="cls-1" d="M242.8,105a6.39,6.39,0,0,1-1.74-.24,4.57,4.57,0,0,1-1.52-.75,3.87,3.87,0,0,1-1.07-1.23,3.48,3.48,0,0,1-.41-1.71v0a3.9,3.9,0,0,1,.39-1.8,3.5,3.5,0,0,1,1.12-1.28,5.38,5.38,0,0,1,1.72-.78,8.41,8.41,0,0,1,2.2-.27,13.39,13.39,0,0,1,2.13.15,15.7,15.7,0,0,1,1.76.39V97a3.2,3.2,0,0,0-1-2.54,4.07,4.07,0,0,0-2.78-.86,8,8,0,0,0-2.05.25,10.69,10.69,0,0,0-1.81.66L239.19,93a13.4,13.4,0,0,1,2.14-.79,9.38,9.38,0,0,1,2.48-.3,5.58,5.58,0,0,1,4.1,1.39A5,5,0,0,1,249.24,97v7.73h-1.87v-1.88a6,6,0,0,1-1.78,1.5A5.49,5.49,0,0,1,242.8,105Zm.38-1.54a5.36,5.36,0,0,0,1.64-.24,4.24,4.24,0,0,0,1.33-.69,3.34,3.34,0,0,0,.91-1.07,2.88,2.88,0,0,0,.33-1.37V98.88q-.71-.19-1.62-.36a11.3,11.3,0,0,0-2.08-.17A4.62,4.62,0,0,0,241,99a2.15,2.15,0,0,0-1,1.84v0a2.19,2.19,0,0,0,.26,1.06,2.33,2.33,0,0,0,.7.79,3.35,3.35,0,0,0,1,.49A4.22,4.22,0,0,0,243.18,103.43Z"/><path class="cls-1" d="M261.32,92.06h2.09l4.27,10.49L272,92.06h2L268.5,104.8h-1.67Z"/><path class="cls-1" d="M277.79,92.06h1.89V104.7h-1.89Z"/><path class="cls-1" d="M286,99.15a5,5,0,0,0,.49,1.78,4.27,4.27,0,0,0,1,1.32,4.38,4.38,0,0,0,1.38.82,4.59,4.59,0,0,0,1.6.28,4.89,4.89,0,0,0,2.27-.49,6.74,6.74,0,0,0,1.73-1.3l1.18,1.05a7.73,7.73,0,0,1-2.19,1.72,6.48,6.48,0,0,1-3,.65,6.35,6.35,0,0,1-2.46-.48,6,6,0,0,1-2-1.34,6.37,6.37,0,0,1-1.36-2.09,7,7,0,0,1-.5-2.69,7.25,7.25,0,0,1,.45-2.58,6.48,6.48,0,0,1,1.26-2.1,5.92,5.92,0,0,1,1.93-1.41,6.16,6.16,0,0,1,5,0,5.49,5.49,0,0,1,1.87,1.43,6.21,6.21,0,0,1,1.15,2.13,8.48,8.48,0,0,1,.39,2.62v.28a3.45,3.45,0,0,1,0,.38Zm8.18-1.54a5.86,5.86,0,0,0-.37-1.62,4.52,4.52,0,0,0-.8-1.35,3.67,3.67,0,0,0-1.23-.92,3.87,3.87,0,0,0-1.66-.34,3.71,3.71,0,0,0-1.52.32,3.86,3.86,0,0,0-1.25.89,5,5,0,0,0-.9,1.35,5.38,5.38,0,0,0-.45,1.68Z"/><path class="cls-1" d="M303.72,89V87.59h2.21V89l-.59,10.88h-1.06Z"/><path class="cls-1" d="M76.6,24.89A48.51,48.51,0,1,0,125.1,73.39,48.56,48.56,0,0,0,76.6,24.89Zm0,89.74a41.24,41.24,0,1,1,41.23-41.24A41.24,41.24,0,0,1,76.6,114.63Z"/><path class="cls-1" d="M95.68,74.8a10.25,10.25,0,0,0,.91-4.18,10,10,0,0,0-18.86-4.74,10,10,0,0,0-18.86,4.74,10.41,10.41,0,0,0,1,4.29c2.17,5.35,11.77,12.69,14,14.53l2.9,2.26a1.71,1.71,0,0,0,2.16,0l2.6-2.21C85.71,85.93,93.9,79.57,95.68,74.8Z"/><path class="cls-1" d="M104.15,51.91l-5-1.86.3-5.34a.66.66,0,0,0-1.18-.45l-3.32,4.2-5-1.94a.66.66,0,0,0-.79,1l3,4.45-3.38,4.15a.66.66,0,0,0,.69,1.06l5.15-1.45,2.9,4.5a.66.66,0,0,0,.56.3l.17,0a.66.66,0,0,0,.49-.61l.22-5.35,5.18-1.37a.66.66,0,0,0,.06-1.26Z"/><path class="cls-1" d="M92.21,90.73a17.62,17.62,0,0,1-31.23,0H55a23.09,23.09,0,0,0,43.19,0Z"/><circle class="cls-1" cx="177.49" cy="88.42" r="1.24"/><circle class="cls-1" cx="278.75" cy="88.42" r="1.24"/><polygon class="cls-1" points="170.37 65.2 152.8 42.11 145.19 42.11 145.19 79.61 153.34 79.61 153.34 55.77 171.5 79.61 178.52 79.61 178.52 42.11 170.37 42.11 170.37 65.2"/><path class="cls-1" d="M261.93,47.12A19.86,19.86,0,0,0,255.64,43a21.7,21.7,0,0,0-16,0,19.18,19.18,0,0,0-10.47,10.34,18.94,18.94,0,0,0-1.5,7.53V61a19.23,19.23,0,0,0,1.47,7.53,18.45,18.45,0,0,0,4.12,6.11,19.84,19.84,0,0,0,6.3,4.13,20.45,20.45,0,0,0,8,1.53,20.66,20.66,0,0,0,8-1.53A19.19,19.19,0,0,0,266,68.39a19,19,0,0,0,1.5-7.53v-.11a19.24,19.24,0,0,0-1.47-7.53A18.48,18.48,0,0,0,261.93,47.12Zm-3,13.85a12.29,12.29,0,0,1-.83,4.53,11.92,11.92,0,0,1-2.3,3.73,10.41,10.41,0,0,1-3.56,2.52,11.25,11.25,0,0,1-4.55.91,11,11,0,0,1-4.58-.94,11.32,11.32,0,0,1-5.95-6.3,12.49,12.49,0,0,1-.83-4.55v-.11a12.28,12.28,0,0,1,.83-4.53,11.86,11.86,0,0,1,2.3-3.72A10.48,10.48,0,0,1,243,50a11.2,11.2,0,0,1,4.58-.91,11,11,0,0,1,4.55.94,11.24,11.24,0,0,1,6,6.3,12.51,12.51,0,0,1,.83,4.55Z"/><polygon class="cls-1" points="296.67 42.11 287.56 57.16 278.61 42.11 268.97 42.11 283.38 64.83 283.38 79.61 291.63 79.61 291.63 64.66 306.05 42.11 296.67 42.11"/><path class="cls-1" d="M210.13,61h0v.11a12.29,12.29,0,0,1-.83,4.53,11.92,11.92,0,0,1-2.3,3.73,10.41,10.41,0,0,1-3.56,2.52,11.25,11.25,0,0,1-4.55.91h-1.44v7.61h1.39a20.65,20.65,0,0,0,8-1.52A19.19,19.19,0,0,0,217.26,68.5a19,19,0,0,0,1.5-7.53h0V42.11h-8.63Z"/><path class="cls-1" d="M197.69,47.71A6.25,6.25,0,1,0,191.44,54h.12a9.4,9.4,0,0,1-3.48,1.83v2.67a12.76,12.76,0,0,0,2.22-.62,12.06,12.06,0,0,0,3.9-2.37A11,11,0,0,0,196.77,52a9.9,9.9,0,0,0,.89-3.62A6.32,6.32,0,0,0,197.69,47.71Z"/></g></svg>