<?xml version="1.0" encoding="utf-8"?>
<!-- Generator: Adobe Illustrator 21.0.0, SVG Export Plug-In . SVG Version: 6.00 Build 0)  -->
<svg version="1.1" xmlns="http://www.w3.org/2000/svg" xmlns:xlink="http://www.w3.org/1999/xlink" x="0px" y="0px"
	 viewBox="0 0 64 64" style="enable-background:new 0 0 64 64;" xml:space="preserve">
<style type="text/css">
	.st0{fill:#BCBCBC;}
</style>
<g id="Calque_1">
</g>
<g id="Mode_Isolation">
	<g>
		<g>
			<path class="st0" d="M50.4,11.7H13.5C9.4,11.7,6,15,6,19.1v22.6c0,4.1,3.3,7.4,7.4,7.4h2.4c0.1-1.8,0.8-3.5,2-5v0L18,44h-4.5
				c-1.2,0-2.3-1-2.3-2.3V19.1c0-1.2,1-2.3,2.3-2.3h36.9c1.2,0,2.3,1,2.3,2.3v22.6c0,1.2-1,2.3-2.3,2.3h-3.9l0.1,0.1
				c1.2,1.5,1.9,3.2,2,5h1.7c4.1,0,7.4-3.3,7.4-7.4V19.1C57.8,15,54.5,11.7,50.4,11.7z"/>
		</g>
		<g>
			<g>
				<line class="st0" x1="21.2" y1="48.8" x2="42.7" y2="27.3"/>
				<path class="st0" d="M21.2,51.6c-0.7,0-1.5-0.3-2-0.8c-1.1-1.1-1.1-2.9,0-4l21.4-21.4c1.1-1.1,2.9-1.1,4,0c1.1,1.1,1.1,2.9,0,4
					L23.2,50.8C22.7,51.4,21.9,51.6,21.2,51.6z"/>
			</g>
			<g>
				<line class="st0" x1="21.2" y1="27.3" x2="42.7" y2="48.8"/>
				<path class="st0" d="M42.7,51.6c-0.7,0-1.5-0.3-2-0.8L19.2,29.4c-1.1-1.1-1.1-2.9,0-4c1.1-1.1,2.9-1.1,4,0l21.4,21.4
					c1.1,1.1,1.1,2.9,0,4C44.1,51.4,43.4,51.6,42.7,51.6z"/>
			</g>
		</g>
	</g>
</g>
</svg>
