<svg xmlns="http://www.w3.org/2000/svg" viewBox="0 0 288.47 342.91"><defs><style>.cls-1{fill:#78a955;}</style></defs><title>logo_vertical</title><g id="N_JOY" data-name="N&apos;JOY"><path class="cls-1" d="M144.24,23.21a75.67,75.67,0,1,0,75.67,75.67A75.76,75.76,0,0,0,144.24,23.21Zm0,140a64.33,64.33,0,1,1,64.33-64.33A64.33,64.33,0,0,1,144.24,163.21Z"/><path class="cls-1" d="M174,101.07a16,16,0,0,0,1.41-6.53A15.62,15.62,0,0,0,146,87.14a15.62,15.62,0,0,0-29.43,7.4,16.24,16.24,0,0,0,1.49,6.69c3.38,8.34,18.36,19.8,21.88,22.66l4.52,3.52a2.67,2.67,0,0,0,3.37-.07l4-3.45C158.45,118.44,171.23,108.52,174,101.07Z"/><path class="cls-1" d="M187.23,65.37l-7.83-2.9.47-8.34a1,1,0,0,0-1.84-.7L172.84,60l-7.79-3a1,1,0,0,0-1.23,1.54l4.63,6.95-5.28,6.47a1,1,0,0,0,1.08,1.65l8-2.26,4.52,7a1,1,0,0,0,.87.47,1,1,0,0,0,.27,0,1,1,0,0,0,.76-1l.34-8.34,8.07-2.13a1,1,0,0,0,.09-2Z"/><path class="cls-1" d="M168.6,125.93a27.48,27.48,0,0,1-48.72,0h-9.33a36,36,0,0,0,67.38,0Z"/><path class="cls-1" d="M25.48,319.66a10,10,0,0,1-2.72-.38,7.14,7.14,0,0,1-2.38-1.16,6,6,0,0,1-1.67-1.93,5.42,5.42,0,0,1-.63-2.67v-.08a6.08,6.08,0,0,1,.61-2.8,5.46,5.46,0,0,1,1.74-2,8.39,8.39,0,0,1,2.68-1.22,13.11,13.11,0,0,1,3.43-.42,20.89,20.89,0,0,1,3.32.23,24.5,24.5,0,0,1,2.74.61v-.61a5,5,0,0,0-1.53-4,6.36,6.36,0,0,0-4.33-1.35,12.48,12.48,0,0,0-3.2.38,16.68,16.68,0,0,0-2.82,1l-.88-2.42a20.91,20.91,0,0,1,3.33-1.24,14.63,14.63,0,0,1,3.87-.46q4.22,0,6.4,2.18a7.82,7.82,0,0,1,2.07,5.8v12.05H32.61v-2.94a9.43,9.43,0,0,1-2.78,2.35A8.56,8.56,0,0,1,25.48,319.66Zm.6-2.4a8.37,8.37,0,0,0,2.56-.38,6.62,6.62,0,0,0,2.08-1.08,5.2,5.2,0,0,0,1.41-1.67,4.49,4.49,0,0,0,.52-2.14v-1.82q-1.11-.3-2.52-.57a17.63,17.63,0,0,0-3.25-.27,7.22,7.22,0,0,0-4.26,1.08,3.36,3.36,0,0,0-1.51,2.87v.08a3.41,3.41,0,0,0,.4,1.65,3.63,3.63,0,0,0,1.09,1.23,5.23,5.23,0,0,0,1.59.76A6.59,6.59,0,0,0,26.07,317.26Z"/><path class="cls-1" d="M43.23,299.52h3V303a9.34,9.34,0,0,1,2.61-2.73A7.14,7.14,0,0,1,53,299.11a8.38,8.38,0,0,1,3.2.57,6.61,6.61,0,0,1,2.38,1.62A7.12,7.12,0,0,1,60,303.8a9.48,9.48,0,0,1,.52,3.21v12.24h-3V307.75a6.3,6.3,0,0,0-1.42-4.34,5.15,5.15,0,0,0-4.06-1.6,6.27,6.27,0,0,0-2.36.44,5.52,5.52,0,0,0-1.9,1.26,5.66,5.66,0,0,0-1.25,2,6.94,6.94,0,0,0-.44,2.51v11.27h-3Z"/><path class="cls-1" d="M68.35,299.52h3v19.72h-3Z"/><path class="cls-1" d="M79.35,299.52h3v3.32a16.39,16.39,0,0,1,1.09-1.41,6.86,6.86,0,0,1,1.36-1.2,6.75,6.75,0,0,1,1.72-.82,7.32,7.32,0,0,1,2.22-.3,6.68,6.68,0,0,1,4,1.12,7.31,7.31,0,0,1,2.38,2.8,12.63,12.63,0,0,1,1.21-1.53,7.6,7.6,0,0,1,1.51-1.26,7.34,7.34,0,0,1,1.9-.84,8.45,8.45,0,0,1,2.36-.3,7,7,0,0,1,5.4,2.12,8.24,8.24,0,0,1,2,5.82v12.21h-3V307.75a6.43,6.43,0,0,0-1.36-4.4,4.77,4.77,0,0,0-3.78-1.54,5.59,5.59,0,0,0-2.11.4,4.9,4.9,0,0,0-1.74,1.18,5.69,5.69,0,0,0-1.19,1.92,7.16,7.16,0,0,0-.44,2.59v11.34H92.92V307.67a6.31,6.31,0,0,0-1.36-4.32,4.72,4.72,0,0,0-3.74-1.54,5.18,5.18,0,0,0-2.18.46,5.24,5.24,0,0,0-1.74,1.29,6.16,6.16,0,0,0-1.17,2A7.06,7.06,0,0,0,82.3,308v11.23h-3Z"/><path class="cls-1" d="M119,310.59a7.79,7.79,0,0,0,.77,2.78,6.65,6.65,0,0,0,1.57,2.06,6.83,6.83,0,0,0,2.15,1.28,7.16,7.16,0,0,0,2.49.44,7.63,7.63,0,0,0,3.55-.76,10.51,10.51,0,0,0,2.7-2L134,316a12.06,12.06,0,0,1-3.41,2.69,10.1,10.1,0,0,1-4.75,1A9.91,9.91,0,0,1,122,319a9.42,9.42,0,0,1-3.14-2.1,9.94,9.94,0,0,1-2.13-3.26,10.89,10.89,0,0,1-.79-4.19,11.31,11.31,0,0,1,.71-4,10.12,10.12,0,0,1,2-3.28,9.23,9.23,0,0,1,3-2.19,9.61,9.61,0,0,1,7.72,0,8.56,8.56,0,0,1,2.91,2.23,9.69,9.69,0,0,1,1.8,3.32,13.23,13.23,0,0,1,.61,4.08V310a5.38,5.38,0,0,1,0,.59Zm12.76-2.4a9.14,9.14,0,0,0-.57-2.52,7.06,7.06,0,0,0-1.25-2.11,5.72,5.72,0,0,0-1.92-1.44,6,6,0,0,0-2.59-.53,5.79,5.79,0,0,0-2.38.49,6,6,0,0,0-2,1.38,7.72,7.72,0,0,0-1.4,2.1,8.4,8.4,0,0,0-.71,2.62Z"/><path class="cls-1" d="M154.74,291.4h3v27.85h-3Z"/><path class="cls-1" d="M171.73,319.66a10,10,0,0,1-2.72-.38,7.14,7.14,0,0,1-2.38-1.16,6,6,0,0,1-1.67-1.93,5.42,5.42,0,0,1-.63-2.67v-.08a6.08,6.08,0,0,1,.61-2.8,5.46,5.46,0,0,1,1.74-2,8.39,8.39,0,0,1,2.68-1.22,13.11,13.11,0,0,1,3.43-.42,20.89,20.89,0,0,1,3.32.23,24.5,24.5,0,0,1,2.74.61v-.61a5,5,0,0,0-1.53-4,6.36,6.36,0,0,0-4.33-1.35,12.48,12.48,0,0,0-3.2.38,16.68,16.68,0,0,0-2.82,1l-.88-2.42a20.91,20.91,0,0,1,3.33-1.24,14.63,14.63,0,0,1,3.87-.46q4.22,0,6.4,2.18a7.82,7.82,0,0,1,2.07,5.8v12.05h-2.91v-2.94a9.43,9.43,0,0,1-2.78,2.35A8.56,8.56,0,0,1,171.73,319.66Zm.6-2.4a8.37,8.37,0,0,0,2.56-.38A6.62,6.62,0,0,0,177,315.8a5.2,5.2,0,0,0,1.41-1.67,4.49,4.49,0,0,0,.52-2.14v-1.82q-1.11-.3-2.52-.57a17.63,17.63,0,0,0-3.25-.27,7.22,7.22,0,0,0-4.26,1.08,3.36,3.36,0,0,0-1.51,2.87v.08a3.41,3.41,0,0,0,.4,1.65,3.63,3.63,0,0,0,1.09,1.23,5.23,5.23,0,0,0,1.59.76A6.59,6.59,0,0,0,172.33,317.26Z"/><path class="cls-1" d="M200.63,299.52h3.26l6.67,16.36,6.71-16.36h3.18l-8.62,19.87h-2.61Z"/><path class="cls-1" d="M226.32,299.52h3v19.72h-3Z"/><path class="cls-1" d="M239.12,310.59a7.79,7.79,0,0,0,.77,2.78,6.65,6.65,0,0,0,1.57,2.06,6.83,6.83,0,0,0,2.15,1.28,7.16,7.16,0,0,0,2.49.44,7.63,7.63,0,0,0,3.55-.76,10.51,10.51,0,0,0,2.7-2l1.84,1.64a12.06,12.06,0,0,1-3.41,2.69,10.1,10.1,0,0,1-4.75,1,9.91,9.91,0,0,1-3.83-.75,9.42,9.42,0,0,1-3.14-2.1,9.94,9.94,0,0,1-2.13-3.26,10.89,10.89,0,0,1-.79-4.19,11.31,11.31,0,0,1,.71-4,10.12,10.12,0,0,1,2-3.28,9.23,9.23,0,0,1,3-2.19,9.61,9.61,0,0,1,7.72,0,8.56,8.56,0,0,1,2.91,2.23,9.69,9.69,0,0,1,1.8,3.32,13.23,13.23,0,0,1,.61,4.08V310a5.38,5.38,0,0,1,0,.59Zm12.76-2.4a9.14,9.14,0,0,0-.57-2.52,7.06,7.06,0,0,0-1.25-2.11,5.72,5.72,0,0,0-1.92-1.44,6,6,0,0,0-2.59-.53,5.79,5.79,0,0,0-2.38.49,6,6,0,0,0-2,1.38,7.72,7.72,0,0,0-1.4,2.1,8.4,8.4,0,0,0-.71,2.62Z"/><path class="cls-1" d="M266.76,294.72v-2.17h3.45v2.17l-.92,17h-1.65Z"/><circle class="cls-1" cx="69.85" cy="293.84" r="1.94"/><circle class="cls-1" cx="227.81" cy="293.84" r="1.94"/><polygon class="cls-1" points="58.74 257.62 31.33 221.59 19.46 221.59 19.46 280.1 32.16 280.1 32.16 242.91 60.5 280.1 71.44 280.1 71.44 221.59 58.74 221.59 58.74 257.62"/><path class="cls-1" d="M201.58,229.41a31,31,0,0,0-9.82-6.43,33.85,33.85,0,0,0-25,0,29.92,29.92,0,0,0-16.34,16.13,29.54,29.54,0,0,0-2.34,11.74V251a30,30,0,0,0,2.3,11.74,28.79,28.79,0,0,0,6.43,9.53,30.94,30.94,0,0,0,9.82,6.44,31.91,31.91,0,0,0,12.45,2.38,32.23,32.23,0,0,0,12.5-2.38A29.94,29.94,0,0,0,208,262.59a29.58,29.58,0,0,0,2.34-11.74v-.17a30,30,0,0,0-2.3-11.74A28.83,28.83,0,0,0,201.58,229.41ZM196.85,251a19.18,19.18,0,0,1-1.3,7.06,18.59,18.59,0,0,1-3.59,5.81,16.24,16.24,0,0,1-5.56,3.93,17.55,17.55,0,0,1-7.1,1.42,17.08,17.08,0,0,1-7.15-1.46,17.66,17.66,0,0,1-9.28-9.82,19.49,19.49,0,0,1-1.3-7.1v-.17a19.15,19.15,0,0,1,1.3-7.06,18.51,18.51,0,0,1,3.59-5.81,16.35,16.35,0,0,1,5.52-3.93,17.47,17.47,0,0,1,7.15-1.42,17.19,17.19,0,0,1,7.1,1.46,17.53,17.53,0,0,1,9.32,9.82,19.52,19.52,0,0,1,1.3,7.1Z"/><polygon class="cls-1" points="255.77 221.59 241.56 245.08 227.6 221.59 212.55 221.59 235.04 257.03 235.04 280.1 247.91 280.1 247.91 256.78 270.39 221.59 255.77 221.59"/><path class="cls-1" d="M120.77,251h0v.17a19.18,19.18,0,0,1-1.3,7.06,18.59,18.59,0,0,1-3.59,5.81,16.24,16.24,0,0,1-5.56,3.93,17.55,17.55,0,0,1-7.1,1.42H101v11.87h2.17a32.21,32.21,0,0,0,12.41-2.38,29.94,29.94,0,0,0,16.34-16.13A29.58,29.58,0,0,0,134.23,251h0V221.59H120.77Z"/><path class="cls-1" d="M101.36,230.34a9.75,9.75,0,1,0-9.75,9.75h.19a14.67,14.67,0,0,1-5.43,2.85v4.17a19.91,19.91,0,0,0,3.46-1,18.81,18.81,0,0,0,6.08-3.69,17.16,17.16,0,0,0,4-5.45,15.45,15.45,0,0,0,1.39-5.65A9.85,9.85,0,0,0,101.36,230.34Z"/></g></svg>