<?xml version="1.0" encoding="utf-8"?>
<!-- Generator: Adobe Illustrator 21.0.0, SVG Export Plug-In . SVG Version: 6.00 Build 0)  -->
<svg version="1.1" xmlns="http://www.w3.org/2000/svg" xmlns:xlink="http://www.w3.org/1999/xlink" x="0px" y="0px"
	 viewBox="0 0 323.8 130.5" style="enable-background:new 0 0 323.8 130.5;" xml:space="preserve">
<style type="text/css">
	.st0{fill:#78A955;}
</style>
<g id="Calque_1">
</g>
<g id="N_x27_JOY">
	<g>
		<path class="st0" d="M137.7,94.6c-0.6,0-1.2-0.1-1.7-0.2c-0.6-0.2-1.1-0.4-1.5-0.7c-0.4-0.3-0.8-0.7-1.1-1.2
			c-0.3-0.5-0.4-1.1-0.4-1.7v0c0-0.7,0.1-1.3,0.4-1.8c0.3-0.5,0.6-0.9,1.1-1.3c0.5-0.3,1.1-0.6,1.7-0.8c0.7-0.2,1.4-0.3,2.2-0.3
			c0.8,0,1.5,0,2.1,0.1c0.6,0.1,1.2,0.2,1.8,0.4v-0.4c0-1.1-0.3-2-1-2.5c-0.7-0.6-1.6-0.9-2.8-0.9c-0.8,0-1.4,0.1-2.1,0.2
			c-0.6,0.2-1.2,0.4-1.8,0.7l-0.6-1.6c0.7-0.3,1.4-0.6,2.1-0.8c0.7-0.2,1.5-0.3,2.5-0.3c1.8,0,3.2,0.5,4.1,1.4
			c0.9,0.9,1.3,2.1,1.3,3.7v7.7h-1.9v-1.9c-0.4,0.6-1,1.1-1.8,1.5C139.7,94.4,138.8,94.6,137.7,94.6z M138.1,93.1
			c0.6,0,1.1-0.1,1.6-0.2c0.5-0.2,1-0.4,1.3-0.7c0.4-0.3,0.7-0.7,0.9-1.1c0.2-0.4,0.3-0.9,0.3-1.4v-1.2c-0.5-0.1-1-0.3-1.6-0.4
			c-0.6-0.1-1.3-0.2-2.1-0.2c-1.2,0-2.1,0.2-2.7,0.7c-0.6,0.5-1,1.1-1,1.8v0c0,0.4,0.1,0.7,0.3,1.1c0.2,0.3,0.4,0.6,0.7,0.8
			c0.3,0.2,0.6,0.4,1,0.5C137.2,93,137.6,93.1,138.1,93.1z"/>
		<path class="st0" d="M149.1,81.7h1.9v2.2c0.4-0.7,1-1.3,1.7-1.7c0.7-0.5,1.6-0.7,2.7-0.7c0.8,0,1.5,0.1,2.1,0.4
			c0.6,0.2,1.1,0.6,1.5,1c0.4,0.4,0.7,1,1,1.6c0.2,0.6,0.3,1.3,0.3,2.1v7.8h-1.9V87c0-1.2-0.3-2.1-0.9-2.8c-0.6-0.7-1.5-1-2.6-1
			c-0.5,0-1,0.1-1.5,0.3c-0.5,0.2-0.9,0.5-1.2,0.8c-0.3,0.3-0.6,0.8-0.8,1.3s-0.3,1-0.3,1.6v7.2h-1.9V81.7z"/>
		<path class="st0" d="M165.2,81.7h1.9v12.6h-1.9V81.7z"/>
		<path class="st0" d="M172.2,81.7h1.9v2.1c0.2-0.3,0.4-0.6,0.7-0.9c0.3-0.3,0.5-0.6,0.9-0.8c0.3-0.2,0.7-0.4,1.1-0.5
			c0.4-0.1,0.9-0.2,1.4-0.2c1,0,1.9,0.2,2.6,0.7c0.7,0.5,1.2,1.1,1.5,1.8c0.2-0.3,0.5-0.7,0.8-1c0.3-0.3,0.6-0.6,1-0.8
			c0.4-0.2,0.8-0.4,1.2-0.5c0.5-0.1,1-0.2,1.5-0.2c1.5,0,2.6,0.5,3.5,1.4c0.8,0.9,1.3,2.1,1.3,3.7v7.8h-1.9V87
			c0-1.2-0.3-2.2-0.9-2.8c-0.6-0.7-1.4-1-2.4-1c-0.5,0-0.9,0.1-1.4,0.3c-0.4,0.2-0.8,0.4-1.1,0.8c-0.3,0.3-0.6,0.7-0.8,1.2
			c-0.2,0.5-0.3,1-0.3,1.7v7.3h-1.9V87c0-1.2-0.3-2.1-0.9-2.8c-0.6-0.7-1.4-1-2.4-1c-0.5,0-1,0.1-1.4,0.3c-0.4,0.2-0.8,0.5-1.1,0.8
			c-0.3,0.4-0.6,0.8-0.7,1.3c-0.2,0.5-0.3,1-0.3,1.6v7.2h-1.9V81.7z"/>
		<path class="st0" d="M197.6,88.8c0.1,0.7,0.2,1.3,0.5,1.8c0.3,0.5,0.6,1,1,1.3c0.4,0.4,0.9,0.6,1.4,0.8c0.5,0.2,1,0.3,1.6,0.3
			c0.9,0,1.6-0.2,2.3-0.5c0.6-0.3,1.2-0.8,1.7-1.3l1.2,1.1c-0.6,0.7-1.4,1.3-2.2,1.7c-0.8,0.4-1.8,0.6-3,0.6c-0.9,0-1.7-0.2-2.5-0.5
			c-0.8-0.3-1.4-0.8-2-1.3c-0.6-0.6-1-1.3-1.4-2.1c-0.3-0.8-0.5-1.7-0.5-2.7c0-0.9,0.2-1.8,0.5-2.6c0.3-0.8,0.7-1.5,1.3-2.1
			c0.5-0.6,1.2-1.1,1.9-1.4c0.7-0.3,1.6-0.5,2.4-0.5c0.9,0,1.8,0.2,2.5,0.5c0.7,0.4,1.4,0.8,1.9,1.4s0.9,1.3,1.2,2.1
			c0.3,0.8,0.4,1.7,0.4,2.6c0,0.1,0,0.2,0,0.3c0,0.1,0,0.2,0,0.4H197.6z M205.8,87.3c0-0.6-0.2-1.1-0.4-1.6c-0.2-0.5-0.5-1-0.8-1.3
			c-0.3-0.4-0.7-0.7-1.2-0.9c-0.5-0.2-1-0.3-1.7-0.3c-0.5,0-1,0.1-1.5,0.3c-0.5,0.2-0.9,0.5-1.3,0.9c-0.4,0.4-0.7,0.8-0.9,1.3
			c-0.2,0.5-0.4,1.1-0.5,1.7H205.8z"/>
		<path class="st0" d="M220.5,76.5h1.9v17.8h-1.9V76.5z"/>
		<path class="st0" d="M231.4,94.6c-0.6,0-1.2-0.1-1.7-0.2c-0.6-0.2-1.1-0.4-1.5-0.7c-0.4-0.3-0.8-0.7-1.1-1.2
			c-0.3-0.5-0.4-1.1-0.4-1.7v0c0-0.7,0.1-1.3,0.4-1.8c0.3-0.5,0.6-0.9,1.1-1.3c0.5-0.3,1.1-0.6,1.7-0.8c0.7-0.2,1.4-0.3,2.2-0.3
			c0.8,0,1.5,0,2.1,0.1c0.6,0.1,1.2,0.2,1.8,0.4v-0.4c0-1.1-0.3-2-1-2.5c-0.7-0.6-1.6-0.9-2.8-0.9c-0.8,0-1.4,0.1-2.1,0.2
			c-0.6,0.2-1.2,0.4-1.8,0.7l-0.6-1.6c0.7-0.3,1.4-0.6,2.1-0.8c0.7-0.2,1.5-0.3,2.5-0.3c1.8,0,3.2,0.5,4.1,1.4
			c0.9,0.9,1.3,2.1,1.3,3.7v7.7H236v-1.9c-0.4,0.6-1,1.1-1.8,1.5C233.5,94.4,232.5,94.6,231.4,94.6z M231.8,93.1
			c0.6,0,1.1-0.1,1.6-0.2c0.5-0.2,1-0.4,1.3-0.7c0.4-0.3,0.7-0.7,0.9-1.1c0.2-0.4,0.3-0.9,0.3-1.4v-1.2c-0.5-0.1-1-0.3-1.6-0.4
			c-0.6-0.1-1.3-0.2-2.1-0.2c-1.2,0-2.1,0.2-2.7,0.7c-0.6,0.5-1,1.1-1,1.8v0c0,0.4,0.1,0.7,0.3,1.1c0.2,0.3,0.4,0.6,0.7,0.8
			c0.3,0.2,0.6,0.4,1,0.5C231,93,231.4,93.1,231.8,93.1z"/>
		<path class="st0" d="M250,81.7h2.1l4.3,10.5l4.3-10.5h2l-5.5,12.7h-1.7L250,81.7z"/>
		<path class="st0" d="M266.4,81.7h1.9v12.6h-1.9V81.7z"/>
		<path class="st0" d="M274.6,88.8c0.1,0.7,0.2,1.3,0.5,1.8c0.3,0.5,0.6,1,1,1.3c0.4,0.4,0.9,0.6,1.4,0.8c0.5,0.2,1,0.3,1.6,0.3
			c0.9,0,1.6-0.2,2.3-0.5s1.2-0.8,1.7-1.3l1.2,1.1c-0.6,0.7-1.4,1.3-2.2,1.7c-0.8,0.4-1.8,0.6-3,0.6c-0.9,0-1.7-0.2-2.5-0.5
			c-0.8-0.3-1.4-0.8-2-1.3c-0.6-0.6-1-1.3-1.4-2.1c-0.3-0.8-0.5-1.7-0.5-2.7c0-0.9,0.2-1.8,0.5-2.6c0.3-0.8,0.7-1.5,1.3-2.1
			c0.5-0.6,1.2-1.1,1.9-1.4c0.7-0.3,1.6-0.5,2.4-0.5c0.9,0,1.8,0.2,2.5,0.5c0.7,0.4,1.4,0.8,1.9,1.4c0.5,0.6,0.9,1.3,1.2,2.1
			c0.3,0.8,0.4,1.7,0.4,2.6c0,0.1,0,0.2,0,0.3c0,0.1,0,0.2,0,0.4H274.6z M282.8,87.3c0-0.6-0.2-1.1-0.4-1.6c-0.2-0.5-0.5-1-0.8-1.3
			c-0.3-0.4-0.7-0.7-1.2-0.9c-0.5-0.2-1-0.3-1.7-0.3c-0.5,0-1,0.1-1.5,0.3c-0.5,0.2-0.9,0.5-1.3,0.9c-0.4,0.4-0.7,0.8-0.9,1.3
			c-0.2,0.5-0.4,1.1-0.5,1.7H282.8z"/>
		<path class="st0" d="M292.3,78.7v-1.4h2.2v1.4L294,89.5h-1.1L292.3,78.7z"/>
	</g>
	<g>
		<g>
			<path class="st0" d="M65.2,14.6c-26.7,0-48.5,21.8-48.5,48.5c0,26.7,21.8,48.5,48.5,48.5c26.7,0,48.5-21.8,48.5-48.5
				C113.7,36.3,92,14.6,65.2,14.6z M65.2,104.3C42.5,104.3,24,85.8,24,63.1c0-22.8,18.5-41.2,41.2-41.2c22.8,0,41.2,18.5,41.2,41.2
				C106.5,85.8,88,104.3,65.2,104.3z"/>
			<path class="st0" d="M84.3,64.5c0.6-1.3,0.9-2.7,0.9-4.2c0-5.6-4.5-10.1-10-10.1c-3.8,0-7.2,2.2-8.8,5.3c-1.7-3.2-5-5.3-8.8-5.3
				c-5.5,0-10,4.5-10,10.1c0,1.5,0.4,3,1,4.3c2.2,5.3,11.8,12.7,14,14.5l2.9,2.3c0.6,0.5,1.5,0.5,2.2,0l2.6-2.2
				C74.3,75.6,82.5,69.2,84.3,64.5z"/>
		</g>
		<path class="st0" d="M92.8,41.6l-5-1.9l0.3-5.3c0-0.3-0.2-0.6-0.4-0.7c-0.3-0.1-0.6,0-0.8,0.2l-3.3,4.2l-5-1.9
			c-0.3-0.1-0.6,0-0.8,0.2c-0.2,0.2-0.2,0.5,0,0.8l3,4.5l-3.4,4.1c-0.2,0.2-0.2,0.5,0,0.8c0.2,0.2,0.5,0.4,0.7,0.3l5.2-1.4l2.9,4.5
			c0.1,0.2,0.3,0.3,0.6,0.3c0.1,0,0.1,0,0.2,0c0.3-0.1,0.5-0.3,0.5-0.6l0.2-5.3l5.2-1.4c0.3-0.1,0.5-0.3,0.5-0.6
			C93.2,41.9,93.1,41.7,92.8,41.6z"/>
		<path class="st0" d="M80.8,80.4c-3,5.6-8.9,9.5-15.6,9.5c-6.8,0-12.6-3.8-15.6-9.5h-6c3.3,8.7,11.8,14.9,21.6,14.9
			c9.8,0,18.3-6.2,21.6-14.9H80.8z"/>
	</g>
	<circle class="st0" cx="166.1" cy="78.1" r="1.2"/>
	<circle class="st0" cx="267.4" cy="78.1" r="1.2"/>
	<circle class="st0" cx="293.5" cy="93.2" r="1.2"/>
	<g>
		<polygon class="st0" points="159,54.9 141.4,31.8 133.8,31.8 133.8,69.3 142,69.3 142,45.4 160.1,69.3 167.1,69.3 167.1,31.8 
			159,31.8 		"/>
		<path class="st0" d="M250.6,36.8c-1.8-1.7-3.9-3.1-6.3-4.1c-2.4-1-5.1-1.5-8-1.5c-2.9,0-5.6,0.5-8,1.5c-2.4,1-4.6,2.4-6.3,4.2
			c-1.8,1.8-3.2,3.8-4.2,6.2c-1,2.3-1.5,4.8-1.5,7.5v0.1c0,2.7,0.5,5.2,1.5,7.5c1,2.3,2.4,4.4,4.1,6.1c1.8,1.7,3.9,3.1,6.3,4.1
			c2.4,1,5.1,1.5,8,1.5c2.9,0,5.6-0.5,8-1.5c2.4-1,4.6-2.4,6.3-4.2c1.8-1.8,3.2-3.8,4.2-6.2c1-2.3,1.5-4.8,1.5-7.5v-0.1
			c0-2.7-0.5-5.2-1.5-7.5C253.7,40.6,252.3,38.5,250.6,36.8z M247.5,50.6c0,1.6-0.3,3.1-0.8,4.5c-0.6,1.4-1.3,2.7-2.3,3.7
			c-1,1.1-2.2,1.9-3.6,2.5c-1.4,0.6-2.9,0.9-4.6,0.9c-1.7,0-3.2-0.3-4.6-0.9c-1.4-0.6-2.6-1.5-3.6-2.5c-1-1.1-1.8-2.3-2.4-3.7
			c-0.6-1.4-0.8-2.9-0.8-4.6v-0.1c0-1.6,0.3-3.1,0.8-4.5c0.6-1.4,1.3-2.7,2.3-3.7c1-1.1,2.2-1.9,3.5-2.5c1.4-0.6,2.9-0.9,4.6-0.9
			c1.6,0,3.2,0.3,4.6,0.9c1.4,0.6,2.6,1.5,3.6,2.5c1,1.1,1.8,2.3,2.4,3.8c0.6,1.4,0.8,2.9,0.8,4.6V50.6z"/>
		<polygon class="st0" points="285.3,31.8 276.2,46.8 267.2,31.8 257.6,31.8 272,54.5 272,69.3 280.3,69.3 280.3,54.3 294.7,31.8 		
			"/>
		<path class="st0" d="M198.8,50.6L198.8,50.6v0.1c0,1.6-0.3,3.1-0.8,4.5c-0.6,1.4-1.3,2.7-2.3,3.7c-1,1.1-2.2,1.9-3.6,2.5
			c-1.4,0.6-2.9,0.9-4.6,0.9c0,0,0,0-0.1,0h-1.4V70h1.4c2.9,0,5.5-0.5,8-1.5c2.4-1,4.6-2.4,6.3-4.2c1.8-1.8,3.2-3.8,4.2-6.2
			c1-2.3,1.5-4.8,1.5-7.5l0,0V31.8h-8.6V50.6z"/>
		<path class="st0" d="M186.3,37.4c0-3.5-2.8-6.2-6.2-6.2c-3.5,0-6.2,2.8-6.2,6.2c0,3.5,2.8,6.2,6.2,6.2c0,0,0.1,0,0.1,0
			c-1,0.8-2.2,1.5-3.5,1.8v2.7c0.8-0.1,1.5-0.3,2.2-0.6c1.5-0.6,2.8-1.4,3.9-2.4c1.1-1,1.9-2.2,2.6-3.5c0.5-1.1,0.8-2.3,0.9-3.6
			C186.3,37.8,186.3,37.6,186.3,37.4z"/>
	</g>
</g>
</svg>
