<?xml version="1.0" encoding="utf-8"?>
<!-- Generator: Adobe Illustrator 21.1.0, SVG Export Plug-In . SVG Version: 6.00 Build 0)  -->
<svg version="1.1" id="Calque_1" xmlns="http://www.w3.org/2000/svg" xmlns:xlink="http://www.w3.org/1999/xlink" x="0px" y="0px"
	 viewBox="0 0 815 1049" style="enable-background:new 0 0 815 1049;" xml:space="preserve">
<style type="text/css">
	.st0{fill:#4FAE4E;}
	.st1{fill:#F7AB86;}
	.st2{fill:#ED4736;}
	.st3{fill:#5A7681;}
	.st4{fill:#6CBC5C;}
	.st5{fill:#314950;}
	.st6{fill:#010101;}
	.st7{fill:#674944;}
	.st8{fill:#FFFFFF;}
	.st9{fill:none;stroke:#010101;stroke-miterlimit:10;}
</style>
<g id="mustach">
	<g>
		<g>
			<g>
				<g>
					<path class="st0" d="M187.6,682.6l-14.2-125.2c0-37.6,27.6-68.3,61.4-68.3h15.3c33.7,0,61.4,30.7,61.4,68.3l14.2,125.2H187.6z"
						/>
				</g>
				<g>
					<path class="st1" d="M151.5,340.5c0,62,50.3,113.8,112.3,113.8s112.3-51.7,112.3-113.8s-50.3-112.3-112.3-112.3
						S151.5,278.5,151.5,340.5z"/>
				</g>
				<g>
					<path class="st2" d="M128.7,341.9c0,55.1,35.2,102,84.3,119.4c12.8,32.8,47.3,58.7,119.1,48.5c49.8-7.1,82.5-37,82.5-82.5
						c0-27.5-13.5-56.1-34.1-71.1c0.9-6,1.4-7.9,1.4-14.2c0-69.9-56.7-126.6-126.6-126.6S128.7,272,128.7,341.9z M185.7,323.5
						c0,0,25.7-10.2,53.2-36.4c11.8-11.2,28.3-35,30.3-48.7c0,0,30.6,28.2,55.7,40.5c19.8,9.8,33.5,0.8,44.2,22.1
						c0,0,8.5,21.4,6.4,52.6c0,0-61.8-25.8-111.7,14c0,0-64.7,73.5-73.9-5.7C185.7,333.4,185.7,323.5,185.7,323.5z"/>
				</g>
				<g>
					<path class="st1" d="M376.3,376.1l-64,2.8c0,0,12.8,29.9,46.9,29.9S376.3,376.1,376.3,376.1z"/>
				</g>
				<g>
					<path class="st1" d="M370.5,382.3l5.7-6.2c0,0-28.4,2.8-37-15.7c0,0-1.4,18.5-27,18.5"/>
				</g>
				<g>
					<rect x="187.9" y="682.6" class="st3" width="138" height="54.1"/>
				</g>
				<g>
					<path class="st3" d="M229.4,873.7L229.4,873.7c10.4-1.7,17.5-11.5,15.8-21.9l-19.4-120.3c-1.7-10.4-11.5-17.5-21.9-15.8l0,0
						c-10.4,1.7-17.5,11.5-15.8,21.9l19.4,120.3C209.1,868.3,219,875.3,229.4,873.7z"/>
				</g>
				<g>
					<path class="st3" d="M188.5,989.2L188.5,989.2c10.2,2.9,20.7-3,23.6-13.2l33.3-117.3c2.9-10.2-3-20.7-13.2-23.6l0,0
						c-10.2-2.9-20.7,3-23.6,13.2l-33.3,117.3C172.5,975.8,178.4,986.4,188.5,989.2z"/>
				</g>
				<g>
					<g>
						<path class="st4" d="M473.6,481.4L473.6,481.4c-4.3-7.7-14.2-10.5-21.9-6.2l-99.3,55.7c-7.7,4.3-10.5,14.2-6.2,21.9l0,0
							c4.3,7.7,14.2,10.5,21.9,6.2l99.3-55.7C475.2,499,477.9,489.2,473.6,481.4z"/>
					</g>
					<g>
						
							<ellipse transform="matrix(0.8723 -0.489 0.489 0.8723 -180.3829 287.4747)" class="st1" cx="460.2" cy="489.1" rx="16.1" ry="16.1"/>
					</g>
				</g>
				<g>
					<path class="st5" d="M212.1,970.4l44.2,20.5c0,0,15.5,5.6-0.1,5.4s-82.8-1.1-82.8-1.1l0.3-25.3L212.1,970.4z"/>
				</g>
				<g>
					<path class="st3" d="M330.8,873.7L330.8,873.7c10.4-1.7,17.5-11.5,15.8-21.9l-19.4-120.3c-1.7-10.4-11.5-17.5-21.9-15.8l0,0
						c-10.4,1.7-17.5,11.5-15.8,21.9l19.4,120.3C310.6,868.3,320.4,875.3,330.8,873.7z"/>
				</g>
				<g>
					<path class="st3" d="M289.9,989.2L289.9,989.2c10.2,2.9,20.7-3,23.6-13.2l33.3-117.3c2.9-10.2-3-20.7-13.2-23.6l0,0
						c-10.2-2.9-20.7,3-23.6,13.2l-33.3,117.3C273.8,975.8,279.7,986.4,289.9,989.2z"/>
				</g>
				<g>
					<path class="st5" d="M313.5,970.4l44.2,20.5c0,0,15.5,5.6-0.1,5.4c-15.5-0.2-82.8-1.1-82.8-1.1l0.3-25.3L313.5,970.4z"/>
				</g>
				<g>
					<path class="st6" d="M346.6,527.3l100.2,0.3c3.8,0,7.7-2.8,8.7-6.4l24.2-80.3c1-3.5-1.2-6.4-4.9-6.4l-100.2-0.3
						c-3.8,0-7.7,2.8-8.7,6.4l-24.2,80.3C340.7,524.4,342.9,527.3,346.6,527.3z"/>
				</g>
				<g>
					<g>
						<path class="st4" d="M370.9,477L370.9,477c-4.2-7.8-13.9-10.8-21.8-6.7l-100.5,53.5c-7.8,4.2-10.8,13.9-6.7,21.8l0,0
							c4.2,7.8,13.9,10.8,21.8,6.7l100.5-53.5C372.1,494.7,375,484.9,370.9,477z"/>
					</g>
					<g>
						
							<ellipse transform="matrix(0.8827 -0.47 0.47 0.8827 -185.7251 224.7098)" class="st1" cx="357.2" cy="484.3" rx="16.1" ry="16.1"/>
					</g>
				</g>
			</g>
		</g>
		<g>
			<g>
				<g>
					<path class="st2" d="M233.5,298.2c-0.8,0-1.5-0.2-2.2-0.7c-1.9-1.2-2.5-3.8-1.2-5.7c9.1-14.1,32-14.9,33-14.9
						c0.1,0,0.1,0,0.1,0c2.2,0,4.1,1.8,4.1,4c0.1,2.3-1.7,4.2-4,4.3c-0.1,0-5.2,0.2-11.1,1.8c-5.1,1.4-11.9,4.1-15.3,9.4
						C236.2,297.5,234.8,298.2,233.5,298.2z"/>
				</g>
			</g>
		</g>
		<g>
			<g>
				<g>
					<path class="st2" d="M344.4,291.1c-1.1,0.2-2.2,0.1-3.2-0.6c-16.8-11.1-27.2-6.9-27.6-6.7c-2,1-4.5,0-5.5-2c-1-2,0-4.5,2.1-5.5
						c0.6-0.3,14.7-6.5,35.6,7.4c1.9,1.3,2.4,3.8,1.1,5.7C346.2,290.2,345.3,290.8,344.4,291.1z"/>
				</g>
			</g>
		</g>
	</g>
	<g>
		<path class="st7" d="M265.6,332.8c-2.2,0-4.5-0.2-6.9-0.6c-6.4-1.1-11.2-3.2-11.4-3.3c-0.9-0.4-1.3-1.4-0.9-2.3
			c0.4-0.9,1.4-1.3,2.3-0.9c0.2,0.1,18.2,8,29.6,0.2c0.8-0.5,1.9-0.3,2.4,0.4c0.5,0.8,0.3,1.9-0.4,2.4
			C276.3,331.4,271.4,332.8,265.6,332.8z"/>
	</g>
	<g>
		<path class="st7" d="M321.8,332.8c-2.2,0-4.5-0.2-6.9-0.6c-6.4-1.1-11.2-3.2-11.4-3.3c-0.9-0.4-1.3-1.4-0.9-2.3
			c0.4-0.9,1.4-1.3,2.3-0.9c0.2,0.1,18.2,8,29.6,0.2c0.8-0.5,1.9-0.3,2.4,0.4c0.5,0.8,0.3,1.9-0.4,2.4
			C332.5,331.4,327.5,332.8,321.8,332.8z"/>
	</g>
	<g>
		<circle class="st7" cx="266.6" cy="324.9" r="5.6"/>
	</g>
	<g>
		<path class="st7" d="M327.5,328.9c-6,4.5-12.7-2.2-8.2-8.2C325.3,316.2,332,323,327.5,328.9z"/>
	</g>
	<g>
		<path class="st7" d="M363.9,392.8c-6,4.5-12.7-2.2-8.2-8.2C361.7,380.1,368.4,386.9,363.9,392.8z"/>
	</g>
</g>
<path class="st8" d="M521,495c0,6.6-5.4,12-12,12c-6.6,0-12-5.4-12-12s12-22,12-22S521,488.4,521,495z"/>
<line class="st9" x1="-3" y1="995.5" x2="814" y2="995.5"/>
</svg>
