<?xml version="1.0" encoding="utf-8"?>
<!-- Generator: Adobe Illustrator 21.1.0, SVG Export Plug-In . SVG Version: 6.00 Build 0)  -->
<svg version="1.1" id="Calque_1" xmlns="http://www.w3.org/2000/svg" xmlns:xlink="http://www.w3.org/1999/xlink" x="0px" y="0px"
	 viewBox="0 0 64 64" style="enable-background:new 0 0 64 64;" xml:space="preserve">
<style type="text/css">
	.st0{fill:#808285;}
</style>
<g id="Calque_1_1_">
</g>
<g id="Calque_1_3_">
</g>
<g id="Calque_1_2_">
</g>
<path class="st0" d="M29.7,12.4c0.9,0,1.7,0.6,1.9,1.5L33,19c2.7,0.2,5.2,1.2,7.2,2.9l3.5-2.6c0.4-0.3,0.8-0.4,1.2-0.4
	c0.6,0,1.2,0.3,1.6,0.8l2.4,3.3c0.7,0.9,0.5,2.1-0.4,2.8l-3.9,2.8c0.3,1.1,0.5,2.2,0.5,3.4c0,1.8-0.4,3.6-1.1,5.1l4.2,3.5
	c0.8,0.7,1,2,0.3,2.8l-2.6,3.1c-0.4,0.5-1,0.7-1.5,0.7c-0.5,0-0.9-0.2-1.3-0.5l-4.3-3.6c-2,1.2-4.3,1.9-6.8,1.9
	c-0.7,0-1.4-0.1-2.1-0.2L28,49.6c-0.3,0.8-1.1,1.2-1.9,1.2c-0.3,0-0.5,0-0.8-0.2l-3.7-1.6c-1-0.4-1.5-1.6-1.1-2.6l2.2-5.2
	c-1.8-1.8-3-4-3.5-6.5l-4.9-0.4c-1.1-0.1-1.9-1-1.8-2.1l0.3-4c0.1-1,1-1.9,2-1.9c0,0,0.1,0,0.1,0l5.1,0.4c1.1-2.5,2.9-4.5,5.2-5.9
	L23.9,16c-0.3-1.1,0.3-2.2,1.4-2.5l3.9-1.1C29.3,12.4,29.5,12.4,29.7,12.4 M29.7,5.4C29.7,5.4,29.7,5.4,29.7,5.4
	c-0.8,0-1.6,0.1-2.4,0.3l-3.9,1.1c-4.8,1.3-7.6,6.3-6.3,11.1l0.1,0.5c-0.3,0.4-0.6,0.7-1,1.1l-0.9-0.1c-0.2,0-0.4,0-0.7,0
	c-4.7,0-8.6,3.7-9,8.3l-0.3,4c-0.4,4.9,3.4,9.3,8.3,9.6l0.4,0c0.2,0.3,0.3,0.6,0.5,0.9l-0.6,1.5c-0.9,2.2-0.9,4.7,0,6.9
	c0.9,2.2,2.6,4,4.9,4.9l3.7,1.6c1.1,0.5,2.3,0.7,3.5,0.7c3.6,0,6.9-2.2,8.3-5.5l0.1-0.4c1-0.1,2-0.3,3-0.6l1,0.9
	c1.6,1.3,3.7,2.1,5.8,2.1c2.7,0,5.2-1.2,6.9-3.2l2.6-3.1c3.2-3.8,2.7-9.5-1.2-12.7l-0.8-0.6c0.1-0.9,0.2-1.7,0.2-2.6
	c0-0.1,0-0.1,0-0.2l0.5-0.4c1.9-1.4,3.2-3.5,3.6-5.9c0.4-2.4-0.2-4.8-1.6-6.7l-2.4-3.3c-1.7-2.3-4.4-3.7-7.3-3.7
	c-1.8,0-3.6,0.6-5.1,1.6c-0.4-0.2-0.7-0.3-1.1-0.4l-0.3-1C37.3,8.1,33.7,5.4,29.7,5.4L29.7,5.4z"/>
<g>
	<circle class="st0" cx="32" cy="32" r="3.6"/>
</g>
</svg>
