<?xml version="1.0" encoding="utf-8"?>
<!-- Generator: Adobe Illustrator 22.1.0, SVG Export Plug-In . SVG Version: 6.00 Build 0)  -->
<svg version="1.1" xmlns="http://www.w3.org/2000/svg" xmlns:xlink="http://www.w3.org/1999/xlink" x="0px" y="0px"
	 viewBox="0 0 800 600" style="enable-background:new 0 0 800 600;" xml:space="preserve">
<style type="text/css">
	.st0{fill:#D6D6D6;}
</style>
<g id="Calque_1">
</g>
<g id="N_x27_JOY">
	<g>
		<g>
			<path class="st0" d="M400,146.8c-84.5,0-153.2,68.7-153.2,153.2c0,84.5,68.7,153.2,153.2,153.2c84.5,0,153.2-68.7,153.2-153.2
				C553.2,215.5,484.5,146.8,400,146.8z M400,430.2c-71.9,0-130.2-58.3-130.2-130.2c0-71.9,58.3-130.2,130.2-130.2
				c71.9,0,130.2,58.3,130.2,130.2C530.2,371.9,471.9,430.2,400,430.2z"/>
			<path class="st0" d="M460.3,304.4c1.8-4,2.9-8.5,2.9-13.2c0-17.6-14.2-31.8-31.6-31.8c-12.1,0-22.6,6.8-27.9,16.9
				c-5.3-10-15.8-16.9-27.9-16.9c-17.5,0-31.6,14.3-31.6,31.8c0,4.8,1.2,9.5,3,13.5c6.8,16.9,37.2,40.1,44.3,45.9l9.1,7.1
				c2,1.6,4.9,1.5,6.8-0.1l8.2-7C428.8,339.6,454.6,319.5,460.3,304.4z"/>
		</g>
		<path class="st0" d="M487,232.2l-15.9-5.9l0.9-16.9c0.1-0.9-0.5-1.8-1.3-2.1c-0.9-0.3-1.8-0.1-2.4,0.7l-10.5,13.3l-15.8-6.1
			c-0.8-0.3-1.8-0.1-2.4,0.6c-0.6,0.7-0.6,1.7-0.1,2.5l9.4,14.1l-10.7,13.1c-0.6,0.7-0.6,1.7-0.1,2.5c0.5,0.8,1.4,1.1,2.3,0.9
			l16.3-4.6l9.2,14.2c0.4,0.6,1.1,1,1.8,1c0.2,0,0.4,0,0.5-0.1c0.9-0.2,1.5-1,1.5-1.9l0.7-16.9l16.3-4.3c0.9-0.2,1.5-1,1.6-1.9
			C488.4,233.3,487.9,232.5,487,232.2z"/>
		<path class="st0" d="M449.3,354.8c-9.4,17.8-28,29.9-49.3,29.9c-21.3,0-39.9-12.1-49.3-29.9h-18.9c10.6,27.5,37.1,47.1,68.2,47.1
			c31.1,0,57.6-19.6,68.2-47.1H449.3z"/>
	</g>
</g>
</svg>
