<?xml version="1.0" encoding="utf-8"?>
<!-- Generator: Adobe Illustrator 21.0.0, SVG Export Plug-In . SVG Version: 6.00 Build 0)  -->
<svg version="1.1" xmlns="http://www.w3.org/2000/svg" xmlns:xlink="http://www.w3.org/1999/xlink" x="0px" y="0px"
	 viewBox="0 0 64 64" style="enable-background:new 0 0 64 64;" xml:space="preserve">
<style type="text/css">
	.st0{fill:#808285;}
</style>
<g id="Calque_1">
</g>
<g id="Mode_Isolation">
	<g>
		<path class="st0" d="M17.2,42.3V21.1c0-3.4,1.9-6.5,5-7.9c3.1-1.5,6.7-1,9.3,1.2l12.9,10.6c2,1.7,3.2,4.1,3.2,6.8c0,0,0,0,0,0
			c0,2.6-1.2,5.1-3.2,6.8L31.5,49.1c-2.6,2.2-6.2,2.6-9.3,1.2S17.2,45.7,17.2,42.3z M26.9,20c-0.6-0.5-1.2-0.3-1.5-0.2
			c-0.3,0.1-0.8,0.5-0.8,1.3v21.2c0,0.8,0.5,1.2,0.8,1.3s0.9,0.3,1.5-0.2l12.9-10.6c0.5-0.4,0.5-0.9,0.5-1.1l0,0
			c0-0.3-0.1-0.7-0.5-1.1L26.9,20z"/>
	</g>
</g>
</svg>
