<?xml version="1.0" encoding="utf-8"?>
<!-- Generator: Adobe Illustrator 21.0.0, SVG Export Plug-In . SVG Version: 6.00 Build 0)  -->
<svg version="1.1" xmlns="http://www.w3.org/2000/svg" xmlns:xlink="http://www.w3.org/1999/xlink" x="0px" y="0px"
	 viewBox="0 0 64 64" style="enable-background:new 0 0 64 64;" xml:space="preserve">
<style type="text/css">
	.st0{fill:#FFFFFF;}
</style>
<g id="Calque_1">
	<g id="Calque_1_1_">
	</g>
</g>
<g id="Mode_Isolation">
	<g>
		<path class="st0" d="M26.2,12.9L25.1,14c-1,1-2.7,1-3.7,0l-0.8-0.8c-1-1-2.7-1-3.7,0l-2.4,2.4l0,0c-0.5-0.5-1.4-0.5-1.9,0
			l-2.5,2.5c-0.5,0.5-0.5,1.4,0,1.9l0,0l-2.8,2.8c-1,1-1,2.7,0,3.7l5.2,5.2c1,1,2.7,1,3.7,0l2.8-2.8l24.7,24.7
			c0.5,0.5,1.4,0.5,1.9,0l2.5-2.5c0.5-0.5,0.5-1.4,0-1.9L23.5,24.5l7.2-7.2c1-1,1-2.7,0-3.7l-0.8-0.8C28.8,11.9,27.2,11.9,26.2,12.9
			z"/>
		<path class="st0" d="M53.1,27.8l-5.2-4.2L49,17l5-1.9c-3.5-2.1-8.2-1.6-11.1,1.5c-1.9,2.1-2.7,5-2.1,7.6c0.3,1.3-0.1,2.6-1,3.6
			L18.3,49.2c-0.5,0.5-0.5,1.4,0,1.9l2.5,2.5c0.5,0.5,1.4,0.5,1.9,0l21.5-21.5c0.9-0.9,2.2-1.3,3.5-1c2.8,0.6,5.8-0.2,8-2.4
			c0.8-0.8,1.3-1.6,1.8-2.6L53.1,27.8z"/>
	</g>
</g>
</svg>
